<svg width="39" height="43" viewBox="0 0 39 43" fill="none" xmlns="http://www.w3.org/2000/svg">
<path d="M1.8457 0V3.12617H10.9357V7.07836C10.9357 7.3415 10.9876 7.60208 11.0883 7.84519C11.189 8.08829 11.3366 8.30919 11.5226 8.49526C11.7087 8.68132 11.9296 8.8289 12.1727 8.9296C12.4158 9.0303 12.6764 9.08213 12.9395 9.08213H24.6696C24.9327 9.08213 25.1933 9.0303 25.4364 8.9296C25.6795 8.8289 25.9004 8.68132 26.0865 8.49526C26.2726 8.30919 26.4201 8.08829 26.5208 7.84519C26.6215 7.60208 26.6734 7.3415 26.6734 7.07836V3.12617H36.0598V0H1.8457Z" fill="#0D204A"/>
<path d="M4.877 17.5952V21.3103H2.33575V22.8911H4.877V26.705H3.55697C2.6136 26.705 1.70887 26.3303 1.0418 25.6632C0.374743 24.9961 0 24.0914 0 23.148V21.1957C0 20.2523 0.374743 19.3476 1.0418 18.6805C1.70887 18.0134 2.6136 17.6387 3.55697 17.6387L4.877 17.5952Z" fill="#0D204A"/>
<path d="M33.1621 17.5952V21.3103H35.7034V22.8911H33.1621V26.705H34.3478C35.3247 26.705 36.2616 26.3169 36.9523 25.6261C37.6431 24.9354 38.0312 23.9985 38.0312 23.0216V21.2984C38.0312 20.3215 37.6431 19.3846 36.9523 18.6938C36.2616 18.003 35.3247 17.615 34.3478 17.615L33.1621 17.5952Z" fill="#0D204A"/>
<path d="M23.4134 43C27.1522 42.2412 27.6225 39.0913 27.662 38.7395C27.662 38.7395 27.662 38.704 27.662 38.6842V35.5225C27.6628 35.4099 27.7026 35.301 27.7747 35.2145C27.8467 35.128 27.9466 35.0692 28.0572 35.0482C30.9226 34.4712 31.5826 31.4556 31.6616 31.0486C31.6637 31.0196 31.6637 30.9906 31.6616 30.9616V17.6348C31.6616 17.6151 31.6616 17.5953 31.6616 17.5755C31.5984 17.0934 30.7328 11.3429 25.0535 10.5723H12.7425C7.06317 11.3429 6.19764 17.0934 6.13441 17.5755C6.13441 17.5755 6.13441 17.6151 6.13441 17.6348V30.9537C6.13228 30.9827 6.13228 31.0117 6.13441 31.0407C6.21345 31.4359 6.87742 34.4633 9.73881 35.0403C9.84941 35.0613 9.94928 35.1201 10.0214 35.2066C10.0934 35.2931 10.1333 35.4019 10.134 35.5145V38.6763C10.134 38.6763 10.134 38.7119 10.134 38.7316C10.1735 39.0834 10.6439 42.2333 14.3826 42.9921H14.4814H23.3027L23.4134 43Z" fill="#0D204A"/>
<path d="M18.9507 31.8627H25.6062C25.7341 31.8627 25.8567 31.8119 25.9471 31.7214C26.0375 31.631 26.0883 31.5084 26.0883 31.3805V30.1948C26.0881 29.8177 25.9929 29.4466 25.8117 29.1159L25.3216 28.2108C25.2144 28.0137 25.1638 27.7907 25.1754 27.5666V27.5152C25.1858 27.3377 25.2613 27.1702 25.3875 27.0448C25.5136 26.9194 25.6815 26.8449 25.8591 26.8355C27.2582 26.7446 27.6613 25.4048 27.7364 25.0965C27.7405 25.0584 27.7405 25.02 27.7364 24.9819V20.7214C27.7364 16.9115 24.3178 17.1052 24.3178 17.1052C21.5908 17.2553 21.156 19.3421 21.0928 20.2669C21.0838 20.3885 21.029 20.5022 20.9396 20.5851C20.8501 20.668 20.7326 20.7138 20.6106 20.7135H17.2671C17.1455 20.7138 17.0284 20.6678 16.9396 20.5848C16.8508 20.5019 16.7969 20.3882 16.7888 20.2669C16.7256 19.3342 16.2869 17.2474 13.5639 17.1052C13.5639 17.1052 10.1413 16.9115 10.1413 20.7214V24.97C10.1352 25.008 10.1352 25.0467 10.1413 25.0846C10.2164 25.3929 10.6155 26.7327 12.0146 26.8236C12.202 26.8214 12.3829 26.8925 12.5187 27.0217C12.6546 27.1508 12.7346 27.3279 12.7418 27.5152V27.5745C12.75 27.7988 12.6981 28.0212 12.5916 28.2187L12.0897 29.0961C11.9114 29.4279 11.8177 29.7985 11.817 30.1751V31.3607C11.817 31.4886 11.8678 31.6112 11.9582 31.7017C12.0486 31.7921 12.1713 31.8429 12.2992 31.8429L18.9507 31.8627Z" fill="#70B4E3"/>
<path d="M11.9522 33.4435C11.8243 33.4435 11.7017 33.4943 11.6112 33.5847C11.5208 33.6752 11.47 33.7978 11.47 33.9257V38.1467C11.4456 39.0395 11.7764 39.9056 12.39 40.5547C13.0035 41.2038 13.8496 41.5829 14.7424 41.6088H23.1013C23.9941 41.5829 24.8402 41.2038 25.4538 40.5547C26.0673 39.9056 26.3982 39.0395 26.3737 38.1467V33.9099C26.3737 33.782 26.3229 33.6594 26.2325 33.5689C26.1421 33.4785 26.0194 33.4277 25.8916 33.4277L11.9522 33.4435Z" fill="#70B4E3"/>
<path d="M35.056 3.54492V5.78978H34.4434V16.9824H36.6922V5.76605H36.0559V3.54492H35.056Z" fill="#0D204A"/>
<path d="M13.3432 22.6893C14.0591 22.6893 14.6395 22.1089 14.6395 21.393C14.6395 20.6771 14.0591 20.0967 13.3432 20.0967C12.6273 20.0967 12.0469 20.6771 12.0469 21.393C12.0469 22.1089 12.6273 22.6893 13.3432 22.6893Z" fill="#0D204A"/>
<path d="M24.4838 22.6893C25.1998 22.6893 25.7801 22.1089 25.7801 21.393C25.7801 20.6771 25.1998 20.0967 24.4838 20.0967C23.7679 20.0967 23.1875 20.6771 23.1875 21.393C23.1875 22.1089 23.7679 22.6893 24.4838 22.6893Z" fill="#0D204A"/>
<path d="M18.6695 25.4005L18.1636 24.863C18.1334 24.8317 18.0971 24.8068 18.0571 24.7899C18.017 24.7729 17.9739 24.7641 17.9304 24.7642H15.6658C15.5809 24.7642 15.4995 24.7979 15.4395 24.8579C15.3794 24.918 15.3457 24.9994 15.3457 25.0843V25.7167C15.3457 25.8016 15.3794 25.883 15.4395 25.943C15.4995 26.0031 15.5809 26.0368 15.6658 26.0368H17.2862C17.3488 26.0361 17.4101 26.0541 17.4622 26.0886C17.5144 26.1232 17.5549 26.1726 17.5787 26.2304L18.2466 27.8113C18.2712 27.8685 18.312 27.9174 18.364 27.9518C18.4159 27.9862 18.4768 28.0046 18.5391 28.005H19.29C19.3525 28.0057 19.4138 27.9876 19.466 27.9531C19.5181 27.9186 19.5587 27.8692 19.5825 27.8113L20.2504 26.2304C20.275 26.1732 20.3158 26.1244 20.3677 26.09C20.4197 26.0556 20.4805 26.0371 20.5428 26.0368H22.1672C22.209 26.0368 22.2505 26.0285 22.2891 26.0123C22.3277 25.9962 22.3628 25.9726 22.3922 25.9428C22.4216 25.913 22.4448 25.8777 22.4604 25.8389C22.4761 25.8 22.4839 25.7585 22.4834 25.7167V25.0843C22.4839 25.0424 22.4761 25.0009 22.4604 24.9621C22.4448 24.9233 22.4216 24.8879 22.3922 24.8582C22.3628 24.8284 22.3277 24.8048 22.2891 24.7886C22.2505 24.7725 22.209 24.7642 22.1672 24.7642H19.8828C19.8399 24.764 19.7973 24.7727 19.7579 24.7897C19.7185 24.8067 19.6829 24.8316 19.6536 24.863L19.1477 25.4005C19.1173 25.4337 19.0804 25.4602 19.0392 25.4783C18.9981 25.4964 18.9536 25.5058 18.9086 25.5058C18.8636 25.5058 18.8191 25.4964 18.778 25.4783C18.7368 25.4602 18.6999 25.4337 18.6695 25.4005Z" fill="#0D204A"/>
</svg>
