<svg width="158" height="43" viewBox="0 0 158 43" fill="none" xmlns="http://www.w3.org/2000/svg">
<g clip-path="url(#clip0_230_4670)">
<path d="M1.84375 0V3.12617H10.9338V7.07836C10.9338 7.3415 10.9856 7.60208 11.0863 7.84519C11.187 8.08829 11.3346 8.30919 11.5206 8.49526C11.7067 8.68132 11.9276 8.8289 12.1707 8.9296C12.4138 9.0303 12.6744 9.08213 12.9375 9.08213H24.6677C24.9308 9.08213 25.1914 9.0303 25.4345 8.9296C25.6776 8.8289 25.8985 8.68132 26.0846 8.49526C26.2707 8.30919 26.4182 8.08829 26.5189 7.84519C26.6196 7.60208 26.6715 7.3415 26.6715 7.07836V3.12617H36.0578V0H1.84375Z" fill="#405189"/>
<path d="M4.877 17.5952V21.3103H2.33575V22.8911H4.877V26.705H3.55697C2.6136 26.705 1.70887 26.3303 1.0418 25.6632C0.374743 24.9961 0 24.0914 0 23.148V21.1957C0 20.2523 0.374743 19.3476 1.0418 18.6805C1.70887 18.0134 2.6136 17.6387 3.55697 17.6387L4.877 17.5952Z" fill="#405189"/>
<path d="M33.1641 17.5952V21.3103H35.7054V22.8911H33.1641V26.705H34.3498C35.3267 26.705 36.2636 26.3169 36.9544 25.6261C37.6452 24.9354 38.0332 23.9985 38.0332 23.0216V21.2984C38.0332 20.3215 37.6452 19.3846 36.9544 18.6938C36.2636 18.003 35.3267 17.615 34.3498 17.615L33.1641 17.5952Z" fill="#405189"/>
<path d="M23.4134 43C27.1522 42.2412 27.6225 39.0913 27.662 38.7395C27.662 38.7395 27.662 38.704 27.662 38.6842V35.5225C27.6628 35.4099 27.7026 35.301 27.7747 35.2145C27.8468 35.128 27.9466 35.0692 28.0572 35.0482C30.9226 34.4712 31.5826 31.4556 31.6616 31.0486C31.6638 31.0196 31.6638 30.9906 31.6616 30.9616V17.6348C31.6616 17.6151 31.6616 17.5953 31.6616 17.5755C31.5984 17.0934 30.7329 11.3429 25.0536 10.5723H12.7425C7.06318 11.3429 6.19765 17.0934 6.13441 17.5755C6.13441 17.5755 6.13441 17.6151 6.13441 17.6348V30.9537C6.13228 30.9827 6.13228 31.0117 6.13441 31.0407C6.21345 31.4359 6.87742 34.4633 9.73881 35.0403C9.84941 35.0613 9.94928 35.1201 10.0214 35.2066C10.0935 35.2931 10.1333 35.4019 10.134 35.5145V38.6763C10.134 38.6763 10.134 38.7119 10.134 38.7316C10.1736 39.0834 10.6439 42.2333 14.3826 42.9921H14.4814H23.3027L23.4134 43Z" fill="#405189"/>
<path d="M18.9507 31.8627H25.6062C25.7341 31.8627 25.8567 31.8119 25.9471 31.7214C26.0375 31.631 26.0883 31.5084 26.0883 31.3805V30.1948C26.0881 29.8177 25.9929 29.4466 25.8117 29.1159L25.3216 28.2108C25.2144 28.0137 25.1638 27.7907 25.1754 27.5666V27.5152C25.1858 27.3377 25.2613 27.1702 25.3875 27.0448C25.5136 26.9194 25.6815 26.8449 25.8591 26.8355C27.2582 26.7446 27.6613 25.4048 27.7364 25.0965C27.7405 25.0584 27.7405 25.02 27.7364 24.9819V20.7214C27.7364 16.9115 24.3178 17.1052 24.3178 17.1052C21.5908 17.2553 21.156 19.3421 21.0928 20.2669C21.0838 20.3885 21.029 20.5022 20.9396 20.5851C20.8501 20.668 20.7326 20.7138 20.6106 20.7135H17.2671C17.1455 20.7138 17.0284 20.6678 16.9396 20.5848C16.8508 20.5019 16.7969 20.3882 16.7888 20.2669C16.7256 19.3342 16.2869 17.2474 13.5639 17.1052C13.5639 17.1052 10.1413 16.9115 10.1413 20.7214V24.97C10.1352 25.008 10.1352 25.0467 10.1413 25.0846C10.2164 25.3929 10.6155 26.7327 12.0146 26.8236C12.202 26.8214 12.3829 26.8925 12.5187 27.0217C12.6546 27.1508 12.7346 27.3279 12.7418 27.5152V27.5745C12.75 27.7988 12.6981 28.0212 12.5916 28.2187L12.0897 29.0961C11.9114 29.4279 11.8177 29.7985 11.817 30.1751V31.3607C11.817 31.4886 11.8678 31.6112 11.9582 31.7017C12.0486 31.7921 12.1713 31.8429 12.2992 31.8429L18.9507 31.8627Z" fill="white"/>
<path d="M11.9522 33.4435C11.8243 33.4435 11.7016 33.4943 11.6112 33.5847C11.5208 33.6752 11.47 33.7978 11.47 33.9257V38.1467C11.4455 39.0395 11.7764 39.9056 12.3899 40.5547C13.0035 41.2038 13.8496 41.5829 14.7424 41.6088H23.1013C23.9941 41.5829 24.8402 41.2038 25.4537 40.5547C26.0673 39.9056 26.3981 39.0395 26.3737 38.1467V33.9099C26.3737 33.782 26.3229 33.6594 26.2325 33.5689C26.142 33.4785 26.0194 33.4277 25.8915 33.4277L11.9522 33.4435Z" fill="white"/>
<path d="M35.0579 3.54517V5.79002H34.4453V16.9826H36.6941V5.7663H36.0578V3.54517H35.0579Z" fill="#405189"/>
<path d="M13.3433 22.6893C14.0592 22.6893 14.6396 22.1089 14.6396 21.393C14.6396 20.6771 14.0592 20.0967 13.3433 20.0967C12.6273 20.0967 12.0469 20.6771 12.0469 21.393C12.0469 22.1089 12.6273 22.6893 13.3433 22.6893Z" fill="#405189"/>
<path d="M24.4838 22.6893C25.1998 22.6893 25.7801 22.1089 25.7801 21.393C25.7801 20.6771 25.1998 20.0967 24.4838 20.0967C23.7679 20.0967 23.1875 20.6771 23.1875 21.393C23.1875 22.1089 23.7679 22.6893 24.4838 22.6893Z" fill="#405189"/>
<path d="M18.6715 25.4007L18.1656 24.8632C18.1354 24.8319 18.0992 24.8071 18.0591 24.7901C18.0191 24.7731 17.976 24.7644 17.9325 24.7644H15.6679C15.583 24.7644 15.5015 24.7981 15.4415 24.8582C15.3815 24.9182 15.3477 24.9996 15.3477 25.0845V25.7169C15.3477 25.8018 15.3815 25.8832 15.4415 25.9433C15.5015 26.0033 15.583 26.037 15.6679 26.037H17.2883C17.3508 26.0363 17.4121 26.0544 17.4643 26.0889C17.5164 26.1234 17.557 26.1728 17.5807 26.2307L18.2486 27.8116C18.2733 27.8688 18.314 27.9176 18.366 27.952C18.4179 27.9864 18.4788 28.0049 18.5411 28.0052H19.292C19.3546 28.0059 19.4159 27.9879 19.468 27.9533C19.5202 27.9188 19.5607 27.8694 19.5845 27.8116L20.2524 26.2307C20.277 26.1734 20.3178 26.1246 20.3697 26.0902C20.4217 26.0558 20.4826 26.0373 20.5449 26.037H22.1692C22.2111 26.037 22.2525 26.0287 22.2911 26.0126C22.3298 25.9965 22.3648 25.9728 22.3942 25.943C22.4236 25.9132 22.4468 25.8779 22.4625 25.8391C22.4781 25.8003 22.4859 25.7588 22.4854 25.7169V25.0845C22.4859 25.0427 22.4781 25.0011 22.4625 24.9623C22.4468 24.9235 22.4236 24.8882 22.3942 24.8584C22.3648 24.8286 22.3298 24.805 22.2911 24.7889C22.2525 24.7727 22.2111 24.7644 22.1692 24.7644H19.8849C19.8419 24.7642 19.7994 24.7729 19.7599 24.7899C19.7205 24.8069 19.685 24.8319 19.6556 24.8632L19.1497 25.4007C19.1194 25.4339 19.0824 25.4604 19.0413 25.4785C19.0001 25.4967 18.9556 25.506 18.9106 25.506C18.8657 25.506 18.8212 25.4967 18.78 25.4785C18.7388 25.4604 18.7019 25.4339 18.6715 25.4007Z" fill="#405189"/>
<path d="M42.5312 16.8877L45.6931 3.36328H48.5149L51.5186 16.8877H48.8232L48.3687 14.5164H45.6535L45.2386 16.8877H42.5312ZM46.1318 12.4138H47.9182C47.7337 11.4679 47.5677 10.4785 47.4202 9.44571C47.2727 8.41287 47.1409 7.32205 47.025 6.17328C46.8906 7.18504 46.7444 8.21261 46.5942 9.25203C46.444 10.2915 46.3017 11.3467 46.1318 12.4138Z" fill="#405189"/>
<path d="M52.0694 16.4172V13.6111C52.3631 13.8795 52.6947 14.1032 53.0535 14.2751C53.3639 14.421 53.7024 14.4979 54.0455 14.5004C54.4383 14.5213 54.8243 14.3912 55.1244 14.1368C55.2567 14.0112 55.3604 13.8588 55.4286 13.6896C55.4968 13.5205 55.5278 13.3387 55.5196 13.1566C55.5196 12.6428 55.1679 12.0856 54.4565 11.4888C54.2589 11.3228 54.1087 11.1924 54.0099 11.0936C53.3308 10.5319 52.7545 9.85658 52.3065 9.09771C51.9909 8.47762 51.8321 7.78962 51.8441 7.09395C51.7967 6.05864 52.1506 5.04496 52.8321 4.26416C53.1575 3.90788 53.5565 3.6268 54.0015 3.44046C54.4466 3.25413 54.9268 3.16702 55.409 3.18522C55.7877 3.18392 56.1646 3.23851 56.5274 3.34725C56.9329 3.47082 57.3227 3.64057 57.6894 3.85315V6.22446C57.3385 6.05519 56.9783 5.90607 56.6104 5.77786C56.3855 5.69811 56.1495 5.6541 55.9109 5.64743C55.7353 5.64111 55.5602 5.67004 55.3959 5.73249C55.2316 5.79494 55.0815 5.88966 54.9545 6.01105C54.8311 6.13773 54.7349 6.28823 54.6717 6.45336C54.6085 6.61848 54.5797 6.79477 54.5869 6.97143C54.585 7.31395 54.681 7.64987 54.8636 7.9397C55.2356 8.43725 55.6714 8.88375 56.1599 9.26765C56.8554 9.80402 57.4485 10.4614 57.9107 11.2082C58.1876 11.7916 58.323 12.432 58.3059 13.0775C58.3351 13.6078 58.2582 14.1385 58.0798 14.6387C57.9013 15.1388 57.6248 15.5984 57.2665 15.9903C56.8921 16.3546 56.4463 16.6375 55.9573 16.8211C55.4683 17.0047 54.9465 17.0852 54.4249 17.0574C53.9997 17.0612 53.5759 17.0094 53.1641 16.9033C52.7758 16.8001 52.4063 16.636 52.0694 16.4172Z" fill="#405189"/>
<path d="M59.3504 16.4173V13.6112C59.649 13.8809 59.986 14.1046 60.3504 14.2752C60.6608 14.4212 60.9993 14.498 61.3424 14.5005C61.7354 14.5226 62.1219 14.3924 62.4213 14.1369C62.5536 14.0113 62.6573 13.8589 62.7255 13.6898C62.7937 13.5207 62.8247 13.3389 62.8165 13.1567C62.8165 12.6429 62.4608 12.087 61.7494 11.4889C61.5518 11.3229 61.4056 11.1925 61.3068 11.0937C60.6256 10.5331 60.0478 9.85763 59.5994 9.09783C59.2839 8.47774 59.1251 7.78974 59.137 7.09406C59.0896 6.05875 59.4436 5.04507 60.1251 4.26428C60.4507 3.90842 60.8499 3.62763 61.2948 3.44132C61.7397 3.25502 62.2199 3.16767 62.7019 3.18534C63.0807 3.18403 63.4576 3.23862 63.8204 3.34737C64.2258 3.47094 64.6157 3.64069 64.9823 3.85326V6.22457C64.6233 6.04555 64.2538 5.88849 63.8757 5.75426C63.651 5.67381 63.4148 5.62977 63.1762 5.62383C63.0011 5.61737 62.8266 5.64625 62.6629 5.70872C62.4993 5.77119 62.3499 5.86599 62.2237 5.98745C62.0989 6.11324 62.0014 6.26349 61.9375 6.42877C61.8736 6.59405 61.8445 6.77078 61.8522 6.94783C61.8503 7.29036 61.9463 7.62627 62.1288 7.9161C62.5009 8.41366 62.9367 8.86015 63.4252 9.24405C64.1217 9.77927 64.715 10.4368 65.176 11.1846C65.4529 11.768 65.5883 12.4084 65.5712 13.0539C65.5997 13.5844 65.522 14.1153 65.3429 14.6154C65.1637 15.1156 64.8866 15.575 64.5278 15.9667C64.1539 16.3305 63.7088 16.6131 63.2205 16.7967C62.7321 16.9803 62.2111 17.061 61.6902 17.0338C61.2637 17.0379 60.8385 16.9861 60.4254 16.8797C60.0454 16.782 59.6828 16.626 59.3504 16.4173Z" fill="#405189"/>
<path d="M67.0469 16.8877V3.36328H72.7341V5.865H69.6514V8.59993H72.4377V11.0819H69.6514V14.2437H72.7262V16.8837L67.0469 16.8877Z" fill="#405189"/>
<path d="M74.1434 16.4173V13.6112C74.4419 13.8809 74.7789 14.1046 75.1433 14.2752C75.4538 14.4212 75.7922 14.498 76.1353 14.5005C76.5282 14.5218 76.9144 14.3917 77.2142 14.1369C77.3465 14.0113 77.4502 13.8589 77.5184 13.6898C77.5866 13.5207 77.6176 13.3389 77.6094 13.1567C77.6094 12.6429 77.2537 12.087 76.5423 11.4889C76.3447 11.3229 76.1946 11.1925 76.0957 11.0937C75.4167 10.532 74.8403 9.8567 74.3924 9.09783C74.0768 8.47774 73.918 7.78974 73.93 7.09406C73.8825 6.05875 74.2365 5.04507 74.918 4.26428C75.2437 3.90842 75.6428 3.62763 76.0877 3.44132C76.5327 3.25502 77.0128 3.16767 77.4948 3.18534C77.8736 3.18403 78.2505 3.23862 78.6133 3.34737C79.0187 3.47094 79.4086 3.64069 79.7752 3.85326V6.22457C79.4162 6.04555 79.0467 5.88849 78.6686 5.75426C78.4437 5.67451 78.2077 5.6305 77.9691 5.62383C77.794 5.61715 77.6194 5.64592 77.4557 5.70841C77.292 5.77089 77.1427 5.8658 77.0166 5.98745C76.8918 6.11324 76.7943 6.26349 76.7304 6.42877C76.6665 6.59405 76.6374 6.77078 76.6451 6.94783C76.6432 7.29036 76.7392 7.62627 76.9218 7.9161C77.2938 8.41366 77.7296 8.86015 78.2181 9.24405C78.9146 9.77927 79.5079 10.4368 79.9689 11.1846C80.2458 11.768 80.3812 12.4084 80.3641 13.0539C80.3926 13.5844 80.315 14.1153 80.1358 14.6154C79.9566 15.1156 79.6796 15.575 79.3207 15.9667C78.9468 16.3305 78.5017 16.6131 78.0134 16.7967C77.5251 16.9803 77.0041 17.061 76.4831 17.0338C76.0566 17.0379 75.6314 16.9861 75.2184 16.8797C74.8383 16.782 74.4757 16.626 74.1434 16.4173Z" fill="#405189"/>
<path d="M81.4247 16.4173V13.6113C81.7232 13.881 82.0602 14.1047 82.4246 14.2753C82.735 14.4212 83.0735 14.4981 83.4166 14.5005C83.8096 14.5227 84.1961 14.3925 84.4955 14.1369C84.6284 14.0119 84.7325 13.8595 84.8008 13.6903C84.869 13.5211 84.8997 13.339 84.8907 13.1568C84.8907 12.643 84.535 12.0871 83.8236 11.489C83.626 11.323 83.4798 11.1926 83.381 11.0938C82.7009 10.532 82.1233 9.85676 81.6736 9.0979C81.3581 8.47781 81.1993 7.78981 81.2112 7.09414C81.1638 6.05883 81.5178 5.04515 82.1993 4.26436C82.5255 3.90819 82.9253 3.62722 83.371 3.44092C83.8166 3.25461 84.2974 3.16744 84.7801 3.18541C85.1575 3.18438 85.5331 3.23897 85.8946 3.34744C86.3 3.47101 86.6899 3.64076 87.0565 3.85334V6.22465C86.6975 6.04563 86.328 5.88857 85.9499 5.75434C85.7252 5.67388 85.489 5.62985 85.2504 5.62391C85.0753 5.61745 84.9008 5.64633 84.7371 5.7088C84.5735 5.77127 84.4241 5.86607 84.2979 5.98753C84.1731 6.11332 84.0756 6.26357 84.0117 6.42885C83.9478 6.59413 83.9187 6.77086 83.9264 6.94791C83.9245 7.29043 84.0205 7.62635 84.2031 7.91618C84.5762 8.41274 85.0119 8.85909 85.4994 9.24413C86.1959 9.77935 86.7892 10.4369 87.2502 11.1846C87.5271 11.768 87.6625 12.4085 87.6454 13.054C87.6739 13.5845 87.5963 14.1154 87.4171 14.6155C87.2379 15.1156 86.9609 15.575 86.602 15.9668C86.2281 16.3306 85.783 16.6131 85.2947 16.7968C84.8064 16.9804 84.2854 17.0611 83.7644 17.0339C83.3379 17.0377 82.9127 16.9859 82.4997 16.8798C82.1196 16.782 81.757 16.626 81.4247 16.4173Z" fill="#405189"/>
<path d="M88.4531 16.8877L89.7771 3.36328H93.2511L93.9545 8.5446C94.0599 9.33504 94.1482 10.0873 94.2193 10.8013C94.2905 11.5206 94.3458 12.2201 94.3893 12.896C94.5039 11.7103 94.5948 10.7657 94.6738 10.0781C94.7529 9.39037 94.8122 8.89239 94.8636 8.5446L95.733 3.38304H99.1714L100.31 16.9074H97.5787L97.2902 10.6274L97.2625 9.95949C97.1835 8.31933 97.14 6.97162 97.14 5.92429L95.3813 16.9074H93.4289L91.769 5.84129C91.769 6.76215 91.7137 8.07428 91.603 9.79348C91.5793 10.1887 91.5595 10.4733 91.5477 10.6669L91.1287 16.9074L88.4531 16.8877Z" fill="#405189"/>
<path d="M101.773 16.8877V3.36328H107.46V5.865H104.385V8.59993H107.176V11.0819H104.385V14.2437H107.46V16.8837L101.773 16.8877Z" fill="#405189"/>
<path d="M109.285 16.8877V3.36328H112.02L114.751 10.6472C114.83 10.8803 114.945 11.24 115.091 11.7261C115.237 12.2122 115.399 12.7774 115.585 13.4335C115.443 12.477 115.337 11.5983 115.269 10.7974C115.202 10.0069 115.166 9.25203 115.166 8.5604V3.36328H117.668V16.8877H115.166L112.202 9.33504C112.154 9.22438 112.024 8.76593 111.807 7.95573L111.573 7.08624C111.637 7.61188 111.684 8.20075 111.716 8.86077C111.747 9.52078 111.759 10.3033 111.759 11.2321V16.9193L109.285 16.8877Z" fill="#405189"/>
<path d="M121.067 16.8877V5.865H119.004V3.36328H125.85V5.865H123.798V16.8877H121.067Z" fill="#405189"/>
<path d="M127.184 16.8877V3.36328H129.99C131.478 3.36328 132.584 3.68605 133.306 4.33157C134.029 4.97973 134.392 5.96382 134.392 7.29176C134.424 7.82891 134.348 8.367 134.168 8.87413C133.988 9.38126 133.708 9.8471 133.345 10.244C132.953 10.6093 132.49 10.8909 131.985 11.0716C131.48 11.2523 130.944 11.3285 130.409 11.2953H130.041C129.958 11.2953 129.879 11.2953 129.808 11.2953V16.9074L127.184 16.8877ZM129.796 9.22832H129.942H130.085C130.326 9.24484 130.569 9.20891 130.795 9.12295C131.022 9.037 131.227 8.90305 131.397 8.73034C131.718 8.32872 131.878 7.82101 131.843 7.30756C131.885 6.79766 131.733 6.29071 131.416 5.88874C131.239 5.72303 131.029 5.59654 130.799 5.51754C130.57 5.43855 130.326 5.40881 130.085 5.43027C130.037 5.42712 129.99 5.42712 129.942 5.43027C129.894 5.43335 129.845 5.43335 129.796 5.43027V9.22832Z" fill="#405189"/>
<path d="M134 16.8877L137.162 3.36328H139.988L142.987 16.8877H140.28L139.826 14.5164H137.114L136.695 16.8877H134ZM137.604 12.4138H139.403C139.216 11.4679 139.048 10.4785 138.901 9.44571C138.753 8.41287 138.621 7.32205 138.506 6.17328C138.366 7.18504 138.222 8.21129 138.075 9.25203C137.927 10.2928 137.77 11.3467 137.604 12.4138Z" fill="#405189"/>
<path d="M143.561 16.4173V13.6113C143.861 13.8801 144.197 14.1038 144.561 14.2753C144.872 14.4212 145.21 14.4981 145.553 14.5005C145.946 14.5227 146.333 14.3925 146.632 14.1369C146.765 14.0119 146.869 13.8595 146.938 13.6903C147.006 13.5211 147.036 13.339 147.027 13.1568C147.027 12.643 146.672 12.0871 145.96 11.489C145.763 11.323 145.617 11.1926 145.518 11.0938C144.838 10.5332 144.261 9.85767 143.814 9.0979C143.496 8.47884 143.335 7.79035 143.348 7.09414C143.302 6.05907 143.656 5.04598 144.336 4.26435C144.662 3.90819 145.062 3.62722 145.508 3.44092C145.953 3.25461 146.434 3.16744 146.917 3.18541C147.294 3.18438 147.67 3.23897 148.031 3.34744C148.437 3.47101 148.827 3.64076 149.193 3.85334V6.22465C148.835 6.04493 148.465 5.88785 148.087 5.75434C147.862 5.67388 147.626 5.62985 147.387 5.62391C147.212 5.61745 147.038 5.64633 146.874 5.7088C146.71 5.77127 146.561 5.86607 146.435 5.98753C146.31 6.11332 146.212 6.26357 146.148 6.42885C146.085 6.59412 146.055 6.77086 146.063 6.94791C146.063 7.29016 146.159 7.62555 146.34 7.91618C146.714 8.41354 147.151 8.85998 147.64 9.24413C148.334 9.7817 148.927 10.4388 149.391 11.1846C149.666 11.7687 149.801 12.4087 149.786 13.054C149.815 13.5845 149.737 14.1154 149.558 14.6155C149.379 15.1156 149.102 15.575 148.743 15.9668C148.369 16.331 147.924 16.6138 147.436 16.7974C146.947 16.9811 146.426 17.0616 145.905 17.0339C145.479 17.0377 145.053 16.9859 144.64 16.8798C144.259 16.7824 143.895 16.6264 143.561 16.4173Z" fill="#405189"/>
<path d="M150.824 16.4173V13.6112C151.121 13.8817 151.459 14.1056 151.823 14.2752C152.132 14.4217 152.47 14.4986 152.811 14.5005C153.204 14.5226 153.591 14.3924 153.89 14.1369C154.023 14.0118 154.127 13.8594 154.196 13.6902C154.264 13.521 154.295 13.339 154.286 13.1567C154.286 12.6429 153.931 12.087 153.222 11.4889C153.025 11.3229 152.875 11.1925 152.776 11.0937C152.097 10.532 151.52 9.85671 151.072 9.09784C150.757 8.47775 150.598 7.78975 150.61 7.09407C150.563 6.05954 150.916 5.04651 151.594 4.26429C151.921 3.90834 152.32 3.62753 152.766 3.44124C153.212 3.25495 153.692 3.16764 154.175 3.18535C154.552 3.18432 154.928 3.23891 155.289 3.34738C155.703 3.47033 156.1 3.64007 156.475 3.85327V6.22459C156.115 6.0454 155.744 5.88834 155.365 5.75427C155.14 5.67382 154.904 5.62978 154.665 5.62384C154.486 5.61164 154.306 5.63789 154.138 5.70084C153.969 5.7638 153.816 5.86201 153.689 5.98889C153.562 6.11576 153.463 6.26836 153.4 6.43648C153.336 6.60459 153.31 6.78433 153.321 6.96364C153.321 7.30653 153.418 7.64244 153.602 7.93194C153.974 8.42949 154.41 8.87596 154.898 9.25987C155.593 9.79743 156.185 10.4546 156.649 11.2004C156.924 11.7844 157.059 12.4244 157.044 13.0698C157.072 13.5999 156.995 14.1304 156.817 14.6304C156.638 15.1303 156.362 15.59 156.005 15.9825C155.63 16.3464 155.184 16.629 154.695 16.8126C154.206 16.9963 153.685 17.0769 153.163 17.0496C152.737 17.0532 152.312 17.0014 151.898 16.8955C151.517 16.7932 151.155 16.6318 150.824 16.4173Z" fill="#405189"/>
<path d="M42.5312 38.5812V25.0608H48.2185V27.5625H45.1516V30.2816H47.9182V32.7636H45.1516V35.9254H48.2264V38.5812H42.5312Z" fill="#405189"/>
<path d="M50.043 38.5812V25.0608H52.355C54.4444 25.0608 56.0029 25.6194 57.0305 26.7365C58.058 27.8537 58.5718 29.5518 58.5718 31.8309C58.6051 33.0052 58.4132 34.175 58.0066 35.2772C57.6403 36.1917 57.0273 36.9866 56.2361 37.5734C55.7582 37.9442 55.2094 38.2132 54.6236 38.3639C53.7847 38.5421 52.9277 38.6204 52.0705 38.597L50.043 38.5812ZM52.7107 36.0795H52.9202C53.348 36.1015 53.7743 36.0139 54.1589 35.8251C54.5434 35.6363 54.8734 35.3525 55.1176 35.0006C55.6235 34.2813 55.8764 33.2339 55.8764 31.8665C55.8764 30.3963 55.6314 29.3015 55.1413 28.5901C54.8881 28.2335 54.5477 27.9478 54.1526 27.7603C53.7575 27.5728 53.321 27.4897 52.8846 27.5191H52.7107V36.0795Z" fill="#405189"/>
<path d="M68.6132 25.0608V33.5541C68.6281 34.2918 68.5964 35.0296 68.5184 35.7633C68.4761 36.1371 68.3733 36.5015 68.2141 36.8423C67.9109 37.4662 67.411 37.9731 66.7913 38.2848C66.0392 38.6216 65.2198 38.7811 64.3963 38.7512C63.5703 38.7802 62.7485 38.6207 61.9933 38.2848C61.3721 37.9753 60.8715 37.4677 60.5705 36.8423C60.4073 36.4983 60.3018 36.1298 60.2583 35.7515C60.1808 35.0217 60.1491 34.2878 60.1635 33.5541V25.0608H62.8589V33.7556C62.8589 34.8622 62.9722 35.5736 63.1987 35.8898C63.523 36.1993 63.954 36.372 64.4022 36.372C64.8504 36.372 65.2814 36.1993 65.6056 35.8898C65.827 35.5657 65.9337 34.8583 65.9337 33.7635V25.0687L68.6132 25.0608Z" fill="#405189"/>
<path d="M77.6172 38.4349C77.3621 38.5396 77.0974 38.619 76.8268 38.672C76.5664 38.7237 76.3017 38.7502 76.0363 38.7511C75.2401 38.775 74.4487 38.6181 73.7218 38.2923C72.9948 37.9665 72.3511 37.4801 71.8391 36.8698C70.7588 35.6183 70.22 33.9755 70.2227 31.9415C70.2227 29.8336 70.7496 28.1302 71.8035 26.8313C72.2908 26.2062 72.918 25.7043 73.6346 25.3659C74.3513 25.0274 75.1374 24.862 75.9296 24.8829C76.2278 24.8819 76.5255 24.9083 76.8189 24.9619C77.0904 25.0147 77.3555 25.0969 77.6093 25.2069V27.7363C77.3653 27.6369 77.1126 27.5602 76.8544 27.5071C76.6179 27.4571 76.3769 27.432 76.1351 27.432C75.6991 27.4279 75.2691 27.5345 74.8855 27.7419C74.5018 27.9492 74.1771 28.2506 73.9417 28.6177C73.3396 29.5588 73.0441 30.6634 73.0959 31.7794C73.0468 32.8713 73.3518 33.9498 73.9654 34.8542C74.209 35.2207 74.5399 35.521 74.9283 35.7279C75.3167 35.9349 75.7504 36.0421 76.1905 36.0399C76.4263 36.0397 76.6613 36.0105 76.89 35.9529C77.1362 35.8948 77.3769 35.8155 77.6093 35.7158L77.6172 38.4349Z" fill="#405189"/>
<path d="M78.1562 38.5815L81.318 25.0571H84.1438L87.1317 38.5815H84.4363L83.9818 36.2102H81.2666L80.8516 38.5815H78.1562ZM81.7607 34.1076H83.5549C83.3692 33.1631 83.2032 32.1711 83.057 31.1395C82.9107 30.108 82.7765 29.0133 82.6618 27.8632C82.5275 28.8749 82.3838 29.9012 82.231 30.9419C82.0847 31.9893 81.9267 33.0484 81.7607 34.1116V34.1076Z" fill="#405189"/>
<path d="M88.8717 38.5812V27.5625H86.8047V25.0608H93.6499V27.5625H91.5829V38.5812H88.8717Z" fill="#405189"/>
<path d="M95.0977 38.5812V25.0608H97.8642V38.5812H95.0977Z" fill="#405189"/>
<path d="M109.176 32.0166C109.176 34.0796 108.744 35.7171 107.88 36.9291C107.504 37.5004 106.989 37.9672 106.384 38.2857C105.778 38.6043 105.102 38.7644 104.418 38.7511C103.727 38.7744 103.042 38.618 102.43 38.2972C101.817 37.9765 101.299 37.5024 100.924 36.9212C100.089 35.7013 99.6732 34.0045 99.6758 31.8308C99.6785 29.6571 100.1 27.9577 100.94 26.7325C101.325 26.1599 101.845 25.6914 102.455 25.3687C103.065 25.046 103.745 24.8792 104.434 24.8831C105.124 24.887 105.802 25.0615 106.408 25.3911C107.014 25.7207 107.53 26.1951 107.908 26.772C108.753 28.0341 109.176 29.7823 109.176 32.0166ZM104.434 36.1742C104.772 36.175 105.102 36.0715 105.38 35.8777C105.657 35.6839 105.868 35.4093 105.983 35.0914C106.326 34.3694 106.497 33.2826 106.497 31.8308C106.497 30.379 106.326 29.2856 105.983 28.5505C105.866 28.234 105.655 27.961 105.378 27.7682C105.101 27.5754 104.771 27.472 104.434 27.472C104.096 27.472 103.767 27.5754 103.49 27.7682C103.213 27.961 103.002 28.234 102.885 28.5505C102.545 29.2698 102.375 30.3645 102.375 31.8347C102.375 33.305 102.545 34.3945 102.885 35.1032C103 35.4133 103.206 35.6814 103.476 35.8725C103.746 36.0636 104.067 36.1687 104.398 36.1742H104.434Z" fill="#405189"/>
<path d="M110.824 38.5812V25.0608H113.559L116.29 32.3407C116.369 32.5739 116.484 32.9336 116.63 33.4197C116.776 33.9058 116.939 34.4749 117.124 35.131C116.982 34.1719 116.877 33.2932 116.808 32.4949C116.741 31.7044 116.705 30.9496 116.705 30.2579V25.0608H119.207V38.5812H116.705L113.741 31.0128C113.694 30.9021 113.563 30.4397 113.346 29.6335C113.247 29.262 113.172 28.9695 113.113 28.7601C113.176 29.2857 113.223 29.8785 113.255 30.5346C113.287 31.1907 113.299 31.9771 113.299 32.9059V38.5812H110.824Z" fill="#405189"/>
</g>
<defs>
<clipPath id="clip0_230_4670">
<rect width="158" height="43" fill="white"/>
</clipPath>
</defs>
</svg>
