<svg width="39" height="43" viewBox="0 0 39 43" fill="none" xmlns="http://www.w3.org/2000/svg">
<g clip-path="url(#clip0_230_4715)">
<path d="M1.84375 0V3.12617H10.9338V7.07836C10.9338 7.3415 10.9856 7.60208 11.0863 7.84519C11.187 8.08829 11.3346 8.30919 11.5206 8.49526C11.7067 8.68132 11.9276 8.8289 12.1707 8.9296C12.4138 9.0303 12.6744 9.08213 12.9375 9.08213H24.6677C24.9308 9.08213 25.1914 9.0303 25.4345 8.9296C25.6776 8.8289 25.8985 8.68132 26.0846 8.49526C26.2707 8.30919 26.4182 8.08829 26.5189 7.84519C26.6196 7.60208 26.6715 7.3415 26.6715 7.07836V3.12617H36.0578V0H1.84375Z" fill="white"/>
<path d="M4.877 17.5952V21.3103H2.33575V22.8911H4.877V26.705H3.55697C2.6136 26.705 1.70887 26.3303 1.0418 25.6632C0.374743 24.9961 0 24.0914 0 23.148V21.1957C0 20.2523 0.374743 19.3476 1.0418 18.6805C1.70887 18.0134 2.6136 17.6387 3.55697 17.6387L4.877 17.5952Z" fill="white"/>
<path d="M33.1641 17.5952V21.3103H35.7053V22.8911H33.1641V26.705H34.3497C35.3267 26.705 36.2635 26.3169 36.9543 25.6261C37.6451 24.9354 38.0332 23.9985 38.0332 23.0216V21.2984C38.0332 20.3215 37.6451 19.3846 36.9543 18.6938C36.2635 18.003 35.3267 17.615 34.3497 17.615L33.1641 17.5952Z" fill="white"/>
<path d="M23.4134 43C27.1522 42.2412 27.6225 39.0913 27.662 38.7395C27.662 38.7395 27.662 38.704 27.662 38.6842V35.5225C27.6628 35.4099 27.7026 35.301 27.7747 35.2145C27.8468 35.128 27.9466 35.0692 28.0572 35.0482C30.9226 34.4712 31.5826 31.4556 31.6616 31.0486C31.6638 31.0196 31.6638 30.9906 31.6616 30.9616V17.6348C31.6616 17.6151 31.6616 17.5953 31.6616 17.5755C31.5984 17.0934 30.7329 11.3429 25.0536 10.5723H12.7425C7.06318 11.3429 6.19765 17.0934 6.13441 17.5755C6.13441 17.5755 6.13441 17.6151 6.13441 17.6348V30.9537C6.13228 30.9827 6.13228 31.0117 6.13441 31.0407C6.21345 31.4359 6.87742 34.4633 9.73881 35.0403C9.84941 35.0613 9.94928 35.1201 10.0214 35.2066C10.0935 35.2931 10.1333 35.4019 10.134 35.5145V38.6763C10.134 38.6763 10.134 38.7119 10.134 38.7316C10.1736 39.0834 10.6439 42.2333 14.3826 42.9921H14.4814H23.3027L23.4134 43Z" fill="white"/>
<path d="M18.9507 31.8627H25.6062C25.7341 31.8627 25.8567 31.8119 25.9471 31.7214C26.0375 31.631 26.0883 31.5084 26.0883 31.3805V30.1948C26.0881 29.8177 25.9929 29.4466 25.8117 29.1159L25.3216 28.2108C25.2144 28.0137 25.1638 27.7907 25.1754 27.5666V27.5152C25.1858 27.3377 25.2613 27.1702 25.3875 27.0448C25.5136 26.9194 25.6815 26.8449 25.8591 26.8355C27.2582 26.7446 27.6613 25.4048 27.7364 25.0965C27.7405 25.0584 27.7405 25.02 27.7364 24.9819V20.7214C27.7364 16.9115 24.3178 17.1052 24.3178 17.1052C21.5908 17.2553 21.156 19.3421 21.0928 20.2669C21.0838 20.3885 21.029 20.5022 20.9396 20.5851C20.8501 20.668 20.7326 20.7138 20.6106 20.7135H17.2671C17.1455 20.7138 17.0284 20.6678 16.9396 20.5848C16.8508 20.5019 16.7969 20.3882 16.7888 20.2669C16.7256 19.3342 16.2869 17.2474 13.5639 17.1052C13.5639 17.1052 10.1413 16.9115 10.1413 20.7214V24.97C10.1352 25.008 10.1352 25.0467 10.1413 25.0846C10.2164 25.3929 10.6155 26.7327 12.0146 26.8236C12.202 26.8214 12.3829 26.8925 12.5187 27.0217C12.6546 27.1508 12.7346 27.3279 12.7418 27.5152V27.5745C12.75 27.7988 12.6981 28.0212 12.5916 28.2187L12.0897 29.0961C11.9114 29.4279 11.8177 29.7985 11.817 30.1751V31.3607C11.817 31.4886 11.8678 31.6112 11.9582 31.7017C12.0486 31.7921 12.1713 31.8429 12.2992 31.8429L18.9507 31.8627Z" fill="#405189"/>
<path d="M11.9522 33.4435C11.8243 33.4435 11.7017 33.4943 11.6113 33.5847C11.5208 33.6752 11.47 33.7978 11.47 33.9257V38.1467C11.4456 39.0395 11.7765 39.9056 12.39 40.5547C13.0036 41.2038 13.8496 41.5829 14.7425 41.6088H23.1013C23.9942 41.5829 24.8402 41.2038 25.4538 40.5547C26.0673 39.9056 26.3982 39.0395 26.3737 38.1467V33.9099C26.3737 33.782 26.3229 33.6594 26.2325 33.5689C26.1421 33.4785 26.0195 33.4277 25.8916 33.4277L11.9522 33.4435Z" fill="#405189"/>
<path d="M35.0579 3.54517V5.79002H34.4453V16.9826H36.6941V5.7663H36.0578V3.54517H35.0579Z" fill="white"/>
<path d="M13.3432 22.6893C14.0592 22.6893 14.6395 22.1089 14.6395 21.393C14.6395 20.6771 14.0592 20.0967 13.3432 20.0967C12.6273 20.0967 12.0469 20.6771 12.0469 21.393C12.0469 22.1089 12.6273 22.6893 13.3432 22.6893Z" fill="white"/>
<path d="M24.4838 22.6893C25.1998 22.6893 25.7801 22.1089 25.7801 21.393C25.7801 20.6771 25.1998 20.0967 24.4838 20.0967C23.7679 20.0967 23.1875 20.6771 23.1875 21.393C23.1875 22.1089 23.7679 22.6893 24.4838 22.6893Z" fill="white"/>
<path d="M18.6715 25.4007L18.1656 24.8632C18.1353 24.8319 18.0991 24.8071 18.0591 24.7901C18.019 24.7731 17.9759 24.7644 17.9324 24.7644H15.6678C15.5829 24.7644 15.5015 24.7981 15.4414 24.8582C15.3814 24.9182 15.3477 24.9996 15.3477 25.0845V25.7169C15.3477 25.8018 15.3814 25.8832 15.4414 25.9433C15.5015 26.0033 15.5829 26.037 15.6678 26.037H17.2882C17.3507 26.0363 17.4121 26.0544 17.4642 26.0889C17.5163 26.1234 17.5569 26.1728 17.5807 26.2307L18.2486 27.8116C18.2732 27.8688 18.314 27.9176 18.3659 27.952C18.4179 27.9864 18.4788 28.0049 18.5411 28.0052H19.292C19.3545 28.0059 19.4158 27.9879 19.468 27.9533C19.5201 27.9188 19.5607 27.8694 19.5844 27.8116L20.2524 26.2307C20.277 26.1734 20.3177 26.1246 20.3697 26.0902C20.4216 26.0558 20.4825 26.0373 20.5448 26.037H22.1692C22.211 26.037 22.2525 26.0287 22.2911 26.0126C22.3297 25.9965 22.3647 25.9728 22.3941 25.943C22.4236 25.9132 22.4468 25.8779 22.4624 25.8391C22.4781 25.8003 22.4859 25.7588 22.4853 25.7169V25.0845C22.4859 25.0427 22.4781 25.0011 22.4624 24.9623C22.4468 24.9235 22.4236 24.8882 22.3941 24.8584C22.3647 24.8286 22.3297 24.805 22.2911 24.7889C22.2525 24.7727 22.211 24.7644 22.1692 24.7644H19.8848C19.8419 24.7642 19.7993 24.7729 19.7599 24.7899C19.7204 24.8069 19.6849 24.8319 19.6556 24.8632L19.1497 25.4007C19.1193 25.4339 19.0824 25.4604 19.0412 25.4785C19.0001 25.4967 18.9556 25.506 18.9106 25.506C18.8656 25.506 18.8211 25.4967 18.7799 25.4785C18.7388 25.4604 18.7018 25.4339 18.6715 25.4007Z" fill="white"/>
</g>
<defs>
<clipPath id="clip0_230_4715">
<rect width="39" height="43" fill="white"/>
</clipPath>
</defs>
</svg>
