<svg width="9" height="8" viewBox="0 0 9 8" fill="none" xmlns="http://www.w3.org/2000/svg">
<path d="M7.95903 6.72843C8.0071 6.77634 8.04524 6.83326 8.07127 6.89593C8.09729 6.95861 8.11069 7.0258 8.11069 7.09367C8.11069 7.16153 8.09729 7.22873 8.07127 7.2914C8.04524 7.35408 8.0071 7.411 7.95903 7.4589C7.86173 7.55494 7.73051 7.60879 7.5938 7.60879C7.45708 7.60879 7.32586 7.55494 7.22856 7.4589L4.50005 4.73039L1.77153 7.4589C1.67423 7.55494 1.54301 7.60879 1.4063 7.60879C1.26958 7.60879 1.13836 7.55494 1.04106 7.4589C0.992991 7.411 0.95485 7.35408 0.928825 7.2914C0.902801 7.22873 0.889404 7.16153 0.889404 7.09367C0.889404 7.0258 0.902801 6.95861 0.928825 6.89593C0.95485 6.83326 0.992991 6.77634 1.04106 6.72843L3.76958 3.99992L1.04106 1.2714C0.944195 1.17454 0.889776 1.04316 0.889776 0.906168C0.889776 0.838338 0.903136 0.771172 0.929094 0.708504C0.955051 0.645837 0.993098 0.588897 1.04106 0.540934C1.08902 0.49297 1.14596 0.454924 1.20863 0.428966C1.2713 0.403009 1.33847 0.389648 1.4063 0.389648C1.54328 0.389648 1.67466 0.444067 1.77153 0.540934L4.50005 3.26945L7.22856 0.540934C7.32543 0.444067 7.45681 0.389648 7.5938 0.389648C7.73078 0.389648 7.86216 0.444067 7.95903 0.540934C8.0559 0.6378 8.11031 0.769178 8.11031 0.906168C8.11031 1.04316 8.0559 1.17454 7.95903 1.2714L5.23051 3.99992L7.95903 6.72843Z" fill="#151E3A"/>
</svg>
