<svg width="24" height="22" viewBox="0 0 24 22" fill="none" xmlns="http://www.w3.org/2000/svg">
<path d="M11.9748 0.288007L15.2517 6.95422L22.5896 8.02052C22.6827 8.03432 22.7701 8.07382 22.8419 8.13458C22.9137 8.19534 22.9671 8.27495 22.996 8.36443C23.0249 8.45392 23.0283 8.54973 23.0056 8.64108C22.983 8.73243 22.9353 8.81568 22.8679 8.88147L17.5539 14.0726L18.8008 21.4004C18.8169 21.493 18.8067 21.5883 18.7713 21.6755C18.7359 21.7627 18.6768 21.8382 18.6007 21.8936C18.5245 21.949 18.4344 21.982 18.3406 21.9889C18.2467 21.9957 18.1528 21.9762 18.0695 21.9324L11.5082 18.476L4.94065 21.9391C4.85738 21.983 4.76345 22.0028 4.66955 21.9962C4.57565 21.9895 4.48554 21.9566 4.40947 21.9013C4.33339 21.846 4.2744 21.7705 4.23919 21.6833C4.20398 21.5961 4.19397 21.5008 4.2103 21.4081L5.47046 14.0778L0.164252 8.89122C0.096972 8.82549 0.0494214 8.74228 0.0269554 8.65095C0.00448945 8.55962 0.00800042 8.46381 0.037093 8.3743C0.0661856 8.28479 0.119704 8.20513 0.191622 8.14431C0.263539 8.08349 0.350999 8.04391 0.444152 8.03004L7.7839 6.95743L11.0744 0.288394C11.1154 0.203883 11.1794 0.132599 11.2591 0.0827055C11.3388 0.0328123 11.4309 0.00632856 11.5248 0.00628819C11.6188 0.00624782 11.7108 0.0326524 11.7904 0.0824772C11.87 0.132302 11.9339 0.203532 11.9748 0.288007Z" fill="#FDE047"/>
</svg>
