<svg width="24" height="24" viewBox="0 0 24 24" fill="none" xmlns="http://www.w3.org/2000/svg">
<g clip-path="url(#clip0_1056_6593)">
<path d="M11.29 22.58C17.5253 22.58 22.58 17.5253 22.58 11.29C22.58 5.05471 17.5253 0 11.29 0C5.05471 0 0 5.05471 0 11.29C0 17.5253 5.05471 22.58 11.29 22.58Z" fill="#B77930"/>
<path d="M12.05 23.3202C18.2853 23.3202 23.34 18.2655 23.34 12.0302C23.34 5.79494 18.2853 0.740234 12.05 0.740234C5.81471 0.740234 0.76001 5.79494 0.76001 12.0302C0.76001 18.2655 5.81471 23.3202 12.05 23.3202Z" fill="#FCB95A"/>
<mask id="mask0_1056_6593" style="mask-type:luminance" maskUnits="userSpaceOnUse" x="9" y="8" width="8" height="9">
<path d="M16.4 8.33008H9.75V16.1601H16.4V8.33008Z" fill="white"/>
</mask>
<g mask="url(#mask0_1056_6593)">
<path d="M16.1501 11.8201L10.4901 8.44012C10.4153 8.39807 10.3309 8.37598 10.2451 8.37598C10.1593 8.37598 10.0749 8.39807 10.0001 8.44012C9.92311 8.48213 9.85912 8.5444 9.81505 8.62021C9.77098 8.69601 9.7485 8.78245 9.75008 8.87012V15.7101C9.75031 15.7961 9.77364 15.8804 9.81761 15.9543C9.86159 16.0282 9.92461 16.0889 10.0001 16.1301C10.0735 16.1763 10.1584 16.2008 10.2451 16.2008C10.3318 16.2008 10.4167 16.1763 10.4901 16.1301L16.1501 12.7201C16.2226 12.6766 16.2825 12.615 16.3242 12.5414C16.3658 12.4678 16.3877 12.3847 16.3877 12.3001C16.3877 12.2156 16.3658 12.1324 16.3242 12.0588C16.2825 11.9852 16.2226 11.9237 16.1501 11.8801V11.8201Z" fill="white"/>
</g>
</g>
<defs>
<clipPath id="clip0_1056_6593">
<rect width="23.34" height="23.32" fill="white"/>
</clipPath>
</defs>
</svg>
