<svg width="24" height="24" viewBox="0 0 24 24" fill="none" xmlns="http://www.w3.org/2000/svg">
<g clip-path="url(#clip0_1057_6608)">
<path d="M11.29 22.58C17.5253 22.58 22.58 17.5253 22.58 11.29C22.58 5.05471 17.5253 0 11.29 0C5.05471 0 0 5.05471 0 11.29C0 17.5253 5.05471 22.58 11.29 22.58Z" fill="#808080"/>
<path d="M12.05 23.3202C18.2853 23.3202 23.34 18.2655 23.34 12.0302C23.34 5.79494 18.2853 0.740234 12.05 0.740234C5.81471 0.740234 0.76001 5.79494 0.76001 12.0302C0.76001 18.2655 5.81471 23.3202 12.05 23.3202Z" fill="#B3B3B3"/>
<mask id="mask0_1057_6608" style="mask-type:luminance" maskUnits="userSpaceOnUse" x="6" y="5" width="12" height="13">
<path d="M17.4599 5.52979H6.6499V17.0598H17.4599V5.52979Z" fill="white"/>
</mask>
<g mask="url(#mask0_1057_6608)">
<path d="M9.01981 8.83978C8.97902 8.00311 9.27212 7.18446 9.83466 6.56378C10.3972 5.94311 11.1832 5.57121 12.0198 5.52979C12.8083 5.55244 13.5583 5.87576 14.116 6.43353C14.6738 6.99131 14.9972 7.7413 15.0198 8.52979V8.88977H16.0998C16.4508 8.90534 16.782 9.05717 17.0228 9.31299C17.2637 9.5688 17.3954 9.90844 17.3898 10.2598V15.7398C17.3979 15.9151 17.3706 16.0903 17.3096 16.2549C17.2487 16.4195 17.1552 16.5701 17.0349 16.6979C16.9146 16.8257 16.7698 16.928 16.6092 16.9988C16.4485 17.0695 16.2753 17.1073 16.0998 17.1098H7.9498C7.59787 17.0943 7.26571 16.9428 7.02323 16.6873C6.78075 16.4317 6.64688 16.0921 6.64981 15.7398V10.2598C6.64173 10.0836 6.66929 9.90763 6.73087 9.74237C6.79245 9.57711 6.88676 9.42597 7.00815 9.29803C7.12955 9.1701 7.27551 9.06802 7.43732 8.99786C7.59913 8.92771 7.77345 8.89093 7.9498 8.88977L9.01981 8.83978ZM9.73981 8.83978H14.3498V8.46979C14.3196 7.8761 14.0655 7.31596 13.6387 6.90216C13.2119 6.48836 12.6441 6.25169 12.0498 6.23981C11.7274 6.25637 11.4116 6.3367 11.1205 6.4762C10.8294 6.6157 10.5689 6.8116 10.354 7.05249C10.1392 7.29339 9.97424 7.57449 9.86881 7.87958C9.76337 8.18466 9.71954 8.50762 9.73981 8.82977V8.83978ZM7.93979 9.55981C7.77892 9.57493 7.62971 9.65031 7.52213 9.77087C7.41455 9.89144 7.35657 10.0482 7.35981 10.2098V15.6898C7.35657 15.8513 7.41455 16.0082 7.52213 16.1287C7.62971 16.2493 7.77892 16.3247 7.93979 16.3398H16.1598C16.3189 16.3223 16.4656 16.2459 16.5711 16.1255C16.6767 16.0052 16.7333 15.8497 16.7298 15.6898V10.2098C16.7333 10.0498 16.6767 9.89431 16.5711 9.77399C16.4656 9.65367 16.3189 9.57728 16.1598 9.55981H7.93979ZM12.0498 14.5598C11.6214 14.5602 11.2095 14.3949 10.9001 14.0986C10.5907 13.8022 10.4079 13.3978 10.3898 12.9698C10.4181 12.5534 10.607 12.1642 10.9167 11.8843C11.2264 11.6045 11.6326 11.4559 12.0498 11.4698C12.2685 11.4524 12.4885 11.4805 12.6958 11.5522C12.9032 11.624 13.0935 11.7379 13.2546 11.8868C13.4158 12.0357 13.5444 12.2163 13.6324 12.4173C13.7204 12.6183 13.7658 12.8354 13.7658 13.0548C13.7658 13.2742 13.7204 13.4912 13.6324 13.6923C13.5444 13.8933 13.4158 14.0739 13.2546 14.2228C13.0935 14.3717 12.9032 14.4855 12.6958 14.5573C12.4885 14.6291 12.2685 14.6572 12.0498 14.6398V14.5598ZM12.0498 12.0298C11.8814 12.0434 11.7206 12.1057 11.587 12.2092C11.4534 12.3127 11.3529 12.4528 11.2976 12.6125C11.2424 12.7722 11.2348 12.9445 11.2759 13.1084C11.3169 13.2723 11.4048 13.4207 11.5288 13.5355C11.6528 13.6502 11.8076 13.7264 11.9742 13.7547C12.1408 13.783 12.312 13.7621 12.4669 13.6947C12.6219 13.6273 12.7538 13.5162 12.8467 13.3751C12.9395 13.2339 12.9893 13.0687 12.9898 12.8998C12.9699 12.6637 12.8624 12.4435 12.6884 12.2825C12.5145 12.1216 12.2868 12.0314 12.0498 12.0298Z" fill="black"/>
</g>
</g>
<defs>
<clipPath id="clip0_1057_6608">
<rect width="23.34" height="23.32" fill="white"/>
</clipPath>
</defs>
</svg>
