<svg width="24" height="24" viewBox="0 0 24 24" fill="none" xmlns="http://www.w3.org/2000/svg">
<g clip-path="url(#clip0_1057_6604)">
<path d="M11.29 22.58C17.5253 22.58 22.58 17.5253 22.58 11.29C22.58 5.05471 17.5253 0 11.29 0C5.05471 0 0 5.05471 0 11.29C0 17.5253 5.05471 22.58 11.29 22.58Z" fill="#284BAA"/>
<path d="M12.05 23.3202C18.2853 23.3202 23.34 18.2655 23.34 12.0302C23.34 5.79494 18.2853 0.740234 12.05 0.740234C5.81471 0.740234 0.76001 5.79494 0.76001 12.0302C0.76001 18.2655 5.81471 23.3202 12.05 23.3202Z" fill="#5485D9"/>
<path d="M18.76 9.38983L11.45 16.7498C11.3547 16.8498 11.2398 16.9289 11.1124 16.9823C10.9851 17.0357 10.8481 17.062 10.71 17.0598C10.5719 17.062 10.4349 17.0357 10.3075 16.9823C10.1802 16.9289 10.0652 16.8498 9.96997 16.7498L5.72998 12.5098C5.62686 12.4161 5.54448 12.3018 5.4881 12.1744C5.43172 12.047 5.40259 11.9092 5.40259 11.7698C5.40259 11.6305 5.43172 11.4927 5.4881 11.3652C5.54448 11.2378 5.62686 11.1235 5.72998 11.0298C5.92794 10.8368 6.19348 10.7288 6.46997 10.7288C6.74646 10.7288 7.01203 10.8368 7.20999 11.0298L10.72 14.5498L17.35 7.93982C17.4472 7.84264 17.5625 7.76554 17.6895 7.71295C17.8165 7.66036 17.9526 7.6333 18.09 7.6333C18.2274 7.6333 18.3635 7.66036 18.4905 7.71295C18.6174 7.76554 18.7328 7.84264 18.83 7.93982C18.9272 8.037 19.0042 8.15236 19.0568 8.27933C19.1094 8.4063 19.1365 8.54238 19.1365 8.67981C19.1365 8.81724 19.1094 8.95332 19.0568 9.08029C19.0042 9.20726 18.9272 9.32265 18.83 9.41983L18.76 9.38983Z" fill="white"/>
</g>
<defs>
<clipPath id="clip0_1057_6604">
<rect width="23.34" height="23.32" fill="white"/>
</clipPath>
</defs>
</svg>
