<svg width="24" height="18" viewBox="0 0 24 18" fill="none" xmlns="http://www.w3.org/2000/svg">
<g clip-path="url(#clip0_1017_6368)">
<path d="M20.6 1.15997H2.33002C2.23359 1.15028 2.13646 1.15028 2.04004 1.15997L10.89 10.0099C11.0017 10.1169 11.1503 10.1766 11.305 10.1766C11.4596 10.1766 11.6083 10.1169 11.72 10.0099L20.6 1.15997ZM21.86 1.54996L14.73 8.67996L21.92 15.86C22.0757 15.6598 22.1601 15.4135 22.16 15.16V2.32996C22.1567 2.04241 22.0503 1.76561 21.86 1.54996ZM20.73 16.3199L13.91 9.48996L12.54 10.86C12.2121 11.1867 11.7679 11.3701 11.305 11.3701C10.8421 11.3701 10.398 11.1867 10.07 10.86L8.70001 9.48996L1.94 16.25C2.06608 16.2902 2.19769 16.3104 2.33002 16.31L20.73 16.3199ZM1.17999 15.3199L7.87 8.63995L1.21002 2.01996C1.19483 2.12273 1.19483 2.22718 1.21002 2.32996V15.16C1.20476 15.2265 1.20476 15.2934 1.21002 15.36L1.17999 15.3199ZM2.33002 -0.0400391H20.9901C21.608 -0.0400391 22.2006 0.205435 22.6376 0.642395C23.0745 1.07935 23.32 1.67199 23.32 2.28995V15.12C23.32 15.7379 23.0745 16.3306 22.6376 16.7675C22.2006 17.2045 21.608 17.45 20.9901 17.45H2.33002C1.71206 17.45 1.11939 17.2045 0.682434 16.7675C0.245474 16.3306 0 15.7379 0 15.12V2.32996C0 1.712 0.245474 1.11936 0.682434 0.682404C1.11939 0.245444 1.71206 -3.05176e-05 2.33002 -3.05176e-05V-0.0400391Z" fill="#333333"/>
</g>
<defs>
<clipPath id="clip0_1017_6368">
<rect width="23.32" height="17.49" fill="white"/>
</clipPath>
</defs>
</svg>
