<svg width="16" height="19" viewBox="0 0 16 19" fill="none" xmlns="http://www.w3.org/2000/svg">
<g clip-path="url(#clip0_1017_6370)">
<path d="M2.83999 6.64001V5C2.83999 3.67392 3.36678 2.40216 4.30446 1.46448C5.24214 0.526796 6.5139 0 7.83998 0C9.16607 0 10.4378 0.526796 11.3755 1.46448C12.3132 2.40216 12.84 3.67392 12.84 5V6.66H13.08C13.7722 6.66 14.4361 6.93497 14.9256 7.42444C15.415 7.91391 15.69 8.57777 15.69 9.26999V16.39C15.69 17.0822 15.415 17.7461 14.9256 18.2355C14.4361 18.725 13.7722 19 13.08 19H2.59999C2.25771 19 1.91878 18.9324 1.60268 18.8011C1.28658 18.6699 0.999517 18.4774 0.757954 18.235C0.51639 17.9925 0.325099 17.7047 0.195027 17.3881C0.0649538 17.0715 -0.00129722 16.7323 1.92406e-05 16.39V9.26999C-0.00129722 8.92771 0.0649538 8.58854 0.195027 8.27194C0.325099 7.95534 0.51639 7.66754 0.757954 7.42505C0.999517 7.18256 1.28658 6.99014 1.60268 6.85886C1.91878 6.72757 2.25771 6.66 2.59999 6.66L2.83999 6.64001ZM4.26003 6.64001H11.42V5C11.42 4.05583 11.0449 3.15033 10.3773 2.4827C9.70965 1.81507 8.80418 1.44 7.86 1.44C6.91583 1.44 6.01036 1.81507 5.34273 2.4827C4.6751 3.15033 4.30001 4.05583 4.30001 5L4.26003 6.64001ZM1.42 9.25V16.37C1.42 16.683 1.54435 16.9831 1.76564 17.2044C1.98694 17.4257 2.28704 17.55 2.59999 17.55H13.04C13.3539 17.55 13.6551 17.426 13.8779 17.205C14.1008 16.984 14.2274 16.6839 14.23 16.37V9.25C14.2274 8.9352 14.1012 8.63404 13.8786 8.41144C13.656 8.18883 13.3548 8.06261 13.04 8.06H2.59999C2.44419 8.05999 2.28996 8.09083 2.14614 8.15076C2.00232 8.21068 1.87175 8.29851 1.76204 8.40915C1.65234 8.51978 1.56563 8.65103 1.50692 8.79535C1.44821 8.93967 1.41868 9.0942 1.42 9.25Z" fill="#333333"/>
</g>
<defs>
<clipPath id="clip0_1017_6370">
<rect width="15.65" height="18.98" fill="white"/>
</clipPath>
</defs>
</svg>
