<svg width="19" height="19" viewBox="0 0 19 19" fill="none" xmlns="http://www.w3.org/2000/svg">
<g clip-path="url(#clip0_1017_6362)">
<mask id="mask0_1017_6362" style="mask-type:luminance" maskUnits="userSpaceOnUse" x="0" y="-1" width="19" height="20">
<path d="M18.64 -0.0100098H0V18.66H18.64V-0.0100098Z" fill="white"/>
</mask>
<g mask="url(#mask0_1017_6362)">
<path d="M12.2501 9.75995C13.208 9.1296 13.937 8.20716 14.329 7.12956C14.721 6.05197 14.755 4.87669 14.426 3.77823C14.097 2.67977 13.4225 1.7167 12.5027 1.03201C11.5829 0.347326 10.4668 -0.0224609 9.32012 -0.0224609C8.17345 -0.0224609 7.05732 0.347326 6.1375 1.03201C5.21769 1.7167 4.54323 2.67977 4.21422 3.77823C3.88522 4.87669 3.91923 6.05197 4.31121 7.12956C4.70319 8.20716 5.43226 9.1296 6.39013 9.75995C4.58667 10.2645 2.99262 11.3343 1.8424 12.8121C0.692174 14.2899 0.0464443 16.0978 0.000113083 17.97C-0.011457 18.0641 -0.00287213 18.1597 0.0252596 18.2503C0.0533913 18.3409 0.100453 18.4245 0.163321 18.4956C0.22619 18.5667 0.303435 18.6235 0.389945 18.6625C0.476454 18.7015 0.570209 18.7216 0.665091 18.7216C0.759974 18.7216 0.853789 18.7015 0.940299 18.6625C1.02681 18.6235 1.10405 18.5667 1.16692 18.4956C1.22979 18.4245 1.27685 18.3409 1.30498 18.2503C1.33312 18.1597 1.3417 18.0641 1.33013 17.97C1.33013 13.97 4.91013 10.6499 9.33013 10.6499C13.7501 10.6499 17.3301 13.93 17.3301 17.97C17.3301 18.1477 17.4007 18.3181 17.5264 18.4437C17.652 18.5694 17.8224 18.64 18.0001 18.64C18.0876 18.64 18.1743 18.6226 18.255 18.5888C18.3357 18.555 18.409 18.5055 18.4704 18.4431C18.5318 18.3808 18.5802 18.3068 18.6128 18.2256C18.6454 18.1444 18.6614 18.0575 18.6601 17.97C18.6128 16.0995 17.9679 14.2934 16.8199 12.816C15.6718 11.3387 14.0809 10.2677 12.2801 9.75995H12.2501ZM5.32012 5.31995C5.32012 4.52882 5.55473 3.75547 5.99425 3.09767C6.43378 2.43987 7.05845 1.92719 7.78936 1.62444C8.52026 1.32168 9.32453 1.24246 10.1005 1.3968C10.8764 1.55115 11.5891 1.93211 12.1486 2.49152C12.708 3.05093 13.0889 3.76366 13.2433 4.53958C13.3976 5.31551 13.3184 6.11977 13.0156 6.85068C12.7129 7.58158 12.2002 8.2063 11.5424 8.64583C10.8846 9.08535 10.1112 9.31995 9.32012 9.31995C8.25925 9.31995 7.24184 8.89852 6.49169 8.14838C5.74154 7.39823 5.32012 6.38081 5.32012 5.31995Z" fill="#333333"/>
</g>
</g>
<defs>
<clipPath id="clip0_1017_6362">
<rect width="18.63" height="18.63" fill="white"/>
</clipPath>
</defs>
</svg>
