<svg id="Layer_1" data-name="Layer 1" xmlns="http://www.w3.org/2000/svg" xmlns:xlink="http://www.w3.org/1999/xlink" viewBox="0 0 420.99 379.95"><defs><style>.cls-1,.cls-26{fill:none;}.cls-2{clip-path:url(#clip-path);}.cls-3{fill:#bed3ed;}.cls-4{fill:#9db0d6;}.cls-5{fill:#c48300;}.cls-11,.cls-12,.cls-13,.cls-14,.cls-15,.cls-16,.cls-17,.cls-21,.cls-22,.cls-23,.cls-26,.cls-27,.cls-28,.cls-5,.cls-7,.cls-9{stroke:#0a1f44;stroke-width:0.75px;}.cls-11,.cls-12,.cls-14,.cls-17,.cls-21,.cls-22,.cls-23,.cls-26,.cls-27,.cls-28,.cls-5,.cls-7,.cls-9{stroke-linecap:round;}.cls-11,.cls-12,.cls-14,.cls-17,.cls-23,.cls-26,.cls-27,.cls-28,.cls-5,.cls-7,.cls-9{stroke-linejoin:round;}.cls-14,.cls-6{fill:#0a1f44;}.cls-10,.cls-7{fill:#0aea7f;}.cls-13,.cls-23,.cls-8{fill:#eef5ff;}.cls-9{fill:#0fb763;}.cls-11{fill:#ffb727;}.cls-12{fill:#f88;}.cls-13,.cls-15,.cls-16,.cls-21,.cls-22{stroke-miterlimit:10;}.cls-15{fill:#6985b2;}.cls-16{fill:#4a618e;}.cls-17{fill:#ffc392;}.cls-18,.cls-28{fill:#fff;}.cls-19{fill:#086d38;}.cls-20{fill:#15ad61;}.cls-21{fill:#859edd;}.cls-22{fill:#b6bfd1;}.cls-24{fill:#f4f4f4;}.cls-25{clip-path:url(#clip-path-2);}.cls-27{fill:#9ab6ef;}</style><clipPath id="clip-path" transform="translate(-0.76 -0.94)"><path class="cls-1" d="M197.68,40.5A170.2,170.2,0,1,0,367.87,210.69,170.2,170.2,0,0,0,197.68,40.5Zm0,276.09a105.9,105.9,0,1,1,105.9-105.9A105.9,105.9,0,0,1,197.68,316.59Z"/></clipPath><clipPath id="clip-path-2" transform="translate(-0.76 -0.94)"><path class="cls-1" d="M272.89,65.92,203.79,1.56a1,1,0,0,0-1.29,0L133.4,65.91a.84.84,0,0,0,.64,1.45h17.77a.89.89,0,0,1,.92.85V130a.88.88,0,0,0,.91.85h99a.88.88,0,0,0,.91-.85V68.21a.88.88,0,0,1,.91-.84h17.77A.84.84,0,0,0,272.89,65.92Z"/></clipPath></defs><g id="Illustration"><g id="Circle"><g class="cls-2"><path class="cls-3" d="M197.68,40.5A170.2,170.2,0,1,0,367.87,210.69,170.2,170.2,0,0,0,197.68,40.5Zm0,276.09a105.9,105.9,0,1,1,105.9-105.9A105.9,105.9,0,0,1,197.68,316.59Z" transform="translate(-0.76 -0.94)"/><polyline class="cls-4" points="58.49 79.54 121.32 94.83 131.84 158.63"/><polyline class="cls-4" points="33.11 311.29 67.26 256.38 131.15 266.31"/><polyline class="cls-4" points="334.46 77.55 317.8 140.03 257.37 151.32"/><rect class="cls-5" x="153.08" y="264.75" width="238.46" height="7.54"/></g></g><g id="Dropshiper"><g id="Arrow"><polyline class="cls-3" points="53.97 83.05 116.8 98.33 127.32 162.14"/><polyline class="cls-3" points="34.91 317.33 69.05 262.42 132.94 272.35"/><polyline class="cls-3" points="331.58 71.8 314.92 134.28 250.9 143.4"/></g><g id="Cup"><path class="cls-6" d="M267.72,246.18c-1.8.32-3.62-.33-5.43.07a3.73,3.73,0,0,0-3,3.18c-.45,2.78-.17,6.33,2.31,8.12,1.63,1.18,4,1.26,5.89,1.59.82.14,1.18-1.13.35-1.27-1.06-.18-2.12-.34-3.16-.54a5.47,5.47,0,0,1-2.6-1.06,5.83,5.83,0,0,1-1.63-4.23c-.06-1.61-.07-3.77,1.72-4.4s4,.15,5.91-.2c.83-.15.48-1.41-.35-1.26Z" transform="translate(-0.76 -0.94)"/><path class="cls-7" d="M275.75,242.85h.75A10.19,10.19,0,0,1,286.69,253v7.15a5.47,5.47,0,0,1-5.47,5.47H271a5.47,5.47,0,0,1-5.47-5.47V253A10.19,10.19,0,0,1,275.75,242.85Z" transform="translate(551.48 507.57) rotate(-180)"/><path class="cls-8" d="M276.31,239.91s4.94-3.71,5.44-8.16-4.2-6.68-4.7-10.14a11.33,11.33,0,0,1,1.48-6.67s-4.69,3.7-4.69,8.16,3.46,5.19,4,8.15A15.59,15.59,0,0,1,276.31,239.91Z" transform="translate(-0.76 -0.94)"/></g><g id="Plant_2" data-name="Plant 2"><path class="cls-9" d="M326.56,290.26s-5.76,8.1-6.88,24-1,25.84-1,25.84l-1.93-.34s.71-16.57,1.6-26.54C320,295.26,326.56,290.26,326.56,290.26Z" transform="translate(-0.76 -0.94)"/><path class="cls-9" d="M321.11,337.86s5.37-22.78,9.21-30.37,6.15-12.42,6.15-12.42S320.34,313,318,326.13l-2.3,13.11s3.84-24.85.77-42.1-4.61-19.33-4.61-19.33,1.53,28.3.77,41.41-1.54,19.33-1.54,19.33-.77-20.71-3.84-32.44-9.22-17.94-9.22-17.94,4.61,15.18,5.38,22.77,2.3,26.23,2.3,26.23-3.07-16.56-7.68-21.4a23.61,23.61,0,0,0-9.22-6.21A32.07,32.07,0,0,1,295,321.3l2.3,7.59,3.08,14.49Z" transform="translate(-0.76 -0.94)"/><path class="cls-10" d="M325.2,312.85a48.46,48.46,0,0,0-5.94,19.49c-.07.84,1.24.84,1.31,0a47.16,47.16,0,0,1,5.76-18.83c.41-.74-.72-1.4-1.13-.66Z" transform="translate(-0.76 -0.94)"/><path class="cls-10" d="M314,302.2a162.67,162.67,0,0,1-.78,28.77c-.1.84,1.21.83,1.31,0a162.67,162.67,0,0,0,.78-28.77c-.05-.84-1.36-.84-1.31,0Z" transform="translate(-0.76 -0.94)"/><path class="cls-10" d="M305.13,311.1a191,191,0,0,1,2.54,24.68c0,.85,1.35.85,1.32,0a192.89,192.89,0,0,0-2.6-25c-.14-.83-1.4-.48-1.26.35Z" transform="translate(-0.76 -0.94)"/><path class="cls-10" d="M294.81,316.28a68.77,68.77,0,0,1,6.67,17.58c.18.82,1.45.47,1.26-.35A69.8,69.8,0,0,0,296,315.62c-.41-.74-1.54-.08-1.14.66Z" transform="translate(-0.76 -0.94)"/><polygon class="cls-11" points="288.54 331.07 332.71 331.07 332.71 342.98 325.12 378.69 296.13 378.69 288.54 342.98 288.54 331.07"/><path class="cls-6" d="M333.48,343H289.77a.66.66,0,0,0,0,1.32h43.71a.66.66,0,0,0,0-1.32Z" transform="translate(-0.76 -0.94)"/><path class="cls-12" d="M327.76,283.76a7.83,7.83,0,0,0,2.16-3.3c.3-1.59,3.51-3.87,4.35-1.19s.8,2.36,2.16,3.35,3.84,2.06,2.62,3.87-3.19,1.74-2.16,3.3,1,2.27-2.32,1.75-7.78,1.46-9.17-.55S324.33,286.14,327.76,283.76Z" transform="translate(-0.76 -0.94)"/><path class="cls-6" d="M332.06,280.58c-.06,0-.13,0-.19-.05s0,0,0,0,0,0,0,0l.06.14a5.45,5.45,0,0,1,.17.67,2.42,2.42,0,0,1,0,1.41c-.2.47-.59.84-.79,1.31a1.92,1.92,0,0,0,0,1.76.66.66,0,0,0,1.14-.66c-.22-.38.24-.92.46-1.23a3.17,3.17,0,0,0,.61-1.88c0-1-.38-3.23-1.84-2.8a.65.65,0,0,0,.35,1.26Z" transform="translate(-0.76 -0.94)"/><path class="cls-6" d="M336.07,287.21a11.21,11.21,0,0,0-7.46-2.48c-.84,0-.84,1.35,0,1.32a9.86,9.86,0,0,1,6.53,2.08.68.68,0,0,0,.93,0,.65.65,0,0,0,0-.92Z" transform="translate(-0.76 -0.94)"/><path class="cls-6" d="M333.63,283.76l.15.08.07.05c.1.06-.13-.11,0,0l.13.12.05.06s.07.12,0,0c.06.1.13.18.18.28l0,.07c-.09-.17,0-.09,0,0a1,1,0,0,1,.05.16,1,1,0,0,1,0,.17c0,.11,0-.14,0-.06a.17.17,0,0,0,0,.07v.18c0,.07,0,.26,0,0,0,.11-.05.22-.09.33s.06-.13,0-.06l0,.07-.1.17a.65.65,0,0,0,.24.89.67.67,0,0,0,.9-.23,2.46,2.46,0,0,0-.9-3.42.66.66,0,1,0-.66,1.14Z" transform="translate(-0.76 -0.94)"/></g><g id="Computer"><path class="cls-13" d="M287.85,251.81h78.31a3.28,3.28,0,0,0,3.27-2.94l5.42-52.42a3.28,3.28,0,0,0-3.27-3.62H293.27a3.29,3.29,0,0,0-3.27,2.94l-5.42,52.42A3.28,3.28,0,0,0,287.85,251.81Z" transform="translate(-0.76 -0.94)"/><path class="cls-13" d="M289.53,251.81h76.63a3.28,3.28,0,0,0,3.27-2.94l5.42-52.42a3.28,3.28,0,0,0-3.27-3.62H295.63Z" transform="translate(-0.76 -0.94)"/><path class="cls-13" d="M321.68,265.66H351l-8.41-23.6a2.43,2.43,0,0,0-2.27-1.6H324.94a2.51,2.51,0,0,0-1.82.83,2.43,2.43,0,0,0-.57,1.32,1,1,0,0,0,0,.17l-.7,18.61Z" transform="translate(-0.76 -0.94)"/><path class="cls-6" d="M334.89,216.15a2.22,2.22,0,0,1-.09-.37c0-.17,0,.14,0,0a1.15,1.15,0,0,1,0-.19,2.08,2.08,0,0,1,0-.35c0-.15,0,.1,0,0s0-.14,0-.21l.09-.31.05-.13,0-.12a3.79,3.79,0,0,1,.38-.6l0,0,.13-.14a3.07,3.07,0,0,1,.26-.25l.12-.1.09-.06.28-.17.17-.08h0l.1,0,.31-.1.21,0c-.12,0,0,0,0,0h.38l-.63-.83-.1.27-.07.16c-.07.17-.15.34-.23.5a10.28,10.28,0,0,1-.53.91,8.1,8.1,0,0,1-1.34,1.56.66.66,0,0,0,0,.92.67.67,0,0,0,.93,0,10,10,0,0,0,2.6-4,.66.66,0,0,0-.63-.83,4,4,0,0,0-3.86,5,.66.66,0,0,0,.8.46.67.67,0,0,0,.46-.81Z" transform="translate(-0.76 -0.94)"/><path class="cls-14" d="M322.2,251.81h-3.61l4-9.2a1,1,0,0,0,0,.17Z" transform="translate(-0.76 -0.94)"/><path class="cls-6" d="M336.79,218.42c-.49-1-1.9-1.36-2.93-1.35a3.39,3.39,0,0,0-1.59.41,4.87,4.87,0,0,0-.95.52,3,3,0,0,0-.73,1,4.52,4.52,0,0,0,.08,4.58,3.52,3.52,0,0,0,4,1.4c1.64-.46,3.21-1.9,2.93-3.73a.66.66,0,0,0-.81-.45.67.67,0,0,0-.46.8c.15,1-1,1.77-1.76,2a2.29,2.29,0,0,1-2.69-.65,3.12,3.12,0,0,1-.22-3.14,2.53,2.53,0,0,1,.4-.67,1.47,1.47,0,0,1,.63-.41l.4-.2.1,0h0a2.36,2.36,0,0,1,.45-.1,3.17,3.17,0,0,1,1.3.15,1.71,1.71,0,0,1,.51.25c.11.07,0,0,0,0a1.59,1.59,0,0,1,.13.13s.07.1,0,0l.08.15a.66.66,0,0,0,.9.24.67.67,0,0,0,.23-.9Z" transform="translate(-0.76 -0.94)"/></g><g id="Dropshiper-2" data-name="Dropshiper"><path class="cls-15" d="M169,364.6h89.33a2.51,2.51,0,0,1,2.51,2.51v.54a12,12,0,0,1-12,12H178.47a12,12,0,0,1-12-12v-.54A2.51,2.51,0,0,1,169,364.6Z" transform="translate(426.54 743.29) rotate(180)"/><path class="cls-15" d="M200.18,329.82h26.95a11.35,11.35,0,0,0,11.34-11.35H188.83A11.35,11.35,0,0,0,200.18,329.82Z" transform="translate(-0.76 -0.94)"/><path class="cls-15" d="M213.46,329.82h.39a5.24,5.24,0,0,1,5.24,5.24v34.67a0,0,0,0,1,0,0H208.21a0,0,0,0,1,0,0V335.06A5.24,5.24,0,0,1,213.46,329.82Z" transform="translate(426.54 698.62) rotate(180)"/><path class="cls-11" d="M156.21,309.3H229L214.83,201.61H149a6.08,6.08,0,0,0-6,6.87Z" transform="translate(-0.76 -0.94)"/><polygon class="cls-11" points="162.54 308.36 228.25 308.36 214.07 200.68 148.35 200.68 162.54 308.36"/><path class="cls-11" d="M192.82,209.59h-25a7.91,7.91,0,0,1-7.86-7h0a7.91,7.91,0,0,1,7.86-8.81h25a7.91,7.91,0,0,1,7.85,7h0A7.91,7.91,0,0,1,192.82,209.59Z" transform="translate(-0.76 -0.94)"/><path class="cls-11" d="M156.21,309.3h121v9.17H165.38a9.17,9.17,0,0,1-9.17-9.17Z" transform="translate(-0.76 -0.94)"/><rect class="cls-14" x="207.45" y="328.88" width="10.87" height="4.49"/><path class="cls-14" d="M189.67,322.75a11.26,11.26,0,0,1-.84-4.28h49.64a11.45,11.45,0,0,1-.83,4.28Z" transform="translate(-0.76 -0.94)"/><rect class="cls-11" x="220.56" y="309.3" width="56.68" height="9.17" transform="translate(497.03 626.84) rotate(180)"/><path class="cls-6" d="M165.29,196.81a5.3,5.3,0,0,1,1,8.63.66.66,0,0,0,0,.92.67.67,0,0,0,.93,0c3.41-2.66,2.68-8.86-1.23-10.69-.77-.35-1.43.78-.67,1.14Z" transform="translate(-0.76 -0.94)"/><path class="cls-12" d="M200.84,238.71l33.73-44.92L263,217.73c8.95,7.54,3.47,22.14-8.23,21.93Z" transform="translate(-0.76 -0.94)"/><path class="cls-14" d="M227.32,379.63h24l6.6-19.51,21.31-63-31.8-9.16-18.5,68.65-5.82,17.18A4.44,4.44,0,0,0,227.32,379.63Z" transform="translate(-0.76 -0.94)"/><path class="cls-14" d="M227.32,379.63h40.24a4,4,0,0,0,4-4h0a15.6,15.6,0,0,0-13.66-15.48h0l-19.32-2.43-9.67-1.1-5.82,17.18A4.44,4.44,0,0,0,227.32,379.63Z" transform="translate(-0.76 -0.94)"/><path class="cls-12" d="M176.37,201.61h37.06a25.79,25.79,0,0,1,25.79,25.79V292a17.32,17.32,0,0,1-17.32,17.32h-2.24A43.29,43.29,0,0,1,176.37,266v-64.4A0,0,0,0,1,176.37,201.61Z" transform="translate(414.84 509.98) rotate(180)"/><rect class="cls-16" x="215.04" y="186.73" width="13.69" height="23.96" transform="translate(-61.4 103.43) rotate(-23.38)"/><rect class="cls-16" x="215.11" y="187.06" width="12.01" height="23.96" transform="translate(-61.6 103.15) rotate(-23.38)"/><path class="cls-17" d="M220.65,191.51l3.45,8a7.31,7.31,0,0,0,9.56,3.92h0a3.11,3.11,0,0,0,1.57-4.11l-5.13-11.87a3.1,3.1,0,0,0-4.07-1.67l-3.8,1.64A3.11,3.11,0,0,0,220.65,191.51Z" transform="translate(-0.76 -0.94)"/><path class="cls-17" d="M212.79,210h0a9.2,9.2,0,0,0,10.3-7.82l1.74-13.3a4.62,4.62,0,0,0-4.05-5.14L209,182.23a5.21,5.21,0,0,0-5.84,4.43l-1.23,9.47A12.44,12.44,0,0,0,212.79,210Z" transform="translate(-0.76 -0.94)"/><path class="cls-14" d="M200.43,181.91h0a3.86,3.86,0,0,0,3.3,4.31l16.73,2.16a7.64,7.64,0,0,0,8.51-6.63l.21-1.61a3.86,3.86,0,0,0-3.3-4.31l-15.13-2A9.26,9.26,0,0,0,200.43,181.91Z" transform="translate(-0.76 -0.94)"/><path class="cls-14" d="M204.28,180.8l3.79,1a2.76,2.76,0,0,1,1.54,3.55l-4.08,14.76a2.75,2.75,0,0,1-3.15,2.24l-.84-.23c-5.21-1.45-8-7.86-6.21-14.31l.23-.83C196.79,182.59,200.7,179.8,204.28,180.8Z" transform="translate(-0.76 -0.94)"/><path class="cls-17" d="M208.69,191.74c-2.3-3.32-5.05-1.66-5.34-.07l-.2,1.1a4.1,4.1,0,0,0,3.29,4.77l.85.16" transform="translate(-0.76 -0.94)"/><path class="cls-14" d="M257.45,281.57a25.69,25.69,0,0,1,24.34,17.48l20.46,60.5L309,379.63H282a4.43,4.43,0,0,1-4.2-3l-7-20.83-19.2-46.48H200.87a24.49,24.49,0,0,1-24.49-24.49v-3.24Z" transform="translate(-0.76 -0.94)"/><path class="cls-14" d="M270.79,355.78l7,20.83a4.43,4.43,0,0,0,4.2,3h34.39a4,4,0,0,0,4-4h0a15.6,15.6,0,0,0-13.66-15.48l-4.53-.57-14.79-1.86Z" transform="translate(-0.76 -0.94)"/><polygon class="cls-14" points="199.57 220.06 175.67 249.77 175.67 265.53 206.35 264.06 199.57 220.06"/><path class="cls-12" d="M200.33,221v23.21l23.09,2.94a6.39,6.39,0,0,1,5.57,6.33v12.18H190.42a16.12,16.12,0,0,1-16.12-16.12V220.89a19.28,19.28,0,0,1,19.27-19.28h6.76" transform="translate(-0.76 -0.94)"/><path class="cls-17" d="M247.61,265.66H224.3a7.75,7.75,0,0,1-7.73-7.73h0a7.75,7.75,0,0,1,7.73-7.73H248a7.39,7.39,0,0,1,7.37,7.38v.35A7.75,7.75,0,0,1,247.61,265.66Z" transform="translate(-0.76 -0.94)"/><path class="cls-13" d="M257,265.66H230.4a9.6,9.6,0,0,1,9.57-9.57h7.45a9.6,9.6,0,0,1,9.57,9.57Z" transform="translate(-0.76 -0.94)"/><path class="cls-17" d="M235,250.2h2.85a3.77,3.77,0,0,1,3.77,3.77v4.22a7.46,7.46,0,0,1-7.46,7.46h-5.48a4.29,4.29,0,0,1-4.29-4.29v-.55A10.61,10.61,0,0,1,235,250.2Z" transform="translate(465.25 514.93) rotate(-180)"/><path class="cls-17" d="M242.41,258.59h0a3.13,3.13,0,0,1-3.13-3.13v-2.13a3.13,3.13,0,0,1,3.13-3.13h1.76a3.13,3.13,0,0,1,3.13,3.13v.37A4.9,4.9,0,0,1,242.41,258.59Z" transform="translate(-0.76 -0.94)"/><path class="cls-6" d="M235,254.18v10.74a.66.66,0,0,0,1.31,0V254.18a.66.66,0,0,0-1.31,0Z" transform="translate(-0.76 -0.94)"/><path class="cls-6" d="M230,254.18v10.74a.66.66,0,0,0,1.31,0V254.18a.66.66,0,0,0-1.31,0Z" transform="translate(-0.76 -0.94)"/><path class="cls-6" d="M192,205.81a12.7,12.7,0,0,1,7.3,10.22c.08.83,1.39.84,1.31,0a14,14,0,0,0-8-11.35c-.76-.35-1.43.78-.66,1.13Z" transform="translate(-0.76 -0.94)"/><path class="cls-6" d="M219,210.66a32.31,32.31,0,0,1-2.6,6.26h1.13l-3.45-7.5a.66.66,0,0,0-1.13,0l-4.25,7.29h1.13l-9.89-13.23c-.5-.67-1.64,0-1.13.67l9.89,13.22a.66.66,0,0,0,1.13,0l4.25-7.29h-1.13l3.45,7.51a.66.66,0,0,0,1.13,0,34.21,34.21,0,0,0,2.74-6.59c.24-.81-1-1.15-1.27-.34Z" transform="translate(-0.76 -0.94)"/><path class="cls-6" d="M196.29,243.36a12,12,0,0,0-5.61,1.33.66.66,0,0,0-.24.9.67.67,0,0,0,.9.23,10.61,10.61,0,0,1,4.95-1.14.66.66,0,0,0,0-1.32Z" transform="translate(-0.76 -0.94)"/><path class="cls-6" d="M196.34,244.65a9.28,9.28,0,0,0-4.12,4.28.66.66,0,0,0,1.14.67,8.08,8.08,0,0,1,.68-1.22l.2-.28s.09-.12,0,0l.12-.15c.15-.18.3-.35.47-.52a5.67,5.67,0,0,1,.5-.48l.24-.21.15-.12.07,0a8,8,0,0,1,1.18-.74.67.67,0,0,0,.24-.9.67.67,0,0,0-.9-.23Z" transform="translate(-0.76 -0.94)"/><path class="cls-6" d="M233.36,221.84a30.13,30.13,0,0,0,18.46,6.5.66.66,0,0,0,0-1.31,28.71,28.71,0,0,1-17.54-6.12c-.65-.51-1.59.41-.92.93Z" transform="translate(-0.76 -0.94)"/><path class="cls-6" d="M242.25,226.48l4.61,4.57a.66.66,0,0,0,.93-.93l-4.61-4.57c-.6-.59-1.53.34-.93.93Z" transform="translate(-0.76 -0.94)"/><path class="cls-6" d="M212.25,210.35v.44a.51.51,0,0,0,.06.25.46.46,0,0,0,.13.21.49.49,0,0,0,.21.14.58.58,0,0,0,.26.06l.17,0a.58.58,0,0,0,.29-.17l.1-.13a.63.63,0,0,0,.09-.33v-.44a.43.43,0,0,0-.05-.25.49.49,0,0,0-.14-.21.6.6,0,0,0-.21-.14.43.43,0,0,0-.25-.05l-.18,0a.72.72,0,0,0-.29.17l-.1.13a.63.63,0,0,0-.09.33Z" transform="translate(-0.76 -0.94)"/><path class="cls-6" d="M212.31,210.08a350.21,350.21,0,0,1,3.49,35.25c0,.84,1.35.85,1.31,0a353.48,353.48,0,0,0-3.53-35.59c-.13-.84-1.39-.48-1.27.34Z" transform="translate(-0.76 -0.94)"/><path class="cls-6" d="M189.09,274.19a11,11,0,0,0,1.38,6.46.66.66,0,0,0,1.13-.67,9.89,9.89,0,0,1-1.2-5.79.66.66,0,1,0-1.31,0Z" transform="translate(-0.76 -0.94)"/><path class="cls-18" d="M253.31,308.35q5.16,15.76,10.25,31.56c.26.8,1.53.46,1.27-.35q-5.08-15.8-10.26-31.56c-.26-.8-1.53-.46-1.26.35Z" transform="translate(-0.76 -0.94)"/><path class="cls-18" d="M242.64,309H254a.66.66,0,0,0,0-1.31H242.64a.66.66,0,0,0,0,1.31Z" transform="translate(-0.76 -0.94)"/><path class="cls-18" d="M257.52,299.8q8,22.4,14.84,45.19,1.92,6.42,3.75,12.89a.66.66,0,0,0,1.27-.35q-6.48-22.87-14.16-45.38-2.18-6.37-4.44-12.7c-.28-.79-1.55-.45-1.26.35Z" transform="translate(-0.76 -0.94)"/><path class="cls-18" d="M257.54,298.28l-28.11-2.07-13.94-1c-4.36-.32-8.85-.43-13-1.82-4-1.31-7.67-4.13-8.73-8.34a.66.66,0,0,0-1.27.35c2.08,8.23,11.34,10.21,18.61,10.79,9.89.79,19.8,1.46,29.69,2.19l16.78,1.23c.84.06.84-1.25,0-1.31Z" transform="translate(-0.76 -0.94)"/><path class="cls-18" d="M255.32,358.75q-11.37.27-22.75-.15c-.84,0-.84,1.28,0,1.31q11.37.43,22.75.16a.66.66,0,0,0,0-1.32Z" transform="translate(-0.76 -0.94)"/><path class="cls-18" d="M254.59,319.46q-5.33,19.73-10.64,39.43a.66.66,0,0,0,1.27.35l10.63-39.43a.65.65,0,0,0-1.26-.35Z" transform="translate(-0.76 -0.94)"/><path class="cls-18" d="M257.92,355a193.4,193.4,0,0,0-28-1c-.84,0-.84,1.35,0,1.32a192,192,0,0,1,28,1c.84.09.84-1.22,0-1.31Z" transform="translate(-0.76 -0.94)"/><path class="cls-18" d="M300.38,358.58a145.86,145.86,0,0,0-26.26-1c-.84,0-.84,1.35,0,1.31a145,145,0,0,1,26.26,1c.84.11.83-1.21,0-1.32Z" transform="translate(-0.76 -0.94)"/><path class="cls-18" d="M299.23,353.51a74.47,74.47,0,0,0-28.34-.82c-.84.14-.48,1.41.34,1.27a72.68,72.68,0,0,1,27.65.82c.82.18,1.18-1.08.35-1.27Z" transform="translate(-0.76 -0.94)"/><path class="cls-18" d="M257.51,364a7,7,0,0,1,6,6,.66.66,0,1,0,1.31,0,8.32,8.32,0,0,0-7.27-7.29.66.66,0,0,0-.65.65.67.67,0,0,0,.65.66Z" transform="translate(-0.76 -0.94)"/><path class="cls-18" d="M310.29,364.59a8,8,0,0,1,6.08,5.52.65.65,0,0,0,1.26-.35,9.32,9.32,0,0,0-7-6.43.67.67,0,0,0-.8.46.66.66,0,0,0,.45.8Z" transform="translate(-0.76 -0.94)"/><path class="cls-18" d="M318.72,375.85H279.37a.66.66,0,0,0,0,1.31h39.35a.66.66,0,0,0,0-1.31Z" transform="translate(-0.76 -0.94)"/><path class="cls-18" d="M268.44,375.41H226.9a.66.66,0,0,0,0,1.31h41.54a.66.66,0,0,0,0-1.31Z" transform="translate(-0.76 -0.94)"/><path class="cls-18" d="M228.37,367.37a9,9,0,0,1,4,6.95c.05.84,1.36.84,1.31,0a10.33,10.33,0,0,0-4.67-8.08c-.71-.46-1.37.67-.66,1.13Z" transform="translate(-0.76 -0.94)"/><path class="cls-18" d="M278.76,370.13a8.74,8.74,0,0,1,6.67,4.92.66.66,0,0,0,.9.24.67.67,0,0,0,.23-.9,9.88,9.88,0,0,0-7.45-5.52.67.67,0,0,0-.81.46.64.64,0,0,0,.46.8Z" transform="translate(-0.76 -0.94)"/><path class="cls-18" d="M185.32,291.64a10.19,10.19,0,0,1-6.95,2.94.66.66,0,0,0,0,1.31,11.5,11.5,0,0,0,7.88-3.33c.6-.59-.33-1.52-.93-.92Z" transform="translate(-0.76 -0.94)"/><path class="cls-6" d="M215.59,248.63a9.43,9.43,0,0,0-1.57,13.5c.56.63,1.49-.3.93-.93a8.11,8.11,0,0,1,1.3-11.44c.68-.49,0-1.63-.66-1.13Z" transform="translate(-0.76 -0.94)"/><path class="cls-6" d="M178.19,253.84a8,8,0,0,1,5.38,8.84c-.16.82,1.11,1.18,1.27.35a9.3,9.3,0,0,0-6.3-10.45.65.65,0,0,0-.35,1.26Z" transform="translate(-0.76 -0.94)"/><path class="cls-6" d="M264,221.24a12.11,12.11,0,0,0-2,14c.4.75,1.53.08,1.13-.66A10.79,10.79,0,0,1,265,222.17c.6-.6-.33-1.53-.92-.93Z" transform="translate(-0.76 -0.94)"/><path class="cls-6" d="M219,195.15a14.21,14.21,0,0,1,1,5.58.66.66,0,0,0,1.31,0,15.24,15.24,0,0,0-1.07-5.93.68.68,0,0,0-.81-.46.67.67,0,0,0-.46.81Z" transform="translate(-0.76 -0.94)"/><path class="cls-6" d="M217.54,202.7l-.12,0h0l-.27,0h-.6c-.05,0-.13,0,0,0l-.24,0a3.92,3.92,0,0,1-.49-.13l-.23-.08c-.1,0,.08,0,0,0l-.11,0a3.75,3.75,0,0,1-.44-.24l-.2-.14s-.07,0,0,0l-.1-.08a4.4,4.4,0,0,1-.38-.37.66.66,0,0,0-.93,0,3.12,3.12,0,0,0,1.53,5,.65.65,0,1,0,.35-1.26l-.3-.09c-.12,0,.12.07,0,0l-.12-.06-.13-.07a.1.1,0,0,0-.05,0l0,0c-.05,0-.15-.13-.19-.17l-.09-.09s-.12-.16-.06-.07l0-.08-.07-.11c0-.08-.09-.18-.14-.26l0,.06a.36.36,0,0,1,0-.09l0-.12a2.5,2.5,0,0,1-.07-.26.8.8,0,0,0,0-.15c0-.05,0,0,0,.06a.28.28,0,0,0,0-.09c0-.08,0-.17,0-.26a.76.76,0,0,0,0-.15c0-.17,0,.11,0,0l.06-.26s0-.08,0-.12,0,.06,0,0a1.71,1.71,0,0,1,.13-.23l.05-.07-.05.06s.09-.1.12-.13h-.93a4.89,4.89,0,0,0,4.51,1.44.67.67,0,0,0,.46-.81.68.68,0,0,0-.81-.46Z" transform="translate(-0.76 -0.94)"/></g><g id="Table"><polygon class="cls-5" points="180.91 378.69 174.34 378.69 210.64 271.4 217.21 271.4 257.82 271.4 263.18 271.4 264.39 271.4 300.69 378.69 294.12 378.69 262.56 285.4 212.47 285.4 180.91 378.69"/><polygon class="cls-5" points="176.18 378.69 169.61 378.69 205.91 271.4 212.48 271.4 253.1 271.4 258.46 271.4 259.67 271.4 295.96 378.69 289.39 378.69 257.83 285.4 207.74 285.4 176.18 378.69"/><polygon class="cls-14" points="205.91 271.4 210.64 271.4 212.48 271.4 217.21 271.4 253.1 271.4 257.82 271.4 258.46 271.4 259.67 271.4 263.18 271.4 264.39 271.4 266.95 278.95 262.22 278.95 208.08 278.95 203.35 278.95 205.91 271.4"/><polyline class="cls-5" points="348.09 272.29 183.25 272.29 183.25 264.75 348.09 264.75"/></g><g id="Plant_1" data-name="Plant 1"><path class="cls-7" d="M133.18,286.69s.47,8.33,3.31,25.54S140.1,342,140.1,342l-2.84.46s-1.67-23-3.35-31.17A78.58,78.58,0,0,1,133.18,286.69Z" transform="translate(-0.76 -0.94)"/><path class="cls-11" d="M126.42,335.85h25.36a4.5,4.5,0,0,1,4.44,5.22l-5.88,36.36a2.61,2.61,0,0,1-2.58,2.2H123.25a2.6,2.6,0,0,1-2.58-2.2l-5.89-36.36a4.51,4.51,0,0,1,4.45-5.22Z" transform="translate(-0.76 -0.94)"/><path class="cls-11" d="M133.88,335.85h17.9a4.5,4.5,0,0,1,4.44,5.22l-5.88,36.36a2.61,2.61,0,0,1-2.58,2.2H130.7a2.62,2.62,0,0,1-2.58-2.2l-5.88-36.36a4.5,4.5,0,0,1,4.44-5.22Z" transform="translate(-0.76 -0.94)"/><path class="cls-9" d="M128.31,305.26s-8-3.44-15.58-3.44c-6.13,0-15.79,4.23-11.19,6.09s10.79-.53,11,2.12-12.79-1.86-14.59,1.32-8,5.3-4.2,8.48,14-4,15.39-.8-16.39,3.18-15.59,7.68-1,8.21.4,11.13,9.19-.53,13.39-.53,8.39-2.12,6-5.83-3.8-8.21.2-6.62,3.19,7.94,9.79,3.18-1.75-9-1.2-11.92c.7-3.71,4.62,2.12,7.95,2.38C136,319,138,318,136,312.94S132.51,308.17,128.31,305.26Z" transform="translate(-0.76 -0.94)"/><path class="cls-9" d="M140.37,320.73c.51-5.68,12.67-6.94,9-4.73s-10.09,8.51-1.55,14.18,7.5-1.89,12.67-3.78,3.36,3.47.26,7.88,2.32,6.93,7.76,6.93,15.51,4.1,17.32.63-.51-7.88.52-13.23-16-6-14.15-9.78,9,5.36,13.89,1.58-3.1-6.3-5.43-10.08-19.14,1.57-18.88-1.58,8.28-.32,14.23-2.52S169.51,299,161.57,299c-9.82,0-20.17,4.1-20.17,4.1-5.43,3.46-5.17,4.72-7.76,10.71S139.85,326.4,140.37,320.73Zm28.1-5.36c2.73,1.17,1.57,4.1-.32,2.83S166.26,314.42,168.47,315.37Zm-18.21-5.05c3.05-.7,3.79,2.45,1.42,2.56S147.8,310.89,150.26,310.32Z" transform="translate(-0.76 -0.94)"/><path class="cls-7" d="M137.8,313.82s-6.15.33-10.35,3.11c-3.39,2.25-6.59,9-3.12,8.72s5.7-4.36,7.14-2.42-8,3.29-7.4,6.35-1.75,6.95,1.94,8,4.63-7.36,7-5.47-6.35,7.64-3.64,10.76,3.57,6.59,5.81,8.28,4.82-3.78,7.14-5.32,3.2-4.18.38-6.61-5-4.48-2-4.74,4.51,4.5,5.76-1.54-5.51-6.2-6.65-8.58c-1.48-3.07,3.62-.09,5.59-1.11,3.5-1.82,4.12-3.31.48-6.39S141.59,314.49,137.8,313.82Z" transform="translate(-0.76 -0.94)"/><path class="cls-19" d="M127.49,305.89c-4.7.24-8.64,3.83-11.78,7-4.2,4.26-7.81,9.05-11.72,13.55-1.15,1.32-2.36,2.58-3.48,3.92a58.52,58.52,0,0,1-4,4.58c-.61.6.29,1.46.93.93a107.16,107.16,0,0,0,14.17-13.76c3.08-3.78,5.84-8,9.8-11a16.65,16.65,0,0,1,8.17-3.31c.83-.1.84-1.41,0-1.31-5.3.61-9.53,3.48-13,7.37-1.72,1.92-3.26,4-4.85,6a71.43,71.43,0,0,1-5.81,6.48c-3,3-6.15,5.83-9.39,8.57l.93.93c2.33-2.27,4.32-4.91,6.48-7.33,1.89-2.1,3.68-4.29,5.49-6.47,3.51-4.22,7-8.71,11.49-12a12.52,12.52,0,0,1,6.63-2.86c.84,0,.85-1.36,0-1.31Z" transform="translate(-0.76 -0.94)"/><path class="cls-19" d="M114.68,303.17a24.49,24.49,0,0,0-7.75,1.12,3.72,3.72,0,0,0-1.86,1,1.3,1.3,0,0,0,.08,1.8,2.83,2.83,0,0,0,1.92.53l5.51.22c.84,0,.84-1.28,0-1.32l-4.41-.17a8.41,8.41,0,0,1-1.88-.11c-.1,0-.25-.15-.25-.06,0-.14.36-.29.46-.34a17.38,17.38,0,0,1,4-1,23.21,23.21,0,0,1,4.17-.3.66.66,0,0,0,0-1.31Z" transform="translate(-0.76 -0.94)"/><path class="cls-19" d="M104.81,312l-2.51-.32a8,8,0,0,0-1.89-.12,2.12,2.12,0,0,0-1.55.8c-.42.58-.23,1.27-.53,1.87a2.74,2.74,0,0,1-1.36,1,4.92,4.92,0,0,0-1.7,1.15,1.92,1.92,0,0,0,.64,3.12,5.22,5.22,0,0,0,2.39,0,12.74,12.74,0,0,0,2.65-.68c.79-.28.45-1.55-.35-1.26a13.12,13.12,0,0,1-2.48.65,9,9,0,0,1-1.15.11,1.2,1.2,0,0,1-.81-.14c-.45-.42.23-1.11.55-1.32.56-.37,1.21-.57,1.77-1a2.86,2.86,0,0,0,1.18-1.47c.17-.54,0-1.33.63-1.53a4.35,4.35,0,0,1,1.83.06l2.69.35a.67.67,0,0,0,.66-.66.69.69,0,0,0-.66-.66Z" transform="translate(-0.76 -0.94)"/><path class="cls-19" d="M110.24,331.75c.22.37.66,1,.38,1.42a1.34,1.34,0,0,1-.84.43c-1,.24-2,.28-3,.49a24.39,24.39,0,0,0-6.24,2.25c-.75.39-.09,1.53.66,1.14a22.9,22.9,0,0,1,7.41-2.39,4.84,4.84,0,0,0,2.8-.85c1-.89.56-2.17,0-3.15-.44-.72-1.57-.06-1.13.66Z" transform="translate(-0.76 -0.94)"/><path class="cls-19" d="M115.37,324.17a5,5,0,0,1,2,.77,8.19,8.19,0,0,1,1.52,1.48,3.43,3.43,0,0,0,1.75,1.17,2.07,2.07,0,0,0,2-.5c.59-.61-.34-1.54-.92-.93a1,1,0,0,1-1.15,0,6,6,0,0,1-1.34-1.32,6.24,6.24,0,0,0-3.49-2,.68.68,0,0,0-.81.46.66.66,0,0,0,.46.81Z" transform="translate(-0.76 -0.94)"/><path class="cls-19" d="M99.42,324.59c-1.64-.22-2.79,1.25-3.25,2.64-.25.76-.39,1.56-.57,2.34l-.6,2.64c-.19.82,1.08,1.17,1.27.35.33-1.46.63-2.94,1-4.39.26-1,.83-2.44,2.15-2.27a.66.66,0,0,0,0-1.31Z" transform="translate(-0.76 -0.94)"/><path class="cls-20" d="M144,330.59l.09.11,0-.07,0,.06a1.23,1.23,0,0,1,.14.25c0,.06,0-.08,0-.08a.19.19,0,0,0,0,.07.65.65,0,0,1,0,.13l0,.12v.06c0,.12,0-.13,0-.05s0,.17,0,.26,0,.08,0,.13,0,.11,0,0,0,0,0,0a1.37,1.37,0,0,1-.07.24.64.64,0,0,1,0,.07c0,.1,0,0,0-.06l-.06.13a.75.75,0,0,1-.07.12s-.1.14,0,.05,0,0,0,0l-.12.11c-.11.1.1-.07,0,0l-.12.07-.1.06.08,0-.1,0-.23.07h-.14a1.13,1.13,0,0,1-.26,0h0l-.13,0-.15-.05-.07,0c-.07,0,.16.08,0,0a2.07,2.07,0,0,1-.25-.15c-.12-.08.1.09,0,0l-.11-.11-.09-.1c.11.1.07.09,0,.05a.41.41,0,0,1-.05-.09.66.66,0,0,0-.9-.23.66.66,0,0,0-.24.89,2.5,2.5,0,0,0,2.75,1.06,2.36,2.36,0,0,0,1.71-2.38,2.47,2.47,0,0,0-.67-1.67.66.66,0,0,0-.93.93Z" transform="translate(-0.76 -0.94)"/><path class="cls-20" d="M125.74,330a4.57,4.57,0,0,0-.78,3.62,2.31,2.31,0,0,0,1.09,1.36,1.91,1.91,0,0,0,1.74,0,1.66,1.66,0,0,0,1-1.51.66.66,0,0,0-1.31,0v.1c0-.1,0-.11,0,0s-.07.17,0,0l-.07.12c.08-.14,0,0,0,0s.06,0,0,0l-.12.07c-.12.08.1,0,0,0l-.19.05c-.13,0,.12,0,0,0h-.19l-.07,0c.08,0,.09,0,0,0l-.14-.09c-.12-.07.05.06,0,0a1.14,1.14,0,0,1-.15-.16c.07.09,0,0,0-.05l-.08-.15c0-.06,0-.06,0,0l0-.08a2.37,2.37,0,0,1-.09-.36c0-.16,0,.08,0-.06a1.76,1.76,0,0,1,0-.23,1,1,0,0,1,0-.17c0-.21,0,.1,0-.11a5.85,5.85,0,0,1,.73-1.71.66.66,0,0,0-1.14-.66Z" transform="translate(-0.76 -0.94)"/><path class="cls-20" d="M131.38,320.49a2.17,2.17,0,0,0-2-.13,11.88,11.88,0,0,0-1.72,1.09l-.33.19-.19.05s-.1,0,0,0H127c-.05,0-.21,0-.09,0l-.16,0s.09,0,0,0,0,0,0,0-.07-.08,0,0,0-.08,0,0,0,.14,0,.13l.07-.11a3.53,3.53,0,0,1,.33-.35c.25-.24.5-.46.77-.68a9.77,9.77,0,0,1,1.94-1.16.67.67,0,0,0,.24-.9.67.67,0,0,0-.9-.24,10.69,10.69,0,0,0-2,1.2,11,11,0,0,0-1,.83,2.54,2.54,0,0,0-.75,1,1.29,1.29,0,0,0,1.32,1.57,3.23,3.23,0,0,0,2-.88,6,6,0,0,1,.52-.36,1.64,1.64,0,0,1,.42-.21,1.53,1.53,0,0,1,.29-.07c.12,0-.07,0,.05,0h.23l.08,0c.07,0,0,0,0,0a1.18,1.18,0,0,1,.19.11.64.64,0,0,0,.89-.23.66.66,0,0,0-.23-.9Z" transform="translate(-0.76 -0.94)"/><path class="cls-20" d="M144.25,318.17a3.46,3.46,0,0,1,.88,1.48.71.71,0,0,1-.07.51,1.06,1.06,0,0,1-.55.42,8.66,8.66,0,0,1-4.2.4c-.35-.05-.65.33-.65.65a.67.67,0,0,0,.65.66,10.32,10.32,0,0,0,2.72,0,6,6,0,0,0,2.46-.73,2.05,2.05,0,0,0,.91-2.2,4.61,4.61,0,0,0-1.22-2.1.66.66,0,0,0-.93,0,.68.68,0,0,0,0,.93Z" transform="translate(-0.76 -0.94)"/><path class="cls-20" d="M141.11,341.86c.81.67-.45,1.7-1,2a9.49,9.49,0,0,0-1.46,1,3.73,3.73,0,0,0-.93,1.33c-.18.38-.34.91-.71,1.14a1.7,1.7,0,0,1-1.29.09,1.08,1.08,0,0,1-.82-.59,11.37,11.37,0,0,1-.45-1.09c-.3-.8-.62-2-1.44-2.41s-1.41.74-.66,1.14c.06,0,0,0,.11.08l.1.14a4.05,4.05,0,0,1,.32.62c.21.48.37,1,.57,1.45a4.13,4.13,0,0,0,.64,1.21,2.74,2.74,0,0,0,1.63.79,3.13,3.13,0,0,0,1.86-.24,2.68,2.68,0,0,0,1.12-1.34,3.6,3.6,0,0,1,1-1.5c.53-.4,1.15-.67,1.68-1.07,1.06-.79,1.88-2.64.64-3.66a.67.67,0,0,0-.93,0,.64.64,0,0,0,0,.92Z" transform="translate(-0.76 -0.94)"/><path class="cls-20" d="M135,315.05c1.35,10.13.51,20.2.46,30.36h1.31A291.7,291.7,0,0,1,135.4,316a.66.66,0,0,0-1.31,0,291.7,291.7,0,0,0,1.4,29.41.66.66,0,0,0,1.31,0c0-10.16.89-20.23-.46-30.36-.11-.82-1.42-.83-1.31,0Z" transform="translate(-0.76 -0.94)"/><path class="cls-19" d="M143.72,304.05c2.87.05,5.79,1.47,8.23,2.85a42.39,42.39,0,0,1,8,6.49,141.66,141.66,0,0,1,15.57,17.1,109,109,0,0,1,7.15,10.58.66.66,0,0,0,1.14-.66,119.28,119.28,0,0,0-14.16-19c-2.71-3-5.55-5.89-8.49-8.67a47,47,0,0,0-8-6.64c-2.78-1.65-6.16-3.29-9.46-3.36a.66.66,0,0,0,0,1.32Z" transform="translate(-0.76 -0.94)"/><path class="cls-19" d="M145,303.1c2.95.26,5.87,1.83,8.38,3.31a35.07,35.07,0,0,1,7.56,6.41,173.3,173.3,0,0,1,14.71,17.08,101.34,101.34,0,0,1,7.05,11.17c.41.74,1.54.08,1.14-.66a110.81,110.81,0,0,0-13.45-19.21c-2.63-3-5.37-6-8.14-8.9a38.2,38.2,0,0,0-7.67-6.69c-2.85-1.76-6.19-3.52-9.58-3.82-.85-.07-.84,1.24,0,1.31Z" transform="translate(-0.76 -0.94)"/><path class="cls-19" d="M170.58,302.66A4.13,4.13,0,0,1,173.2,304l.21.26.1.14c.13,0,.15,0,.07,0s-.59.1-.73.12c-.65.06-1.31.11-2,.14a53.15,53.15,0,0,1-7.88-.15c-.84-.08-.83,1.23,0,1.31a47.76,47.76,0,0,0,10.42-.05,1.54,1.54,0,0,0,1.4-.94,2,2,0,0,0-.7-1.79,5.51,5.51,0,0,0-3.55-1.75c-.84-.09-.84,1.22,0,1.31Z" transform="translate(-0.76 -0.94)"/><path class="cls-19" d="M146.58,312.22a4.53,4.53,0,0,0-4,1.25.65.65,0,1,0,.92.93l.31-.28h0l.11-.08.17-.11.36-.2.1,0c.08,0-.1,0,0,0l.22-.07a2.62,2.62,0,0,1,.4-.11s.17-.06.2,0-.12,0,0,0h.75l.1,0c.1,0-.16,0,0,0a.67.67,0,0,0,.8-.46.66.66,0,0,0-.45-.81Z" transform="translate(-0.76 -0.94)"/><path class="cls-19" d="M137.55,312a2.77,2.77,0,0,1,.1-.26s0-.07,0-.11.05-.12,0-.06l0-.09a.54.54,0,0,1,.05-.11,2.14,2.14,0,0,1,.1-.22,10.53,10.53,0,0,1,.52-.93l.29-.43.14-.19s0-.07,0,0l.09-.12c.23-.28.46-.54.71-.79a.65.65,0,1,0-.92-.93,10.38,10.38,0,0,0-2.46,3.9.67.67,0,0,0,.45.81.67.67,0,0,0,.81-.46Z" transform="translate(-0.76 -0.94)"/><path class="cls-19" d="M162.1,323.21c-2.87-.72-5.58,1-7.31,3.18-.89,1.13-1.83,2.42-3.45,2s-2.48-1.82-3.25-3.11c-.43-.72-1.57-.06-1.13.66a8,8,0,0,0,3.15,3.39,3.8,3.8,0,0,0,4-.27c1.21-.92,1.92-2.34,3.11-3.31a5.26,5.26,0,0,1,4.54-1.28.66.66,0,0,0,.34-1.27Z" transform="translate(-0.76 -0.94)"/><path class="cls-19" d="M165.83,328.87a7.67,7.67,0,0,1-1.34,3.23,17,17,0,0,0-1.94,3,3.1,3.1,0,0,0,.38,3.17,2.21,2.21,0,0,0,2.67.52c.75-.4.09-1.53-.66-1.13s-1.23-.34-1.32-.91a3.44,3.44,0,0,1,.91-2.46,11.65,11.65,0,0,0,2.57-5,.68.68,0,0,0-.46-.81.66.66,0,0,0-.81.46Z" transform="translate(-0.76 -0.94)"/></g></g><g id="Vendor"><path class="cls-21" d="M34.92,211.26,46.64,209l12.9-2.48L46.35,193.33,37,183.94l-10.8,10.79C19.34,201.55,25.46,213.07,34.92,211.26Z" transform="translate(-0.76 -0.94)"/><polygon class="cls-17" points="36.2 183 58.78 205.58 69.73 203.47 77.14 202.05 77.14 180.5 55.32 163.88 42.73 176.47 36.2 183"/><polygon class="cls-22" points="33.74 180.55 64.11 210.91 70.64 204.39 69.73 203.47 42.73 176.47 40.27 174.01 33.74 180.55"/><polygon class="cls-14" points="48.11 194.91 58.78 205.58 45.87 208.06 45.87 207.69 48.11 194.91"/><path class="cls-21" d="M51,173.9h63.11a0,0,0,0,1,0,0v42.77a26.57,26.57,0,0,1-26.57,26.57H85.3A34.28,34.28,0,0,1,51,209V173.9A0,0,0,0,1,51,173.9Z" transform="translate(164.39 416.2) rotate(180)"/><path class="cls-5" d="M14.77,208.37c3.18,0,5.78-2,5.78-4.54v-4.54h0c0-1.84-1.87-3.33-4.17-3.33v-3.54H37V196c-2.31,0-4.17,1.49-4.17,3.33h0v4.54c0,2.53,2.6,4.5,5.77,4.54,2.81,0,5.07,1.85,5.07,4.09V228c0,6.09-6.19,11-13.83,11H23.54C15.9,239,9.7,234.11,9.7,228V212.46C9.7,210.22,12,208.4,14.77,208.37Z" transform="translate(-0.76 -0.94)"/><path class="cls-5" d="M50.1,239H3.24a2.1,2.1,0,0,0-2.1,2.1h0a2.1,2.1,0,0,0,2.1,2.1H50.1a2.11,2.11,0,0,0,2.1-2.1h0A2.11,2.11,0,0,0,50.1,239Z" transform="translate(-0.76 -0.94)"/><path class="cls-13" d="M57.29,202h31.2a10.76,10.76,0,0,0,10.72,10.67h0a10.64,10.64,0,0,0,7.4-3v33.56H51V211.69A10.74,10.74,0,0,0,57.29,202Z" transform="translate(-0.76 -0.94)"/><polygon class="cls-14" points="89.92 195.13 90.88 224.18 106.95 221.82 89.92 195.13"/><path class="cls-17" d="M51.92,224.45h.6a1.79,1.79,0,0,1,1.7,1.26l59.91-6.23v23.76H36.73a1.79,1.79,0,0,1-1.79-1.79h0A17,17,0,0,1,51.92,224.45Z" transform="translate(-0.76 -0.94)"/><path class="cls-21" d="M90.69,196.07,95,216.88l.93,4.48,4.54,21.88h15.07A8.66,8.66,0,0,0,124,232.82l-7.81-37.58a26.78,26.78,0,0,0-18-20,25.71,25.71,0,0,0-3.3-.84l-1.34-.22a26.76,26.76,0,0,0-3.6-.24H86.08V174" transform="translate(-0.76 -0.94)"/><polygon class="cls-22" points="86.88 215.94 86.88 242.3 99.73 242.3 94.25 215.94 86.88 215.94"/><path class="cls-17" d="M47.71,243.24H36.25A6.42,6.42,0,0,1,30.7,240h0l-1.71-3a2,2,0,0,1,.72-2.7h0a2,2,0,0,1,2.7.72h0a6.34,6.34,0,0,0,5.5,3.18h4.73" transform="translate(-0.76 -0.94)"/><path class="cls-17" d="M45,239.45H33.57a6.36,6.36,0,0,1-5.55-3.2h0l-1.72-3a2,2,0,0,1,.72-2.7h0a2,2,0,0,1,2.7.72h0a6.36,6.36,0,0,0,5.5,3.17H40" transform="translate(-0.76 -0.94)"/><path class="cls-17" d="M45,235.19H33.57A6.43,6.43,0,0,1,28,232h0l-1.71-3a2,2,0,0,1,.72-2.7h0a2,2,0,0,1,2.7.72h0a6.36,6.36,0,0,0,5.5,3.17H40" transform="translate(-0.76 -0.94)"/><path class="cls-17" d="M47.2,225.77l-5.17.11a2.36,2.36,0,0,1-2.37-2.35h0A2.36,2.36,0,0,1,42,221.18h7.54a4.71,4.71,0,0,1,4.74,4.69h0" transform="translate(-0.76 -0.94)"/><path class="cls-23" d="M58.39,195v7h5.68v-7.62c0-10.21,2.24-18.78,7.7-21.11H70.9C64,173.27,58.39,183,58.39,195Z" transform="translate(-0.76 -0.94)"/><path class="cls-23" d="M80,193.71V202h6.72V193a30.24,30.24,0,0,1,1.4-9.13c.12-.39.25-.78.4-1.16a26.39,26.39,0,0,1,4.51-7.89c.17-.21.36-.42.55-.63a26.76,26.76,0,0,0-3.6-.24H87.8l0,0-.63.65c-.25.27-.49.55-.73.83A28.44,28.44,0,0,0,80,193.71Z" transform="translate(-0.76 -0.94)"/><rect class="cls-22" x="59.85" y="155.33" width="13.76" height="22.07" transform="translate(56.92 344.46) rotate(-155.25)"/><rect class="cls-22" x="61.6" y="155.71" width="11.93" height="22.07" transform="translate(58.34 345.54) rotate(-155.25)"/><path class="cls-17" d="M55.28,168.38h0a9.24,9.24,0,0,0,12.28-4.53l3-6.42a1.6,1.6,0,0,0-.78-2.11l-7-3.21a1.58,1.58,0,0,0-2.1.78L54.5,166.28A1.58,1.58,0,0,0,55.28,168.38Z" transform="translate(-0.76 -0.94)"/><rect class="cls-14" x="77.77" y="142.02" width="13.82" height="21.37" rx="6.66" transform="translate(168.6 304.46) rotate(180)"/><polygon class="cls-17" points="72.33 152.58 84.54 152.58 88.43 172.96 72.33 172.96 72.33 152.58"/><path class="cls-17" d="M75.3,146h.63a7,7,0,0,1,7,7v19.06a3,3,0,0,1-3,3H73.48a8.18,8.18,0,0,1-8.18-8.18V156a10,10,0,0,1,10-10Z" transform="translate(147.51 320.11) rotate(-180)"/><path class="cls-14" d="M76.06,163.51A4.49,4.49,0,0,0,80.55,159v-11A7.6,7.6,0,0,1,83,153.61v12.13a9.33,9.33,0,0,1-9.32,9.33H71.86a6.56,6.56,0,0,1-6.56-6.56v-5Z" transform="translate(-0.76 -0.94)"/><rect class="cls-14" x="58.71" y="133.79" width="27.54" height="15.84" rx="7.64" transform="translate(144.19 282.48) rotate(-180)"/><rect class="cls-11" x="75.71" y="150.46" width="17.51" height="1.96" rx="0.95" transform="translate(114.36 321.18) rotate(-161.03)"/><path class="cls-17" d="M82.74,151.81c2.92-1.47,5.85.2,5.94,3.26.07,2.71-3,4.18-4.86,4.18" transform="translate(-0.76 -0.94)"/><path class="cls-6" d="M95.21,178.36a22.39,22.39,0,0,0-4.49,15.1c.07.84,1.38.85,1.32,0A21.12,21.12,0,0,1,96.35,179c.51-.67-.63-1.33-1.14-.67Z" transform="translate(-0.76 -0.94)"/><path class="cls-6" d="M48.63,199.6a14.65,14.65,0,0,1-9.46,4.08c-.84,0-.85,1.36,0,1.32a16.12,16.12,0,0,0,10.39-4.47c.61-.59-.32-1.52-.93-.93Z" transform="translate(-0.76 -0.94)"/><path class="cls-6" d="M86.11,173.6a42.88,42.88,0,0,0-9,8.05l1,.14-3.07-6.06a.66.66,0,0,0-1.13,0l-3.45,5.92h1.13l-2-3.73c-.4-.74-1.53-.08-1.13.67l2,3.73a.66.66,0,0,0,1.13,0l3.45-5.93H74q1.53,3,3.07,6.06a.66.66,0,0,0,1,.13,41.32,41.32,0,0,1,8.69-7.85c.71-.46,0-1.59-.66-1.13Z" transform="translate(-0.76 -0.94)"/><path class="cls-6" d="M73.9,181.42A69.6,69.6,0,0,0,71.64,201c0,.84,1.34.84,1.31,0a68.22,68.22,0,0,1,2.21-19.24.65.65,0,0,0-1.26-.35Z" transform="translate(-0.76 -0.94)"/><path class="cls-6" d="M67.06,190.9H64.7a.66.66,0,0,0-.66.65.67.67,0,0,0,.66.66h2.36a.66.66,0,1,0,0-1.31Z" transform="translate(-0.76 -0.94)"/><path class="cls-6" d="M58.55,190.9H56.66a.66.66,0,1,0,0,1.31h1.89a.66.66,0,1,0,0-1.31Z" transform="translate(-0.76 -0.94)"/><path class="cls-6" d="M69.73,155.15a6.88,6.88,0,0,1-2.2,4.72c-.62.57.31,1.5.93.93a8.27,8.27,0,0,0,2.59-5.65.68.68,0,0,0-.66-.66.67.67,0,0,0-.66.66Z" transform="translate(-0.76 -0.94)"/><path class="cls-24" d="M69.66,169.23l5.47-1.66-.74-.3s0,.09,0,0l0,.12c0,.1,0,.2.07.29s0-.08,0,0,0,.09,0,.13,0,.18,0,.27,0-.09,0,0a1,1,0,0,1,0,.17c0,.08,0,.17-.07.26a2.19,2.19,0,0,1-.2.42,2.11,2.11,0,0,1-.62.67l-.23.14a.33.33,0,0,1-.12.05c.07,0,0,0,0,0a1.32,1.32,0,0,1-.49.1.67.67,0,0,0-.65.66.66.66,0,0,0,.65.65,3.35,3.35,0,0,0,2.79-4.69.66.66,0,0,0-.74-.3L69.31,168a.66.66,0,0,0,.35,1.27Z" transform="translate(-0.76 -0.94)"/><path class="cls-6" d="M85.52,204.6h-26a.66.66,0,0,0,0,1.32h26a.66.66,0,0,0,0-1.32Z" transform="translate(-0.76 -0.94)"/><path class="cls-6" d="M80.28,219.61H60.51a.66.66,0,0,0,0,1.31H80.28a.66.66,0,0,0,0-1.31Z" transform="translate(-0.76 -0.94)"/><path class="cls-6" d="M59.14,220.27V225a.66.66,0,1,0,1.31,0v-4.76a.66.66,0,1,0-1.31,0Z" transform="translate(-0.76 -0.94)"/><path class="cls-6" d="M120.6,226.47A15.92,15.92,0,0,0,112.53,240a.66.66,0,0,0,1.32,0,14.57,14.57,0,0,1,7.41-12.44.65.65,0,0,0-.66-1.13Z" transform="translate(-0.76 -0.94)"/></g><g id="Customer"><g class="cls-25"><path class="cls-13" d="M272.89,65.92,203.79,1.56a1,1,0,0,0-1.29,0L133.4,65.91a.84.84,0,0,0,.64,1.45h17.77a.89.89,0,0,1,.92.85V130a.88.88,0,0,0,.91.85h99a.88.88,0,0,0,.91-.85V68.21a.88.88,0,0,1,.91-.84h17.77A.84.84,0,0,0,272.89,65.92Z" transform="translate(-0.76 -0.94)"/><path class="cls-17" d="M217.86,71.86l-20.59,30.53a10.92,10.92,0,0,1-.7.91,9.23,9.23,0,0,1-13.85,0l-8.95-10.13,18.57-16.44L209.09,62Z" transform="translate(-0.76 -0.94)"/><path class="cls-6" d="M230.55,63.48c-1.8.33-3.62-.33-5.43.07a3.74,3.74,0,0,0-3,3.19c-.45,2.78-.17,6.33,2.31,8.11,1.63,1.19,4,1.27,5.88,1.59.83.14,1.19-1.12.35-1.26-1.05-.18-2.11-.34-3.16-.54a5.41,5.41,0,0,1-2.59-1.07,5.81,5.81,0,0,1-1.63-4.23c-.07-1.6-.08-3.77,1.72-4.39s4,.15,5.91-.2c.83-.15.48-1.42-.35-1.27Z" transform="translate(-0.76 -0.94)"/><path class="cls-11" d="M238.57,60.16h.75a10.19,10.19,0,0,1,10.19,10.19V77.5A5.47,5.47,0,0,1,244.05,83H233.85a5.47,5.47,0,0,1-5.47-5.47V70.35a10.19,10.19,0,0,1,10.19-10.19Z" transform="translate(477.14 142.19) rotate(-180)"/><path class="cls-18" d="M239.14,57.21s4.94-3.7,5.44-8.15-4.21-6.68-4.7-10.14a11.3,11.3,0,0,1,1.48-6.68s-4.7,3.71-4.7,8.16,3.47,5.19,4,8.16A15.64,15.64,0,0,1,239.14,57.21Z" transform="translate(-0.76 -0.94)"/><path class="cls-17" d="M213.24,60.58h.45a4.66,4.66,0,0,1,4.66,4.66v6a4.66,4.66,0,0,1-4.66,4.66h-3.3a4.66,4.66,0,0,1-4.66-4.66V68.08a7.5,7.5,0,0,1,7.5-7.5Z"/><path class="cls-17" d="M212.39,65.77h4.93a5.9,5.9,0,0,1,5.89,5.88V82.26a5.91,5.91,0,0,1-5.89,5.89h-4.93a5.91,5.91,0,0,1-5.89-5.89V71.65" transform="translate(-0.76 -0.94)"/><path class="cls-17" d="M220.84,85.31H214.7a2.85,2.85,0,0,1-2.84-2.84h0a2.84,2.84,0,0,1,2.84-2.83h6.14a2.84,2.84,0,0,1,2.84,2.83h0A2.85,2.85,0,0,1,220.84,85.31Z" transform="translate(-0.76 -0.94)"/><path class="cls-17" d="M220.84,80.9H214.7a2.85,2.85,0,0,1-2.84-2.84h0a2.84,2.84,0,0,1,2.84-2.83h6.14a2.84,2.84,0,0,1,2.84,2.83h0A2.85,2.85,0,0,1,220.84,80.9Z" transform="translate(-0.76 -0.94)"/><path class="cls-17" d="M220.84,76.17H214.7a2.85,2.85,0,0,1-2.84-2.84h0a2.84,2.84,0,0,1,2.84-2.83h6.14a2.84,2.84,0,0,1,2.84,2.83h0A2.85,2.85,0,0,1,220.84,76.17Z" transform="translate(-0.76 -0.94)"/><path class="cls-17" d="M224.15,71.44h-4.73a2.83,2.83,0,0,1-2.83-2.83h0a2.84,2.84,0,0,1,2.83-2.84h4.73A2.85,2.85,0,0,1,227,68.61h0A2.84,2.84,0,0,1,224.15,71.44Z" transform="translate(-0.76 -0.94)"/><path class="cls-14" d="M196.57,103.3a9.23,9.23,0,0,1-13.85,0l-8.95-10.13,18.57-16.44Z" transform="translate(-0.76 -0.94)"/><path class="cls-21" d="M199,82.52a9.61,9.61,0,0,0-5.86-8.85A16.38,16.38,0,0,1,186.82,69a25.8,25.8,0,0,0-20-9.57h-5.52a20.71,20.71,0,0,0-20.64,20.65v60.78h52V91.58A9.6,9.6,0,0,0,199,82.52Z" transform="translate(-0.76 -0.94)"/><path class="cls-14" d="M167.83,89.24,164.9,115c.84-.84,10.92-4,10.92-4l-4-18.58A10.2,10.2,0,0,1,167.83,89.24Z" transform="translate(-0.76 -0.94)"/><path class="cls-21" d="M169,79v51.33l-12.12,2a14,14,0,0,1-16.25-13.79V79.32a19.86,19.86,0,0,1,19.86-19.86H169" transform="translate(-0.76 -0.94)"/><polygon class="cls-12" points="200.51 109.87 197.57 104.83 230.01 84.8 232.95 89.83 200.51 109.87"/><path class="cls-17" d="M221.11,98.54a4.58,4.58,0,0,0-.59-1.67l-.16-.27a1.57,1.57,0,0,0-2.18-.56l-7.72,4.79c-2.57,1.59-5,3.12-6.11,3.76a6.83,6.83,0,0,1-4.79.42h0l10.1-6.24-1.08-1.87c-.76-1.3-2.73-1.54-4.39-.52l-10.54,6.47a8.07,8.07,0,0,0-3.89,5.54h0L169,109.64l-28.37,1.71v7.19a14,14,0,0,0,16.25,13.79l12.12-2,29.5-4.86,1.62-.26,1-.63,14.27-8.82a7,7,0,0,0,2.28-9.4l-.92-1.58,2.16-1.33A4.85,4.85,0,0,0,221.11,98.54Z" transform="translate(-0.76 -0.94)"/><path class="cls-8" d="M157.83,73.25l-1.38,1.38a.65.65,0,0,0,0,.92.67.67,0,0,0,.46.2.69.69,0,0,0,.47-.2l1.38-1.37a.73.73,0,0,0,.19-.47.66.66,0,0,0-.19-.46.64.64,0,0,0-.47-.19.62.62,0,0,0-.46.19Z" transform="translate(-0.76 -0.94)"/><path class="cls-8" d="M159,78.54v1.55a.67.67,0,0,0,.2.46.62.62,0,0,0,.46.19.66.66,0,0,0,.66-.65V78.54a.69.69,0,0,0-.2-.47.66.66,0,0,0-.46-.19.67.67,0,0,0-.66.66Z" transform="translate(-0.76 -0.94)"/><path class="cls-8" d="M162.14,78l1.72,1.72a.66.66,0,0,0,.93-.93L163.06,77a.66.66,0,0,0-.92,0,.67.67,0,0,0,0,.93Z" transform="translate(-0.76 -0.94)"/><path class="cls-8" d="M163.17,73.14l1,1a.73.73,0,0,0,.47.19.66.66,0,0,0,.46-.19.64.64,0,0,0,.19-.47.62.62,0,0,0-.19-.46l-1-1a.68.68,0,0,0-.47-.19.66.66,0,0,0-.46.19.68.68,0,0,0-.19.47.66.66,0,0,0,.19.46Z" transform="translate(-0.76 -0.94)"/><path class="cls-8" d="M161.69,70.56l.86-.87a.64.64,0,0,0,.19-.46.54.54,0,0,0-.06-.25.46.46,0,0,0-.13-.21.69.69,0,0,0-.47-.2.67.67,0,0,0-.46.2l-.86.86a.67.67,0,0,0-.2.46.51.51,0,0,0,.06.25.46.46,0,0,0,.14.22.66.66,0,0,0,.46.19.73.73,0,0,0,.47-.19Z" transform="translate(-0.76 -0.94)"/><path class="cls-8" d="M155.88,67.19h-1.73a.66.66,0,0,0,0,1.32h1.73a.66.66,0,0,0,0-1.32Z" transform="translate(-0.76 -0.94)"/><path class="cls-8" d="M156.74,81.16h-1.21a.68.68,0,0,0-.46.19.66.66,0,0,0-.19.46.64.64,0,0,0,.19.47.73.73,0,0,0,.46.19h1.21a.66.66,0,0,0,.46-.19.69.69,0,0,0,.2-.47.67.67,0,0,0-.2-.46.64.64,0,0,0-.46-.19Z" transform="translate(-0.76 -0.94)"/><path class="cls-8" d="M159.55,86.41l.86.86a.69.69,0,0,0,.47.2.54.54,0,0,0,.25-.06.49.49,0,0,0,.21-.14.6.6,0,0,0,.19-.46.66.66,0,0,0-.19-.46l-.86-.87a.73.73,0,0,0-.47-.19.54.54,0,0,0-.25.06.57.57,0,0,0-.21.13.68.68,0,0,0-.19.47.71.71,0,0,0,.19.46Z" transform="translate(-0.76 -0.94)"/><path class="cls-8" d="M164.72,86.76l.69.69a.46.46,0,0,0,.21.13.54.54,0,0,0,.25.06.55.55,0,0,0,.26-.06.46.46,0,0,0,.21-.13.68.68,0,0,0,.19-.47l0-.17a.66.66,0,0,0-.17-.29l-.69-.69a.6.6,0,0,0-.21-.14.43.43,0,0,0-.25,0,.45.45,0,0,0-.26,0,.6.6,0,0,0-.21.14.66.66,0,0,0-.19.46l0,.18a.66.66,0,0,0,.17.29Z" transform="translate(-0.76 -0.94)"/><path class="cls-8" d="M165.05,92.33v1.89a.66.66,0,1,0,1.31,0V92.33a.66.66,0,0,0-.66-.66.67.67,0,0,0-.65.66Z" transform="translate(-0.76 -0.94)"/><path class="cls-8" d="M164,99.17l1.21,1.2a.67.67,0,0,0,.46.2.69.69,0,0,0,.47-.2.66.66,0,0,0,.19-.46.71.71,0,0,0-.19-.46L165,98.24a.68.68,0,0,0-.46-.19.65.65,0,0,0-.66.65.73.73,0,0,0,.19.47Z" transform="translate(-0.76 -0.94)"/><path class="cls-8" d="M160.76,100.65l-1,1a.64.64,0,0,0-.19.46.66.66,0,0,0,.19.46.69.69,0,0,0,.47.2.67.67,0,0,0,.46-.2l1-1a.73.73,0,0,0,.19-.46.67.67,0,0,0-.19-.47.68.68,0,0,0-.47-.19.71.71,0,0,0-.46.19Z" transform="translate(-0.76 -0.94)"/><path class="cls-8" d="M155.19,86.33h-1a.68.68,0,0,0-.46.19.66.66,0,0,0-.19.46.68.68,0,0,0,.19.47.73.73,0,0,0,.46.19h1a.66.66,0,0,0,.46-.19.64.64,0,0,0,.19-.47.62.62,0,0,0-.19-.46.66.66,0,0,0-.46-.19Z" transform="translate(-0.76 -0.94)"/><path class="cls-8" d="M161.1,93l1,1a.64.64,0,0,0,.46.19.66.66,0,0,0,.46-.19.69.69,0,0,0,.2-.47.67.67,0,0,0-.2-.46l-1-1a.68.68,0,0,0-.46-.19.67.67,0,0,0-.47.19.68.68,0,0,0-.19.47.71.71,0,0,0,.19.46Z" transform="translate(-0.76 -0.94)"/><path class="cls-8" d="M157.83,96.86l-1.38,1.38a.66.66,0,0,0-.19.46.68.68,0,0,0,.19.47.66.66,0,0,0,.46.19.73.73,0,0,0,.47-.19l1.38-1.38a.73.73,0,0,0,.19-.47.66.66,0,0,0-.19-.46.68.68,0,0,0-.47-.19.66.66,0,0,0-.46.19Z" transform="translate(-0.76 -0.94)"/><path class="cls-8" d="M156.74,93.57h-.86a.68.68,0,0,0-.47.19.46.46,0,0,0-.13.21.54.54,0,0,0-.06.25.65.65,0,0,0,.66.66h.86a.71.71,0,0,0,.46-.19.46.46,0,0,0,.14-.22.51.51,0,0,0,.06-.25.67.67,0,0,0-.2-.46.64.64,0,0,0-.46-.19Z" transform="translate(-0.76 -0.94)"/><path class="cls-8" d="M155.24,101.17l-1.2,1.21a.65.65,0,0,0-.2.46.63.63,0,0,0,.2.46.65.65,0,0,0,.46.2.67.67,0,0,0,.46-.2l1.21-1.2a.68.68,0,0,0,.19-.47.66.66,0,0,0-.19-.46.66.66,0,0,0-.93,0Z" transform="translate(-0.76 -0.94)"/><path class="cls-8" d="M156.79,107.2l-1,1a.64.64,0,0,0-.19.46.66.66,0,0,0,.19.46.67.67,0,0,0,.46.2.69.69,0,0,0,.47-.2l1-1a.68.68,0,0,0,.19-.46.65.65,0,0,0-.65-.66.73.73,0,0,0-.47.19Z" transform="translate(-0.76 -0.94)"/><path class="cls-8" d="M160.56,107.15v1a.69.69,0,0,0,.2.47.66.66,0,0,0,.46.19.68.68,0,0,0,.47-.19.73.73,0,0,0,.19-.47v-1a.73.73,0,0,0-.19-.47.66.66,0,0,0-.93,0,.69.69,0,0,0-.2.47Z" transform="translate(-0.76 -0.94)"/><path class="cls-8" d="M165.36,107.8h1.38a.68.68,0,0,0,.46-.19.66.66,0,0,0-.46-1.12h-1.38a.73.73,0,0,0-.47.19.68.68,0,0,0-.19.47.67.67,0,0,0,.66.65Z" transform="translate(-0.76 -0.94)"/><path class="cls-8" d="M172.3,79.8l-1.55,1.55a.66.66,0,0,0-.19.46.68.68,0,0,0,.19.47.67.67,0,0,0,.93,0l1.55-1.56a.65.65,0,0,0,.2-.46.67.67,0,0,0-1.13-.46Z" transform="translate(-0.76 -0.94)"/><path class="cls-8" d="M173.34,75.55c.17.18.34.35.52.52a.49.49,0,0,0,.21.14.65.65,0,0,0,.5,0,.49.49,0,0,0,.21-.14l.11-.13a.63.63,0,0,0,.09-.33l0-.18a.62.62,0,0,0-.17-.29l-.51-.51a.49.49,0,0,0-.21-.14.58.58,0,0,0-.26-.06.54.54,0,0,0-.25.06.49.49,0,0,0-.21.14l-.1.13a.63.63,0,0,0-.09.33l0,.17a.61.61,0,0,0,.17.29Z" transform="translate(-0.76 -0.94)"/><path class="cls-8" d="M171.1,70.56l.52.51a.43.43,0,0,0,.21.14.51.51,0,0,0,.25.06.54.54,0,0,0,.25-.06.49.49,0,0,0,.21-.14l.11-.13a.63.63,0,0,0,.09-.33l0-.18a.72.72,0,0,0-.17-.29l-.51-.51a.49.49,0,0,0-.21-.14.47.47,0,0,0-.26,0,.43.43,0,0,0-.25,0,.49.49,0,0,0-.21.14l-.1.13a.63.63,0,0,0-.09.33l0,.18a.72.72,0,0,0,.17.29Z" transform="translate(-0.76 -0.94)"/><path class="cls-8" d="M175.35,68.51h1.56a.73.73,0,0,0,.46-.19.7.7,0,0,0,.19-.47.67.67,0,0,0-.65-.66h-1.56a.69.69,0,0,0-.46.2.66.66,0,0,0,.46,1.12Z" transform="translate(-0.76 -0.94)"/><path class="cls-8" d="M168.92,65.49l-1-1a.69.69,0,0,0-.46-.2.67.67,0,0,0-.47.2.66.66,0,0,0-.19.46.73.73,0,0,0,.19.47l1,1a.65.65,0,0,0,.92,0,.64.64,0,0,0,0-.93Z" transform="translate(-0.76 -0.94)"/><path class="cls-8" d="M178.11,65.75h1.73a.66.66,0,0,0,0-1.31h-1.73a.66.66,0,0,0,0,1.31Z" transform="translate(-0.76 -0.94)"/><path class="cls-8" d="M180.56,68.37v1.38a.66.66,0,0,0,1.31,0V68.37a.65.65,0,0,0-.66-.66.67.67,0,0,0-.65.66Z" transform="translate(-0.76 -0.94)"/><path class="cls-8" d="M177.63,72.16v1.38a.66.66,0,0,0,.19.46.65.65,0,0,0,1.12-.46V72.16a.66.66,0,0,0-.19-.46.69.69,0,0,0-.47-.2.67.67,0,0,0-.65.66Z" transform="translate(-0.76 -0.94)"/><path class="cls-8" d="M183.16,73.49l.87.86a.64.64,0,0,0,.46.19.54.54,0,0,0,.25-.06.46.46,0,0,0,.21-.13.64.64,0,0,0,0-.93c-.28-.29-.57-.57-.86-.86a.66.66,0,0,0-.46-.19.47.47,0,0,0-.26,0,.49.49,0,0,0-.21.14A.66.66,0,0,0,183,73a.73.73,0,0,0,.19.47Z" transform="translate(-0.76 -0.94)"/><path class="cls-8" d="M184.54,71.07l.69.69a.49.49,0,0,0,.21.14.47.47,0,0,0,.26,0,.43.43,0,0,0,.25,0,.49.49,0,0,0,.21-.14.66.66,0,0,0,.19-.46l0-.18a.72.72,0,0,0-.17-.29l-.69-.69a.57.57,0,0,0-.21-.13A.54.54,0,0,0,185,70a.58.58,0,0,0-.26.06.57.57,0,0,0-.21.13.68.68,0,0,0-.19.47l0,.17a.66.66,0,0,0,.17.29Z" transform="translate(-0.76 -0.94)"/><path class="cls-8" d="M188.14,76.81v2.07a.66.66,0,1,0,1.31,0V76.81a.66.66,0,0,0-.65-.65.66.66,0,0,0-.66.65Z" transform="translate(-0.76 -0.94)"/><path class="cls-8" d="M191.56,78.16h1.72a.66.66,0,1,0,0-1.31h-1.72a.66.66,0,0,0-.66.65.67.67,0,0,0,.66.66Z" transform="translate(-0.76 -0.94)"/><path class="cls-8" d="M190.23,74.86l.52.52a.49.49,0,0,0,.21.14.43.43,0,0,0,.25,0,.42.42,0,0,0,.25,0,.39.39,0,0,0,.21-.14l.11-.13a.63.63,0,0,0,.09-.33l0-.18a.62.62,0,0,0-.17-.29l-.51-.51a.49.49,0,0,0-.21-.14.58.58,0,0,0-.26-.06.54.54,0,0,0-.25.06.49.49,0,0,0-.21.14l-.1.13a.63.63,0,0,0-.09.33l0,.18a.62.62,0,0,0,.17.28Z" transform="translate(-0.76 -0.94)"/><path class="cls-8" d="M195.57,81.87,194,83.42a.65.65,0,0,0,0,.92.67.67,0,0,0,.93,0c.52-.51,1-1,1.55-1.55a.65.65,0,0,0-.93-.92Z" transform="translate(-0.76 -0.94)"/><path class="cls-8" d="M185.9,81.81v1a.65.65,0,0,0,.66.65.66.66,0,0,0,.46-.19.68.68,0,0,0,.19-.46v-1a.66.66,0,0,0-.19-.46.62.62,0,0,0-.46-.19.64.64,0,0,0-.47.19.71.71,0,0,0-.19.46Z" transform="translate(-0.76 -0.94)"/><path class="cls-8" d="M180.73,78.71v1.38a.66.66,0,0,0,.19.46.64.64,0,0,0,.47.19.66.66,0,0,0,.65-.65V78.71a.64.64,0,0,0-.19-.46.65.65,0,0,0-1.12.46Z" transform="translate(-0.76 -0.94)"/><path class="cls-8" d="M185.75,78.07l-.69.69a.6.6,0,0,0-.14.21.47.47,0,0,0,0,.26.43.43,0,0,0,0,.25.6.6,0,0,0,.14.21.62.62,0,0,0,.46.19l.18,0a.66.66,0,0,0,.29-.17l.69-.69a.46.46,0,0,0,.13-.21.54.54,0,0,0,.06-.25.58.58,0,0,0-.06-.26.46.46,0,0,0-.13-.21.68.68,0,0,0-.47-.19l-.17,0a.77.77,0,0,0-.29.17Z" transform="translate(-0.76 -0.94)"/><path class="cls-8" d="M176.27,78l1.21,1.2a.65.65,0,0,0,.46.2.65.65,0,0,0,.46-1.12L177.2,77a.68.68,0,0,0-.47-.19.66.66,0,0,0-.46.19.62.62,0,0,0-.19.46.64.64,0,0,0,.19.47Z" transform="translate(-0.76 -0.94)"/><path class="cls-8" d="M175.39,83.36v1.38a.68.68,0,0,0,.19.47.66.66,0,0,0,.46.19.67.67,0,0,0,.66-.66V83.36a.66.66,0,0,0-.19-.46.68.68,0,0,0-.47-.19.66.66,0,0,0-.65.65Z" transform="translate(-0.76 -0.94)"/><path class="cls-8" d="M177.8,85.6v1.73a.66.66,0,0,0,1.31,0V85.6a.66.66,0,0,0-.65-.65.66.66,0,0,0-.66.65Z" transform="translate(-0.76 -0.94)"/><path class="cls-8" d="M174.61,88.65l.52-.51a.45.45,0,0,0,.13-.22.42.42,0,0,0,.06-.25.44.44,0,0,0-.06-.25.46.46,0,0,0-.13-.21l-.13-.1a.69.69,0,0,0-.34-.09l-.17,0a.66.66,0,0,0-.29.17l-.52.52a.38.38,0,0,0-.13.21.51.51,0,0,0-.06.25.54.54,0,0,0,.06.25.46.46,0,0,0,.13.21l.14.11a.63.63,0,0,0,.33.09l.17,0a.66.66,0,0,0,.29-.17Z" transform="translate(-0.76 -0.94)"/><path class="cls-8" d="M172.25,85.64h-1.89a.66.66,0,0,0-.66.65.67.67,0,0,0,.66.66h1.89a.66.66,0,1,0,0-1.31Z" transform="translate(-0.76 -0.94)"/><path class="cls-8" d="M174.37,91.86l-.51.52a.49.49,0,0,0-.14.21.54.54,0,0,0-.06.25.58.58,0,0,0,.06.26.49.49,0,0,0,.14.21l.13.1a.63.63,0,0,0,.33.09l.17,0a.7.7,0,0,0,.29-.17l.52-.52a.49.49,0,0,0,.14-.21.43.43,0,0,0,.05-.25.47.47,0,0,0-.05-.26.49.49,0,0,0-.14-.21l-.13-.1a.63.63,0,0,0-.33-.09l-.18,0a.72.72,0,0,0-.29.17Z" transform="translate(-0.76 -0.94)"/><path class="cls-8" d="M183.85,88.31,185.58,90a.65.65,0,0,0,.92,0,.67.67,0,0,0,0-.93c-.57-.57-1.14-1.15-1.72-1.72a.66.66,0,0,0-.93.93Z" transform="translate(-0.76 -0.94)"/><path class="cls-8" d="M181.27,85.9l.69.68a.49.49,0,0,0,.21.14.54.54,0,0,0,.25.06.51.51,0,0,0,.25-.06.39.39,0,0,0,.21-.14.65.65,0,0,0,.2-.46l0-.17a.58.58,0,0,0-.17-.29L182.2,85a.46.46,0,0,0-.22-.14.42.42,0,0,0-.25,0,.43.43,0,0,0-.25,0,.49.49,0,0,0-.21.14.62.62,0,0,0-.19.46l0,.18a.72.72,0,0,0,.17.29Z" transform="translate(-0.76 -0.94)"/><path class="cls-8" d="M188.68,87.45l.69.69a.46.46,0,0,0,.21.13.54.54,0,0,0,.25.06.51.51,0,0,0,.25-.06.45.45,0,0,0,.22-.13.68.68,0,0,0,.19-.47l0-.17a.64.64,0,0,0-.16-.29l-.69-.69a.49.49,0,0,0-.21-.14.47.47,0,0,0-.26,0,.43.43,0,0,0-.25,0,.49.49,0,0,0-.21.14.62.62,0,0,0-.19.46l0,.18a.72.72,0,0,0,.17.29Z" transform="translate(-0.76 -0.94)"/><path class="cls-8" d="M179.7,97.32v1.21a.64.64,0,0,0,.19.46.67.67,0,0,0,.46.2.69.69,0,0,0,.47-.2.69.69,0,0,0,.19-.46V97.32a.65.65,0,0,0-.66-.65.66.66,0,0,0-.46.19.68.68,0,0,0-.19.46Z" transform="translate(-0.76 -0.94)"/><path class="cls-8" d="M184.2,98.82l1.2,1.21a.68.68,0,0,0,.47.19.66.66,0,0,0,.46-.19.66.66,0,0,0,0-.93l-1.2-1.21a.73.73,0,0,0-.47-.19.66.66,0,0,0-.46.19.64.64,0,0,0-.19.47.62.62,0,0,0,.19.46Z" transform="translate(-0.76 -0.94)"/><path class="cls-8" d="M188.68,97.44l1,1a.68.68,0,0,0,.47.19.66.66,0,0,0,.46-.19.64.64,0,0,0,.19-.47.62.62,0,0,0-.19-.46l-1-1a.69.69,0,0,0-.47-.2.63.63,0,0,0-.46.2.6.6,0,0,0-.19.46.62.62,0,0,0,.19.46Z" transform="translate(-0.76 -0.94)"/><path class="cls-8" d="M183.63,96.08h1.72a.66.66,0,1,0,0-1.31h-1.72a.66.66,0,1,0,0,1.31Z" transform="translate(-0.76 -0.94)"/><path class="cls-8" d="M180.75,89.51l.86.87a.68.68,0,0,0,.47.19.54.54,0,0,0,.25-.06.46.46,0,0,0,.21-.13.68.68,0,0,0,.19-.47.66.66,0,0,0-.19-.46l-.86-.86a.69.69,0,0,0-.47-.2.54.54,0,0,0-.25.06.49.49,0,0,0-.21.14.65.65,0,0,0,0,.92Z" transform="translate(-0.76 -0.94)"/><path class="cls-8" d="M177.13,96.52l-.69.68a.45.45,0,0,0-.13.22.42.42,0,0,0-.06.25.44.44,0,0,0,.06.25.46.46,0,0,0,.13.21.64.64,0,0,0,.47.19l.17,0a.66.66,0,0,0,.29-.17l.69-.69a.46.46,0,0,0,.13-.21.44.44,0,0,0,.06-.25.42.42,0,0,0-.06-.25.42.42,0,0,0-.13-.21.69.69,0,0,0-.47-.2l-.17,0a.58.58,0,0,0-.29.17Z" transform="translate(-0.76 -0.94)"/><path class="cls-8" d="M177,100.13l-.69.69a.55.55,0,0,0-.14.22.42.42,0,0,0,0,.25.43.43,0,0,0,0,.25.6.6,0,0,0,.14.21.62.62,0,0,0,.46.19l.18,0a.66.66,0,0,0,.29-.17l.69-.69a.46.46,0,0,0,.13-.21.54.54,0,0,0,.06-.25.51.51,0,0,0-.06-.25.45.45,0,0,0-.13-.22.68.68,0,0,0-.47-.19l-.17,0a.64.64,0,0,0-.29.16Z" transform="translate(-0.76 -0.94)"/><path class="cls-8" d="M178.85,105.2l1.21,1.21a.73.73,0,0,0,.46.19.67.67,0,0,0,.47-.19.68.68,0,0,0,.19-.47.71.71,0,0,0-.19-.46l-1.21-1.21a.66.66,0,0,0-.46-.19.7.7,0,0,0-.47.19.68.68,0,0,0-.19.47.73.73,0,0,0,.19.46Z" transform="translate(-0.76 -0.94)"/><path class="cls-8" d="M185.23,105.2l.69.69a.46.46,0,0,0,.21.13.44.44,0,0,0,.25.06.46.46,0,0,0,.26-.06.46.46,0,0,0,.21-.13.68.68,0,0,0,.19-.47l0-.17a.66.66,0,0,0-.17-.29l-.69-.69a.46.46,0,0,0-.21-.13.44.44,0,0,0-.25-.06.48.48,0,0,0-.26.06.46.46,0,0,0-.21.13.68.68,0,0,0-.19.47l0,.17a.66.66,0,0,0,.17.29Z" transform="translate(-0.76 -0.94)"/><path class="cls-8" d="M190.52,103.32h.69a.42.42,0,0,0,.25,0,.46.46,0,0,0,.21-.14.49.49,0,0,0,.14-.21.54.54,0,0,0,.06-.25l0-.18a.58.58,0,0,0-.17-.29.69.69,0,0,0-.46-.19h-.69a.54.54,0,0,0-.25.06.46.46,0,0,0-.21.13.49.49,0,0,0-.14.21.47.47,0,0,0,0,.26l0,.17a.66.66,0,0,0,.63.48Z" transform="translate(-0.76 -0.94)"/><path class="cls-8" d="M182.9,102.67v-1a.66.66,0,0,0-.19-.46.62.62,0,0,0-.46-.19.64.64,0,0,0-.47.19.73.73,0,0,0-.19.46v1a.65.65,0,0,0,.66.65.62.62,0,0,0,.46-.19.68.68,0,0,0,.19-.46Z" transform="translate(-0.76 -0.94)"/><path class="cls-8" d="M177.59,106.49h-1a.71.71,0,0,0-.46.19.69.69,0,0,0-.2.47.67.67,0,0,0,.2.46.66.66,0,0,0,.46.19h1a.68.68,0,0,0,.47-.19.66.66,0,0,0,.19-.46.68.68,0,0,0-.19-.47.73.73,0,0,0-.47-.19Z" transform="translate(-0.76 -0.94)"/><path class="cls-8" d="M184.49,130H185a.54.54,0,0,0,.25-.06.46.46,0,0,0,.21-.13.55.55,0,0,0,.14-.22.42.42,0,0,0,0-.25l0-.17a.66.66,0,0,0-.17-.29l-.13-.1a.66.66,0,0,0-.33-.09h-.52a.42.42,0,0,0-.25.05.39.39,0,0,0-.21.14.49.49,0,0,0-.14.21.54.54,0,0,0-.06.25l0,.18a.62.62,0,0,0,.17.29l.13.1a.63.63,0,0,0,.33.09Z" transform="translate(-0.76 -0.94)"/><path class="cls-8" d="M189.43,129.67l1-1a.68.68,0,0,0,.19-.46.67.67,0,0,0-.19-.47.68.68,0,0,0-.47-.19.73.73,0,0,0-.46.19l-1,1a.65.65,0,0,0-.2.46.65.65,0,0,0,1.12.46Z" transform="translate(-0.76 -0.94)"/><path class="cls-8" d="M181.44,128.75l-.52.51a.46.46,0,0,0-.13.21.58.58,0,0,0-.06.26.54.54,0,0,0,.06.25.46.46,0,0,0,.13.21l.14.1a.63.63,0,0,0,.33.09l.17,0a.66.66,0,0,0,.29-.17l.52-.52a.46.46,0,0,0,.13-.21.54.54,0,0,0,.06-.25.51.51,0,0,0-.06-.25.46.46,0,0,0-.13-.21l-.14-.11a.63.63,0,0,0-.33-.09l-.17,0a.58.58,0,0,0-.29.17Z" transform="translate(-0.76 -0.94)"/><path class="cls-8" d="M193.85,88l.52.52a.6.6,0,0,0,.21.14.43.43,0,0,0,.25,0,.42.42,0,0,0,.25,0,.6.6,0,0,0,.21-.14l.11-.13a.63.63,0,0,0,.09-.33l0-.18a.58.58,0,0,0-.17-.29l-.51-.51a.49.49,0,0,0-.21-.14.58.58,0,0,0-.26-.06.54.54,0,0,0-.25.06.49.49,0,0,0-.21.14l-.1.13a.63.63,0,0,0-.09.33l0,.17a.61.61,0,0,0,.17.29Z" transform="translate(-0.76 -0.94)"/><path class="cls-8" d="M190.81,93.48l.86-.86a.69.69,0,0,0,.2-.47.54.54,0,0,0-.06-.25.49.49,0,0,0-.14-.21.6.6,0,0,0-.46-.19.62.62,0,0,0-.46.19l-.86.86a.69.69,0,0,0-.2.47.54.54,0,0,0,.06.25.49.49,0,0,0,.14.21.64.64,0,0,0,.46.19.71.71,0,0,0,.46-.19Z" transform="translate(-0.76 -0.94)"/><path class="cls-8" d="M189.69,82.5v.86a.69.69,0,0,0,.2.47.38.38,0,0,0,.21.13.51.51,0,0,0,.25.06.66.66,0,0,0,.46-.19.69.69,0,0,0,.2-.47V82.5a.67.67,0,0,0-.2-.46.49.49,0,0,0-.21-.14.43.43,0,0,0-.25-.05.6.6,0,0,0-.46.19.67.67,0,0,0-.2.46Z" transform="translate(-0.76 -0.94)"/><path class="cls-8" d="M195.35,80.06h1a.69.69,0,0,0,.47-.2.66.66,0,0,0,.19-.46.65.65,0,0,0-.66-.66h-1a.73.73,0,0,0-.47.19.7.7,0,0,0-.19.47.66.66,0,0,0,.19.46.69.69,0,0,0,.47.2Z" transform="translate(-0.76 -0.94)"/><path class="cls-8" d="M155.24,70.83,154,72a.69.69,0,0,0-.2.46.63.63,0,0,0,.2.47.64.64,0,0,0,.46.19A.71.71,0,0,0,155,73l1.21-1.21a.66.66,0,0,0,.19-.46.7.7,0,0,0-.19-.47.68.68,0,0,0-.46-.19.73.73,0,0,0-.47.19Z" transform="translate(-0.76 -0.94)"/><path class="cls-8" d="M148.29,66.27h1.56a.69.69,0,0,0,.46-.2.66.66,0,0,0,.19-.46.67.67,0,0,0-.65-.66h-1.56a.69.69,0,0,0-.46.2.66.66,0,0,0,.46,1.12Z" transform="translate(-0.76 -0.94)"/><path class="cls-8" d="M159.9,65.49l-.52.52a.49.49,0,0,0-.14.21.43.43,0,0,0-.05.25.47.47,0,0,0,.05.26.49.49,0,0,0,.14.21l.13.1a.63.63,0,0,0,.33.09l.18,0a.85.85,0,0,0,.29-.17l.51-.52a.49.49,0,0,0,.14-.21A.54.54,0,0,0,161,66a.55.55,0,0,0-.06-.26.49.49,0,0,0-.14-.21l-.13-.1a.63.63,0,0,0-.33-.09l-.18,0a.62.62,0,0,0-.28.17Z" transform="translate(-0.76 -0.94)"/><path class="cls-8" d="M165.53,70.58h1a.69.69,0,0,0,.47-.2.66.66,0,0,0,.19-.46.64.64,0,0,0-.19-.46.69.69,0,0,0-.47-.2h-1a.65.65,0,0,0-.46.2.67.67,0,0,0-.2.46.68.68,0,0,0,.66.66Z" transform="translate(-0.76 -0.94)"/><path class="cls-8" d="M166.56,78.85h.52a.51.51,0,0,0,.25-.06.45.45,0,0,0,.22-.13.57.57,0,0,0,.13-.21.58.58,0,0,0,.06-.26l0-.17a.64.64,0,0,0-.16-.29l-.14-.1a.63.63,0,0,0-.33-.09h-.52a.43.43,0,0,0-.25,0,.49.49,0,0,0-.21.14.6.6,0,0,0-.14.21.43.43,0,0,0-.05.25l0,.18a.72.72,0,0,0,.17.29l.13.1a.68.68,0,0,0,.33.09Z" transform="translate(-0.76 -0.94)"/><path class="cls-8" d="M162.94,83.67h1.38a.68.68,0,0,0,.47-.19A.66.66,0,0,0,165,83a.67.67,0,0,0-.66-.66h-1.38a.73.73,0,0,0-.46.19.7.7,0,0,0-.19.47.66.66,0,0,0,.65.65Z" transform="translate(-0.76 -0.94)"/><path class="cls-8" d="M154,78.33h.69a.42.42,0,0,0,.25,0,.55.55,0,0,0,.22-.14.57.57,0,0,0,.13-.21.54.54,0,0,0,.06-.25l0-.18a.64.64,0,0,0-.16-.29.68.68,0,0,0-.47-.19H154a.44.44,0,0,0-.25.06.46.46,0,0,0-.21.13.49.49,0,0,0-.14.21.47.47,0,0,0,0,.26l0,.17a.66.66,0,0,0,.63.48Z" transform="translate(-0.76 -0.94)"/><path class="cls-8" d="M172.25,77h-1.72a.66.66,0,1,0,0,1.31h1.72a.66.66,0,0,0,.66-.65.67.67,0,0,0-.66-.66Z" transform="translate(-0.76 -0.94)"/><path class="cls-8" d="M161.22,98h1.38a.64.64,0,0,0,.46-.19.69.69,0,0,0,.2-.47.67.67,0,0,0-.66-.65h-1.38a.66.66,0,0,0-.46.19.65.65,0,0,0,.46,1.12Z" transform="translate(-0.76 -0.94)"/><path class="cls-8" d="M157.77,90.22h.87a.68.68,0,0,0,.46-.19.6.6,0,0,0,.14-.21.43.43,0,0,0,0-.25.68.68,0,0,0-.19-.47.73.73,0,0,0-.46-.19h-.87a.68.68,0,0,0-.46.19.55.55,0,0,0-.14.22.42.42,0,0,0,0,.25.66.66,0,0,0,.19.46.68.68,0,0,0,.46.19Z" transform="translate(-0.76 -0.94)"/></g><path class="cls-26" d="M272.89,65.92,203.79,1.56a1,1,0,0,0-1.29,0L133.4,65.91a.84.84,0,0,0,.64,1.45h17.77a.89.89,0,0,1,.92.85V130a.88.88,0,0,0,.91.85h99a.88.88,0,0,0,.91-.85V68.21a.88.88,0,0,1,.91-.84h17.77A.84.84,0,0,0,272.89,65.92Z" transform="translate(-0.76 -0.94)"/><path class="cls-17" d="M168.49,63.81h0a11.45,11.45,0,0,1-5.13-15.36l4.11-8.23a6,6,0,0,1,8-2.67l7.11,3.56a6,6,0,0,1,2.67,8L179.77,60A8.44,8.44,0,0,1,168.49,63.81Z" transform="translate(-0.76 -0.94)"/><circle class="cls-14" cx="183.52" cy="37.2" r="10.87"/><circle class="cls-14" cx="168.27" cy="39.17" r="10.14" transform="translate(-2.94 66.44) rotate(-22.5)"/><circle class="cls-14" cx="155.46" cy="51.16" r="13.07"/><path class="cls-17" d="M172.66,49.15c-2.33-2-5.35-1.08-6.09,1.67-.65,2.44,1.81,4.44,3.5,4.84" transform="translate(-0.76 -0.94)"/><path class="cls-6" d="M179.36,52.3a8,8,0,0,0-.49,5.32.67.67,0,0,0,.81.46.68.68,0,0,0,.46-.81,6.49,6.49,0,0,1,.35-4.3.68.68,0,0,0-.23-.9.66.66,0,0,0-.9.23Z" transform="translate(-0.76 -0.94)"/><path class="cls-6" d="M174.55,59.46l-.33-.12-.06,0,.05,0c-.05,0-.11,0-.16-.07l-.56-.29a6.22,6.22,0,0,1-.54-.35.71.71,0,0,1-.14-.1l.07,0-.07-.06-.27-.23a.67.67,0,0,0-1,.14,2.33,2.33,0,0,0,0,2.26,2.42,2.42,0,0,0,.64.81,2.35,2.35,0,0,0,1.21.49.67.67,0,0,0,.66-.66.68.68,0,0,0-.66-.66c-.12,0,.18,0,0,0l-.1,0c-.08,0-.24-.11,0,0l-.17-.09-.09-.06c-.09-.06.12.11,0,0l-.13-.12-.07-.08s-.1-.14,0,0a1.61,1.61,0,0,1-.2-.33v0c0,.12,0,0,0,0a1.21,1.21,0,0,1-.05-.18.29.29,0,0,1,0-.09c0-.15,0,.09,0,0s0-.13,0-.19,0-.12,0-.18c0,.21,0,.1,0,0a.3.3,0,0,1,0-.1l0-.09c0-.06.07-.11,0,.05a1.14,1.14,0,0,1,.1-.19l-1,.13a7.51,7.51,0,0,0,2.59,1.51.65.65,0,1,0,.35-1.26Z" transform="translate(-0.76 -0.94)"/><path class="cls-6" d="M188.21,92.24a13.85,13.85,0,0,0-11.49.48c-.75.39-.09,1.52.67,1.14a12.52,12.52,0,0,1,10.47-.35c.78.32,1.12-1,.35-1.27Z" transform="translate(-0.76 -0.94)"/><path class="cls-6" d="M169.4,50.8c.33.67.66,1.35,1,2l.74-1-1.44-.26a.66.66,0,1,0-.35,1.27l1.45.25a.68.68,0,0,0,.69-.23.71.71,0,0,0,.05-.73c-.33-.67-.66-1.35-1-2a.68.68,0,0,0-.39-.3.65.65,0,0,0-.51.06.68.68,0,0,0-.24.9Z" transform="translate(-0.76 -0.94)"/><path class="cls-6" d="M163.37,65.66a11.05,11.05,0,0,1,5.27,9.62.66.66,0,0,0,1.31,0A12.39,12.39,0,0,0,164,64.52a.66.66,0,0,0-.66,1.14Z" transform="translate(-0.76 -0.94)"/><path class="cls-6" d="M154,106.24l13.65-.88c.84,0,.85-1.37,0-1.31l-13.65.88c-.84,0-.85,1.36,0,1.31Z" transform="translate(-0.76 -0.94)"/><path class="cls-6" d="M214.26,105.92s0,.09,0,.13l0-.17a2.41,2.41,0,0,1,0,.38l0-.17a2.17,2.17,0,0,1-.11.42l.06-.16a2,2,0,0,1-.23.4l.1-.13a2.65,2.65,0,0,1-.29.29l.13-.1a1.51,1.51,0,0,1-.35.2l.16-.06-.27.08a.65.65,0,0,0-.46.81.66.66,0,0,0,.81.45,2.21,2.21,0,0,0,1.39-1,2.26,2.26,0,0,0,.3-1.72.65.65,0,0,0-1.26.35Z" transform="translate(-0.76 -0.94)"/><path class="cls-6" d="M216.13,108.9a1.85,1.85,0,0,1,0,.47l0-.17a1.91,1.91,0,0,1-.14.52l.07-.16a2.43,2.43,0,0,1-.29.49l.11-.13a2.38,2.38,0,0,1-.36.35l.13-.1a1.9,1.9,0,0,1-.43.26l.15-.07h0a.77.77,0,0,0-.4.31.67.67,0,0,0-.06.5.66.66,0,0,0,.81.46,3.43,3.43,0,0,0,.82-.49,2.75,2.75,0,0,0,.9-2.25.75.75,0,0,0-.19-.47.68.68,0,0,0-.47-.19.73.73,0,0,0-.46.19.64.64,0,0,0-.19.47Z" transform="translate(-0.76 -0.94)"/><path class="cls-6" d="M246.08,65v6.94a.66.66,0,0,0,1.32,0V65a.66.66,0,0,0-1.32,0Z" transform="translate(-0.76 -0.94)"/><path class="cls-6" d="M246.08,74v2.31a.66.66,0,0,0,1.32,0V74a.67.67,0,0,0-.66-.66.67.67,0,0,0-.66.66Z" transform="translate(-0.76 -0.94)"/></g><g id="Icons"><path class="cls-14" d="M372.58,126.79H344.71a3.75,3.75,0,0,0-3.74,3.74v17.89a3.74,3.74,0,0,0,3.74,3.74h6.53l7.41,7.41,7.4-7.41h6.53a3.74,3.74,0,0,0,3.75-3.74V130.53A3.75,3.75,0,0,0,372.58,126.79Zm-7.37,13.14-1.49,1.49-5.07,5.07-5.07-5.07-1.49-1.49a3.59,3.59,0,0,1,5.07-5.07l1.49,1.49,1.49-1.49a3.59,3.59,0,0,1,5.07,5.07Z" transform="translate(-0.76 -0.94)"/><path class="cls-27" d="M374.46,124.92H346.58a3.74,3.74,0,0,0-3.74,3.75v17.88a3.76,3.76,0,0,0,3.74,3.75h6.53l7.41,7.4,7.41-7.4h6.53a3.76,3.76,0,0,0,3.74-3.75V128.67A3.74,3.74,0,0,0,374.46,124.92Zm-7.38,13.14-1.49,1.49-5.07,5.07-5.07-5.07L354,138.06A3.59,3.59,0,0,1,359,133l1.49,1.49L362,133a3.59,3.59,0,0,1,5.07,5.07Z" transform="translate(-0.76 -0.94)"/><path class="cls-15" d="M367.08,138.06l-1.49,1.49-5.07,5.07-5.07-5.07L354,138.06A3.59,3.59,0,0,1,359,133l1.49,1.49L362,133a3.59,3.59,0,0,1,5.07,5.07Z" transform="translate(-0.76 -0.94)"/><rect class="cls-14" x="382.21" y="203.88" width="36.55" height="24.61" rx="2.89"/><rect class="cls-27" x="384.07" y="201.69" width="36.55" height="24.61" rx="2.89"/><rect class="cls-14" x="384.07" y="214" width="36.55" height="5.74"/><path class="cls-6" d="M390.72,209H396a.66.66,0,0,0,0-1.32h-5.26a.66.66,0,0,0,0,1.32Z" transform="translate(-0.76 -0.94)"/><path class="cls-6" d="M390.72,211.21h4.64a.66.66,0,1,0,0-1.31h-4.64a.66.66,0,1,0,0,1.31Z" transform="translate(-0.76 -0.94)"/><polygon class="cls-14" points="293.91 156.32 284.93 156.32 271.87 156.32 278.16 176.94 284.93 176.94 293.91 176.94 300.68 176.94 306.97 156.32 293.91 156.32"/><path class="cls-14" d="M286.1,183.39a2.65,2.65,0,1,1-2.65-2.66A2.65,2.65,0,0,1,286.1,183.39Z" transform="translate(-0.76 -0.94)"/><path class="cls-14" d="M299.57,183.39a2.66,2.66,0,1,1-2.65-2.66A2.65,2.65,0,0,1,299.57,183.39Z" transform="translate(-0.76 -0.94)"/><polygon class="cls-27" points="291.86 154.43 282.88 154.43 269.82 154.43 276.11 175.05 282.88 175.05 291.86 175.05 298.63 175.05 304.92 154.43 291.86 154.43"/><polyline class="cls-26" points="269.92 154.43 267.88 147.91 258.55 147.91"/><path class="cls-27" d="M284.05,181.49a2.65,2.65,0,1,1-2.65-2.65A2.66,2.66,0,0,1,284.05,181.49Z" transform="translate(-0.76 -0.94)"/><path class="cls-27" d="M297.52,181.49a2.66,2.66,0,1,1-2.66-2.65A2.66,2.66,0,0,1,297.52,181.49Z" transform="translate(-0.76 -0.94)"/><path class="cls-6" d="M273.27,160.68h28.57a.66.66,0,0,0,0-1.32H273.27a.66.66,0,0,0,0,1.32Z" transform="translate(-0.76 -0.94)"/><path class="cls-6" d="M275.22,166h25.45a.66.66,0,0,0,0-1.31H275.22a.66.66,0,0,0,0,1.31Z" transform="translate(-0.76 -0.94)"/><path class="cls-6" d="M276.78,170.88h22.4a.66.66,0,0,0,0-1.32h-22.4a.66.66,0,0,0,0,1.32Z" transform="translate(-0.76 -0.94)"/><path class="cls-6" d="M293.55,157v17.3a.66.66,0,0,0,1.32,0V157a.66.66,0,0,0-1.32,0Z" transform="translate(-0.76 -0.94)"/><path class="cls-6" d="M287.67,157v18.52a.66.66,0,0,0,1.31,0V157a.66.66,0,0,0-1.31,0Z" transform="translate(-0.76 -0.94)"/><path class="cls-6" d="M281.35,157V174.5a.66.66,0,0,0,1.31,0V157a.66.66,0,0,0-1.31,0Z" transform="translate(-0.76 -0.94)"/></g><g id="Particles"><path class="cls-28" d="M236.31,94.13h-.59a.38.38,0,0,1-.38-.38v-.58a1.45,1.45,0,1,0-2.9,0v.61a.38.38,0,0,1-.38.38h-.58A1.48,1.48,0,0,0,230,95.49,1.46,1.46,0,0,0,231.45,97h.61a.38.38,0,0,1,.38.38V98a1.45,1.45,0,1,0,2.9,0v-.61a.38.38,0,0,1,.38-.38h.61a1.46,1.46,0,0,0,1.45-1.55A1.47,1.47,0,0,0,236.31,94.13Z" transform="translate(-0.76 -0.94)"/><path class="cls-28" d="M33.09,159.69h.58a.38.38,0,0,0,.38-.38v-.58a1.47,1.47,0,0,1,1.35-1.48A1.46,1.46,0,0,1,37,158.7v.61a.38.38,0,0,0,.39.38h.58A1.47,1.47,0,0,1,39.39,161a1.45,1.45,0,0,1-1.45,1.55h-.6A.38.38,0,0,0,37,163v.58a1.45,1.45,0,1,1-2.9,0V163a.38.38,0,0,0-.38-.39h-.61a1.45,1.45,0,1,1,0-2.9Z" transform="translate(-0.76 -0.94)"/><path class="cls-28" d="M8,217.93h.58a.38.38,0,0,0,.38-.38V217a1.47,1.47,0,0,1,1.35-1.48,1.46,1.46,0,0,1,1.55,1.45v.61a.38.38,0,0,0,.38.38h.59a1.47,1.47,0,0,1,1.47,1.35,1.46,1.46,0,0,1-1.45,1.55h-.61a.38.38,0,0,0-.38.39v.58a1.45,1.45,0,1,1-2.9,0v-.6a.38.38,0,0,0-.38-.39H8a1.46,1.46,0,0,1-1.45-1.55A1.47,1.47,0,0,1,8,217.93Z" transform="translate(-0.76 -0.94)"/><path class="cls-28" d="M142.71,69.32h-.4a.27.27,0,0,1-.26-.27v-.4a1,1,0,0,0-.93-1,1,1,0,0,0-1.06,1v.41a.27.27,0,0,1-.27.27h-.39a1,1,0,1,0,0,2h.41a.27.27,0,0,1,.27.26V72a1,1,0,1,0,2,0v-.42a.26.26,0,0,1,.26-.26h.42a1,1,0,1,0,0-2Z" transform="translate(-0.76 -0.94)"/><path class="cls-28" d="M116.61,203.33h.4a.26.26,0,0,0,.26-.26v-.4a1,1,0,1,1,2,0v.42a.26.26,0,0,0,.26.26h.4a1,1,0,0,1,1,.93,1,1,0,0,1-1,1.06h-.42a.26.26,0,0,0-.26.27v.4a1,1,0,0,1-.93,1,1,1,0,0,1-1.07-1v-.41a.26.26,0,0,0-.26-.27h-.42a1,1,0,0,1-1-1.06A1,1,0,0,1,116.61,203.33Z" transform="translate(-0.76 -0.94)"/><path class="cls-28" d="M248.71,110.29h-.4a.26.26,0,0,1-.26-.26v-.4a1,1,0,1,0-2,0V110a.26.26,0,0,1-.27.26h-.39a1,1,0,0,0-1,.93,1,1,0,0,0,1,1.06h.41a.27.27,0,0,1,.27.27v.4a1,1,0,0,0,.92,1,1,1,0,0,0,1.07-1v-.42a.27.27,0,0,1,.26-.27h.42a1,1,0,0,0,1-1.06A1,1,0,0,0,248.71,110.29Z" transform="translate(-0.76 -0.94)"/><path class="cls-28" d="M329.66,147.81h-.4a.26.26,0,0,1-.26-.26v-.4a1,1,0,1,0-2,0v.42a.26.26,0,0,1-.26.26h-.4a1,1,0,1,0,0,2h.42a.26.26,0,0,1,.26.26v.4a1,1,0,0,0,.93,1,1,1,0,0,0,1.06-1v-.42a.26.26,0,0,1,.26-.26h.42a1,1,0,0,0,1-1.06A1,1,0,0,0,329.66,147.81Z" transform="translate(-0.76 -0.94)"/><path class="cls-28" d="M278.4,147.86H278a.27.27,0,0,1-.26-.27v-.4a1,1,0,0,0-.93-1,1,1,0,0,0-1.06,1v.42a.27.27,0,0,1-.26.27h-.4a1,1,0,1,0,0,2h.42a.26.26,0,0,1,.26.26v.4a1,1,0,1,0,2,0v-.42a.26.26,0,0,1,.26-.26h.42a1,1,0,1,0,0-2Z" transform="translate(-0.76 -0.94)"/><path class="cls-28" d="M27.17,176.11h.4a.26.26,0,0,0,.26-.26v-.4a1,1,0,1,1,2,0v.42a.26.26,0,0,0,.26.26h.4a1,1,0,0,1,1,.93,1,1,0,0,1-1,1.06h-.42a.26.26,0,0,0-.26.26v.4a1,1,0,1,1-2,0v-.42a.26.26,0,0,0-.26-.26h-.42a1,1,0,1,1,0-2Z" transform="translate(-0.76 -0.94)"/><path class="cls-28" d="M155,86.25h-.59a.39.39,0,0,1-.38-.39v-.58a1.45,1.45,0,1,0-2.9,0v.61a.39.39,0,0,1-.38.39h-.58a1.45,1.45,0,1,0,0,2.9h.61a.38.38,0,0,1,.38.38v.58a1.45,1.45,0,1,0,2.9,0v-.61a.38.38,0,0,1,.38-.38H155a1.45,1.45,0,1,0,0-2.9Z" transform="translate(-0.76 -0.94)"/><path class="cls-28" d="M227.25,29.45h-.58a.38.38,0,0,1-.38-.38v-.58A1.48,1.48,0,0,0,224.94,27a1.46,1.46,0,0,0-1.55,1.45v.61a.38.38,0,0,1-.38.38h-.59A1.47,1.47,0,0,0,221,30.81a1.46,1.46,0,0,0,1.45,1.55H223a.38.38,0,0,1,.38.38v.58a1.45,1.45,0,1,0,2.9,0v-.61a.38.38,0,0,1,.38-.38h.61a1.46,1.46,0,0,0,1.45-1.55A1.48,1.48,0,0,0,227.25,29.45Z" transform="translate(-0.76 -0.94)"/><path class="cls-28" d="M395.45,180h-.58a.38.38,0,0,1-.38-.38v-.58a1.45,1.45,0,1,0-2.9,0v.61a.38.38,0,0,1-.38.38h-.58a1.48,1.48,0,0,0-1.48,1.36A1.46,1.46,0,0,0,390.6,183h.61a.38.38,0,0,1,.38.38v.58a1.45,1.45,0,1,0,2.9,0v-.61a.38.38,0,0,1,.38-.38h.61a1.46,1.46,0,0,0,1.45-1.55A1.48,1.48,0,0,0,395.45,180Z" transform="translate(-0.76 -0.94)"/><path class="cls-28" d="M280.23,192h-.58a.38.38,0,0,1-.39-.38v-.58a1.45,1.45,0,1,0-2.9,0v.61a.38.38,0,0,1-.38.38h-.58a1.48,1.48,0,0,0-1.48,1.36,1.45,1.45,0,0,0,1.45,1.54H276a.39.39,0,0,1,.38.39v.58a1.46,1.46,0,0,0,1.35,1.47,1.45,1.45,0,0,0,1.55-1.44v-.61a.39.39,0,0,1,.39-.39h.6a1.45,1.45,0,0,0,1.45-1.54A1.47,1.47,0,0,0,280.23,192Z" transform="translate(-0.76 -0.94)"/><path class="cls-28" d="M36.32,216.67a1.61,1.61,0,1,0,1.6-1.6A1.6,1.6,0,0,0,36.32,216.67Z" transform="translate(-0.76 -0.94)"/><path class="cls-28" d="M142.39,97.13a1.6,1.6,0,1,1-1.6-1.6A1.6,1.6,0,0,1,142.39,97.13Z" transform="translate(-0.76 -0.94)"/><path class="cls-28" d="M101.2,254.49a1.6,1.6,0,1,0,1.6-1.6A1.59,1.59,0,0,0,101.2,254.49Z" transform="translate(-0.76 -0.94)"/><path class="cls-28" d="M263.71,99.94a1.61,1.61,0,1,1-1.61-1.6A1.6,1.6,0,0,1,263.71,99.94Z" transform="translate(-0.76 -0.94)"/><path class="cls-28" d="M383,191.54a1.6,1.6,0,1,1-1.6-1.61A1.6,1.6,0,0,1,383,191.54Z" transform="translate(-0.76 -0.94)"/><path class="cls-28" d="M261.38,167.57a1.61,1.61,0,1,1-1.61-1.6A1.61,1.61,0,0,1,261.38,167.57Z" transform="translate(-0.76 -0.94)"/><path class="cls-28" d="M335.09,163.72a1.6,1.6,0,1,1-1.6-1.6A1.6,1.6,0,0,1,335.09,163.72Z" transform="translate(-0.76 -0.94)"/></g></g></svg>