<svg width="302" height="210" viewBox="0 0 302 210" fill="none" xmlns="http://www.w3.org/2000/svg">
<g clip-path="url(#clip0_1029_6372)">
<path d="M60.76 44.1199C95.06 37.8199 119.76 43.1199 142.47 29.9399C165.18 16.7599 190.67 -1.5001 226.24 6.7499C261.81 14.9999 278.82 64.9999 267.99 104.43C257.16 143.86 217.39 199.54 140.49 201.35C63.59 203.16 30.87 158.35 20.56 133.56C10.25 108.77 10.25 53.3999 60.76 44.1199Z" fill="#EDF3FF"/>
<mask id="mask0_1029_6372" style="mask-type:luminance" maskUnits="userSpaceOnUse" x="15" y="4" width="257" height="198">
<path d="M60.76 44.1199C95.06 37.8199 119.76 43.1199 142.47 29.9399C165.18 16.7599 190.67 -1.5001 226.24 6.7499C261.81 14.9999 278.82 64.9999 267.99 104.43C257.16 143.86 217.39 199.54 140.49 201.35C63.59 203.16 30.87 158.35 20.56 133.56C10.25 108.77 10.25 53.3999 60.76 44.1199Z" fill="white"/>
</mask>
<g mask="url(#mask0_1029_6372)">
<path d="M301.31 168.31H1.81006V170.57H301.31V168.31Z" fill="#6F8FD8"/>
<path opacity="0.2" d="M0.830078 92.6099C0.830078 92.6099 10.5501 79.7199 57.0701 78.0899C103.59 76.4599 89.0701 95.6999 149.61 96.0399C210.15 96.3799 266.16 48.2099 283.67 53.2199C301.18 58.2299 246.49 169.66 246.49 169.66H26.2601L0.830078 92.6099Z" fill="#87A5FF"/>
<path opacity="0.2" d="M0 120.41C0 120.41 60.46 112.1 113.23 124.47C166 136.84 204.54 108.83 232.69 112.47C260.84 116.11 277 94.76 277 94.76C277 94.76 238 171.98 237.3 171.6C236.6 171.22 24.92 169.24 24.92 169.24L0 120.41Z" fill="#87A5FF"/>
<path opacity="0.51" d="M139.74 201.35C139.74 201.35 118.67 190.91 116.87 187.99C115.07 185.07 123.87 184.43 131.25 182.53C138.63 180.63 191.74 168.3 196.19 167.23C200.64 166.16 234.5 167.58 234.5 167.58C234.5 167.58 216.42 187.27 215.89 187.43L150.63 207.68L139.74 201.35Z" fill="#3177DB"/>
</g>
<path d="M97.5199 21.98C97.4123 21.9791 97.307 21.9489 97.2153 21.8925C97.1237 21.8361 97.0492 21.7557 97 21.66C96.9619 21.5928 96.938 21.5185 96.9295 21.4418C96.921 21.3651 96.9282 21.2874 96.9506 21.2135C96.973 21.1396 97.0103 21.0711 97.06 21.012C97.1098 20.953 97.171 20.9046 97.24 20.87L160.62 0.0699615C160.705 0.0252953 160.799 0.00195312 160.895 0.00195312C160.991 0.00195312 161.085 0.0252953 161.17 0.0699615L222.9 20.87C222.968 20.9067 223.029 20.9565 223.078 21.0166C223.127 21.0767 223.164 21.1459 223.186 21.2202C223.208 21.2945 223.216 21.3725 223.208 21.4496C223.2 21.5268 223.177 21.6017 223.14 21.67C223.064 21.8061 222.938 21.9072 222.789 21.952C222.639 21.9968 222.478 21.9817 222.34 21.91L160.89 1.25996L97.79 21.91C97.7058 21.9517 97.6138 21.9755 97.5199 21.98Z" fill="#060555"/>
<path d="M189.22 19.3301H132.04C108.413 19.3301 89.26 38.4833 89.26 62.1101V66.1801C89.26 89.8068 108.413 108.96 132.04 108.96H189.22C212.847 108.96 232 89.8068 232 66.1801V62.1101C232 38.4833 212.847 19.3301 189.22 19.3301Z" fill="url(#paint0_linear_1029_6372)"/>
<path opacity="0.95" d="M188.89 22.5H132.37C110.411 22.5 92.6101 40.3012 92.6101 62.26V66.03C92.6101 87.9888 110.411 105.79 132.37 105.79H188.89C210.849 105.79 228.65 87.9888 228.65 66.03V62.26C228.65 40.3012 210.849 22.5 188.89 22.5Z" fill="white"/>
<path d="M209.75 71.6101H187.08C181.104 71.6101 176.26 76.4544 176.26 82.4301V83.4601C176.26 89.4358 181.104 94.2801 187.08 94.2801H209.75C215.726 94.2801 220.57 89.4358 220.57 83.4601V82.4301C220.57 76.4544 215.726 71.6101 209.75 71.6101Z" fill="#FCD6D6"/>
<path d="M165.16 95.64H105.44C104.235 95.6374 103.08 95.1569 102.229 94.3038C101.378 93.4508 100.9 92.295 100.9 91.09V72.09C100.9 70.885 101.378 69.7292 102.229 68.8762C103.08 68.0232 104.235 67.5427 105.44 67.54H165.16C166.367 67.54 167.524 68.0194 168.377 68.8727C169.231 69.726 169.71 70.8833 169.71 72.09V91.09C169.71 92.2968 169.231 93.4541 168.377 94.3074C167.524 95.1607 166.367 95.64 165.16 95.64ZM105.42 68.22C104.403 68.2227 103.429 68.6284 102.711 69.3483C101.993 70.0681 101.59 71.0433 101.59 72.06V91.06C101.59 92.0767 101.993 93.052 102.711 93.7718C103.429 94.4917 104.403 94.8974 105.42 94.9H165.16C166.178 94.9 167.155 94.4955 167.875 93.7753C168.595 93.0552 169 92.0785 169 91.06V72.06C169 71.0416 168.595 70.0649 167.875 69.3448C167.155 68.6246 166.178 68.22 165.16 68.22H105.42Z" fill="#A9BDF7"/>
<path d="M107.8 86.21H105.24V92.43H107.8V86.21Z" fill="#4476F2"/>
<path d="M116.03 88.47H113.47V92.43H116.03V88.47Z" fill="#4476F2"/>
<path d="M124.25 85.9399H121.69V92.4299H124.25V85.9399Z" fill="#4476F2"/>
<path d="M132.48 82.4199H129.92V92.4299H132.48V82.4199Z" fill="#4476F2"/>
<path d="M140.71 78.8401H138.15V92.4301H140.71V78.8401Z" fill="#4476F2"/>
<path d="M148.93 81.01H146.37V92.43H148.93V81.01Z" fill="#4476F2"/>
<path d="M157.16 78.24H154.6V92.43H157.16V78.24Z" fill="#4476F2"/>
<path d="M165.38 74.46H162.82V92.43H165.38V74.46Z" fill="#4476F2"/>
<path d="M174.06 35.1299H134.19C133.356 35.1299 132.68 35.8059 132.68 36.6399V36.7899C132.68 37.6238 133.356 38.2999 134.19 38.2999H174.06C174.894 38.2999 175.57 37.6238 175.57 36.7899V36.6399C175.57 35.8059 174.894 35.1299 174.06 35.1299Z" fill="#A9BDF7"/>
<path d="M174.06 41.6699H134.19C133.356 41.6699 132.68 42.346 132.68 43.1799V43.3299C132.68 44.1639 133.356 44.8399 134.19 44.8399H174.06C174.894 44.8399 175.57 44.1639 175.57 43.3299V43.1799C175.57 42.346 174.894 41.6699 174.06 41.6699Z" fill="#A9BDF7"/>
<path d="M174.06 48.21H134.19C133.356 48.21 132.68 48.886 132.68 49.72V49.87C132.68 50.7039 133.356 51.38 134.19 51.38H174.06C174.894 51.38 175.57 50.7039 175.57 49.87V49.72C175.57 48.886 174.894 48.21 174.06 48.21Z" fill="#A9BDF7"/>
<path d="M174.06 54.75H134.19C133.356 54.75 132.68 55.426 132.68 56.26V56.41C132.68 57.2439 133.356 57.92 134.19 57.92H174.06C174.894 57.92 175.57 57.2439 175.57 56.41V56.26C175.57 55.426 174.894 54.75 174.06 54.75Z" fill="#A9BDF7"/>
<path d="M123.94 35.1299H102.34C100.197 35.1299 98.46 36.867 98.46 39.0099V39.3799C98.46 41.5227 100.197 43.2599 102.34 43.2599H123.94C126.083 43.2599 127.82 41.5227 127.82 39.3799V39.0099C127.82 36.867 126.083 35.1299 123.94 35.1299Z" fill="#FD8F92"/>
<path d="M123.94 49.8H102.34C100.197 49.8 98.46 51.5372 98.46 53.68V54.05C98.46 56.1929 100.197 57.93 102.34 57.93H123.94C126.083 57.93 127.82 56.1929 127.82 54.05V53.68C127.82 51.5372 126.083 49.8 123.94 49.8Z" fill="#788BF9"/>
<path d="M214.74 44.76L223.29 42.5C222.203 38.0775 219.665 34.1472 216.081 31.3373C212.497 28.5275 208.074 27.0003 203.52 27V35.84C206.122 35.8424 208.647 36.7251 210.685 38.3446C212.722 39.9641 214.151 42.2251 214.74 44.76Z" fill="#FD8F92"/>
<path d="M192 47.34C192 44.2847 193.214 41.3545 195.374 39.1941C197.534 37.0337 200.465 35.82 203.52 35.82V26.98C199.648 26.9796 195.857 28.0831 192.59 30.1611C189.323 32.2392 186.717 35.2056 185.076 38.7125C183.435 42.2194 182.829 46.1214 183.327 49.9609C183.826 53.8004 185.408 57.4182 187.89 60.39L194.52 54.52C192.89 52.4819 192.001 49.9499 192 47.34Z" fill="#4052F2"/>
<path d="M223.29 42.48L214.74 44.76C214.934 45.6164 215.031 46.4919 215.03 47.37C215.029 49.7563 214.286 52.0833 212.905 54.0289C211.523 55.9746 209.571 57.4427 207.318 58.2302C205.066 59.0177 202.624 59.0856 200.331 58.4245C198.038 57.7633 196.007 56.4059 194.52 54.54L187.89 60.41C190.567 63.6217 194.168 65.9315 198.203 67.0254C202.238 68.1194 206.513 67.9444 210.445 66.5244C214.378 65.1043 217.778 62.508 220.183 59.0882C222.588 55.6684 223.883 51.591 223.89 47.41C223.895 45.7481 223.694 44.092 223.29 42.48Z" fill="#FCD6D6"/>
<path d="M120.98 133.21H120.83C120.002 133.21 119.33 133.882 119.33 134.71V187.01C119.33 187.838 120.002 188.51 120.83 188.51H120.98C121.809 188.51 122.48 187.838 122.48 187.01V134.71C122.48 133.882 121.809 133.21 120.98 133.21Z" fill="#3A03C0"/>
<path d="M155.93 153.87H155.78C154.952 153.87 154.28 154.542 154.28 155.37V207.67C154.28 208.499 154.952 209.17 155.78 209.17H155.93C156.758 209.17 157.43 208.499 157.43 207.67V155.37C157.43 154.542 156.758 153.87 155.93 153.87Z" fill="#3A03C0"/>
<path d="M116.79 131.89L114.06 130.98V136.55C114.06 136.55 145.5 160.06 159.28 164.76L158.92 159.68V158.5L116.79 131.89Z" fill="#3652CC"/>
<path d="M159.47 158.58L158.92 159.63L159.28 164.71C159.28 164.71 210.57 159.63 250.57 114.8V109.09L244.3 109.51L159.47 158.58Z" fill="#03097F"/>
<path d="M114.06 130.98C114.06 130.98 180.16 129.76 207.28 96.1799L250.57 109.09C250.57 109.09 218.9 147.04 158.92 159.63C143.474 150.874 128.5 141.311 114.06 130.98Z" fill="#7891EF"/>
<path d="M150.34 124.45H156.48C156.48 124.45 156.57 134.69 150.34 134.69C144.11 134.69 144.21 124.45 144.21 124.45H150.34Z" fill="white"/>
<mask id="mask1_1029_6372" style="mask-type:luminance" maskUnits="userSpaceOnUse" x="144" y="124" width="13" height="11">
<path d="M150.34 124.45H156.48C156.48 124.45 156.57 134.69 150.34 134.69C144.11 134.69 144.21 124.45 144.21 124.45H150.34Z" fill="white"/>
</mask>
<g mask="url(#mask1_1029_6372)">
<path d="M144.99 132.12C144.89 132.12 148.62 133.74 151.42 131.59C154.22 129.44 153.48 125.38 153.48 125.38L156.48 123.54L158.33 128.11L155.33 135.11L148.62 137.4L145.69 135.32L144.99 132.12Z" fill="#D4D4FF"/>
</g>
<path d="M150.34 126.06C153.725 126.06 156.47 125.339 156.47 124.45C156.47 123.561 153.725 122.84 150.34 122.84C146.954 122.84 144.21 123.561 144.21 124.45C144.21 125.339 146.954 126.06 150.34 126.06Z" fill="url(#paint1_linear_1029_6372)"/>
<path d="M162.18 134.11L177.3 128.11L196.89 137.68L181.59 144.62L162.18 134.11Z" fill="white"/>
<path d="M178.88 124.64H177.98L178.07 126.48L195.91 133.41L195.8 131.59L195.61 130.82L178.88 124.64Z" fill="url(#paint2_linear_1029_6372)"/>
<path d="M196.2 130.88L195.8 131.59L195.91 133.41L223.22 118.11V116.34H221.92L196.2 130.88Z" fill="#072070"/>
<path d="M201.77 110.47C202.15 110.896 202.554 111.3 202.98 111.68L223.23 116.34L195.8 131.59L177.98 124.65L178.91 122.97L201.77 110.47Z" fill="#1530A0"/>
<path d="M178.37 123.5L177.98 124.64L176.69 124.08L175.57 99.8899L176.86 100.45L177.98 102.66L178.37 123.5Z" fill="#307DF9"/>
<path d="M202.07 89.89L202.51 89.09L201.22 88.53L175.57 99.89L176.86 100.45L179.98 100.68L202.07 89.89Z" fill="#307DF9"/>
<path d="M176.86 100.45L202.51 89.0901L202.98 111.67L177.98 124.64L176.86 100.45Z" fill="url(#paint3_linear_1029_6372)"/>
<path d="M178.13 101.37L201.54 90.73L201.95 110.85L179.11 122.47L178.13 101.37Z" fill="#D7E6FF"/>
<mask id="mask2_1029_6372" style="mask-type:luminance" maskUnits="userSpaceOnUse" x="178" y="90" width="24" height="33">
<path d="M178.14 101.37L201.54 90.73L201.96 110.85L179.11 122.48L178.14 101.37Z" fill="white"/>
</mask>
<g mask="url(#mask2_1029_6372)">
<path opacity="0.73" d="M185.67 94.3599L179.22 124.88L185.03 122.07L190.91 93.6699L185.67 94.3599Z" fill="white"/>
<path opacity="0.73" d="M194.62 90.8799L188.18 121.4L193.99 118.59L199.87 90.1899L194.62 90.8799Z" fill="white"/>
</g>
<path d="M180.5 124.41L202.98 112.47L211.94 114.64L188.71 127.66L180.5 124.41Z" fill="#072070"/>
<path d="M192.61 156.42C192.61 156.42 187.34 160.12 186.01 161.42C184.68 162.72 185.61 165.7 187.57 167.8C189.53 169.9 204.9 184.87 206.76 186.95C208.62 189.03 209.69 191.07 209.21 193.58C208.957 194.962 208.59 196.32 208.11 197.64C208.11 197.64 208.92 200.11 210.75 199.55C212.58 198.99 214.18 196.14 214.75 194.07C215.308 192.149 216.045 190.284 216.95 188.5C217.25 188.01 215.37 187.07 214.36 186.41C212.555 185.029 211.03 183.315 209.87 181.36C207.95 178.47 203.19 171.74 201.37 169.51C199.625 167.671 197.676 166.037 195.56 164.64L198.67 163.72L192.61 156.42Z" fill="#EF882B"/>
<mask id="mask3_1029_6372" style="mask-type:luminance" maskUnits="userSpaceOnUse" x="185" y="156" width="32" height="44">
<path d="M192.61 156.42C192.61 156.42 187.34 160.12 186.01 161.42C184.68 162.72 185.61 165.7 187.57 167.8C189.53 169.9 204.9 184.87 206.76 186.95C208.62 189.03 209.69 191.07 209.21 193.58C208.957 194.962 208.59 196.32 208.11 197.64C208.11 197.64 208.92 200.11 210.75 199.55C212.58 198.99 214.18 196.14 214.75 194.07C215.308 192.149 216.045 190.284 216.95 188.5C217.25 188.01 215.37 187.07 214.36 186.41C212.555 185.029 211.03 183.315 209.87 181.36C207.95 178.47 203.19 171.74 201.37 169.51C199.625 167.671 197.676 166.037 195.56 164.64L198.67 163.72L192.61 156.42Z" fill="white"/>
</mask>
<g mask="url(#mask3_1029_6372)">
<path opacity="0.52" d="M193.79 159.56C193.89 159.69 195.22 162.93 194.16 164.4C193.1 165.87 197.53 166.74 199.77 169.4C202.773 173.058 205.574 176.877 208.16 180.84C209.99 183.84 213.55 187.57 215.89 187.12C218.23 186.67 216.12 187.32 216.12 187.32L215.12 183.82L198.54 165.67L200.16 163.26L193.79 159.56Z" fill="#DD7B19"/>
</g>
<path d="M214.05 189.96C213.68 190.96 213.15 193.68 212.53 194.72C211.91 195.76 208.53 198.92 208.73 195.92C208.73 195.92 208.38 195.92 207.96 197.36C207.54 198.8 206.64 200.99 206.67 201.98C206.7 202.97 207.85 203.67 209.67 202.55C211.49 201.43 214.4 199.18 215.25 197.55C216.1 195.92 215.98 193.35 216.49 192.81C217 192.27 219.54 194 219.54 194C219.988 193.748 220.358 193.378 220.61 192.93C219.875 191.273 218.973 189.695 217.92 188.22C216.57 186.54 214.92 186.44 214.74 186.72C214.56 187 214.43 188.89 214.05 189.96Z" fill="#0E0E77"/>
<path d="M189.16 152.76C189.16 152.76 182.67 154.92 180.91 155.89C179.15 156.86 179.17 160.22 180.49 163.04C181.81 165.86 192.68 186.42 193.91 189.2C195.14 191.98 195.58 194.43 194.31 196.9C193.625 198.253 192.829 199.548 191.93 200.77C191.93 200.77 191.98 203.61 194 203.62C196.02 203.63 198.53 201.17 199.72 199.18C200.894 197.361 202.233 195.654 203.72 194.08C204.18 193.66 202.58 192.08 201.72 191.08C200.314 189.048 199.297 186.773 198.72 184.37C197.72 180.74 194.98 172.18 193.84 169.27C192.655 166.78 191.192 164.432 189.48 162.27L192.91 162.32L189.16 152.76Z" fill="#FFB966"/>
<mask id="mask4_1029_6372" style="mask-type:luminance" maskUnits="userSpaceOnUse" x="179" y="152" width="25" height="52">
<path d="M189.16 152.76C189.16 152.76 182.67 154.92 180.91 155.89C179.15 156.86 179.17 160.22 180.49 163.04C181.81 165.86 192.68 186.42 193.91 189.2C195.14 191.98 195.58 194.43 194.31 196.9C193.625 198.253 192.829 199.548 191.93 200.77C191.93 200.77 191.98 203.61 194 203.62C196.02 203.63 198.53 201.17 199.72 199.18C200.894 197.361 202.233 195.654 203.72 194.08C204.18 193.66 202.58 192.08 201.72 191.08C200.314 189.048 199.297 186.773 198.72 184.37C197.72 180.74 194.98 172.18 193.84 169.27C192.655 166.78 191.192 164.432 189.48 162.27L192.91 162.32L189.16 152.76Z" fill="white"/>
</mask>
<g mask="url(#mask4_1029_6372)">
<path opacity="0.52" d="M189.37 156.38C189.37 156.55 189.76 160.38 188.23 161.55C186.7 162.72 190.9 165.08 192.32 168.55C194.249 173.329 195.918 178.21 197.32 183.17C198.23 186.92 200.67 191.92 203.18 192.17C205.69 192.42 203.35 192.44 203.35 192.44L203.4 188.44L192.32 164.17L194.7 162.17L189.37 156.38Z" fill="#F79B37"/>
</g>
<path d="M213.9 146.9L213.4 147.28C209.005 147.615 204.634 148.213 200.31 149.07C196.348 149.888 192.468 151.067 188.72 152.59C188.72 152.59 187.72 160.5 193.65 164.79C193.65 164.79 214.5 167.69 223.55 166.57C232.6 165.45 236.02 158.39 235.29 153.83C234.969 151.464 234.392 149.141 233.57 146.9H213.9Z" fill="#F42241"/>
<mask id="mask5_1029_6372" style="mask-type:luminance" maskUnits="userSpaceOnUse" x="188" y="146" width="48" height="21">
<path d="M213.9 146.9L213.4 147.28C209.005 147.615 204.634 148.213 200.31 149.07C196.348 149.888 192.468 151.067 188.72 152.59C188.72 152.59 187.72 160.5 193.65 164.79C193.65 164.79 214.5 167.69 223.55 166.57C232.6 165.45 236.02 158.39 235.29 153.83C234.969 151.464 234.392 149.141 233.57 146.9H213.9Z" fill="white"/>
</mask>
<g mask="url(#mask5_1029_6372)">
<path opacity="0.37" d="M217.31 146.18C217.31 146.18 219.9 153.93 211.48 156.86C203.06 159.79 189.08 159.05 189.08 159.05L190.45 165.88L197.95 168.43L209.61 167.24L226.47 162.24L228.98 152.68L229.51 147.75L217.31 146.18Z" fill="#060555"/>
</g>
<path d="M200.35 194.61C199.65 195.61 198.28 198.2 197.35 199.08C196.42 199.96 192.04 202.18 193.13 199.08C193.13 199.08 192.77 198.96 191.9 200.34C191.03 201.72 189.41 203.76 189.16 204.76C188.91 205.76 189.83 206.91 191.99 206.31C194.15 205.71 197.82 204.31 199.18 202.94C200.54 201.57 201.24 198.79 201.92 198.39C202.6 197.99 204.63 200.61 204.63 200.61C205.164 200.494 205.654 200.227 206.04 199.84C205.817 197.876 205.398 195.94 204.79 194.06C203.96 191.88 202.33 191.25 202.04 191.48C201.75 191.71 201.06 193.62 200.35 194.61Z" fill="#0E0E77"/>
<path d="M213.62 107.51C213.62 107.51 214.56 111.1 213.81 113.08C213.81 113.08 217.16 114.66 218.65 112.6C218.65 112.6 217.65 108.67 217.93 107.3L215.3 104.76L213.62 107.51Z" fill="#D37B24"/>
<path d="M208.69 97.1101C208.565 99.5952 208.565 102.085 208.69 104.57C208.92 107.41 210.21 110.69 213.96 107.93C213.96 107.93 216.38 104.93 216.46 102.59C216.54 100.25 212.69 97.2401 208.69 97.1101Z" fill="#FFB966"/>
<mask id="mask6_1029_6372" style="mask-type:luminance" maskUnits="userSpaceOnUse" x="208" y="97" width="9" height="12">
<path d="M208.69 97.1101C208.565 99.5952 208.565 102.085 208.69 104.57C208.92 107.41 210.21 110.69 213.96 107.93C213.96 107.93 216.38 104.93 216.46 102.59C216.54 100.25 212.69 97.2401 208.69 97.1101Z" fill="white"/>
</mask>
<g mask="url(#mask6_1029_6372)">
<path d="M213.62 109.76C213.62 109.76 210.91 106.76 212.17 105C213.43 103.24 212.84 102.62 211.97 102.35C211.1 102.08 208.6 101.03 207.97 99.5802L208.3 97.6501L215.24 100.65L215.86 104.5L215.5 106.07L213.62 109.76Z" fill="#EF993A"/>
</g>
<path d="M217.61 112.83L213.81 113.08C213.81 113.08 210.81 113.59 208.89 114.08C206.97 114.57 207.89 117.84 207.53 119.7C207.17 121.56 205.9 123.96 205.77 126.18C205.64 128.4 206.93 131.18 210.19 134.5C211 135.5 211.39 142.4 210.46 147.5C210.46 147.5 217.55 153.03 228.86 148.27C228.205 144.51 227.784 140.713 227.6 136.9C227.75 129.57 228.16 124.71 227.5 120.18C227.29 118.001 226.74 115.869 225.87 113.86L218.65 112.56L217.61 112.83Z" fill="#FAFBFD"/>
<mask id="mask7_1029_6372" style="mask-type:luminance" maskUnits="userSpaceOnUse" x="205" y="112" width="24" height="39">
<path d="M217.61 112.83L213.81 113.08C213.81 113.08 210.81 113.59 208.89 114.08C206.97 114.57 207.89 117.84 207.53 119.7C207.17 121.56 205.9 123.96 205.77 126.18C205.64 128.4 206.93 131.18 210.19 134.5C211 135.5 211.39 142.4 210.46 147.5C210.46 147.5 217.55 153.03 228.86 148.27C228.205 144.51 227.784 140.713 227.6 136.9C227.75 129.57 228.16 124.71 227.5 120.18C227.29 118.001 226.74 115.869 225.87 113.86L218.65 112.56L217.61 112.83Z" fill="white"/>
</mask>
<g mask="url(#mask7_1029_6372)">
<path opacity="0.46" d="M218.5 112.6C218.5 112.6 220.5 114.7 221.01 119.19C221.248 121.887 221.809 124.546 222.68 127.11C223.26 128.97 221.75 130.11 221.75 136.63C221.75 143.15 217.62 149.13 213.62 149.31L221.01 152.31L227.44 151.71L232.16 133.44L231.68 119.76L222.04 110.19L218.5 112.6Z" fill="#F47AAC"/>
</g>
<path d="M223.01 200.1H226.13V180.5H223.01V200.1Z" fill="#DDA6AC"/>
<mask id="mask8_1029_6372" style="mask-type:luminance" maskUnits="userSpaceOnUse" x="223" y="180" width="4" height="21">
<path d="M223.01 200.1H226.13V180.5H223.01V200.1Z" fill="white"/>
</mask>
<g mask="url(#mask8_1029_6372)">
<path d="M220.48 186.84H226.75V182.24H220.48V186.84Z" fill="#D37D89"/>
</g>
<path d="M224.74 171.51H224.4C222.439 171.51 220.85 173.099 220.85 175.06V180.57C220.85 182.531 222.439 184.12 224.4 184.12H224.74C226.701 184.12 228.29 182.531 228.29 180.57V175.06C228.29 173.099 226.701 171.51 224.74 171.51Z" fill="#2337E8"/>
<mask id="mask9_1029_6372" style="mask-type:luminance" maskUnits="userSpaceOnUse" x="220" y="171" width="9" height="14">
<path d="M224.74 171.52H224.4C222.439 171.52 220.85 173.109 220.85 175.07V180.58C220.85 182.541 222.439 184.13 224.4 184.13H224.74C226.701 184.13 228.29 182.541 228.29 180.58V175.07C228.29 173.109 226.701 171.52 224.74 171.52Z" fill="white"/>
</mask>
<g mask="url(#mask9_1029_6372)">
<path opacity="0.42" d="M216 175.7H231.94V170.87H216V175.7Z" fill="#001051"/>
</g>
<path d="M212.16 203.41C212.16 204.78 217.72 205.89 224.57 205.89C231.42 205.89 236.98 204.78 236.98 203.41C236.98 202.04 231.43 199.16 224.57 199.16C217.71 199.16 212.16 202.04 212.16 203.41Z" fill="#2337E8"/>
<mask id="mask10_1029_6372" style="mask-type:luminance" maskUnits="userSpaceOnUse" x="212" y="199" width="25" height="7">
<path d="M212.16 203.41C212.16 204.78 217.72 205.89 224.57 205.89C231.42 205.89 236.98 204.78 236.98 203.41C236.98 202.04 231.43 199.16 224.57 199.16C217.71 199.16 212.16 202.04 212.16 203.41Z" fill="white"/>
</mask>
<g mask="url(#mask10_1029_6372)">
<path opacity="0.42" d="M236.37 201.4C236.37 201.4 234.78 204.4 225.87 204.01C216.96 203.62 213.55 202.65 213.87 201.17C213.87 201.17 210.39 202.95 210.2 203.03C210.301 204.001 210.503 204.96 210.8 205.89L222.16 208.3L236.33 206.52C237.104 206.303 237.855 206.008 238.57 205.64C238.61 205.45 236.37 201.4 236.37 201.4Z" fill="#001051"/>
</g>
<path d="M240.16 117.4C234.28 117.63 228.8 118.09 226.49 124.54C224.18 130.99 227.49 146.24 222.01 151.45C216.53 156.66 203.35 157.19 201.95 161.38C200.55 165.57 202.95 170.73 213.1 171.85C223.25 172.97 235.6 174.22 242.73 170.2C249.86 166.18 252.96 156.67 254.15 147.82C255.049 141.344 255.6 134.825 255.8 128.29C255.81 124.76 251.79 116.93 240.16 117.4Z" fill="#4052F2"/>
<mask id="mask11_1029_6372" style="mask-type:luminance" maskUnits="userSpaceOnUse" x="201" y="117" width="55" height="56">
<path d="M240.16 117.4C234.28 117.63 228.8 118.09 226.49 124.54C224.18 130.99 227.49 146.24 222.01 151.45C216.53 156.66 203.35 157.19 201.95 161.38C200.55 165.57 202.95 170.73 213.1 171.85C223.25 172.97 235.6 174.22 242.73 170.2C249.86 166.18 252.96 156.67 254.15 147.82C255.049 141.344 255.6 134.825 255.8 128.29C255.81 124.76 251.79 116.93 240.16 117.4Z" fill="white"/>
</mask>
<g mask="url(#mask11_1029_6372)">
<path opacity="0.22" d="M252.86 156.57C250.538 160.231 247.304 163.226 243.475 165.259C239.646 167.293 235.354 168.296 231.02 168.17C216.02 167.71 209.65 160.84 217.02 154.72C224.39 148.6 211.84 153.72 211.84 153.72L194.28 161.11L194.33 173.28L203.83 179.42C203.83 179.42 230.27 182.77 230.66 182.42C231.05 182.07 240.9 176 240.9 176L251.81 167.52L252.86 156.57Z" fill="#001051"/>
<path opacity="0.22" d="M224.07 123.36C224.07 123.36 227.15 128.5 226.77 137.8C226.39 147.1 229.77 154.33 243.56 151.3C257.35 148.27 258.26 137.3 258.16 136.74C258.06 136.18 257.31 120.07 257.31 120.07L252.94 117.07L234.66 117.39L224.07 123.36Z" fill="#001051"/>
</g>
<path d="M209.6 116.86C210.31 119.78 210.17 124.53 209.06 126.57C207.95 128.61 203.68 138.39 202.24 139.79C200.8 141.19 198.55 140.31 196.35 139.15C194.48 138.15 180.68 130.53 179.6 129.44C179.6 129.44 175.6 126.44 174.6 123.83C173.6 121.22 175.6 119.45 177.44 120.35C179.693 121.473 181.467 123.368 182.44 125.69C183.38 128.16 185.21 128.31 188.28 129.54C191.2 130.7 199.28 133.85 199.44 133.8C199.6 133.75 200.44 132.15 201.15 129.72C201.86 127.29 205.34 118.33 206.15 116.86C206.96 115.39 208.31 114.16 208.69 114.55C209.138 115.255 209.447 116.039 209.6 116.86Z" fill="#FFB966"/>
<mask id="mask12_1029_6372" style="mask-type:luminance" maskUnits="userSpaceOnUse" x="174" y="114" width="37" height="27">
<path d="M209.6 116.86C210.31 119.78 210.17 124.53 209.06 126.57C207.95 128.61 203.68 138.39 202.24 139.79C200.8 141.19 198.55 140.31 196.35 139.15C194.48 138.15 180.68 130.53 179.6 129.44C179.6 129.44 175.6 126.44 174.6 123.83C173.6 121.22 175.6 119.45 177.44 120.35C179.693 121.473 181.467 123.368 182.44 125.69C183.38 128.16 185.21 128.31 188.28 129.54C191.2 130.7 199.28 133.85 199.44 133.8C199.6 133.75 200.44 132.15 201.15 129.72C201.86 127.29 205.34 118.33 206.15 116.86C206.96 115.39 208.31 114.16 208.69 114.55C209.138 115.255 209.447 116.039 209.6 116.86Z" fill="white"/>
</mask>
<g mask="url(#mask12_1029_6372)">
<path d="M210.56 120.76C210.56 120.76 203.56 138.07 201.12 138.83C199.75 139.25 199.66 138.99 196.75 137.99C194.75 137.32 189.84 135.53 189.84 135.53L194.84 139.37L197.51 141.03L199.78 141.67L203.15 140.57L211.51 123.2L210.56 120.76Z" fill="#EF993A"/>
</g>
<path d="M208.27 95.4701C208.27 95.4701 207.13 98.4701 211.96 100.25C216.79 102.03 215.63 117.61 222.53 120.01C229.43 122.41 231.53 126.93 229.81 137.8C228.09 148.67 244.81 154.31 253.14 139.8C261.47 125.29 248.76 113.69 240.25 109.93C231.74 106.17 229.25 95.6101 227.36 91.8101C224.54 86.1001 214.6 84.8901 211.74 89.6701C210.993 89.3671 210.162 89.3396 209.396 89.5923C208.631 89.8451 207.98 90.3618 207.56 91.0501C205.9 93.2901 208.27 95.4701 208.27 95.4701Z" fill="#FF2E56"/>
<mask id="mask13_1029_6372" style="mask-type:luminance" maskUnits="userSpaceOnUse" x="206" y="86" width="50" height="63">
<path d="M208.27 95.4701C208.27 95.4701 207.13 98.4701 211.96 100.25C216.79 102.03 215.63 117.61 222.53 120.01C229.43 122.41 231.53 126.93 229.81 137.8C228.09 148.67 244.81 154.31 253.14 139.8C261.47 125.29 248.76 113.69 240.25 109.93C231.74 106.17 229.25 95.6101 227.36 91.8101C224.54 86.1001 214.6 84.8901 211.74 89.6701C210.993 89.3671 210.162 89.3396 209.396 89.5923C208.631 89.8451 207.98 90.3618 207.56 91.0501C205.9 93.2901 208.27 95.4701 208.27 95.4701Z" fill="white"/>
</mask>
<g mask="url(#mask13_1029_6372)">
<path d="M227.05 89.52C227.33 89.86 229.94 98.17 231.25 102.4C232.56 106.63 235.14 109.05 242.94 114.06C250.74 119.07 251.81 132.5 245.77 134.74C239.73 136.98 232.56 136.93 229.13 131.42L228.38 145.17L233.16 152.76L246.03 153.17L256.88 142.88C256.88 142.88 262.75 134.28 262.75 134.07C262.75 133.86 254.5 113.07 254.5 113.07L229.5 92.43L227.05 89.52Z" fill="#D10737"/>
</g>
<path d="M171.84 146.21L172.33 146.29V146.82L157.55 151.77L157.2 151.18L157.41 150.44L171.84 146.21Z" fill="#BA0934"/>
<path d="M157.12 150.24L157.55 151.18L172.33 146.29L156.15 138.89L141.46 142.45L157.12 150.24Z" fill="#DB1239"/>
<path d="M170.4 143.45C170.175 143.888 170.085 144.383 170.14 144.872C170.195 145.361 170.393 145.823 170.71 146.2L156.97 150.76L156.9 147.76L170.4 143.45Z" fill="white"/>
<path d="M171.93 143.44L172.33 143.5V144.12L156.06 149.17V148.55L171.93 143.44Z" fill="#DB1239"/>
<path d="M141.91 140.57L141.32 139.84L156.09 136.43L172.33 143.5L157.55 148.18L156.06 148.55L141.91 140.57Z" fill="#DB1239"/>
<path d="M141.32 139.84L157.55 148.18V151.77L141.46 143.04L141.32 139.84Z" fill="#F9898B"/>
<path d="M172.36 142.28L172.85 142.36V142.89L158.07 147.84L157.72 147.25L157.93 146.5L172.36 142.28Z" fill="#BA0934"/>
<path d="M157.63 146.31L158.07 147.25L172.85 142.36L156.67 134.96L141.98 138.52L157.63 146.31Z" fill="#DB1239"/>
<path d="M170.91 139.52C170.685 139.958 170.595 140.453 170.65 140.942C170.705 141.431 170.903 141.893 171.22 142.27L157.48 146.76L157.42 143.76L170.91 139.52Z" fill="white"/>
<path d="M172.45 139.51L172.85 139.57V140.19L156.58 145.24V144.61L172.45 139.51Z" fill="#DB1239"/>
<path d="M142.43 136.64L141.84 135.91L156.61 132.5L172.85 139.57L158.07 144.25L156.58 144.61L142.43 136.64Z" fill="#EA425B"/>
<path d="M141.84 135.91L158.07 144.25V147.84L141.98 139.11L141.84 135.91Z" fill="#F9898B"/>
<path d="M146.66 124.46C146.66 124.46 143.66 123.46 144.11 121.71C144.56 119.96 147.32 120.66 146.81 118.66C146.3 116.66 147.95 115.93 149.34 116.15C150.73 116.37 151.48 114.62 153.46 115C155.44 115.38 154.81 117.28 154.37 118.33C153.93 119.38 156.79 119.66 156.61 121.43C156.502 122.279 156.112 123.068 155.503 123.67C154.894 124.271 154.101 124.652 153.25 124.75C151.06 125.163 148.805 125.064 146.66 124.46Z" fill="#F47E67"/>
<mask id="mask14_1029_6372" style="mask-type:luminance" maskUnits="userSpaceOnUse" x="144" y="114" width="13" height="12">
<path d="M146.66 124.46C146.66 124.46 143.66 123.46 144.11 121.71C144.56 119.96 147.32 120.66 146.81 118.66C146.3 116.66 147.95 115.93 149.34 116.15C150.73 116.37 151.48 114.62 153.46 115C155.44 115.38 154.81 117.28 154.37 118.33C153.93 119.38 156.79 119.66 156.61 121.43C156.502 122.279 156.112 123.068 155.503 123.67C154.894 124.271 154.101 124.652 153.25 124.75C151.06 125.163 148.805 125.064 146.66 124.46Z" fill="white"/>
</mask>
<g mask="url(#mask14_1029_6372)">
<path d="M145.3 123.98C147.265 124.261 149.268 124.111 151.17 123.54C154.38 122.59 152.37 120.87 152.34 119.79C152.31 118.71 154.21 116.79 153.13 115.79C152.787 115.5 152.374 115.304 151.931 115.224C151.489 115.143 151.034 115.18 150.61 115.33L154.61 113.97L157.04 116.86L156.79 118.65L159.2 123.43C159.2 123.43 155.57 126.26 155.53 126.26C155.49 126.26 149.74 126.92 149.73 126.88C149.72 126.84 145.3 123.98 145.3 123.98Z" fill="#ED4848"/>
</g>
<path d="M74.6401 86.49C74.6401 86.49 76.7901 94.08 77.4001 94.13C78.0101 94.18 88.4001 85.92 89.5801 84.47C90.7601 83.02 90.8901 81.19 91.3601 79.83C91.8301 78.47 94.5301 77.6 96.4901 77.83C98.4501 78.06 99.3301 78.25 98.2201 82.31C97.1101 86.37 97.3701 85.31 94.0101 86.99C90.6501 88.67 86.7401 94.39 81.3801 98.87C76.5701 102.87 74.9901 101.52 72.5601 98.96C70.1301 96.4 67.3701 88.81 67.3701 88.81C69.63 87.5958 72.0946 86.8093 74.6401 86.49Z" fill="#FFB966"/>
<mask id="mask15_1029_6372" style="mask-type:luminance" maskUnits="userSpaceOnUse" x="67" y="77" width="32" height="25">
<path d="M74.6401 86.49C74.6401 86.49 76.7901 94.08 77.4001 94.13C78.0101 94.18 88.4001 85.92 89.5801 84.47C90.7601 83.02 90.8901 81.19 91.3601 79.83C91.8301 78.47 94.5301 77.6 96.4901 77.83C98.4501 78.06 99.3301 78.25 98.2201 82.31C97.1101 86.37 97.3701 85.31 94.0101 86.99C90.6501 88.67 86.7401 94.39 81.3801 98.87C76.5701 102.87 74.9901 101.52 72.5601 98.96C70.1301 96.4 67.3701 88.81 67.3701 88.81C69.63 87.5958 72.0946 86.8093 74.6401 86.49Z" fill="white"/>
</mask>
<g mask="url(#mask15_1029_6372)">
<path d="M73.83 90.1899C73.83 90.1899 73.9701 98.7699 76.4901 98.8199C79.0101 98.8699 92.16 89.1599 92.16 89.1599L77.9 103.06L71.79 101.59L68.79 94.4699L70.89 89.5799L73.83 90.1899Z" fill="#F4882F"/>
</g>
<path d="M77.1601 113.82C77.1601 113.82 79.6101 125.82 80.9401 134.53C82.2701 143.24 84.7201 166.99 84.9401 177.14C84.9401 177.14 80.5101 180.14 71.8301 177.78C71.8301 177.78 71.5801 153.84 67.2401 135.37C67.2401 135.37 62.1201 159.09 53.1601 175.57C53.1601 175.57 45.3001 171.28 40.8301 164.34C44.3044 159.518 47.0505 154.211 48.9801 148.59C51.9201 139.7 51.9801 117.48 51.9801 117.48L77.1601 113.82Z" fill="#1174EA"/>
<mask id="mask16_1029_6372" style="mask-type:luminance" maskUnits="userSpaceOnUse" x="40" y="113" width="45" height="66">
<path d="M77.1601 113.82C77.1601 113.82 79.6101 125.82 80.9401 134.53C82.2701 143.24 84.7201 166.99 84.9401 177.14C84.9401 177.14 80.5101 180.14 71.8301 177.78C71.8301 177.78 71.5801 153.84 67.2401 135.37C67.2401 135.37 62.1201 159.09 53.1601 175.57C53.1601 175.57 45.3001 171.28 40.8301 164.34C44.3044 159.518 47.0505 154.211 48.9801 148.59C51.9201 139.7 51.9801 117.48 51.9801 117.48L77.1601 113.82Z" fill="white"/>
</mask>
<g mask="url(#mask16_1029_6372)">
<path opacity="0.56" d="M43.8501 172.76C44.0601 172.62 48.1901 168.35 51.0601 165.48C53.9301 162.61 56.4401 161.98 58.5401 150.86C60.6401 139.74 63.0001 134.86 65.3301 130.66C67.6601 126.46 65.8401 117.83 65.8401 117.83L78.4501 111.83L92.6101 156.32L91.6101 184.32L74.2601 190.62L48.9301 181.57L43.8501 172.76Z" fill="#0845B2"/>
<path opacity="0.56" d="M74.3301 114.31C74.3301 114.31 78.3301 128.49 78.9401 137.63C79.5501 146.77 78.7201 156.19 79.8401 160.53C80.9601 164.87 80.4101 175.29 75.7301 180.17L89.2601 179.61L87.5801 142.67L80.2101 111.41L74.3301 114.31Z" fill="#242BA4"/>
<g opacity="0.51">
<path d="M37.4201 171.69C37.3686 171.69 37.3178 171.678 37.2724 171.653C37.227 171.629 37.1884 171.593 37.1601 171.55C37.1361 171.516 37.1193 171.477 37.1109 171.436C37.1024 171.394 37.1024 171.352 37.1108 171.311C37.1192 171.27 37.1359 171.231 37.1599 171.196C37.1838 171.162 37.2145 171.132 37.2501 171.11C39.129 169.782 40.812 168.196 42.2501 166.4C45.9427 161.821 48.5726 156.479 49.9501 150.76C53.6301 136.23 53.3101 115.99 53.3101 115.76C53.3073 115.718 53.3133 115.676 53.3277 115.637C53.3422 115.597 53.3647 115.561 53.3939 115.531C53.4232 115.501 53.4584 115.477 53.4974 115.462C53.5364 115.446 53.5782 115.439 53.6201 115.44C53.6617 115.439 53.7031 115.446 53.7418 115.461C53.7806 115.476 53.8159 115.498 53.8458 115.527C53.8756 115.556 53.8994 115.591 53.9156 115.629C53.9318 115.667 53.9402 115.709 53.9401 115.75C53.9401 115.95 54.2701 136.27 50.5701 150.89C49.1606 156.72 46.4687 162.162 42.6901 166.82C41.2254 168.656 39.5083 170.275 37.5901 171.63C37.5424 171.67 37.4821 171.691 37.4201 171.69Z" fill="#242BA4"/>
</g>
<g opacity="0.51">
<path d="M43.0702 174.37C43.0053 174.37 42.9421 174.349 42.8902 174.31C42.8554 174.287 42.8256 174.257 42.8026 174.222C42.7796 174.187 42.7639 174.148 42.7565 174.107C42.749 174.066 42.7499 174.024 42.7591 173.983C42.7684 173.942 42.7858 173.904 42.8102 173.87C43.2402 173.28 43.7402 172.62 44.3202 171.87C47.4502 167.78 52.1702 161.6 54.7702 152.34C56.8431 144.494 58.0668 136.448 58.4202 128.34C58.7502 121.7 58.5002 117.07 58.4902 117.02C58.4899 116.938 58.5205 116.858 58.576 116.797C58.6316 116.736 58.708 116.698 58.7902 116.69C58.8323 116.687 58.8744 116.693 58.9143 116.707C58.9542 116.72 58.9909 116.742 59.0225 116.77C59.0541 116.797 59.0799 116.831 59.0984 116.869C59.1169 116.907 59.1276 116.948 59.1302 116.99C59.1302 116.99 59.3802 121.69 59.0502 128.37C58.6959 136.538 57.4655 144.645 55.3802 152.55C52.7502 161.93 47.7902 168.42 44.8202 172.29C44.2402 173.05 43.7402 173.71 43.3302 174.29C43.2962 174.323 43.255 174.347 43.2098 174.361C43.1646 174.375 43.1168 174.378 43.0702 174.37Z" fill="#242BA4"/>
</g>
<g opacity="0.51">
<path d="M48.72 177.05C48.652 177.05 48.5856 177.029 48.53 176.99C48.4634 176.94 48.4189 176.866 48.4058 176.784C48.3928 176.702 48.4122 176.618 48.46 176.55C58.22 162.87 61.84 147.73 63.16 137.44C64.0337 131.058 64.2081 124.6 63.68 118.18C63.6687 118.136 63.6671 118.09 63.6752 118.045C63.6833 118 63.701 117.957 63.727 117.919C63.753 117.881 63.7868 117.85 63.8261 117.826C63.8654 117.803 63.9093 117.788 63.9548 117.783C64.0003 117.778 64.0463 117.783 64.0897 117.797C64.1332 117.811 64.1731 117.835 64.2068 117.866C64.2405 117.897 64.2671 117.935 64.2849 117.977C64.3027 118.019 64.3113 118.064 64.31 118.11C64.8442 124.573 64.6698 131.075 63.79 137.5C62.9837 143.967 61.516 150.333 59.41 156.5C56.9312 163.784 53.4186 170.675 48.98 176.96C48.9461 176.994 48.9052 177.019 48.8602 177.035C48.8152 177.05 48.7673 177.055 48.72 177.05Z" fill="#242BA4"/>
</g>
<g opacity="0.51">
<path d="M72.1601 191.45C72.0786 191.436 72.0059 191.39 71.9574 191.323C71.9089 191.256 71.8884 191.172 71.9 191.09C74.65 174.58 73.0601 155.59 71.2401 142.57C70.1105 134.316 68.5584 126.125 66.59 118.03C66.5796 117.99 66.5774 117.948 66.5833 117.907C66.5893 117.867 66.6035 117.827 66.6249 117.792C66.6463 117.756 66.6746 117.726 66.7081 117.701C66.7417 117.677 66.7797 117.66 66.82 117.65C66.9009 117.629 66.9871 117.64 67.06 117.681C67.1329 117.722 67.1867 117.79 67.21 117.87C67.21 117.98 69.8901 128.34 71.8701 142.49C72.9805 150.345 73.6748 158.252 73.95 166.18C74.2771 174.54 73.8016 182.912 72.53 191.18C72.524 191.223 72.5095 191.263 72.4875 191.3C72.4655 191.336 72.4364 191.368 72.4019 191.393C72.3675 191.418 72.3283 191.436 72.2868 191.446C72.2452 191.456 72.2021 191.457 72.1601 191.45Z" fill="#242BA4"/>
</g>
<g opacity="0.51">
<path d="M77.0801 190.14H77.0201C76.9789 190.132 76.9398 190.115 76.9051 190.092C76.8705 190.068 76.841 190.037 76.8186 190.002C76.7961 189.966 76.7811 189.926 76.7745 189.885C76.7679 189.843 76.7698 189.801 76.7801 189.76C79.2201 178.29 77.4702 158.84 75.5602 144.54C73.5002 129.04 70.8202 116.08 70.7902 115.95C70.7814 115.91 70.7806 115.869 70.788 115.828C70.7953 115.788 70.8106 115.749 70.8329 115.715C70.8552 115.681 70.8841 115.651 70.918 115.628C70.9518 115.605 70.99 115.588 71.0301 115.58C71.0716 115.57 71.1148 115.568 71.1569 115.576C71.1989 115.583 71.2391 115.599 71.2748 115.622C71.3105 115.646 71.3409 115.676 71.3642 115.712C71.3875 115.748 71.4031 115.788 71.4101 115.83C71.4101 115.95 74.1202 128.93 76.1902 144.46C77.4002 153.58 78.1901 161.79 78.4701 168.86C78.8501 177.7 78.4701 184.78 77.3901 189.86C77.3827 189.937 77.3468 190.008 77.2894 190.06C77.2321 190.112 77.1574 190.14 77.0801 190.14Z" fill="#242BA4"/>
</g>
<g opacity="0.51">
<path d="M81.9802 188.83H81.8802C81.8027 188.801 81.7392 188.743 81.7022 188.669C81.6651 188.595 81.6573 188.51 81.6803 188.43C83.3803 183.34 82.7702 168.85 79.9202 146.51C77.7502 129.61 75.0402 114.05 75.0202 113.89C75.013 113.849 75.0139 113.808 75.0228 113.767C75.0317 113.727 75.0485 113.689 75.0722 113.655C75.0958 113.621 75.1259 113.592 75.1608 113.57C75.1956 113.547 75.2345 113.532 75.2752 113.525C75.3159 113.518 75.3576 113.519 75.398 113.528C75.4384 113.537 75.4767 113.553 75.5106 113.577C75.5445 113.601 75.5733 113.631 75.5956 113.666C75.6178 113.7 75.633 113.739 75.6402 113.78C75.6402 113.94 78.3802 129.52 80.5402 146.43C81.8102 156.37 82.6502 164.82 83.0302 171.54C83.5002 179.98 83.2502 185.73 82.2802 188.63C82.2561 188.69 82.2146 188.741 82.1611 188.776C82.1076 188.812 82.0446 188.831 81.9802 188.83Z" fill="#242BA4"/>
</g>
</g>
<path d="M72.8201 91.4299C74.0558 91.3593 75.2243 90.8443 76.1101 89.9799C76.1101 89.9799 74.8901 84.7799 74.3301 80.7699C73.7701 76.7599 72.9301 69.7699 68.8701 68.6899C65.9669 67.9639 62.9992 67.5251 60.0101 67.3799L55.7401 67.5399H55.2101C55.2101 67.5399 48.3401 69.6399 45.2101 71.9099C42.0801 74.1799 41.7501 83.8099 42.2101 93.7399C42.3433 93.9271 42.5015 94.0953 42.6801 94.2399C43.5001 94.9599 45.5001 96.0499 49.3501 94.8399L49.7701 94.7099C49.7701 94.7099 49.8401 100.19 50.2401 106.45C50.4632 110.449 50.8904 114.434 51.5201 118.39C53.4258 118.915 55.3729 119.276 57.3401 119.47C62.9601 120.08 71.5301 119.82 77.9601 114.34L72.8201 91.4299Z" fill="#FF5F5F"/>
<mask id="mask17_1029_6372" style="mask-type:luminance" maskUnits="userSpaceOnUse" x="42" y="67" width="36" height="53">
<path d="M72.8201 91.4299C74.0558 91.3593 75.2243 90.8443 76.1101 89.9799C76.1101 89.9799 74.8901 84.7799 74.3301 80.7699C73.7701 76.7599 72.9301 69.7699 68.8701 68.6899C65.9669 67.9639 62.9992 67.5251 60.0101 67.3799L55.7401 67.5399H55.2101C55.2101 67.5399 48.3401 69.6399 45.2101 71.9099C42.0801 74.1799 41.7501 83.8099 42.2101 93.7399C42.3433 93.9271 42.5015 94.0953 42.6801 94.2399C43.5001 94.9599 45.5001 96.0499 49.3501 94.8399L49.7701 94.7099C49.7701 94.7099 49.8401 100.19 50.2401 106.45C50.4632 110.449 50.8904 114.434 51.5201 118.39C53.4258 118.915 55.3729 119.276 57.3401 119.47C62.9601 120.08 71.5301 119.82 77.9601 114.34L72.8201 91.4299Z" fill="white"/>
</mask>
<g mask="url(#mask17_1029_6372)">
<path d="M46.1602 95.8598C46.1602 95.8598 48.5502 94.6198 48.9102 90.7598C49.2702 86.8998 49.0702 75.6398 50.0602 76.7598C51.0502 77.8798 51.5502 97.0898 51.7902 101.66C52.0302 106.23 59.2502 120.37 59.2502 120.37L51.0602 119.76C51.0602 119.76 49.3802 112.46 49.4702 111.99C49.5602 111.52 49.4702 101.42 49.4702 101.42L49.3801 95.6698L46.1602 95.8598Z" fill="#F41E37"/>
<path opacity="0.45" d="M58.6801 67.2199C58.6801 67.2199 64.4201 65.6799 65.8901 71.0599C67.3601 76.4399 65.7501 90.7999 68.3401 95.8299C70.9301 100.86 70.3401 119.9 58.6101 121.65C58.6101 121.65 80.5101 122.21 80.7201 121.44C80.9301 120.67 87.2301 117.03 85.7201 110.81C84.2101 104.59 80.2601 79.5999 80.2601 79.5999L75.7901 68.2999L67.4001 66.2999L62.2801 64.1399L58.6801 67.2199Z" fill="#F41E37"/>
<path d="M77.0103 94.5999L76.2403 92.8299C76.2403 92.8299 74.7103 92.8299 73.7103 89.0899C72.7103 85.3499 71.3203 76.7999 70.5103 75.9299C69.7003 75.0599 70.7903 88.9799 71.8403 92.1999C72.8903 95.4199 77.6003 116.01 77.6003 116.01C77.6003 116.01 79.9503 115.36 79.9503 114.87C79.9503 114.38 77.0103 94.5999 77.0103 94.5999Z" fill="#EF0F30"/>
</g>
<path d="M64.5399 51.94C64.5399 51.94 66.5399 51.57 67.2099 47.94C67.6232 45.7585 67.27 43.5011 66.2099 41.55C63.9479 42.7949 61.4209 43.4806 58.8399 43.55C55.0499 43.45 49.3999 43.9501 47.3999 48.0301C45.3999 52.1101 47.74 59.27 51.24 61.8C54.57 64.22 55.09 63.8001 56.43 62.4201L64.5399 51.94Z" fill="#2D2DAA"/>
<mask id="mask18_1029_6372" style="mask-type:luminance" maskUnits="userSpaceOnUse" x="46" y="41" width="22" height="23">
<path d="M64.5399 51.94C64.5399 51.94 66.5399 51.57 67.2099 47.94C67.6232 45.7585 67.27 43.5011 66.2099 41.55C63.9479 42.7949 61.4209 43.4806 58.8399 43.55C55.0499 43.45 49.3999 43.9501 47.3999 48.0301C45.3999 52.1101 47.74 59.27 51.24 61.8C54.57 64.22 55.09 63.8001 56.43 62.4201L64.5399 51.94Z" fill="white"/>
</mask>
<g mask="url(#mask18_1029_6372)">
<path opacity="0.67" d="M48.49 60.1601C48.9279 60.2347 49.3764 60.2192 49.808 60.1143C50.2396 60.0094 50.6453 59.8174 51 59.5501C52.08 58.6601 50.53 55.3801 52.42 54.3401C54.31 53.3001 54.09 49.7901 54.09 49.7901C57.1218 49.9554 60.1626 49.8281 63.17 49.4101C67.46 48.7201 67.37 44.0701 67.37 44.0701L68.94 50.1201L64.0699 53.9501L58.0699 61.6201L55.14 64.6201L53.05 63.7201L48.49 60.1601Z" fill="#0B0B60"/>
</g>
<path d="M54.8401 63.4901C54.8401 63.4901 55.3501 63.8001 55.2101 67.5801C55.2101 67.5801 58.3201 69.3201 60.0101 67.3801C59.7983 66.3302 59.7578 65.2529 59.8901 64.1901L57.8901 61.7201L55.8901 61.3601L54.8401 63.4901Z" fill="#F4882F"/>
<path d="M65.0301 50.6599C65.0301 50.6599 65.4001 57.4399 65.4001 59.5399C65.4001 61.6399 64.0701 65.7499 60.4801 64.8799C56.8901 64.0099 55.7001 62.3199 55.7901 61.5999C55.858 61.1009 55.7718 60.5931 55.5431 60.1445C55.3143 59.6959 54.9538 59.3279 54.51 59.0899C53.9427 58.8855 53.4621 58.4936 53.1476 57.979C52.833 57.4645 52.7034 56.8581 52.7801 56.2599C52.9101 54.7699 53.9601 55.4799 54.8501 54.5699C55.4022 53.9658 55.77 53.2163 55.9101 52.4099C55.9101 52.4099 63.4801 52.6699 65.0301 50.6599Z" fill="#FFA852"/>
<mask id="mask19_1029_6372" style="mask-type:luminance" maskUnits="userSpaceOnUse" x="52" y="50" width="14" height="15">
<path d="M65.0298 50.6599C65.0298 50.6599 65.3998 57.4399 65.3998 59.5399C65.3998 61.6399 64.0698 65.7499 60.4798 64.8799C56.8898 64.0099 55.6998 62.3199 55.7898 61.5999C55.8578 61.1009 55.7716 60.5931 55.5428 60.1445C55.314 59.6959 54.9536 59.3279 54.5098 59.0899C53.9425 58.8855 53.4618 58.4936 53.1473 57.979C52.8328 57.4645 52.7031 56.8581 52.7798 56.2599C52.9098 54.7699 53.9598 55.4799 54.8498 54.5699C55.402 53.9658 55.7698 53.2163 55.9098 52.4099C55.9098 52.4099 63.4798 52.6699 65.0298 50.6599Z" fill="white"/>
</mask>
<g mask="url(#mask19_1029_6372)">
<path d="M52.42 57.2599C52.42 57.2599 52.91 56.2599 54.83 56.2599C56.75 56.2599 56.7599 53.1399 56.7599 53.1399C56.7599 53.1399 62.2 54.3099 65.99 50.9199L64.99 49.9199L54.49 51.1599C54.49 51.1599 52.97 54.2999 52.95 54.4599C52.93 54.6199 51.95 55.2099 51.95 55.2099L52.42 57.2599Z" fill="#F4882F"/>
</g>
<path d="M57.3999 119.57C56.1399 122.23 52.74 122.39 52.74 122.39C52.74 122.39 44.06 107.39 43.22 105.81C42.38 104.23 42.6699 95.44 42.7099 94.28C43.5299 95 45.5299 96.09 49.3799 94.88C49.3799 96.67 49.4399 102.19 49.5799 104.32C49.701 105.074 49.9335 105.805 50.2699 106.49C52.0999 110.74 56.91 118.76 57.37 119.49L57.3999 119.57Z" fill="#FFB966"/>
<mask id="mask20_1029_6372" style="mask-type:luminance" maskUnits="userSpaceOnUse" x="42" y="94" width="16" height="29">
<path d="M57.3999 119.57C56.1399 122.23 52.74 122.39 52.74 122.39C52.74 122.39 44.06 107.39 43.22 105.81C42.38 104.23 42.6699 95.44 42.7099 94.28C43.5299 95 45.5299 96.09 49.3799 94.88C49.3799 96.67 49.4399 102.19 49.5799 104.32C49.701 105.074 49.9335 105.805 50.2699 106.49C52.0999 110.74 56.91 118.76 57.37 119.49L57.3999 119.57Z" fill="white"/>
</mask>
<g mask="url(#mask20_1029_6372)">
<path d="M47.28 95.0999C47.28 95.0999 48.0901 95.6499 48.0601 98.0999C47.9354 100.366 48.0494 102.638 48.4 104.88C48.8 106.88 57.14 120.65 57.14 120.65L57.98 119.74L50.16 104.67L49.85 93.6699L47.28 95.0999Z" fill="#F4882F"/>
</g>
<path d="M104.256 35.5129L103.127 35.2954L92.6584 89.6566L93.7877 89.8741L104.256 35.5129Z" fill="#060555"/>
<path d="M83.1599 178.68C83.1599 178.68 83.2399 184.57 83.9199 185.77L81.1399 188.17L76.2399 187.64L75.6699 179.45L83.1599 178.68Z" fill="#F9BC7A"/>
<path d="M80.39 186.64C78.56 187.04 77.12 186.51 76.11 186.59C75.1 186.67 75.11 188.22 75.3 191.04C75.49 193.86 74.86 197.41 77.74 197.36C80.62 197.31 94.28 196.58 97.25 195.36C100.22 194.14 99.0899 190.91 96.0099 190.44C92.9299 189.97 84.5299 186.38 84.0099 185.6C83.4899 184.82 82.56 186.17 80.39 186.64Z" fill="#4052F2"/>
<mask id="mask21_1029_6372" style="mask-type:luminance" maskUnits="userSpaceOnUse" x="75" y="185" width="24" height="13">
<path d="M80.39 186.64C78.56 187.04 77.12 186.51 76.11 186.59C75.1 186.67 75.11 188.22 75.3 191.04C75.49 193.86 74.86 197.41 77.74 197.36C80.62 197.31 94.28 196.58 97.25 195.36C100.22 194.14 99.0899 190.91 96.0099 190.44C92.9299 189.97 84.5299 186.38 84.0099 185.6C83.4899 184.82 82.56 186.17 80.39 186.64Z" fill="white"/>
</mask>
<g mask="url(#mask21_1029_6372)">
<path d="M99.85 192.64C99.85 192.64 81.85 195.74 74.2 195.21L75.35 197.96L97.58 197.44C97.58 197.44 100.77 194.98 100.76 194.85C100.75 194.72 99.85 192.64 99.85 192.64Z" fill="#060555"/>
</g>
<path d="M70.79 179.56C70.79 178.02 71.07 177.37 73.49 177.51C77.5575 177.442 81.6134 177.054 85.62 176.35C87.11 175.93 87.39 182.97 86.83 183.48C86.27 183.99 83.24 184.69 79.6 184.97C75.96 185.25 71.77 185.44 71.25 183.76C70.8947 182.39 70.7397 180.975 70.79 179.56Z" fill="#242BA4"/>
</g>
<defs>
<linearGradient id="paint0_linear_1029_6372" x1="89.26" y1="64.1501" x2="231.99" y2="64.1501" gradientUnits="userSpaceOnUse">
<stop stop-color="#605FE1"/>
<stop offset="1" stop-color="#3449BC"/>
</linearGradient>
<linearGradient id="paint1_linear_1029_6372" x1="144.21" y1="124.45" x2="156.47" y2="124.45" gradientUnits="userSpaceOnUse">
<stop stop-color="#605FE1"/>
<stop offset="1" stop-color="#3449BC"/>
</linearGradient>
<linearGradient id="paint2_linear_1029_6372" x1="177.98" y1="129.03" x2="195.91" y2="129.03" gradientUnits="userSpaceOnUse">
<stop stop-color="#605FE1"/>
<stop offset="1" stop-color="#3449BC"/>
</linearGradient>
<linearGradient id="paint3_linear_1029_6372" x1="176.86" y1="106.87" x2="202.98" y2="106.87" gradientUnits="userSpaceOnUse">
<stop stop-color="#605FE1"/>
<stop offset="1" stop-color="#3449BC"/>
</linearGradient>
<clipPath id="clip0_1029_6372">
<rect width="301.31" height="209.16" fill="white"/>
</clipPath>
</defs>
</svg>
