<svg width="187" height="133" viewBox="0 0 187 133" fill="none" xmlns="http://www.w3.org/2000/svg">
<g clip-path="url(#clip0_1070_6360)">
<path d="M20.0396 25.9204C19.9296 18.2204 36.2696 7.54041 47.1196 5.09041C57.9696 2.64041 76.1796 4.42043 74.5996 14.7704C73.0196 25.1204 47.3796 38.6704 35.8796 37.2404C24.3796 35.8104 20.1096 31.7004 20.0396 25.9204Z" fill="#EDF3FF"/>
<path opacity="0.51" d="M98.9202 132.62C120.029 132.62 137.14 129.943 137.14 126.64C137.14 123.337 120.029 120.66 98.9202 120.66C77.8119 120.66 60.7002 123.337 60.7002 126.64C60.7002 129.943 77.8119 132.62 98.9202 132.62Z" fill="#3177DB"/>
<path d="M51.2205 40.2802C66.6105 36.5102 83.4305 23.3903 100.02 11.7303C116.61 0.0702538 159.58 4.68025 168.8 34.6602C178.02 64.6402 163.34 91.3403 150.48 103.3C137.62 115.26 86.8805 125.97 54.9605 120.19C23.0405 114.41 11.3105 90.1302 11.7605 74.8402C12.2205 58.2202 27.9605 45.9702 51.2205 40.2802Z" fill="#EDF3FF"/>
<mask id="mask0_1070_6360" style="mask-type:luminance" maskUnits="userSpaceOnUse" x="11" y="5" width="161" height="117">
<path d="M51.2205 40.2802C66.6105 36.5102 83.4305 23.3903 100.02 11.7303C116.61 0.0702538 159.58 4.68025 168.8 34.6602C178.02 64.6402 163.34 91.3403 150.48 103.3C137.62 115.26 86.8805 125.97 54.9605 120.19C23.0405 114.41 11.3105 90.1302 11.7605 74.8402C12.2205 58.2202 27.9605 45.9702 51.2205 40.2802Z" fill="white"/>
</mask>
<g mask="url(#mask0_1070_6360)">
<path d="M7.50098 59.5705C7.50098 59.5705 21.561 46.1505 50.871 46.3205C80.181 46.4905 94.1509 21.2305 126.561 11.7605C158.971 2.29051 174.131 11.4905 174.131 11.4905" stroke="white" stroke-width="15" stroke-linecap="round" stroke-linejoin="round"/>
<path d="M10.291 74.5709C10.291 74.5709 22.561 61.5209 50.811 63.8609C79.061 66.2009 95.441 45.7309 125.811 39.0709C156.181 32.4109 174.441 41.7709 174.441 41.7709" stroke="white" stroke-width="15" stroke-linecap="round" stroke-linejoin="round"/>
<path d="M13.0811 89.5004C13.0811 89.5004 23.5611 76.8304 50.7511 81.3304C77.9411 85.8304 96.7511 70.1704 125.091 66.3304C153.431 62.4904 174.781 72.0004 174.781 72.0004" stroke="white" stroke-width="15" stroke-linecap="round" stroke-linejoin="round"/>
<path d="M15.8711 104.461C15.8711 104.461 24.561 92.1509 50.691 98.8309C76.821 105.511 98.0111 94.6309 124.361 93.5909C150.711 92.5509 175.101 102.231 175.101 102.231" stroke="white" stroke-width="15" stroke-linecap="round" stroke-linejoin="round"/>
<path d="M141.771 19.3506H121.491C117.487 19.3506 114.241 22.5965 114.241 26.6006V101.211C114.241 105.215 117.487 108.461 121.491 108.461H141.771C145.775 108.461 149.021 105.215 149.021 101.211V26.6006C149.021 22.5965 145.775 19.3506 141.771 19.3506Z" fill="#95A4F9"/>
<path d="M178.981 19.3008H134.821C130.828 19.3008 127.591 22.5378 127.591 26.5308V101.991C127.591 105.984 130.828 109.221 134.821 109.221H178.981C182.974 109.221 186.211 105.984 186.211 101.991V26.5308C186.211 22.5378 182.974 19.3008 178.981 19.3008Z" fill="#CCDBFF"/>
<mask id="mask1_1070_6360" style="mask-type:luminance" maskUnits="userSpaceOnUse" x="127" y="19" width="60" height="91">
<path d="M178.981 19.3008H134.821C130.828 19.3008 127.591 22.5377 127.591 26.5308V101.991C127.591 105.984 130.828 109.221 134.821 109.221H178.981C182.974 109.221 186.211 105.984 186.211 101.991V26.5308C186.211 22.5377 182.974 19.3008 178.981 19.3008Z" fill="white"/>
</mask>
<g mask="url(#mask1_1070_6360)">
<path opacity="0.56" d="M140.031 24.8408H133.931C133.296 24.8408 132.781 25.3557 132.781 25.9908V30.4208C132.781 31.0559 133.296 31.5708 133.931 31.5708H140.031C140.666 31.5708 141.181 31.0559 141.181 30.4208V25.9908C141.181 25.3557 140.666 24.8408 140.031 24.8408Z" fill="white"/>
<path opacity="0.56" d="M153.682 24.8408H147.582C146.947 24.8408 146.432 25.3557 146.432 25.9908V30.4208C146.432 31.0559 146.947 31.5708 147.582 31.5708H153.682C154.317 31.5708 154.832 31.0559 154.832 30.4208V25.9908C154.832 25.3557 154.317 24.8408 153.682 24.8408Z" fill="white"/>
<path opacity="0.56" d="M140.031 35.5312H133.931C133.296 35.5312 132.781 36.0461 132.781 36.6813V41.1113C132.781 41.7464 133.296 42.2612 133.931 42.2612H140.031C140.666 42.2612 141.181 41.7464 141.181 41.1113V36.6813C141.181 36.0461 140.666 35.5312 140.031 35.5312Z" fill="white"/>
<path opacity="0.56" d="M153.682 35.5312H147.582C146.947 35.5312 146.432 36.0461 146.432 36.6813V41.1113C146.432 41.7464 146.947 42.2612 147.582 42.2612H153.682C154.317 42.2612 154.832 41.7464 154.832 41.1113V36.6813C154.832 36.0461 154.317 35.5312 153.682 35.5312Z" fill="white"/>
<path opacity="0.56" d="M140.031 46.2109H133.931C133.296 46.2109 132.781 46.7258 132.781 47.3609V51.7909C132.781 52.4261 133.296 52.9409 133.931 52.9409H140.031C140.666 52.9409 141.181 52.4261 141.181 51.7909V47.3609C141.181 46.7258 140.666 46.2109 140.031 46.2109Z" fill="white"/>
<path opacity="0.56" d="M153.682 46.2109H147.582C146.947 46.2109 146.432 46.7258 146.432 47.3609V51.7909C146.432 52.4261 146.947 52.9409 147.582 52.9409H153.682C154.317 52.9409 154.832 52.4261 154.832 51.7909V47.3609C154.832 46.7258 154.317 46.2109 153.682 46.2109Z" fill="white"/>
<path opacity="0.56" d="M140.031 56.9004H133.931C133.296 56.9004 132.781 57.4153 132.781 58.0504V62.4804C132.781 63.1155 133.296 63.6304 133.931 63.6304H140.031C140.666 63.6304 141.181 63.1155 141.181 62.4804V58.0504C141.181 57.4153 140.666 56.9004 140.031 56.9004Z" fill="white"/>
<path opacity="0.56" d="M153.682 56.9004H147.582C146.947 56.9004 146.432 57.4153 146.432 58.0504V62.4804C146.432 63.1155 146.947 63.6304 147.582 63.6304H153.682C154.317 63.6304 154.832 63.1155 154.832 62.4804V58.0504C154.832 57.4153 154.317 56.9004 153.682 56.9004Z" fill="white"/>
<path opacity="0.56" d="M166.231 24.8408H160.131C159.496 24.8408 158.981 25.3557 158.981 25.9908V30.4208C158.981 31.0559 159.496 31.5708 160.131 31.5708H166.231C166.867 31.5708 167.381 31.0559 167.381 30.4208V25.9908C167.381 25.3557 166.867 24.8408 166.231 24.8408Z" fill="white"/>
<path opacity="0.56" d="M166.231 35.5312H160.131C159.496 35.5312 158.981 36.0461 158.981 36.6813V41.1113C158.981 41.7464 159.496 42.2612 160.131 42.2612H166.231C166.867 42.2612 167.381 41.7464 167.381 41.1113V36.6813C167.381 36.0461 166.867 35.5312 166.231 35.5312Z" fill="white"/>
<path opacity="0.56" d="M166.231 46.2109H160.131C159.496 46.2109 158.981 46.7258 158.981 47.3609V51.7909C158.981 52.4261 159.496 52.9409 160.131 52.9409H166.231C166.867 52.9409 167.381 52.4261 167.381 51.7909V47.3609C167.381 46.7258 166.867 46.2109 166.231 46.2109Z" fill="white"/>
<path opacity="0.56" d="M166.231 56.9004H160.131C159.496 56.9004 158.981 57.4153 158.981 58.0504V62.4804C158.981 63.1155 159.496 63.6304 160.131 63.6304H166.231C166.867 63.6304 167.381 63.1155 167.381 62.4804V58.0504C167.381 57.4153 166.867 56.9004 166.231 56.9004Z" fill="white"/>
<path opacity="0.56" d="M140.031 67.5107H133.931C133.296 67.5107 132.781 68.0256 132.781 68.6607V73.0907C132.781 73.7259 133.296 74.2407 133.931 74.2407H140.031C140.666 74.2407 141.181 73.7259 141.181 73.0907V68.6607C141.181 68.0256 140.666 67.5107 140.031 67.5107Z" fill="white"/>
<path opacity="0.56" d="M153.682 67.5107H147.582C146.947 67.5107 146.432 68.0256 146.432 68.6607V73.0907C146.432 73.7259 146.947 74.2407 147.582 74.2407H153.682C154.317 74.2407 154.832 73.7259 154.832 73.0907V68.6607C154.832 68.0256 154.317 67.5107 153.682 67.5107Z" fill="white"/>
<path opacity="0.56" d="M140.031 78.1904H133.931C133.296 78.1904 132.781 78.7053 132.781 79.3404V83.7704C132.781 84.4056 133.296 84.9204 133.931 84.9204H140.031C140.666 84.9204 141.181 84.4056 141.181 83.7704V79.3404C141.181 78.7053 140.666 78.1904 140.031 78.1904Z" fill="white"/>
<path opacity="0.56" d="M153.682 78.1904H147.582C146.947 78.1904 146.432 78.7053 146.432 79.3404V83.7704C146.432 84.4056 146.947 84.9204 147.582 84.9204H153.682C154.317 84.9204 154.832 84.4056 154.832 83.7704V79.3404C154.832 78.7053 154.317 78.1904 153.682 78.1904Z" fill="white"/>
<path opacity="0.56" d="M166.231 67.5107H160.131C159.496 67.5107 158.981 68.0256 158.981 68.6607V73.0907C158.981 73.7259 159.496 74.2407 160.131 74.2407H166.231C166.867 74.2407 167.381 73.7259 167.381 73.0907V68.6607C167.381 68.0256 166.867 67.5107 166.231 67.5107Z" fill="white"/>
<path opacity="0.56" d="M166.231 78.1904H160.131C159.496 78.1904 158.981 78.7053 158.981 79.3404V83.7704C158.981 84.4056 159.496 84.9204 160.131 84.9204H166.231C166.867 84.9204 167.381 84.4056 167.381 83.7704V79.3404C167.381 78.7053 166.867 78.1904 166.231 78.1904Z" fill="white"/>
<path opacity="0.56" d="M167.152 88.1309H145.262C143.583 88.1309 142.222 89.4919 142.222 91.1709V104.871C142.222 106.55 143.583 107.911 145.262 107.911H167.152C168.831 107.911 170.192 106.55 170.192 104.871V91.1709C170.192 89.4919 168.831 88.1309 167.152 88.1309Z" fill="white"/>
</g>
<path d="M102.331 48.9307H62.9907C59.9642 48.9307 57.5107 51.3841 57.5107 54.4107V103.741C57.5107 106.767 59.9642 109.221 62.9907 109.221H102.331C105.357 109.221 107.811 106.767 107.811 103.741V54.4107C107.811 51.3841 105.357 48.9307 102.331 48.9307Z" fill="#95A4F9"/>
<path d="M104.351 48.9307H74.7611C72.0826 48.9307 69.9111 51.1021 69.9111 53.7807V104.371C69.9111 107.049 72.0826 109.221 74.7611 109.221H104.351C107.03 109.221 109.201 107.049 109.201 104.371V53.7807C109.201 51.1021 107.03 48.9307 104.351 48.9307Z" fill="#CCDBFF"/>
<path d="M32.7907 109.131C32.7907 109.131 25.3607 105.691 26.2207 101.511C27.0807 97.331 31.3206 97.921 31.3206 97.921C31.3206 97.921 28.3907 92.921 32.4307 90.981C36.4707 89.041 39.5507 94.351 39.5507 94.351C39.5507 94.351 39.4406 91.611 42.9506 91.211C46.4606 90.811 46.6106 93.861 46.3206 94.701C47.3889 94.1389 48.5606 93.8002 49.764 93.7056C50.9675 93.6111 52.1776 93.7626 53.3206 94.151C57.1806 95.501 54.6107 99.911 52.6007 100.661C52.6007 100.661 57.1706 99.771 58.8406 103.861C60.5106 107.951 53.6906 108.991 53.6906 108.991L32.7907 109.131Z" fill="#2C43C6"/>
<path d="M39.6309 108.92C38.905 108.64 38.3039 108.108 37.9368 107.421C37.5698 106.735 37.4612 105.94 37.6309 105.18C38.0409 102.23 43.421 103.5 43.421 103.5C43.421 103.5 43.1909 99.6302 46.6509 99.5902C50.1109 99.5502 48.4709 102.82 48.4709 102.82C48.4709 102.82 51.251 99.6802 54.751 101.5C58.251 103.32 55.3409 105.5 53.2009 105.64C53.2009 105.64 56.2009 107.5 53.7009 109.46L39.6309 108.92Z" fill="#A9BDF7"/>
<path d="M166.691 108.461H17.7705V109.831H166.691V108.461Z" fill="#6F8FD8"/>
<path opacity="0.56" d="M83.981 52.8105H77.821C76.5397 52.8105 75.501 53.8492 75.501 55.1305V60.2605C75.501 61.5418 76.5397 62.5805 77.821 62.5805H83.981C85.2623 62.5805 86.301 61.5418 86.301 60.2605V55.1305C86.301 53.8492 85.2623 52.8105 83.981 52.8105Z" fill="white"/>
<path opacity="0.56" d="M101.331 52.8105H95.1706C93.8893 52.8105 92.8506 53.8492 92.8506 55.1305V60.2605C92.8506 61.5418 93.8893 62.5805 95.1706 62.5805H101.331C102.612 62.5805 103.651 61.5418 103.651 60.2605V55.1305C103.651 53.8492 102.612 52.8105 101.331 52.8105Z" fill="white"/>
<path opacity="0.56" d="M83.981 65.7109H77.821C76.5397 65.7109 75.501 66.7496 75.501 68.0309V73.1609C75.501 74.4422 76.5397 75.4809 77.821 75.4809H83.981C85.2623 75.4809 86.301 74.4422 86.301 73.1609V68.0309C86.301 66.7496 85.2623 65.7109 83.981 65.7109Z" fill="white"/>
<path opacity="0.56" d="M101.331 65.7109H95.1706C93.8893 65.7109 92.8506 66.7496 92.8506 68.0309V73.1609C92.8506 74.4422 93.8893 75.4809 95.1706 75.4809H101.331C102.612 75.4809 103.651 74.4422 103.651 73.1609V68.0309C103.651 66.7496 102.612 65.7109 101.331 65.7109Z" fill="white"/>
<path opacity="0.56" d="M83.981 78.6006H77.821C76.5397 78.6006 75.501 79.6393 75.501 80.9206V86.0506C75.501 87.3319 76.5397 88.3706 77.821 88.3706H83.981C85.2623 88.3706 86.301 87.3319 86.301 86.0506V80.9206C86.301 79.6393 85.2623 78.6006 83.981 78.6006Z" fill="white"/>
<path opacity="0.56" d="M101.331 78.6006H95.1706C93.8893 78.6006 92.8506 79.6393 92.8506 80.9206V86.0506C92.8506 87.3319 93.8893 88.3706 95.1706 88.3706H101.331C102.612 88.3706 103.651 87.3319 103.651 86.0506V80.9206C103.651 79.6393 102.612 78.6006 101.331 78.6006Z" fill="white"/>
<path opacity="0.56" d="M97.8611 92.1104H82.6511C80.9777 92.1104 79.6211 93.4669 79.6211 95.1404V105.28C79.6211 106.954 80.9777 108.31 82.6511 108.31H97.8611C99.5345 108.31 100.891 106.954 100.891 105.28V95.1404C100.891 93.4669 99.5345 92.1104 97.8611 92.1104Z" fill="white"/>
</g>
<path d="M50.5305 22.6679L42.5234 25.9404L43.6698 28.7452L51.6769 25.4727L50.5305 22.6679Z" fill="#CC1944"/>
<path d="M53.385 16.1673L35.1152 23.5896C33.7184 24.1571 33.046 25.7496 33.6135 27.1464C34.181 28.5433 35.7734 29.2156 37.1703 28.6481L55.4401 21.2258C56.837 20.6583 57.5094 19.0659 56.9419 17.669C56.3744 16.2722 54.7819 15.5998 53.385 16.1673Z" fill="#E96565"/>
<path d="M56.8603 76.4198C71.1037 76.4198 82.6503 64.8733 82.6503 50.6298C82.6503 36.3864 71.1037 24.8398 56.8603 24.8398C42.6169 24.8398 31.0703 36.3864 31.0703 50.6298C31.0703 64.8733 42.6169 76.4198 56.8603 76.4198Z" fill="url(#paint0_linear_1070_6360)"/>
<path d="M56.64 72.36C68.4754 72.36 78.07 62.7655 78.07 50.93C78.07 39.0945 68.4754 29.5 56.64 29.5C44.8045 29.5 35.21 39.0945 35.21 50.93C35.21 62.7655 44.8045 72.36 56.64 72.36Z" fill="url(#paint1_linear_1070_6360)"/>
<mask id="mask2_1070_6360" style="mask-type:luminance" maskUnits="userSpaceOnUse" x="35" y="29" width="44" height="44">
<path d="M56.64 72.36C68.4754 72.36 78.0699 62.7655 78.0699 50.93C78.0699 39.0945 68.4754 29.5 56.64 29.5C44.8045 29.5 35.21 39.0945 35.21 50.93C35.21 62.7655 44.8045 72.36 56.64 72.36Z" fill="white"/>
</mask>
<g mask="url(#mask2_1070_6360)">
<path d="M56.4698 70.3899C67.5873 70.3899 76.5998 61.3774 76.5998 50.2599C76.5998 39.1424 67.5873 30.1299 56.4698 30.1299C45.3524 30.1299 36.3398 39.1424 36.3398 50.2599C36.3398 61.3774 45.3524 70.3899 56.4698 70.3899Z" fill="#FFE3E3"/>
<mask id="mask3_1070_6360" style="mask-type:luminance" maskUnits="userSpaceOnUse" x="36" y="30" width="41" height="41">
<path d="M56.4698 70.3899C67.5873 70.3899 76.5999 61.3774 76.5999 50.2599C76.5999 39.1424 67.5873 30.1299 56.4698 30.1299C45.3524 30.1299 36.3398 39.1424 36.3398 50.2599C36.3398 61.3774 45.3524 70.3899 56.4698 70.3899Z" fill="white"/>
</mask>
<g mask="url(#mask3_1070_6360)">
<g opacity="0.43">
<path d="M56.8198 62.6892C53.9533 62.6897 51.1753 61.6962 48.9592 59.8781C46.743 58.0599 45.2259 55.5296 44.6662 52.7183C44.1065 49.9069 44.539 46.9885 45.8898 44.4602C47.2407 41.932 49.4265 39.9503 52.0747 38.853C54.7228 37.7556 57.6695 37.6105 60.4127 38.4422C63.1559 39.2739 65.5259 41.0311 67.1187 43.4143C68.7116 45.7975 69.4289 48.6593 69.1483 51.5121C68.8677 54.3648 67.6065 57.032 65.5798 59.0592C63.2567 61.3829 60.1057 62.6886 56.8198 62.6892ZM56.8198 38.9092C54.5699 38.9131 52.3717 39.5839 50.5029 40.8368C48.6341 42.0896 47.1786 43.8683 46.3204 45.9481C45.4621 48.0279 45.2396 50.3154 45.681 52.5215C46.1223 54.7277 47.2077 56.7536 48.8001 58.3431C50.3924 59.9326 52.4201 61.0145 54.6271 61.452C56.834 61.8894 59.1212 61.6629 61.1994 60.801C63.2777 59.9391 65.0538 58.4805 66.3034 56.6095C67.5529 54.7385 68.2199 52.5391 68.2199 50.2892C68.2146 47.2726 67.0139 44.3812 64.8809 42.2481C62.7479 40.1151 59.8564 38.9145 56.8399 38.9092H56.8198Z" fill="white"/>
</g>
<path opacity="0.56" d="M56.4402 27.7695L34.2402 71.6395L39.3202 74.0795L62.4602 28.2895L56.4402 27.7695Z" fill="white"/>
<path opacity="0.56" d="M69.94 29.71L47.75 73.58L52.83 76.02L75.97 30.23L69.94 29.71Z" fill="white"/>
</g>
</g>
<path d="M45.6396 64.88C46.8989 64.1119 48.2407 63.4879 49.6396 63.0201C49.6396 63.0201 55.3296 54.56 57.0696 51.45L56.2397 50.79C53.6097 53.2 46.5197 60.55 46.5197 60.55C46.3908 62.022 46.0956 63.4746 45.6396 64.88Z" fill="#F74674"/>
<mask id="mask4_1070_6360" style="mask-type:luminance" maskUnits="userSpaceOnUse" x="45" y="50" width="13" height="15">
<path d="M45.6396 64.88C46.8989 64.1119 48.2407 63.4879 49.6396 63.0201C49.6396 63.0201 55.3296 54.56 57.0696 51.45L56.2397 50.79C53.6097 53.2 46.5197 60.55 46.5197 60.55C46.3908 62.022 46.0956 63.4746 45.6396 64.88Z" fill="white"/>
</mask>
<g mask="url(#mask4_1070_6360)">
<path d="M47.6895 64.3797C47.6895 64.3797 52.9795 57.2097 54.2595 54.7997C55.5395 52.3897 55.0595 51.5197 55.0595 51.5197L55.9695 50.4297L57.2495 52.8097L50.2495 64.0397L47.6895 64.3797Z" fill="#EA1C4E"/>
</g>
<path d="M50.34 31.6504C50.299 33.1298 50.0876 34.5995 49.71 36.0304C49.71 36.0304 55.11 48.9604 56.77 52.1204L57.77 51.7904C57.19 48.2704 53.49 34.7904 53.49 34.7904C52.325 33.8658 51.2683 32.8124 50.34 31.6504Z" fill="#F74674"/>
<mask id="mask5_1070_6360" style="mask-type:luminance" maskUnits="userSpaceOnUse" x="49" y="31" width="9" height="22">
<path d="M50.34 31.6504C50.299 33.1298 50.0876 34.5995 49.71 36.0304C49.71 36.0304 55.11 48.9604 56.77 52.1204L57.77 51.7904C57.19 48.2704 53.49 34.7904 53.49 34.7904C52.325 33.8658 51.2683 32.8124 50.34 31.6504Z" fill="white"/>
</mask>
<g mask="url(#mask5_1070_6360)">
<path d="M54.8 50.5699C55.4151 49.067 55.6121 47.4257 55.3701 45.8199C54.8701 43.5199 51.54 32.71 51.54 32.71L54.9301 33.77L58.86 49.9299L57.73 51.4299L55.16 51.4999L54.8 50.5699Z" fill="#EA1C4E"/>
</g>
<path d="M56.8601 52.5698C57.683 52.5698 58.3501 51.9027 58.3501 51.0798C58.3501 50.2569 57.683 49.5898 56.8601 49.5898C56.0372 49.5898 55.3701 50.2569 55.3701 51.0798C55.3701 51.9027 56.0372 52.5698 56.8601 52.5698Z" fill="white"/>
<mask id="mask6_1070_6360" style="mask-type:luminance" maskUnits="userSpaceOnUse" x="55" y="49" width="4" height="4">
<path d="M56.8601 52.5699C57.683 52.5699 58.3501 51.9028 58.3501 51.0799C58.3501 50.257 57.683 49.5898 56.8601 49.5898C56.0372 49.5898 55.3701 50.257 55.3701 51.0799C55.3701 51.9028 56.0372 52.5699 56.8601 52.5699Z" fill="white"/>
</mask>
<g mask="url(#mask6_1070_6360)">
<path opacity="0.38" d="M55.7305 52.3499C56.1009 52.3245 56.4535 52.1819 56.7375 51.9428C57.0216 51.7038 57.2223 51.3805 57.3105 51.0199C57.3602 50.8656 57.3789 50.7031 57.3655 50.5415C57.3522 50.38 57.3071 50.2226 57.2327 50.0786C57.1584 49.9345 57.0563 49.8066 56.9324 49.7021C56.8084 49.5977 56.665 49.5188 56.5104 49.4699L58.0505 49.1699L58.7604 51.3399L58.3605 52.8199L56.3605 53.0399L55.7305 52.3499Z" fill="#FFE6ED"/>
</g>
<path opacity="0.72" d="M99.8896 21.1602L100.04 24.6402L102.77 22.7302L99.8896 21.1602Z" fill="#FF5F76"/>
<path opacity="0.72" d="M127.39 14.79L124.26 16.3L127.09 18.06L127.39 14.79Z" stroke="#1D1D89" stroke-width="5" stroke-linecap="round" stroke-linejoin="round"/>
<path opacity="0.72" d="M103.418 13.8105L103.235 16.5244L105.949 16.7066L106.131 13.9926L103.418 13.8105Z" stroke="#1D1D89" stroke-width="5" stroke-linecap="round" stroke-linejoin="round"/>
<path opacity="0.72" d="M123.221 9.43965L121.594 10.208L122.362 11.8357L123.99 11.0674L123.221 9.43965Z" stroke="#1D1D89" stroke-width="5" stroke-linecap="round" stroke-linejoin="round"/>
<path opacity="0.72" d="M114.97 13.2102C115.605 13.2102 116.12 12.6953 116.12 12.0602C116.12 11.425 115.605 10.9102 114.97 10.9102C114.335 10.9102 113.82 11.425 113.82 12.0602C113.82 12.6953 114.335 13.2102 114.97 13.2102Z" fill="#FF5F76"/>
<path d="M91.9402 67.1099C91.9402 67.1099 92.2502 69.6899 92.2502 70.8599C92.2502 72.0299 89.6102 72.3699 88.4002 71.7499C88.1523 71.6729 87.9256 71.5395 87.738 71.3601C87.5503 71.1808 87.4068 70.9603 87.3186 70.7162C87.2304 70.472 87.2001 70.2108 87.2298 69.9529C87.2596 69.695 87.3487 69.4476 87.4902 69.2299C87.9402 68.0499 88.6202 66.6699 88.6202 66.6699L91.9402 67.1099Z" fill="#F9BC7A"/>
<path d="M122.75 117.49C122.75 117.49 122.75 121.43 123.26 122.24L121.401 123.84L118.11 123.49L117.73 118L122.75 117.49Z" fill="#F9BC7A"/>
<path d="M120.93 122.82C119.977 122.931 119.014 122.931 118.06 122.82C117.39 122.82 117.43 123.92 117.52 125.82C117.61 127.72 117.22 130.09 119.16 130.05C121.1 130.01 130.23 129.53 132.22 128.69C134.21 127.85 133.45 125.69 131.38 125.39C129.31 125.09 123.7 122.67 123.38 122.15C123.06 121.63 122.38 122.5 120.93 122.82Z" fill="#4052F2"/>
<mask id="mask7_1070_6360" style="mask-type:luminance" maskUnits="userSpaceOnUse" x="117" y="121" width="17" height="10">
<path d="M120.93 122.82C119.977 122.931 119.014 122.931 118.06 122.82C117.39 122.82 117.43 123.92 117.52 125.82C117.61 127.72 117.22 130.09 119.16 130.05C121.1 130.01 130.23 129.53 132.22 128.69C134.21 127.85 133.45 125.69 131.38 125.39C129.31 125.09 123.7 122.67 123.38 122.15C123.06 121.63 122.38 122.5 120.93 122.82Z" fill="white"/>
</mask>
<g mask="url(#mask7_1070_6360)">
<path d="M133.96 126.83C133.96 126.83 121.96 128.91 116.78 128.55L117.55 130.39L132.44 130.04C132.44 130.04 134.58 128.4 134.57 128.32C134.56 128.24 133.96 126.83 133.96 126.83Z" fill="#060555"/>
</g>
<path d="M77.7795 104.92C77.7795 104.92 73.9895 106 73.3295 106.65L71.3295 105.28L70.8096 102.02L75.9996 100.21L77.7795 104.92Z" fill="#F9BC7A"/>
<path d="M72.1598 104.57C71.8125 103.675 71.5709 102.742 71.4397 101.79C71.2097 101.16 70.2097 101.47 68.4397 102.05C66.6697 102.63 64.2397 102.89 64.7797 104.74C65.3197 106.59 68.1997 115.29 69.5297 116.99C70.8597 118.69 72.7297 117.39 72.5297 115.32C72.3297 113.25 73.1397 107.19 73.5297 106.74C73.9197 106.29 72.8398 105.88 72.1598 104.57Z" fill="#4052F2"/>
<mask id="mask8_1070_6360" style="mask-type:luminance" maskUnits="userSpaceOnUse" x="64" y="101" width="10" height="17">
<path d="M72.1598 104.57C71.8125 103.675 71.5709 102.742 71.4397 101.79C71.2097 101.16 70.2097 101.47 68.4397 102.05C66.6697 102.63 64.2397 102.89 64.7797 104.74C65.3197 106.59 68.1997 115.29 69.5297 116.99C70.8597 118.69 72.7297 117.39 72.5297 115.32C72.3297 113.25 73.1397 107.19 73.5297 106.74C73.9197 106.29 72.8398 105.88 72.1598 104.57Z" fill="white"/>
</mask>
<g mask="url(#mask8_1070_6360)">
<path d="M71.7 118.19C71.7 118.19 66.53 107.11 65.53 102.07L63.96 103.29L68.22 117.57C68.22 117.57 70.3699 119.2 70.4399 119.16C70.5099 119.12 71.7 118.19 71.7 118.19Z" fill="#060555"/>
</g>
<path d="M116.48 70.5699C116.48 70.5699 119.87 78.3898 120.91 81.3998C122.211 85.5989 123.27 89.8693 124.08 94.1898C124.39 96.4198 123.3 119.4 123.3 119.4C122.421 120.016 121.374 120.346 120.3 120.346C119.227 120.346 118.18 120.016 117.3 119.4C117.3 119.4 115.591 100.57 115.401 97.8398C115.211 95.1098 107.09 78.1798 107.09 78.1798C107.09 78.1798 103.93 91.8398 101.45 95.1798C98.9704 98.5198 76.2205 106.04 76.2205 106.04C74.6929 104.577 73.7991 102.574 73.7305 100.46C73.7305 100.46 89.8705 91.0599 92.7905 89.5999C94.3605 88.3799 94.2405 80.9198 94.4905 76.2498C94.7405 71.5798 97.7205 65.8398 97.7205 65.8398L116.48 70.5699Z" fill="#0D0D93"/>
<mask id="mask9_1070_6360" style="mask-type:luminance" maskUnits="userSpaceOnUse" x="73" y="65" width="52" height="56">
<path d="M116.48 70.5699C116.48 70.5699 119.87 78.3898 120.91 81.3998C122.211 85.5989 123.27 89.8693 124.08 94.1898C124.39 96.4198 123.3 119.4 123.3 119.4C122.421 120.016 121.374 120.346 120.3 120.346C119.227 120.346 118.18 120.016 117.3 119.4C117.3 119.4 115.591 100.57 115.401 97.8398C115.211 95.1098 107.09 78.1798 107.09 78.1798C107.09 78.1798 103.93 91.8398 101.45 95.1798C98.9704 98.5198 76.2205 106.04 76.2205 106.04C74.6929 104.577 73.7991 102.574 73.7305 100.46C73.7305 100.46 89.8705 91.0599 92.7905 89.5999C94.3605 88.3799 94.2405 80.9198 94.4905 76.2498C94.7405 71.5798 97.7205 65.8398 97.7205 65.8398L116.48 70.5699Z" fill="white"/>
</mask>
<g mask="url(#mask9_1070_6360)">
<path opacity="0.67" d="M73.5908 104.46C73.5908 104.46 89.3509 99.9597 94.5009 96.9497C99.6509 93.9397 104.371 76.9497 104.371 76.9497L105.221 74.6797L106.961 75.1097L107.251 78.4497L104.431 95.8497C104.431 95.8497 100.851 99.8497 100.611 99.9697C100.371 100.09 78.3508 107.68 78.3508 107.68L73.6908 107.79L73.5908 104.46Z" fill="#00164C"/>
<path opacity="0.67" d="M113.931 74.2596C113.931 74.2596 118.931 82.6996 120.431 89.0896C121.931 95.4796 122.061 121.52 122.061 121.52C122.061 121.52 124.061 119.39 124.131 119.23C124.201 119.07 125.811 93.0796 125.811 93.0796L118.011 72.3496L113.931 74.2596Z" fill="#00164C"/>
<path opacity="0.49" d="M107.381 75.3096C107.381 75.3096 114.301 90.6196 115.831 94.7896C117.361 98.9596 118.471 120.92 118.471 120.92" stroke="white" stroke-width="11" stroke-linecap="round" stroke-linejoin="round"/>
<path opacity="0.49" d="M98.3608 72.0498C98.3608 72.0498 94.7707 91.1098 91.0707 93.0498C87.3707 94.9898 72.8008 102.31 72.8008 102.31" stroke="white" stroke-width="11" stroke-linecap="round" stroke-linejoin="round"/>
</g>
<path d="M88.2903 66.6602L88.0703 67.5002C88.7393 67.9657 89.5053 68.2734 90.3104 68.4001C90.9464 68.5188 91.6039 68.4128 92.1703 68.1002V67.1902L88.2903 66.6602Z" fill="white"/>
<path d="M134.06 41.5695C134.458 40.9483 134.708 40.2433 134.79 39.5095C134.89 38.2795 134.67 35.5095 136.97 35.1595C139.27 34.8095 141.09 33.6596 142.43 33.9596C143.77 34.2596 143.84 38.4995 140.55 39.4795C137.26 40.4595 137.13 42.8296 137.13 42.8296C136.557 42.8568 135.985 42.7581 135.455 42.5404C134.924 42.3227 134.448 41.9913 134.06 41.5695Z" fill="#F9BC7A"/>
<path d="M133.8 41.2805L134.15 40.2805C134.15 40.2805 136.82 40.1505 138.08 41.5705L137.66 42.5205L133.8 41.2805Z" fill="white"/>
<path d="M112 35.7598L111.6 35.8698C111.6 35.8698 105.78 35.2698 102.69 37.0898C100.22 38.5698 91.2195 49.4098 90.5795 50.5698C89.9395 51.7298 88.0195 66.7998 88.0195 66.7998C88.0195 66.7998 90.6195 68.5798 92.3495 67.3498C92.3495 67.3498 95.3495 54.6198 95.5795 53.2098C95.8095 51.7998 102.32 46.3898 102.32 46.3898C102.32 46.3898 100.14 55.8498 99.3895 58.3098C98.6395 60.7698 95.1295 71.2598 95.1295 71.2598C98.6362 73.6474 102.635 75.2161 106.83 75.8498C110.622 76.2819 114.457 75.5569 117.83 73.7698L120.62 52.0298C120.62 52.0298 122.889 59.0298 124.299 60.6698C125.709 62.3098 128.219 63.1298 130.299 59.8598C132.379 56.5898 136.94 46.7098 137.76 43.1698C137.327 42.4915 136.72 41.9416 136.002 41.5776C135.285 41.2135 134.483 41.0485 133.68 41.0998C133.68 41.0998 130.01 49.2098 127.43 52.5098C127.43 52.5098 125.55 46.0798 125 43.7698C124.45 41.4598 123.26 39.1398 121.62 38.1398C119.98 37.1398 115.789 36.2798 115.789 36.2798L115.53 36.4498L112 35.7598Z" fill="#4052F2"/>
<mask id="mask10_1070_6360" style="mask-type:luminance" maskUnits="userSpaceOnUse" x="88" y="35" width="50" height="41">
<path d="M112 35.7598L111.6 35.8698C111.6 35.8698 105.78 35.2698 102.69 37.0898C100.22 38.5698 91.2195 49.4098 90.5795 50.5698C89.9395 51.7298 88.0195 66.7998 88.0195 66.7998C88.0195 66.7998 90.6195 68.5798 92.3495 67.3498C92.3495 67.3498 95.3495 54.6198 95.5795 53.2098C95.8095 51.7998 102.32 46.3898 102.32 46.3898C102.32 46.3898 100.14 55.8498 99.3895 58.3098C98.6395 60.7698 95.1295 71.2598 95.1295 71.2598C98.6362 73.6474 102.635 75.2161 106.83 75.8498C110.622 76.2819 114.457 75.5569 117.83 73.7698L120.62 52.0298C120.62 52.0298 122.889 59.0298 124.299 60.6698C125.709 62.3098 128.219 63.1298 130.299 59.8598C132.379 56.5898 136.94 46.7098 137.76 43.1698C137.327 42.4915 136.72 41.9416 136.002 41.5776C135.285 41.2135 134.483 41.0485 133.68 41.0998C133.68 41.0998 130.01 49.2098 127.43 52.5098C127.43 52.5098 125.55 46.0798 125 43.7698C124.45 41.4598 123.26 39.1398 121.62 38.1398C119.98 37.1398 115.789 36.2798 115.789 36.2798L115.53 36.4498L112 35.7598Z" fill="white"/>
</mask>
<g mask="url(#mask10_1070_6360)">
<path opacity="0.57" d="M120.299 36.7403L119.779 45.2203L118.519 44.8003L119.369 46.0703L111.659 54.5903L113.639 44.7103L119.309 35.0703L120.299 36.7403Z" fill="#04288C"/>
<path opacity="0.57" d="M107.619 36.0402L107.709 44.8102L109.419 44.3502L108.179 45.6602L111.699 54.6802L112.409 53.8002L112.729 48.2202L109.839 35.2002L107.619 36.0402Z" fill="#04288C"/>
<path d="M107.76 35.3707C107.76 35.3707 108.04 42.5107 108 44.3707L109.9 44.0307L108.59 45.6007C108.59 45.6007 111.9 52.2007 111.7 53.6507L112.23 51.1707L112.79 49.3907L112.47 43.3907L110.99 36.9007L110.06 35.2207L107.76 35.3707Z" fill="#7C90F7"/>
<path d="M120.069 36.6701L119.389 44.6801L117.839 44.2701L118.839 46.0001L111.699 53.6701L112.469 48.5901L117.749 36.3701L120.069 36.6701Z" fill="#7C90F7"/>
<path d="M107.4 77.7798C107.377 77.7741 107.355 77.7638 107.337 77.7494C107.318 77.735 107.303 77.7169 107.291 77.6962C107.28 77.6755 107.273 77.6527 107.271 77.6292C107.269 77.6057 107.272 77.5821 107.28 77.5598C109.56 70.6798 112.38 49.9498 112.41 49.7398C112.411 49.7169 112.417 49.6944 112.427 49.6739C112.438 49.6535 112.452 49.6356 112.47 49.6213C112.488 49.6071 112.509 49.5969 112.532 49.5915C112.554 49.586 112.577 49.5854 112.6 49.5898C112.646 49.5948 112.688 49.6174 112.718 49.6528C112.748 49.6881 112.763 49.7336 112.76 49.7798C112.76 49.9898 109.9 70.7798 107.62 77.6698C107.613 77.6918 107.602 77.7122 107.587 77.7297C107.572 77.7472 107.554 77.7616 107.533 77.7719C107.513 77.7822 107.49 77.7882 107.467 77.7895C107.444 77.7909 107.421 77.7876 107.4 77.7798Z" fill="#C7D4FF"/>
<path d="M109.159 35.7602C109.159 35.7602 112.159 44.5102 112.229 51.1902C112.229 51.1902 117.629 43.1902 118.169 36.3702C118.219 36.3702 113.359 33.6702 109.159 35.7602Z" fill="white"/>
<mask id="mask11_1070_6360" style="mask-type:luminance" maskUnits="userSpaceOnUse" x="109" y="34" width="10" height="18">
<path d="M109.159 35.7602C109.159 35.7602 112.159 44.5102 112.229 51.1902C112.229 51.1902 117.629 43.1902 118.169 36.3702C118.219 36.3702 113.359 33.6702 109.159 35.7602Z" fill="white"/>
</mask>
<g mask="url(#mask11_1070_6360)">
<path d="M111.379 35.3702L109.459 35.6202C109.459 35.6202 111.629 40.8302 111.749 44.8802L112.669 40.2902L112.559 38.9202C112.559 38.9202 111.739 37.3102 111.749 37.2102C111.759 37.1102 112.499 37.2102 112.499 37.2102L113.439 39.6202V42.5602L111.629 46.4102L108.859 35.3302C109.52 35.1828 110.187 35.0694 110.859 34.9902C110.949 35.0902 111.379 35.3702 111.379 35.3702Z" fill="#FFDCE5"/>
<path d="M113.139 40.3799L112.999 40.5699L111.359 47.9499L111.769 52.0999L114.539 49.9099L114.769 40.7299L114.559 40.4899L113.139 40.3799Z" fill="#FF7B7B"/>
</g>
<path opacity="0.57" d="M88.3193 67.3C88.3193 67.3 91.3194 68.6899 92.4094 62.7199C93.4994 56.7499 93.5994 53.34 95.2294 51.49C96.8594 49.64 102.229 44.94 103.149 42.42C103.648 41.3343 103.907 40.1544 103.909 38.96C103.909 38.96 104.909 40.96 102.319 46.36L95.9294 53.1599L93.9294 65.3799L92.7394 68.7499L89.4594 68.8099L88.3193 67.3Z" fill="#04288C"/>
<path opacity="0.57" d="M120.649 52.9303V52.0103C120.649 52.0103 120.999 49.3704 121.209 47.3604C121.209 47.3604 123.149 57.1604 125.369 59.7404C127.589 62.3204 130.889 59.5603 134.089 54.1003C134.089 54.1003 131.309 62.9303 131.289 63.1003C131.269 63.2703 125.609 64.0003 125.609 64.0003L123.239 61.4303C123.239 61.4303 121.369 54.7203 121.239 54.4303C121.109 54.1403 120.649 52.9303 120.649 52.9303Z" fill="#04288C"/>
<path opacity="0.57" d="M120.669 53.1807V52.4107V52.2607L121.249 47.4707C121.249 47.4707 117.249 62.5507 115.619 66.3707C113.989 70.1907 109.909 77.1407 109.909 77.1407H118.379C118.379 77.1407 121.239 56.1407 121.249 55.9307" fill="#04288C"/>
<path d="M134.309 43.3104C134.618 43.3104 134.869 43.0597 134.869 42.7504C134.869 42.4412 134.618 42.1904 134.309 42.1904C134 42.1904 133.749 42.4412 133.749 42.7504C133.749 43.0597 134 43.3104 134.309 43.3104Z" fill="#C7D4FF"/>
<path d="M89.3996 66.1801C89.7034 66.1801 89.9496 65.9338 89.9496 65.6301C89.9496 65.3263 89.7034 65.0801 89.3996 65.0801C89.0959 65.0801 88.8496 65.3263 88.8496 65.6301C88.8496 65.9338 89.0959 66.1801 89.3996 66.1801Z" fill="#C7D4FF"/>
</g>
<path d="M121.72 28.8198C122.818 28.2427 123.666 27.2816 124.1 26.1198C124.52 24.4298 122.67 23.8698 122.72 22.8598C122.83 22.1489 122.704 21.4217 122.363 20.7884C122.022 20.1551 121.484 19.6501 120.83 19.3498C118.93 18.3498 117.73 19.2498 116.83 18.6998C116.009 18.3708 115.117 18.2604 114.241 18.3796C113.364 18.4988 112.534 18.8435 111.83 19.3798C110.42 20.6398 110.83 21.2298 109.43 21.6698C108.03 22.1098 107.01 24.6698 107.43 26.1498C107.85 27.6298 108.64 27.6998 108.79 28.5898C108.82 29.2856 109.004 29.9661 109.329 30.5818C109.654 31.1976 110.112 31.7332 110.67 32.1498C111.239 32.4633 111.864 32.6601 112.51 32.7288C113.156 32.7975 113.809 32.7367 114.43 32.5498L121.72 28.8198Z" fill="#F42241"/>
<mask id="mask12_1070_6360" style="mask-type:luminance" maskUnits="userSpaceOnUse" x="107" y="18" width="18" height="15">
<path d="M121.72 28.8198C122.818 28.2427 123.666 27.2816 124.1 26.1198C124.52 24.4298 122.67 23.8698 122.72 22.8598C122.83 22.1489 122.704 21.4217 122.363 20.7884C122.022 20.1551 121.484 19.6501 120.83 19.3498C118.93 18.3498 117.73 19.2498 116.83 18.6998C116.009 18.3708 115.117 18.2604 114.241 18.3796C113.364 18.4988 112.534 18.8435 111.83 19.3798C110.42 20.6398 110.83 21.2298 109.43 21.6698C108.03 22.1098 107.01 24.6698 107.43 26.1498C107.85 27.6298 108.64 27.6998 108.79 28.5898C108.82 29.2856 109.004 29.9661 109.329 30.5818C109.654 31.1976 110.112 31.7332 110.67 32.1498C111.239 32.4633 111.864 32.6601 112.51 32.7288C113.156 32.7975 113.809 32.7367 114.43 32.5498L121.72 28.8198Z" fill="white"/>
</mask>
<g mask="url(#mask12_1070_6360)">
<path opacity="0.92" d="M108.711 29.4202C108.91 29.6473 109.182 29.7969 109.48 29.8427C109.779 29.8884 110.083 29.8273 110.341 29.6702C111.481 29.1902 110.341 27.4202 111.841 26.6702C112.826 26.0781 113.626 25.2226 114.151 24.2002C114.151 24.2002 117.911 25.4202 119.791 25.0702C121.671 24.7202 121.711 24.2802 121.711 24.2802C121.711 24.2802 123.431 27.8002 125.341 25.3702L121.761 30.8602L117.511 33.5402L112.511 34.0302L110.161 33.3002L108.381 30.8302L108.711 29.4202Z" fill="#C41010"/>
</g>
<path d="M121.22 25.8096C121.322 28.0341 121.188 30.2632 120.82 32.4596C120.37 34.6196 118.3 36.5996 115.63 33.8896L115.81 36.2596L114.08 39.3196L111.65 35.8696C112.048 34.8553 112.222 33.7672 112.16 32.6796C112.601 32.4363 112.93 32.0303 113.075 31.5483C113.221 31.0663 113.173 30.5464 112.94 30.0996C112.28 28.1896 112.67 27.6796 113.67 27.4196C113.972 27.3158 114.239 27.1297 114.44 26.8823C114.642 26.6349 114.77 26.3361 114.81 26.0196C114.81 26.0196 120.35 27.3796 121.22 25.8096Z" fill="#F9BC7A"/>
<mask id="mask13_1070_6360" style="mask-type:luminance" maskUnits="userSpaceOnUse" x="111" y="25" width="11" height="15">
<path d="M121.22 25.8096C121.322 28.0341 121.188 30.2632 120.82 32.4596C120.37 34.6196 118.3 36.5996 115.63 33.8896L115.81 36.2596L114.08 39.3196L111.65 35.8696C112.048 34.8553 112.222 33.7672 112.16 32.6796C112.601 32.4363 112.93 32.0303 113.075 31.5483C113.221 31.0663 113.173 30.5464 112.94 30.0996C112.28 28.1896 112.67 27.6796 113.67 27.4196C113.972 27.3158 114.239 27.1297 114.44 26.8823C114.642 26.6349 114.77 26.3361 114.81 26.0196C114.81 26.0196 120.35 27.3796 121.22 25.8096Z" fill="white"/>
</mask>
<g mask="url(#mask13_1070_6360)">
<path d="M111.81 33.3193C112.22 33.4007 112.646 33.3201 112.999 33.0946C113.351 32.8691 113.602 32.516 113.7 32.1093C114.12 30.6693 112.92 29.5793 113.2 28.8293C113.48 28.0793 115.09 27.7693 115.2 26.9193C115.2 26.9193 120.52 28.0593 121.53 26.3493V25.0693L113.71 25.2293L111.85 27.3593L111.04 31.1293V32.7593L111.81 33.3193Z" fill="#F48D38"/>
<path d="M115.72 34.2595L115.58 33.8895L114.29 32.9395C114.29 32.9395 115.39 35.1295 115.72 34.2595Z" fill="#F48D38"/>
</g>
<path d="M113.04 35.3696L113.64 34.8496C113.64 34.8496 113.78 37.8496 114.03 39.3196L113.87 39.7596L112.24 37.6996L113.04 35.3696Z" fill="#1946D1"/>
<path d="M115.08 35.0303L114.84 34.8604C114.84 34.8604 114.48 38.8603 114.03 39.3203L114.28 39.7603L115.46 37.8103L115.08 35.0303Z" fill="#1946D1"/>
<path d="M84.0801 73.4898C84.0801 73.4898 85.8401 70.3098 86.2901 69.7698C86.7401 69.2298 88.1201 69.0597 90.8001 69.0697C92.0501 69.0697 93.8001 69.2498 93.9301 70.0198C94.0601 70.7898 92.7301 74.4198 92.7301 74.4198L91.2201 74.3097C91.2201 74.3097 92.5101 71.2098 92.6101 70.6098C92.7101 70.0098 90.7401 69.9397 90.0801 69.9297C89.4201 69.9197 87.4701 69.9298 87.2101 70.2998C86.9501 70.6698 85.3101 73.5997 85.3101 73.5997L84.0801 73.4898Z" fill="#E86B18"/>
<path d="M72.7301 85.79L71.5801 86.83L74.6801 91.48L94.7201 94.51L93.2201 89.3L92.9301 88.29L72.7301 85.79Z" fill="#E84513"/>
<path d="M99.14 74.2305L99.65 74.3905L100.65 80.3405C100.65 80.3405 95.6499 91.0005 94.7599 94.5105L93.2599 89.3005L92.96 87.8105C92.96 87.8105 97.1 76.9105 99.14 74.2305Z" fill="#EA6024"/>
<path d="M78.3104 72.1104C78.3104 72.1104 96.0203 72.9604 99.6503 74.3904C99.6503 74.3904 94.3303 84.3903 93.2703 89.5103C93.2703 89.5103 76.9103 86.3004 71.5703 86.8304C71.5703 86.8304 75.8504 76.4404 78.3104 72.1104Z" fill="#FF9178"/>
<mask id="mask14_1070_6360" style="mask-type:luminance" maskUnits="userSpaceOnUse" x="71" y="72" width="29" height="18">
<path d="M78.3104 72.1104C78.3104 72.1104 96.0203 72.9604 99.6503 74.3904C99.6503 74.3904 94.3303 84.3903 93.2703 89.5103C93.2703 89.5103 76.9103 86.3004 71.5703 86.8304C71.5703 86.8304 75.8504 76.4404 78.3104 72.1104Z" fill="white"/>
</mask>
<g mask="url(#mask14_1070_6360)">
<path d="M78.1506 71.7402C78.1506 71.7402 77.2106 78.4902 83.9106 80.0902C90.6106 81.6902 97.1006 77.5802 99.8206 74.2302C99.8206 74.2302 91.2206 71.5702 78.1506 71.7402Z" fill="#ED5621"/>
<path d="M78.3309 71.5703C78.3309 72.0703 77.3309 77.4503 84.8909 79.2303C92.4509 81.0103 99.6509 74.3503 99.6509 74.3503L100.651 73.4503L78.3309 71.5703Z" fill="#FF7145"/>
</g>
<path d="M142.33 30.7L142.8 30.5L143.41 30.76C143.525 30.8108 143.617 30.9021 143.668 31.0165C143.72 31.1309 143.728 31.2603 143.69 31.38L140.22 42.49C140.185 42.6065 140.109 42.7062 140.006 42.7706C139.903 42.835 139.78 42.8597 139.66 42.84L139.08 42.75L138.5 40.31L142.33 30.7Z" fill="#F42241"/>
<path d="M137.56 31.0496L134.89 39.8696C134.862 39.9583 134.865 40.0534 134.898 40.1403C134.93 40.2271 134.991 40.3007 135.07 40.3496L138.89 42.6896C138.936 42.7185 138.988 42.7379 139.042 42.7465C139.096 42.7551 139.151 42.7528 139.204 42.7397C139.257 42.7267 139.307 42.7032 139.351 42.6705C139.395 42.6378 139.432 42.5967 139.46 42.5496C139.463 42.5197 139.463 42.4895 139.46 42.4596L142.95 30.9796C142.967 30.9278 142.973 30.873 142.969 30.8186C142.964 30.7642 142.949 30.7113 142.924 30.6628C142.899 30.6144 142.864 30.5715 142.822 30.5366C142.78 30.5017 142.732 30.4755 142.68 30.4596C142.63 30.4497 142.579 30.4497 142.53 30.4596L137.89 30.7596C137.813 30.7728 137.742 30.8068 137.684 30.858C137.625 30.9092 137.582 30.9755 137.56 31.0496Z" fill="#FF6482"/>
<path d="M138.27 31.4998L141.62 31.3698C141.664 31.3671 141.708 31.3733 141.75 31.388C141.792 31.4028 141.83 31.4257 141.863 31.4556C141.895 31.4855 141.922 31.5216 141.94 31.5618C141.958 31.602 141.968 31.6455 141.97 31.6898C141.975 31.7262 141.975 31.7633 141.97 31.7998L139.14 41.1298C139.127 41.1722 139.106 41.2117 139.078 41.2459C139.05 41.28 139.016 41.3082 138.976 41.3287C138.937 41.3493 138.894 41.3617 138.85 41.3653C138.806 41.3689 138.762 41.3636 138.72 41.3498L135.83 39.9798C135.757 39.9451 135.7 39.8859 135.667 39.8127C135.634 39.7395 135.628 39.657 135.65 39.5798L138.02 31.7598C138.032 31.6968 138.062 31.6388 138.106 31.5926C138.15 31.5464 138.207 31.5142 138.27 31.4998Z" fill="#FFCCCC"/>
<mask id="mask15_1070_6360" style="mask-type:luminance" maskUnits="userSpaceOnUse" x="135" y="31" width="7" height="11">
<path d="M138.27 31.4998L141.62 31.3698C141.664 31.3671 141.708 31.3733 141.75 31.388C141.792 31.4028 141.83 31.4257 141.863 31.4556C141.895 31.4855 141.922 31.5216 141.94 31.5618C141.958 31.602 141.968 31.6455 141.97 31.6898C141.975 31.7262 141.975 31.7633 141.97 31.7998L139.14 41.1298C139.127 41.1722 139.106 41.2117 139.078 41.2459C139.05 41.28 139.016 41.3082 138.976 41.3287C138.937 41.3493 138.894 41.3617 138.85 41.3653C138.806 41.3689 138.762 41.3636 138.72 41.3498L135.83 39.9798C135.757 39.9451 135.7 39.8859 135.667 39.8127C135.634 39.7395 135.628 39.657 135.65 39.5798L138.02 31.7598C138.032 31.6968 138.062 31.6388 138.106 31.5926C138.15 31.5464 138.207 31.5142 138.27 31.4998Z" fill="white"/>
</mask>
<g mask="url(#mask15_1070_6360)">
<path opacity="0.58" d="M142.339 30.7002L134.499 36.6002L134.319 38.1702L143.009 31.8302L142.339 30.7002Z" fill="white"/>
<path opacity="0.58" d="M142.809 33.1299L134.979 39.0299L134.789 40.5999L143.489 34.2599L142.809 33.1299Z" fill="white"/>
</g>
<path d="M83.6696 77.7302L82.7996 80.1402C82.7647 80.2367 82.749 80.3391 82.7537 80.4417C82.7584 80.5442 82.7834 80.6448 82.8271 80.7377C82.8707 80.8306 82.9323 80.914 83.0082 80.9831C83.0842 81.0521 83.173 81.1055 83.2696 81.1402C83.3125 81.1494 83.3568 81.1494 83.3996 81.1402L86.0597 81.5802C86.2404 81.6136 86.4272 81.5803 86.5853 81.4865C86.7434 81.3927 86.8622 81.2448 86.9196 81.0702L87.7596 78.6201C87.796 78.5237 87.8127 78.421 87.8086 78.3181C87.8046 78.2151 87.7799 78.114 87.7361 78.0208C87.6923 77.9275 87.6302 77.844 87.5535 77.7752C87.4768 77.7064 87.3871 77.6537 87.2896 77.6201C87.2431 77.6155 87.1962 77.6155 87.1496 77.6201L84.5096 77.2202C84.3321 77.194 84.1511 77.2306 83.9977 77.3237C83.8443 77.4168 83.7283 77.5606 83.6696 77.7302Z" fill="#EA5911"/>
<path d="M112.61 38.5703L115.15 38.7903L114.77 40.7303C114.49 40.873 114.175 40.9336 113.862 40.9053C113.549 40.877 113.25 40.7609 113 40.5703L112.61 38.5703Z" fill="#FF7B7B"/>
<path d="M113.64 38.9297L111.83 36.4697L111.7 37.6097L112.97 39.5397L113.64 38.9297Z" fill="#FF7B7B"/>
<path d="M112.5 34.4904C112.855 34.6799 113.241 34.8019 113.64 34.8504C112.888 36.1674 112.428 37.6303 112.29 39.1404L110.83 35.9704C111.149 35.3381 111.513 34.7298 111.92 34.1504C112.03 34.1504 112.22 34.3704 112.5 34.4904Z" fill="#4D6FE8"/>
<path d="M114.25 38.8198L114.94 39.4298L115.79 37.2998L115.31 37.0898L114.25 38.8198Z" fill="#FF7B7B"/>
<path d="M114.84 34.8597C114.84 34.8597 115.45 38.0497 114.99 39.2297C115.486 38.5394 115.874 37.7772 116.14 36.9697C116.197 36.2887 116.094 35.6039 115.84 34.9697C115.78 34.7497 115.53 34.7697 114.84 34.8597Z" fill="#4D6FE8"/>
<path d="M101.16 63.1395L105.64 64.6295C105.803 64.6846 105.939 64.8006 106.019 64.9533C106.099 65.106 106.117 65.2838 106.07 65.4495L105.93 65.8995C105.906 65.983 105.865 66.0609 105.811 66.1288C105.757 66.1966 105.689 66.2531 105.613 66.2949C105.537 66.3367 105.453 66.363 105.367 66.3724C105.28 66.3818 105.193 66.374 105.11 66.3495L100.67 64.7695C100.515 64.7148 100.387 64.6046 100.309 64.4605C100.232 64.3163 100.21 64.1485 100.25 63.9895L100.34 63.6295C100.382 63.4598 100.49 63.314 100.64 63.2239C100.79 63.1339 100.97 63.1072 101.14 63.1495L101.16 63.1395Z" fill="#C7D4FF"/>
<path d="M117.48 65.7796L113.78 66.0096C113.637 66.0288 113.506 66.0991 113.41 66.2075C113.315 66.3159 113.262 66.4551 113.26 66.5996V67.0096C113.253 67.0819 113.261 67.155 113.285 67.2238C113.309 67.2925 113.347 67.3552 113.398 67.4076C113.448 67.46 113.51 67.5007 113.577 67.5269C113.645 67.5532 113.718 67.5643 113.79 67.5596L117.48 67.2396C117.617 67.2191 117.742 67.1522 117.835 67.0502C117.928 66.9482 117.983 66.8173 117.99 66.6796V66.3596C118.002 66.2867 117.998 66.2121 117.977 66.1411C117.957 66.0701 117.921 66.0046 117.872 65.9491C117.824 65.8937 117.763 65.8497 117.695 65.8204C117.628 65.7911 117.554 65.7771 117.48 65.7796Z" fill="#C7D4FF"/>
<path d="M112.9 57.6897C113.247 57.6897 113.53 57.4076 113.53 57.0597C113.53 56.7117 113.247 56.4297 112.9 56.4297C112.552 56.4297 112.27 56.7117 112.27 57.0597C112.27 57.4076 112.552 57.6897 112.9 57.6897Z" fill="#C7D4FF"/>
<path d="M112.1 63.6702C112.448 63.6702 112.73 63.3881 112.73 63.0402C112.73 62.6922 112.448 62.4102 112.1 62.4102C111.752 62.4102 111.47 62.6922 111.47 63.0402C111.47 63.3881 111.752 63.6702 112.1 63.6702Z" fill="#C7D4FF"/>
<path d="M110.83 69.6399C111.178 69.6399 111.46 69.3578 111.46 69.0099C111.46 68.6619 111.178 68.3799 110.83 68.3799C110.482 68.3799 110.2 68.6619 110.2 69.0099C110.2 69.3578 110.482 69.6399 110.83 69.6399Z" fill="#C7D4FF"/>
</g>
<defs>
<linearGradient id="paint0_linear_1070_6360" x1="31.0703" y1="50.6198" x2="82.6503" y2="50.6198" gradientUnits="userSpaceOnUse">
<stop stop-color="#FF9497"/>
<stop offset="1" stop-color="#E86464"/>
</linearGradient>
<linearGradient id="paint1_linear_1070_6360" x1="19.37" y1="23.22" x2="74.93" y2="64.52" gradientUnits="userSpaceOnUse">
<stop stop-color="#FF9497"/>
<stop offset="1" stop-color="#C62D37"/>
</linearGradient>
<clipPath id="clip0_1070_6360">
<rect width="186.21" height="132.62" fill="white"/>
</clipPath>
</defs>
</svg>
