<svg width="214" height="136" viewBox="0 0 214 136" fill="none" xmlns="http://www.w3.org/2000/svg">
<path d="M41.9296 27.5897C55.8196 15.6897 78.6096 7.42967 105.64 7.25967C132.67 7.08967 150.91 31.5896 164.3 38.0196C177.69 44.4496 202.01 50.0197 202.19 82.1697C202.37 114.32 151.43 130.31 108.19 129.62C64.9496 128.93 36.7596 121.97 23.1896 89.8197C9.61963 57.6697 32.2196 35.9297 41.9296 27.5897Z" fill="#D7E7FF"/>
<mask id="mask0_1070_6549" style="mask-type:luminance" maskUnits="userSpaceOnUse" x="18" y="7" width="185" height="123">
<path d="M41.9296 27.5897C55.8196 15.6897 78.6096 7.42967 105.64 7.25967C132.67 7.08967 150.91 31.5896 164.3 38.0196C177.69 44.4496 202.01 50.0197 202.19 82.1697C202.37 114.32 151.43 130.31 108.19 129.62C64.9496 128.93 36.7596 121.97 23.1896 89.8197C9.61963 57.6697 32.2196 35.9297 41.9296 27.5897Z" fill="white"/>
</mask>
<g mask="url(#mask0_1070_6549)">
<path opacity="0.69" d="M10 40.5095C10 40.5095 35.72 20.2196 64.92 16.2996C94.12 12.3796 103.39 24.7396 122.51 28.5796C141.63 32.4196 173.38 43.5795 198.18 28.3795" stroke="white" stroke-width="20" stroke-linecap="round" stroke-linejoin="round"/>
<path opacity="0.69" d="M13.5498 64.9895C13.5498 64.9895 36.6198 50.2696 69.0998 49.1996C78.8322 48.7463 88.5708 49.9501 97.8998 52.7596C107.58 55.7596 115.76 59.5695 125.9 60.9595C151.84 64.5395 183.53 66.0196 200.06 55.8896" stroke="white" stroke-width="20" stroke-linecap="round" stroke-linejoin="round"/>
<path opacity="0.69" d="M17.0996 89.4699C17.0996 89.4699 37.4096 79.6299 73.2796 82.0999C82.8028 82.7454 92.2279 84.4218 101.39 87.0999C110.99 89.9199 119.76 92.54 129.3 93.39C162.14 96.3 193.7 88.4999 201.96 83.4399" stroke="white" stroke-width="20" stroke-linecap="round" stroke-linejoin="round"/>
<path opacity="0.69" d="M20.6602 113.949C20.6602 113.949 46.5602 105.129 104.87 121.359C156.72 135.789 203.87 110.899 203.87 110.899" stroke="white" stroke-width="20" stroke-linecap="round" stroke-linejoin="round"/>
<path d="M43.6402 93.1592H39.2402V118.879H43.6402V93.1592Z" fill="#1B3287"/>
<path d="M177.65 93.1592H173.25V118.879H177.65V93.1592Z" fill="#1B3287"/>
</g>
<path d="M183.38 13.6299C183.292 12.8778 182.913 12.1899 182.325 11.7134C181.736 11.2369 180.984 11.0095 180.23 11.08H138.05C137.296 11.0095 136.545 11.2369 135.956 11.7134C135.367 12.1899 134.989 12.8778 134.9 13.6299V17.6299H183.38V13.6299Z" fill="#FF556E"/>
<path opacity="0.44" d="M134.9 17.5996V43.5196C134.989 44.2718 135.367 44.9597 135.956 45.4362C136.545 45.9127 137.296 46.14 138.05 46.0696H180.22C180.974 46.14 181.726 45.9127 182.315 45.4362C182.903 44.9597 183.282 44.2718 183.37 43.5196V17.5996H134.9Z" fill="#FFA397"/>
<path d="M164.09 15.6997C164.924 15.6997 165.6 15.0236 165.6 14.1897C165.6 13.3557 164.924 12.6797 164.09 12.6797C163.256 12.6797 162.58 13.3557 162.58 14.1897C162.58 15.0236 163.256 15.6997 164.09 15.6997Z" fill="white"/>
<path d="M170.65 15.6997C171.484 15.6997 172.16 15.0236 172.16 14.1897C172.16 13.3557 171.484 12.6797 170.65 12.6797C169.816 12.6797 169.14 13.3557 169.14 14.1897C169.14 15.0236 169.816 15.6997 170.65 15.6997Z" fill="white"/>
<path d="M177.22 15.6997C178.054 15.6997 178.73 15.0236 178.73 14.1897C178.73 13.3557 178.054 12.6797 177.22 12.6797C176.386 12.6797 175.71 13.3557 175.71 14.1897C175.71 15.0236 176.386 15.6997 177.22 15.6997Z" fill="white"/>
<path d="M176.42 30.6297L180.82 29.4697C180.267 27.1895 178.963 25.1614 177.119 23.7106C175.275 22.2599 172.997 21.4707 170.65 21.4697V26.0197C171.992 26.0204 173.294 26.477 174.342 27.3146C175.391 28.1522 176.123 29.3211 176.42 30.6297Z" fill="#FD8F92"/>
<path d="M164.73 31.97C164.73 30.3999 165.353 28.8942 166.464 27.7839C167.574 26.6737 169.08 26.05 170.65 26.05V21.5C168.662 21.5071 166.717 22.0797 165.043 23.1511C163.369 24.2225 162.034 25.7483 161.195 27.5502C160.356 29.3521 160.048 31.3556 160.305 33.3264C160.563 35.2973 161.376 37.1542 162.65 38.68L166.06 35.68C165.202 34.6336 164.732 33.323 164.73 31.97Z" fill="white"/>
<path d="M180.82 29.47L176.42 30.63C176.521 31.0729 176.571 31.5258 176.57 31.98C176.565 33.205 176.18 34.3981 175.468 35.3955C174.757 36.3929 173.755 37.1455 172.598 37.55C171.442 37.9544 170.189 37.9908 169.011 37.6542C167.833 37.3175 166.788 36.6244 166.02 35.67L162.61 38.67C164.126 40.4901 166.214 41.7424 168.534 42.2224C170.853 42.7023 173.267 42.3816 175.381 41.3126C177.495 40.2435 179.183 38.4894 180.171 36.3366C181.159 34.1838 181.388 31.7596 180.82 29.46V29.47Z" fill="url(#paint0_linear_1070_6549)"/>
<path d="M139.57 23.2695H155.81C156.115 23.2695 156.407 23.3907 156.623 23.6064C156.839 23.8221 156.96 24.1146 156.96 24.4196C156.957 24.7228 156.835 25.0127 156.619 25.2263C156.404 25.4398 156.113 25.5596 155.81 25.5595H139.57C139.267 25.5595 138.977 25.4394 138.764 25.2256C138.55 25.0119 138.43 24.7219 138.43 24.4196C138.428 24.269 138.457 24.1197 138.514 23.9802C138.57 23.8408 138.654 23.7139 138.76 23.607C138.866 23.5 138.992 23.4152 139.131 23.3573C139.27 23.2994 139.419 23.2695 139.57 23.2695Z" fill="white"/>
<path d="M139.57 28H155.81C156.115 28 156.407 28.1212 156.623 28.3368C156.839 28.5525 156.96 28.845 156.96 29.15C156.957 29.4533 156.835 29.7432 156.619 29.9567C156.404 30.1702 156.113 30.29 155.81 30.29H139.57C139.267 30.29 138.977 30.1699 138.764 29.9561C138.55 29.7423 138.43 29.4523 138.43 29.15C138.428 28.9994 138.457 28.8501 138.514 28.7107C138.57 28.5712 138.654 28.4444 138.76 28.3374C138.866 28.2305 138.992 28.1457 139.131 28.0877C139.27 28.0298 139.419 28 139.57 28Z" fill="white"/>
<path d="M139.57 32.7305H155.81C156.114 32.7331 156.405 32.8551 156.62 33.0702C156.835 33.2853 156.957 33.5763 156.96 33.8805C156.957 34.1837 156.835 34.4737 156.619 34.6872C156.404 34.9007 156.113 35.0205 155.81 35.0204H139.57C139.267 35.0204 138.977 34.9003 138.764 34.6866C138.55 34.4728 138.43 34.1828 138.43 33.8805C138.43 33.5772 138.549 33.2862 138.763 33.0708C138.976 32.8554 139.266 32.7331 139.57 32.7305Z" fill="white"/>
<path d="M139.57 37.46H155.81C156.114 37.4626 156.405 37.5846 156.62 37.7997C156.835 38.0148 156.957 38.3058 156.96 38.61C156.957 38.9132 156.835 39.2032 156.619 39.4167C156.404 39.6302 156.113 39.75 155.81 39.75H139.57C139.267 39.75 138.977 39.6299 138.764 39.4161C138.55 39.2023 138.43 38.9123 138.43 38.61C138.43 38.3067 138.549 38.0157 138.763 37.8003C138.976 37.5849 139.266 37.4626 139.57 37.46Z" fill="white"/>
<path opacity="0.44" d="M105.44 0H53.4897C51.2474 0 49.4297 1.81772 49.4297 4.06V49.5C49.4297 51.7423 51.2474 53.56 53.4897 53.56H105.44C107.682 53.56 109.5 51.7423 109.5 49.5V4.06C109.5 1.81772 107.682 0 105.44 0Z" fill="#FFA397"/>
<g opacity="0.78">
<path d="M99.2496 6.25977H63.0496C62.3869 6.25977 61.8496 6.79702 61.8496 7.45977V7.46977C61.8496 8.13251 62.3869 8.66977 63.0496 8.66977H99.2496C99.9124 8.66977 100.45 8.13251 100.45 7.46977V7.45977C100.45 6.79702 99.9124 6.25977 99.2496 6.25977Z" fill="#616AF5"/>
<path d="M87.9098 11.9102H69.9598C69.297 11.9102 68.7598 12.4474 68.7598 13.1102V13.1202C68.7598 13.7829 69.297 14.3202 69.9598 14.3202H87.9098C88.5725 14.3202 89.1098 13.7829 89.1098 13.1202V13.1102C89.1098 12.4474 88.5725 11.9102 87.9098 11.9102Z" fill="#616AF5"/>
<path d="M106.16 17.5596H69.9598C69.297 17.5596 68.7598 18.0968 68.7598 18.7596V18.7696C68.7598 19.4323 69.297 19.9696 69.9598 19.9696H106.16C106.823 19.9696 107.36 19.4323 107.36 18.7696V18.7596C107.36 18.0968 106.823 17.5596 106.16 17.5596Z" fill="#616AF5"/>
<path d="M72.1296 23.21H63.0496C62.3869 23.21 61.8496 23.7472 61.8496 24.41V24.42C61.8496 25.0827 62.3869 25.62 63.0496 25.62H72.1296C72.7923 25.62 73.3296 25.0827 73.3296 24.42V24.41C73.3296 23.7472 72.7923 23.21 72.1296 23.21Z" fill="#FF556E"/>
<path d="M90.7299 23.21H76.1199C75.4572 23.21 74.9199 23.7472 74.9199 24.41V24.42C74.9199 25.0827 75.4572 25.62 76.1199 25.62H90.7299C91.3927 25.62 91.9299 25.0827 91.9299 24.42V24.41C91.9299 23.7472 91.3927 23.21 90.7299 23.21Z" fill="#616AF5"/>
<path d="M85.5598 28.8594H69.9598C69.297 28.8594 68.7598 29.3966 68.7598 30.0594V30.0694C68.7598 30.7321 69.297 31.2694 69.9598 31.2694H85.5598C86.2225 31.2694 86.7598 30.7321 86.7598 30.0694V30.0594C86.7598 29.3966 86.2225 28.8594 85.5598 28.8594Z" fill="#FF556E"/>
<path d="M69.9598 34.5098H82.8798C83.198 34.5098 83.5033 34.6362 83.7283 34.8612C83.9534 35.0863 84.0798 35.3915 84.0798 35.7097C84.0798 36.028 83.9534 36.3332 83.7283 36.5583C83.5033 36.7833 83.198 36.9098 82.8798 36.9098H69.9598C69.6415 36.9098 69.3363 36.7833 69.1113 36.5583C68.8862 36.3332 68.7598 36.028 68.7598 35.7097C68.7598 35.3915 68.8862 35.0863 69.1113 34.8612C69.3363 34.6362 69.6415 34.5098 69.9598 34.5098Z" fill="#616AF5"/>
<path d="M86.8193 34.5098H101.559C101.878 34.5098 102.183 34.6362 102.408 34.8612C102.633 35.0863 102.759 35.3915 102.759 35.7097C102.759 36.028 102.633 36.3332 102.408 36.5583C102.183 36.7833 101.878 36.9098 101.559 36.9098H86.8193C86.5001 36.9098 86.1939 36.7837 85.9673 36.5589C85.7407 36.3341 85.612 36.0289 85.6094 35.7097C85.612 35.3906 85.7407 35.0854 85.9673 34.8606C86.1939 34.6359 86.5001 34.5098 86.8193 34.5098Z" fill="#FF556E"/>
<path d="M63.0494 40.1596H99.2194C99.5385 40.1595 99.8448 40.2857 100.071 40.5104C100.298 40.7352 100.427 41.0404 100.429 41.3596C100.427 41.6787 100.298 41.9839 100.071 42.2087C99.8448 42.4334 99.5385 42.5596 99.2194 42.5595H63.0193C62.8618 42.5595 62.7057 42.5285 62.5601 42.4682C62.4145 42.4079 62.2823 42.3195 62.1708 42.2081C62.0594 42.0966 61.971 41.9644 61.9107 41.8188C61.8504 41.6732 61.8193 41.5172 61.8193 41.3596C61.8193 41.1994 61.8513 41.0409 61.9135 40.8933C61.9757 40.7457 62.0668 40.6121 62.1814 40.5003C62.296 40.3884 62.4319 40.3006 62.5809 40.2421C62.73 40.1836 62.8893 40.1556 63.0494 40.1596Z" fill="#616AF5"/>
<path d="M63.0496 45.7598H72.7596C72.918 45.7598 73.0749 45.7911 73.2211 45.8521C73.3674 45.913 73.5001 46.0023 73.6117 46.1147C73.7233 46.2272 73.8114 46.3607 73.8712 46.5075C73.9309 46.6542 73.9609 46.8113 73.9596 46.9698C73.9596 47.288 73.8332 47.5933 73.6082 47.8183C73.3831 48.0433 73.0778 48.1698 72.7596 48.1698H63.0496C62.892 48.1698 62.736 48.1387 62.5904 48.0784C62.4448 48.0181 62.3125 47.9297 62.201 47.8183C62.0896 47.7069 62.0013 47.5746 61.941 47.429C61.8807 47.2834 61.8496 47.1273 61.8496 46.9698C61.8496 46.6506 61.9757 46.3443 62.2004 46.1177C62.4252 45.891 62.7304 45.7624 63.0496 45.7598Z" fill="#FF556E"/>
<path d="M56.2195 6.25977C56.5387 6.25975 56.845 6.38587 57.0716 6.61063C57.2983 6.83539 57.4269 7.14057 57.4295 7.45975C57.4295 7.78066 57.3021 8.08845 57.0751 8.31537C56.8482 8.54229 56.5405 8.66977 56.2195 8.66977C55.9004 8.66713 55.5952 8.53846 55.3704 8.31183C55.1456 8.08519 55.0195 7.77893 55.0195 7.45975C55.0195 7.14149 55.146 6.83628 55.371 6.61124C55.596 6.38619 55.9013 6.25977 56.2195 6.25977Z" fill="#FF556E"/>
<path d="M56.2195 11.9102C56.5387 11.9101 56.845 12.0363 57.0716 12.261C57.2983 12.4858 57.4269 12.791 57.4295 13.1102C57.4295 13.2686 57.3982 13.4254 57.3372 13.5717C57.2763 13.7179 57.187 13.8507 57.0746 13.9622C56.9621 14.0738 56.8286 14.162 56.6818 14.2217C56.5351 14.2814 56.378 14.3115 56.2195 14.3102C55.9013 14.3102 55.596 14.1837 55.371 13.9587C55.146 13.7336 55.0195 13.4284 55.0195 13.1102C55.0195 12.7919 55.146 12.4867 55.371 12.2616C55.596 12.0366 55.9013 11.9102 56.2195 11.9102Z" fill="#FF556E"/>
<path d="M56.2195 17.5596C56.5387 17.5596 56.845 17.6857 57.0716 17.9104C57.2983 18.1352 57.4269 18.4404 57.4295 18.7596C57.4295 18.918 57.3982 19.0749 57.3372 19.2211C57.2763 19.3674 57.187 19.5001 57.0746 19.6117C56.9621 19.7232 56.8286 19.8114 56.6818 19.8711C56.5351 19.9308 56.378 19.9609 56.2195 19.9596C55.9013 19.9596 55.596 19.8331 55.371 19.6081C55.146 19.383 55.0195 19.0778 55.0195 18.7596C55.0195 18.4413 55.146 18.1361 55.371 17.911C55.596 17.686 55.9013 17.5596 56.2195 17.5596Z" fill="#FF556E"/>
<path d="M56.2195 23.21C56.5387 23.21 56.845 23.3361 57.0716 23.5608C57.2983 23.7856 57.4269 24.0908 57.4295 24.41C57.4295 24.5684 57.3982 24.7253 57.3372 24.8715C57.2763 25.0178 57.187 25.1505 57.0746 25.2621C56.9621 25.3736 56.8286 25.4618 56.6818 25.5215C56.5351 25.5812 56.378 25.6113 56.2195 25.61C55.9013 25.61 55.596 25.4836 55.371 25.2585C55.146 25.0335 55.0195 24.7282 55.0195 24.41C55.0195 24.0917 55.146 23.7865 55.371 23.5614C55.596 23.3364 55.9013 23.21 56.2195 23.21Z" fill="#FF556E"/>
<path d="M56.2195 28.8594C56.5387 28.8594 56.845 28.9855 57.0716 29.2102C57.2983 29.435 57.4269 29.7402 57.4295 30.0594C57.4269 30.3785 57.2983 30.6837 57.0716 30.9085C56.845 31.1333 56.5387 31.2594 56.2195 31.2594C55.9013 31.2594 55.596 31.1329 55.371 30.9079C55.146 30.6829 55.0195 30.3776 55.0195 30.0594C55.0195 29.7411 55.146 29.4359 55.371 29.2108C55.596 28.9858 55.9013 28.8594 56.2195 28.8594Z" fill="#FF556E"/>
<path d="M56.2195 34.5195C56.5405 34.5195 56.8482 34.647 57.0751 34.8739C57.3021 35.1009 57.4295 35.4086 57.4295 35.7296C57.4269 36.0487 57.2983 36.3539 57.0716 36.5787C56.845 36.8034 56.5387 36.9295 56.2195 36.9295C55.9013 36.9295 55.596 36.8031 55.371 36.5781C55.146 36.353 55.0195 36.0478 55.0195 35.7296C55.0195 35.4104 55.1456 35.1041 55.3704 34.8775C55.5952 34.6508 55.9004 34.5222 56.2195 34.5195Z" fill="#FF556E"/>
<path d="M56.2196 40.1396C56.5388 40.1423 56.844 40.2709 57.0687 40.4976C57.2935 40.7242 57.4196 41.0305 57.4196 41.3496C57.4196 41.6679 57.2932 41.9731 57.0681 42.1982C56.8431 42.4232 56.5378 42.5497 56.2196 42.5497C55.9013 42.5497 55.5961 42.4232 55.371 42.1982C55.146 41.9731 55.0196 41.6679 55.0196 41.3496C55.0183 41.1912 55.0483 41.0341 55.108 40.8874C55.1678 40.7406 55.2559 40.6071 55.3675 40.4946C55.4791 40.3821 55.6118 40.2929 55.758 40.2319C55.9043 40.171 56.0612 40.1396 56.2196 40.1396Z" fill="#FF556E"/>
<path d="M56.2195 45.7598C56.5405 45.7598 56.8482 45.8872 57.0751 46.1142C57.3021 46.3411 57.4295 46.6488 57.4295 46.9698C57.4269 47.2889 57.2983 47.5941 57.0716 47.8189C56.845 48.0437 56.5387 48.1698 56.2195 48.1698C55.9013 48.1698 55.596 48.0433 55.371 47.8183C55.146 47.5933 55.0195 47.288 55.0195 46.9698C55.0195 46.6506 55.1456 46.3443 55.3704 46.1177C55.5952 45.891 55.9004 45.7624 56.2195 45.7598Z" fill="#FF556E"/>
</g>
<path fill-rule="evenodd" clip-rule="evenodd" d="M38.4096 66.0903C38.4296 66.1024 38.4452 66.1205 38.4542 66.1421C38.4632 66.1637 38.4651 66.1876 38.4596 66.2103C38.3996 66.5503 38.3496 66.8903 38.2996 67.2103C38.2956 67.2354 38.2838 67.2586 38.2659 67.2766C38.2479 67.2946 38.2247 67.3064 38.1996 67.3103L36.6896 67.7603H36.5596L36.8296 70.3703L37.8296 70.4503L38.5396 70.5103C38.5521 70.5074 38.5652 70.5072 38.5778 70.5098C38.5905 70.5124 38.6024 70.5176 38.6128 70.5252C38.6233 70.5328 38.6319 70.5425 38.6383 70.5538C38.6446 70.565 38.6485 70.5774 38.6496 70.5903L39.0096 71.5403C39.0266 71.5616 39.0359 71.588 39.0359 71.6153C39.0359 71.6426 39.0266 71.669 39.0096 71.6903L37.8996 72.8503C37.8871 72.8596 37.8771 72.8717 37.8701 72.8856C37.8632 72.8995 37.8596 72.9148 37.8596 72.9303C37.8596 72.9458 37.8632 72.9612 37.8701 72.975C37.8771 72.9889 37.8871 73.001 37.8996 73.0103L39.3396 75.0103V75.0703L39.6196 74.9403L40.8796 74.3403C40.9016 74.3206 40.93 74.3098 40.9596 74.3098C40.9891 74.3098 41.0176 74.3206 41.0396 74.3403C41.2996 74.5503 41.5596 74.7503 41.8096 74.9703C41.8262 74.9832 41.8394 75 41.8481 75.0191C41.8569 75.0383 41.8608 75.0593 41.8596 75.0803C41.7396 75.6103 41.6096 76.1503 41.4796 76.6903L43.8896 77.7703L44.1396 77.4103L44.8196 76.4103C44.8324 76.386 44.8539 76.3673 44.8799 76.3581C44.9058 76.3488 44.9342 76.3496 44.9596 76.3603L45.9596 76.5203C45.9882 76.5199 46.0161 76.5298 46.0381 76.5481C46.0601 76.5664 46.0748 76.5921 46.0796 76.6203L46.5296 78.1503V78.2603L49.1296 77.9903C49.1296 77.9903 49.1296 77.9103 49.1296 77.8803C49.1296 77.3503 49.2196 76.8203 49.2596 76.2903C49.2567 76.2758 49.2568 76.2609 49.2598 76.2465C49.2628 76.232 49.2686 76.2184 49.277 76.2062C49.2854 76.1941 49.2962 76.1838 49.3086 76.1759C49.3211 76.168 49.335 76.1627 49.3496 76.1603L50.2796 75.8103C50.3016 75.7906 50.3301 75.7798 50.3596 75.7798C50.3891 75.7798 50.4176 75.7906 50.4396 75.8103L51.6096 76.9303C51.6096 76.9303 51.6696 76.9903 51.7296 76.9303L53.7296 75.4503L53.5596 75.0903C53.3796 74.7003 53.1896 74.3003 52.9996 73.9103C52.9825 73.889 52.9732 73.8626 52.9732 73.8353C52.9732 73.808 52.9825 73.7816 52.9996 73.7603C53.2196 73.5003 53.4296 73.2403 53.6296 72.9803C53.6493 72.9641 53.674 72.9552 53.6996 72.9552C53.7251 72.9552 53.7499 72.9641 53.7696 72.9803L55.3596 73.3603H55.4396L56.4996 70.9803L55.4396 70.2403L55.0796 70.0003C55.0596 69.9882 55.0439 69.9701 55.0349 69.9485C55.026 69.9269 55.0241 69.903 55.0296 69.8803C55.0896 69.5403 55.1496 69.2003 55.1996 68.8803C55.2014 68.856 55.2112 68.833 55.2275 68.8149C55.2438 68.7968 55.2656 68.7847 55.2896 68.7803L56.7996 68.3303H56.9296C56.8396 67.4703 56.7596 66.6003 56.6596 65.7303L55.9696 65.6703L54.9696 65.5903C54.9449 65.5912 54.9207 65.5838 54.9007 65.5693C54.8808 65.5548 54.8663 65.5341 54.8596 65.5103C54.7396 65.1903 54.6196 64.8703 54.4896 64.5103C54.4741 64.4922 54.4656 64.4691 54.4656 64.4453C54.4656 64.4215 54.4741 64.3984 54.4896 64.3803L55.5996 63.2103C55.612 63.201 55.6221 63.1889 55.629 63.175C55.636 63.1611 55.6396 63.1458 55.6396 63.1303C55.6396 63.1148 55.636 63.0995 55.629 63.0856C55.6221 63.0717 55.612 63.0596 55.5996 63.0503L54.1796 61.1003L54.1196 61.0203L53.2996 61.4103L52.5696 61.7603C52.5483 61.7726 52.5241 61.7791 52.4996 61.7791C52.475 61.7791 52.4508 61.7726 52.4296 61.7603L51.6496 61.1203C51.6252 61.1074 51.6066 61.0859 51.5974 61.06C51.5881 61.0341 51.5889 61.0057 51.5996 60.9803C51.7296 60.4503 51.8496 59.9203 51.9796 59.3903C51.9796 59.3903 51.9796 59.3403 51.9796 59.3103L49.5996 58.2503L48.7996 59.4003L48.6196 59.6603C48.6086 59.6842 48.5895 59.7034 48.5657 59.7144C48.5418 59.7254 48.5148 59.7275 48.4896 59.7203C48.1596 59.6603 47.8296 59.6003 47.4896 59.5603C47.4583 59.5607 47.4279 59.5498 47.4041 59.5296C47.3802 59.5094 47.3644 59.4812 47.3596 59.4503C47.2096 58.9303 47.0596 58.4503 46.8996 57.8903C46.9028 57.8671 46.9028 57.8435 46.8996 57.8203L44.2996 58.0903C44.2996 58.2803 44.2996 58.4703 44.2496 58.6603L44.1596 59.8003C44.161 59.8135 44.1597 59.8268 44.1559 59.8394C44.1522 59.8521 44.1459 59.8639 44.1375 59.8741C44.1291 59.8843 44.1188 59.8928 44.1072 59.899C44.0955 59.9052 44.0827 59.9091 44.0696 59.9103L43.1296 60.2703C43.1092 60.2893 43.0824 60.2998 43.0546 60.2998C43.0267 60.2998 42.9999 60.2893 42.9796 60.2703L41.8296 59.1703C41.7696 59.1103 41.7296 59.1003 41.6596 59.1703L39.6596 60.5903L39.5896 60.6403L39.9696 61.4603C40.0896 61.7103 40.1996 61.9503 40.3196 62.1903C40.3366 62.2116 40.3459 62.2381 40.3459 62.2653C40.3459 62.2926 40.3366 62.319 40.3196 62.3403C40.0996 62.5936 39.8896 62.8536 39.6896 63.1203C39.6692 63.135 39.6447 63.1429 39.6196 63.1429C39.5945 63.1429 39.57 63.135 39.5496 63.1203L37.9596 62.7403H37.8796L36.8196 65.1103L37.8796 65.8603C38.2196 65.9303 38.2896 66.0103 38.4096 66.0903ZM49.2196 62.6503C50.2896 63.1293 51.1937 63.9147 51.8175 64.9073C52.4413 65.9 52.7569 67.0552 52.7244 68.2271C52.6919 69.399 52.3128 70.535 51.6349 71.4915C50.9571 72.448 50.0109 73.1821 48.916 73.6011C47.821 74.0201 46.6265 74.1051 45.4832 73.8455C44.34 73.5858 43.2994 72.9931 42.4929 72.1422C41.6864 71.2914 41.1502 70.2206 40.952 69.0651C40.7538 67.9096 40.9026 66.7213 41.3796 65.6503C42.0223 64.2136 43.2089 63.0907 44.6789 62.5283C46.1489 61.9658 47.782 62.0097 49.2196 62.6503Z" fill="#CE3719"/>
<mask id="mask1_1070_6549" style="mask-type:luminance" maskUnits="userSpaceOnUse" x="36" y="57" width="21" height="22">
<path d="M38.4096 66.0903C38.4296 66.1024 38.4452 66.1205 38.4542 66.1421C38.4632 66.1637 38.4651 66.1876 38.4596 66.2103C38.3996 66.5503 38.3496 66.8903 38.2996 67.2103C38.2956 67.2354 38.2838 67.2586 38.2659 67.2766C38.2479 67.2946 38.2247 67.3064 38.1996 67.3103L36.6896 67.7603H36.5596L36.8296 70.3703L37.8296 70.4503L38.5396 70.5103C38.5521 70.5074 38.5652 70.5072 38.5778 70.5098C38.5905 70.5124 38.6024 70.5176 38.6128 70.5252C38.6233 70.5328 38.6319 70.5425 38.6383 70.5538C38.6446 70.565 38.6485 70.5774 38.6496 70.5903L39.0096 71.5403C39.0266 71.5616 39.0359 71.588 39.0359 71.6153C39.0359 71.6426 39.0266 71.669 39.0096 71.6903L37.8996 72.8503C37.8871 72.8596 37.8771 72.8717 37.8701 72.8856C37.8632 72.8995 37.8596 72.9148 37.8596 72.9303C37.8596 72.9458 37.8632 72.9612 37.8701 72.975C37.8771 72.9889 37.8871 73.001 37.8996 73.0103L39.3396 75.0103V75.0703L39.6196 74.9403L40.8796 74.3403C40.9016 74.3206 40.93 74.3098 40.9596 74.3098C40.9891 74.3098 41.0176 74.3206 41.0396 74.3403C41.2996 74.5503 41.5596 74.7503 41.8096 74.9703C41.8262 74.9832 41.8394 75 41.8481 75.0191C41.8569 75.0383 41.8608 75.0593 41.8596 75.0803C41.7396 75.6103 41.6096 76.1503 41.4796 76.6903L43.8896 77.7703L44.1396 77.4103L44.8196 76.4103C44.8324 76.386 44.8539 76.3673 44.8799 76.3581C44.9058 76.3488 44.9342 76.3496 44.9596 76.3603L45.9596 76.5203C45.9882 76.5199 46.0161 76.5298 46.0381 76.5481C46.0601 76.5664 46.0748 76.5921 46.0796 76.6203L46.5296 78.1503V78.2603L49.1296 77.9903C49.1296 77.9903 49.1296 77.9103 49.1296 77.8803C49.1296 77.3503 49.2196 76.8203 49.2596 76.2903C49.2567 76.2758 49.2568 76.2609 49.2598 76.2465C49.2628 76.232 49.2686 76.2184 49.277 76.2062C49.2854 76.1941 49.2962 76.1838 49.3086 76.1759C49.3211 76.168 49.335 76.1627 49.3496 76.1603L50.2796 75.8103C50.3016 75.7906 50.3301 75.7798 50.3596 75.7798C50.3891 75.7798 50.4176 75.7906 50.4396 75.8103L51.6096 76.9303C51.6096 76.9303 51.6696 76.9903 51.7296 76.9303L53.7296 75.4503L53.5596 75.0903C53.3796 74.7003 53.1896 74.3003 52.9996 73.9103C52.9825 73.889 52.9732 73.8626 52.9732 73.8353C52.9732 73.808 52.9825 73.7816 52.9996 73.7603C53.2196 73.5003 53.4296 73.2403 53.6296 72.9803C53.6493 72.9641 53.674 72.9552 53.6996 72.9552C53.7251 72.9552 53.7499 72.9641 53.7696 72.9803L55.3596 73.3603H55.4396L56.4996 70.9803L55.4396 70.2403L55.0796 70.0003C55.0596 69.9882 55.0439 69.9701 55.0349 69.9485C55.026 69.9269 55.0241 69.903 55.0296 69.8803C55.0896 69.5403 55.1496 69.2003 55.1996 68.8803C55.2014 68.856 55.2112 68.833 55.2275 68.8149C55.2438 68.7968 55.2656 68.7847 55.2896 68.7803L56.7996 68.3303H56.9296C56.8396 67.4703 56.7596 66.6003 56.6596 65.7303L55.9696 65.6703L54.9696 65.5903C54.9449 65.5912 54.9207 65.5838 54.9007 65.5693C54.8808 65.5548 54.8663 65.5341 54.8596 65.5103C54.7396 65.1903 54.6196 64.8703 54.4896 64.5103C54.4741 64.4922 54.4656 64.4691 54.4656 64.4453C54.4656 64.4215 54.4741 64.3984 54.4896 64.3803L55.5996 63.2103C55.612 63.201 55.6221 63.1889 55.629 63.175C55.636 63.1611 55.6396 63.1458 55.6396 63.1303C55.6396 63.1148 55.636 63.0995 55.629 63.0856C55.6221 63.0717 55.612 63.0596 55.5996 63.0503L54.1796 61.1003L54.1196 61.0203L53.2996 61.4103L52.5696 61.7603C52.5483 61.7726 52.5241 61.7791 52.4996 61.7791C52.475 61.7791 52.4508 61.7726 52.4296 61.7603L51.6496 61.1203C51.6252 61.1074 51.6066 61.0859 51.5974 61.06C51.5881 61.0341 51.5889 61.0057 51.5996 60.9803C51.7296 60.4503 51.8496 59.9203 51.9796 59.3903C51.9796 59.3903 51.9796 59.3403 51.9796 59.3103L49.5996 58.2503L48.7996 59.4003L48.6196 59.6603C48.6086 59.6842 48.5895 59.7034 48.5657 59.7144C48.5418 59.7254 48.5148 59.7275 48.4896 59.7203C48.1596 59.6603 47.8296 59.6003 47.4896 59.5603C47.4583 59.5607 47.4279 59.5498 47.4041 59.5296C47.3802 59.5094 47.3644 59.4812 47.3596 59.4503C47.2096 58.9303 47.0596 58.4503 46.8996 57.8903C46.9028 57.8671 46.9028 57.8435 46.8996 57.8203L44.2996 58.0903C44.2996 58.2803 44.2996 58.4703 44.2496 58.6603L44.1596 59.8003C44.161 59.8135 44.1597 59.8268 44.1559 59.8394C44.1522 59.8521 44.1459 59.8639 44.1375 59.8741C44.1291 59.8843 44.1188 59.8928 44.1072 59.899C44.0955 59.9052 44.0827 59.9091 44.0696 59.9103L43.1296 60.2703C43.1092 60.2893 43.0824 60.2998 43.0546 60.2998C43.0267 60.2998 42.9999 60.2893 42.9796 60.2703L41.8296 59.1703C41.7696 59.1103 41.7296 59.1003 41.6596 59.1703L39.6596 60.5903L39.5896 60.6403L39.9696 61.4603C40.0896 61.7103 40.1996 61.9503 40.3196 62.1903C40.3366 62.2116 40.3459 62.2381 40.3459 62.2653C40.3459 62.2926 40.3366 62.319 40.3196 62.3403C40.0996 62.5936 39.8896 62.8536 39.6896 63.1203C39.6692 63.135 39.6447 63.1429 39.6196 63.1429C39.5945 63.1429 39.57 63.135 39.5496 63.1203L37.9596 62.7403H37.8796L36.8196 65.1103L37.8796 65.8603C38.2196 65.9303 38.2896 66.0103 38.4096 66.0903ZM49.2196 62.6503C50.2896 63.1293 51.1937 63.9147 51.8175 64.9073C52.4413 65.9 52.7569 67.0552 52.7244 68.2271C52.6919 69.399 52.3128 70.535 51.6349 71.4915C50.9571 72.448 50.0109 73.1821 48.916 73.6011C47.821 74.0201 46.6265 74.1051 45.4832 73.8455C44.34 73.5858 43.2994 72.9931 42.4929 72.1422C41.6864 71.2914 41.1502 70.2206 40.952 69.0651C40.7538 67.9096 40.9026 66.7213 41.3796 65.6503C42.0223 64.2136 43.2089 63.0907 44.6789 62.5283C46.1489 61.9658 47.782 62.0097 49.2196 62.6503Z" fill="white"/>
</mask>
<g mask="url(#mask1_1070_6549)">
<path d="M44.0096 76.3405C49.3447 76.3405 53.6696 72.0156 53.6696 66.6805C53.6696 61.3454 49.3447 57.0205 44.0096 57.0205C38.6745 57.0205 34.3496 61.3454 34.3496 66.6805C34.3496 72.0156 38.6745 76.3405 44.0096 76.3405Z" fill="#FF6757"/>
</g>
<path d="M35.5497 82.9203L34.2197 82.8604V89.9903C34.2197 89.9903 44.4597 103.06 53.6797 109.54C66.33 118.191 80.9183 123.589 96.1526 125.257C111.387 126.924 126.798 124.81 141.02 119.1C173.61 106.21 181.73 92.2503 181.73 92.2503L180.73 88.7703L179.17 88.9503L35.5497 82.9203Z" fill="#585EDB"/>
<path d="M34.2197 82.8602C34.2197 82.8602 52.8197 109.86 82.7197 117.1C115.39 125.01 146.33 118.1 180.72 88.7701L153.55 74.9202C153.55 74.9202 132.11 90.8002 101.05 87.7302C69.9897 84.6602 56.8097 68.4102 56.8097 68.4102L34.2197 82.8602Z" fill="#9FBAFF"/>
<mask id="mask2_1070_6549" style="mask-type:luminance" maskUnits="userSpaceOnUse" x="34" y="68" width="147" height="53">
<path d="M34.2197 82.8602C34.2197 82.8602 52.8197 109.86 82.7197 117.1C115.39 125.01 146.33 118.1 180.72 88.7701L153.55 74.9202C153.55 74.9202 132.11 90.8002 101.05 87.7302C69.9897 84.6602 56.8097 68.4102 56.8097 68.4102L34.2197 82.8602Z" fill="white"/>
</mask>
<g mask="url(#mask2_1070_6549)">
<path d="M54.9101 87.4102C60.0629 87.4102 64.2401 85.8521 64.2401 83.9302C64.2401 82.0082 60.0629 80.4502 54.9101 80.4502C49.7573 80.4502 45.5801 82.0082 45.5801 83.9302C45.5801 85.8521 49.7573 87.4102 54.9101 87.4102Z" fill="#819BE2"/>
<path d="M141.72 90.2398L161 101.9L174.96 92.1398L156.67 82.0498L141.72 90.2398Z" fill="#819BE2"/>
</g>
<path d="M88.5197 105.73C88.2897 105.885 88.0783 106.067 87.8896 106.27V108.63C87.8896 108.63 111.89 113.71 134.2 107.45L137.03 94.94L136.5 92.25L135.5 93.25L88.5197 105.73Z" fill="#0C22C1"/>
<path d="M91.9897 94.31C91.9897 94.31 121.38 96.68 136.5 92.25L133.37 105.41C133.37 105.41 111.19 110.91 87.8896 106.31L91.9897 94.31Z" fill="#276AFF"/>
<path d="M110.4 26.56C109.375 25.3892 108.709 23.9487 108.48 22.41C108.03 19.73 111.68 16.18 118.25 16.41C124.82 16.64 129.75 20.12 130.07 25.85C130.39 31.58 127.16 37.23 122.22 38.28L110.4 26.56Z" fill="url(#paint1_linear_1070_6549)"/>
<mask id="mask3_1070_6549" style="mask-type:luminance" maskUnits="userSpaceOnUse" x="108" y="16" width="23" height="23">
<path d="M110.4 26.56C109.375 25.3892 108.709 23.9487 108.48 22.41C108.03 19.73 111.68 16.18 118.25 16.41C124.82 16.64 129.75 20.12 130.07 25.85C130.39 31.58 127.16 37.23 122.22 38.28L110.4 26.56Z" fill="white"/>
</mask>
<g mask="url(#mask3_1070_6549)">
<path d="M107.8 21.6504C107.8 21.6504 109.14 23.3804 114.8 23.4604C120.46 23.5404 122.33 23.3604 122.73 25.5304C123.13 27.7004 122.63 29.5304 122.56 31.6904C122.49 33.8504 123.63 37.2704 128.23 34.6304L124.12 39.0904L120.2 39.0404C120.2 39.0404 117.2 33.3604 117.06 33.2004C116.92 33.0404 117.49 27.1304 117.49 27.1304L109.49 27.6504L106.39 22.3204L107.8 21.6504Z" fill="#191982"/>
</g>
<path d="M115.96 44.7697L114.52 44.4097C114.52 44.4097 106.17 46.4097 103.52 48.9897C100.87 51.5697 94.3902 68.8897 93.7002 70.6297C94.384 72.4041 95.6776 73.8768 97.3488 74.7839C99.0201 75.691 100.96 75.9731 102.82 75.5797L103.32 87.9397C103.32 87.9397 128.89 89.8697 138.68 82.6297L137.73 76.7397C137.73 76.7397 143.35 77.4997 147 74.3697C147 74.3697 144.92 66.9697 144 63.6297C143.08 60.2897 141.74 54.2997 140.23 51.7897C138.72 49.2797 131.23 44.6397 125.42 44.1797L124.69 44.7197C124.54 44.7397 115.96 44.7697 115.96 44.7697Z" fill="white"/>
<mask id="mask4_1070_6549" style="mask-type:luminance" maskUnits="userSpaceOnUse" x="93" y="44" width="54" height="45">
<path d="M115.96 44.7697L114.52 44.4097C114.52 44.4097 106.17 46.4097 103.52 48.9897C100.87 51.5697 94.3902 68.8897 93.7002 70.6297C94.384 72.4041 95.6776 73.8768 97.3488 74.7839C99.0201 75.691 100.96 75.9731 102.82 75.5797L103.32 87.9397C103.32 87.9397 128.89 89.8697 138.68 82.6297L137.73 76.7397C137.73 76.7397 143.35 77.4997 147 74.3697C147 74.3697 144.92 66.9697 144 63.6297C143.08 60.2897 141.74 54.2997 140.23 51.7897C138.72 49.2797 131.23 44.6397 125.42 44.1797L124.69 44.7197C124.54 44.7397 115.96 44.7697 115.96 44.7697Z" fill="white"/>
</mask>
<g mask="url(#mask4_1070_6549)">
<path opacity="0.63" d="M138.98 78.41L137.69 76.75L136.76 76.46C136.76 76.46 135.43 65.46 134.9 56C134.9 56 135.81 81.58 123.55 84.84C111.29 88.1 102.61 87.1 102.61 87.1C102.61 87.1 107.48 91.5 107.48 91.37C107.48 91.24 133.73 88.37 133.73 88.37L139.37 85.74L138.98 78.41Z" fill="#FFC5D6"/>
<path opacity="0.63" d="M101.71 77.1494L102.78 75.5594C102.78 75.5594 104.52 62.6995 105.48 56.4395C105.48 56.4395 100.54 74.0995 93.6602 74.2595L101.66 77.1595" fill="#FFC5D6"/>
<path opacity="0.63" d="M124.891 43.5996L124.601 44.6996C126.867 45.2329 129.078 45.983 131.201 46.9396C134.331 48.4096 138.881 50.5896 140.121 54.2696C141.361 57.9496 145.951 75.4096 145.951 75.4096L149.541 74.7996L142.151 47.0796L124.891 43.5996Z" fill="#FFC5D6"/>
</g>
<path d="M110.22 24.7803C110.22 24.7803 109.36 35.7803 111.3 38.2803C113.24 40.7803 116.6 39.0903 117.18 39.2803C117.76 39.4703 117.95 42.8403 116.49 43.6303C115.888 44.0302 115.205 44.293 114.49 44.4003C114.49 44.4003 115.49 47.8803 118.73 48.0103C121.97 48.1403 123.14 47.2803 124.08 46.1803C124.612 45.5985 125.026 44.9194 125.3 44.1803C125.3 44.1803 123.25 43.5903 123 42.7303C122.606 41.1892 122.431 39.6002 122.48 38.0103C122.7 37.3503 122.24 36.5803 121.91 35.7403C121.58 34.9003 121.7 34.5003 122.42 34.2403C122.82 34.0292 123.137 33.6889 123.318 33.2748C123.5 32.8608 123.536 32.3974 123.42 31.9603C123.27 30.8803 121.86 29.5303 120.59 31.1003C120.59 31.1003 120.59 28.8303 120.51 27.6003C120.495 27.3112 120.422 27.028 120.296 26.7672C120.171 26.5065 119.994 26.2735 119.777 26.0817C119.56 25.8899 119.307 25.7433 119.033 25.6503C118.759 25.5574 118.469 25.52 118.18 25.5403C115.503 25.8588 112.789 25.5996 110.22 24.7803Z" fill="#FCB45E"/>
<mask id="mask5_1070_6549" style="mask-type:luminance" maskUnits="userSpaceOnUse" x="110" y="24" width="16" height="25">
<path d="M110.22 24.7803C110.22 24.7803 109.36 35.7803 111.3 38.2803C113.24 40.7803 116.6 39.0903 117.18 39.2803C117.76 39.4703 117.95 42.8403 116.49 43.6303C115.888 44.0302 115.205 44.293 114.49 44.4003C114.49 44.4003 115.49 47.8803 118.73 48.0103C121.97 48.1403 123.14 47.2803 124.08 46.1803C124.612 45.5985 125.026 44.9194 125.3 44.1803C125.3 44.1803 123.25 43.5903 123 42.7303C122.606 41.1892 122.431 39.6002 122.48 38.0103C122.7 37.3503 122.24 36.5803 121.91 35.7403C121.58 34.9003 121.7 34.5003 122.42 34.2403C122.82 34.0292 123.137 33.6889 123.318 33.2748C123.5 32.8608 123.536 32.3974 123.42 31.9603C123.27 30.8803 121.86 29.5303 120.59 31.1003C120.59 31.1003 120.59 28.8303 120.51 27.6003C120.495 27.3112 120.422 27.028 120.296 26.7672C120.171 26.5065 119.994 26.2735 119.777 26.0817C119.56 25.8899 119.307 25.7433 119.033 25.6503C118.759 25.5574 118.469 25.52 118.18 25.5403C115.503 25.8588 112.789 25.5996 110.22 24.7803Z" fill="white"/>
</mask>
<g mask="url(#mask5_1070_6549)">
<path d="M109.221 25.8206C109.221 25.8206 109.901 26.7506 113.031 26.9306C116.161 27.1106 118.591 26.2606 119.171 27.5706C119.621 29.0705 119.896 30.6175 119.991 32.1806C119.991 32.1806 121.901 30.3006 123.851 31.1806L124.291 30.1106L121.221 29.8306L120.951 30.1806L121.221 25.5406L116.991 24.2406L109.741 23.8906L109.221 25.8206Z" fill="#E8881F"/>
<path d="M117.101 39.5003C117.072 39.417 117.035 39.3367 116.991 39.2604C118.324 38.9516 119.624 38.5129 120.871 37.9504C121.941 37.3204 120.081 39.7403 118.001 40.4003C115.921 41.0603 117.101 39.5003 117.101 39.5003Z" fill="#E8881F"/>
</g>
<path d="M137.61 76.4096C137.882 77.4929 137.882 78.6264 137.61 79.7096C137.14 81.4496 132.61 92.0396 126.98 98.7096L127.62 107.33C127.62 107.33 132.93 100.71 135.06 97.9296C137.19 95.1496 144.61 83.7796 145.53 82.0396C146.45 80.2996 145.53 75.3896 145.53 75.3896L137.61 76.4096Z" fill="#FCB45E"/>
<mask id="mask6_1070_6549" style="mask-type:luminance" maskUnits="userSpaceOnUse" x="126" y="75" width="20" height="33">
<path d="M137.61 76.4096C137.882 77.4929 137.882 78.6264 137.61 79.7096C137.14 81.4496 132.61 92.0396 126.98 98.7096L127.62 107.33C127.62 107.33 132.93 100.71 135.06 97.9296C137.19 95.1496 144.61 83.7796 145.53 82.0396C146.45 80.2996 145.53 75.3896 145.53 75.3896L137.61 76.4096Z" fill="white"/>
</mask>
<g mask="url(#mask6_1070_6549)">
<path d="M140.671 75.7393C140.671 75.7393 143.26 76.2294 143.82 77.5694C144.38 78.9094 143.951 81.2494 142.241 84.4594C140.531 87.6694 125.811 108.109 125.811 108.109L129.681 108.559L147.831 84.4594L149.221 77.6494L146.541 72.8594L140.671 75.7393Z" fill="#E8881F"/>
</g>
<path d="M69.2726 39.837L51.6426 55.3145L52.9818 56.84L70.6119 41.3625L69.2726 39.837Z" fill="#2C56BF"/>
<path d="M68.76 45.0201C68.76 45.0201 63.64 41.1101 67.23 38.0201C71.02 34.7301 74.44 40.5201 74.44 40.5201C74.44 40.5201 80.84 37.7702 88.37 48.1102L72.01 60.1702C72.01 60.1702 65.43 50.5601 68.76 45.0201Z" fill="#4085F4"/>
<mask id="mask7_1070_6549" style="mask-type:luminance" maskUnits="userSpaceOnUse" x="65" y="37" width="24" height="24">
<path d="M68.76 45.0201C68.76 45.0201 63.64 41.1101 67.23 38.0201C71.02 34.7301 74.44 40.5201 74.44 40.5201C74.44 40.5201 80.84 37.7702 88.37 48.1102L72.01 60.1702C72.01 60.1702 65.43 50.5601 68.76 45.0201Z" fill="white"/>
</mask>
<g mask="url(#mask7_1070_6549)">
<path opacity="0.57" d="M71.5498 36.7998C71.5498 36.7998 72.8598 41.2398 71.5498 42.9598C72.2249 42.2026 73.0764 41.6239 74.0289 41.275C74.9814 40.9261 76.0054 40.8178 77.0098 40.9598C80.6998 41.3298 86.2598 47.7398 86.2598 47.7398L89.0298 48.4398L87.9698 44.7898L78.8898 39.4798L74.5698 39.9998L71.5498 36.7998Z" fill="#0838A3"/>
</g>
<path d="M82.1617 56.788C86.663 53.4378 89.4352 49.5438 88.3537 48.0906C87.2721 46.6375 82.7463 48.1754 78.245 51.5256C73.7437 54.8759 70.9715 58.7698 72.0531 60.223C73.1347 61.6762 77.6605 60.1383 82.1617 56.788Z" fill="#0B3499"/>
<path d="M76.2197 55.2203C77.8422 53.2171 79.9246 51.6356 82.2897 50.6104C82.2897 50.6104 85.4697 53.8203 81.8797 56.4703C78.2897 59.1203 76.2197 55.2203 76.2197 55.2203Z" fill="white"/>
<path d="M51.7073 57.7174L49.6904 57.9482L52.3584 81.256L54.3752 81.0252L51.7073 57.7174Z" fill="#2C56BF"/>
<path d="M51.0797 60.76C52.9354 60.76 54.4397 59.2557 54.4397 57.4C54.4397 55.5444 52.9354 54.04 51.0797 54.04C49.2241 54.04 47.7197 55.5444 47.7197 57.4C47.7197 59.2557 49.2241 60.76 51.0797 60.76Z" fill="#4085F4"/>
<path d="M51.0798 59.1801C52.0629 59.1801 52.8598 58.3832 52.8598 57.4001C52.8598 56.4171 52.0629 55.6201 51.0798 55.6201C50.0967 55.6201 49.2998 56.4171 49.2998 57.4001C49.2998 58.3832 50.0967 59.1801 51.0798 59.1801Z" fill="#1645D8"/>
<path d="M60.8803 83.8701C60.8803 85.1801 57.4503 86.2501 53.2303 86.2501C49.0103 86.2501 45.5703 85.1801 45.5703 83.8701C45.5703 82.5601 49.0003 80.3301 53.2303 80.3301C57.4603 80.3301 60.8803 82.5501 60.8803 83.8701Z" fill="#4085F4"/>
<mask id="mask8_1070_6549" style="mask-type:luminance" maskUnits="userSpaceOnUse" x="45" y="80" width="16" height="7">
<path d="M60.8803 83.8701C60.8803 85.1801 57.4503 86.2501 53.2303 86.2501C49.0103 86.2501 45.5703 85.1801 45.5703 83.8701C45.5703 82.5601 49.0003 80.3301 53.2303 80.3301C57.4603 80.3301 60.8803 82.5501 60.8803 83.8701Z" fill="white"/>
</mask>
<g mask="url(#mask8_1070_6549)">
<path opacity="0.7" d="M47.0502 81.1205C46.8876 81.443 46.8122 81.8025 46.8315 82.1632C46.8508 82.5239 46.9642 82.8733 47.1603 83.1766C47.3565 83.4799 47.6286 83.7267 47.9496 83.8922C48.2706 84.0578 48.6294 84.1365 48.9902 84.1205C51.9902 84.5005 55.4503 84.7005 57.4503 83.6605C57.7088 83.5384 57.9357 83.3584 58.1134 83.1343C58.291 82.9103 58.4146 82.6483 58.4746 82.3688C58.5346 82.0892 58.5293 81.7996 58.4592 81.5224C58.389 81.2452 58.256 80.9879 58.0703 80.7705L61.5403 81.9205L62.2503 85.3305L59.6203 87.2705L46.9602 87.5105L44.4902 84.0905L47.0502 81.1205Z" fill="#213BD8"/>
</g>
<path d="M170.81 93.0004L174.91 90.9004L174.99 91.5204L161.35 100.79L161.27 100.17L170.81 93.0004Z" fill="#F9788E"/>
<path d="M160.01 98.5902L161.27 100.17L174.91 90.9002L156.11 78.9502L143.19 89.1002L160.01 98.5902Z" fill="#EA425B"/>
<path d="M173.71 91.1297C173.71 91.1297 171.19 89.9597 173.63 86.4697L160.3 95.4097L160.81 99.7997L173.71 91.1297Z" fill="white"/>
<path d="M170.73 88.0402L174.07 86.4502L174.16 87.1402L160.79 96.2302L160.7 95.5302L160.74 95.1702L170.73 88.0402Z" fill="#F9788E"/>
<path d="M159.72 95.6802L160.7 95.5302L174.07 86.4502L155.75 75.7402L142.61 84.4702L143.29 85.9302L159.72 95.6802Z" fill="#EA425B"/>
<mask id="mask9_1070_6549" style="mask-type:luminance" maskUnits="userSpaceOnUse" x="142" y="75" width="33" height="21">
<path d="M159.72 95.6802L160.7 95.5302L174.07 86.4503L155.75 75.7402L142.61 84.4602L143.29 85.9203L159.72 95.6802Z" fill="white"/>
</mask>
<g mask="url(#mask9_1070_6549)">
<path d="M148.101 79.1503C148.211 79.2303 155.231 80.2403 160.101 85.0303C162.694 87.4921 164.971 90.2667 166.881 93.2903L176.611 87.2103L164.191 79.0103L152.681 75.7803L148.101 79.1503Z" fill="#D6294B"/>
</g>
<path opacity="0.56" d="M170.6 86.0195L159.55 93.1595L155.23 90.6495L166.41 83.5195L170.6 86.0195Z" fill="white"/>
<path d="M143.27 89.7197L142.61 84.4697L160.7 95.5297L161.35 100.79L143.27 89.7197Z" fill="#F9898B"/>
<path d="M170.81 86.9103L174.91 84.8203L174.99 85.4403L161.35 94.7103L161.27 94.0903L170.81 86.9103Z" fill="#4B8CEA"/>
<path d="M160.01 92.5101L161.27 94.0901L174.91 84.8201L156.11 72.8701L143.19 83.0201L160.01 92.5101Z" fill="#186DD3"/>
<path d="M173.71 85.0399C173.71 85.0399 171.19 83.8799 173.63 80.3799L160.3 89.2899L160.81 93.6699L173.71 85.0399Z" fill="white"/>
<path d="M170.73 81.9601L174.07 80.3701L174.16 81.0601L160.79 90.1401L160.7 89.4501L160.74 89.0801L170.73 81.9601Z" fill="#4B8CEA"/>
<path d="M159.72 89.6002L160.7 89.4501L174.07 80.3702L155.75 69.6602L142.61 78.3801L143.29 79.8401L159.72 89.6002Z" fill="#1946D1"/>
<mask id="mask10_1070_6549" style="mask-type:luminance" maskUnits="userSpaceOnUse" x="142" y="69" width="33" height="21">
<path d="M159.72 89.5904L160.7 89.4504L174.07 80.3704L155.75 69.6504L142.61 78.3804L143.29 79.8404L159.72 89.5904Z" fill="white"/>
</mask>
<g mask="url(#mask10_1070_6549)">
<path opacity="0.22" d="M148.101 73.0601C148.211 73.1501 155.231 74.1601 160.101 78.9401C162.696 81.4039 164.973 84.182 166.881 87.2101L176.611 81.1201L164.191 72.9201L155.221 67.8301L148.101 73.0601Z" fill="#012551"/>
</g>
<path opacity="0.56" d="M170.6 79.9304L159.55 87.0704L155.23 84.5704L166.41 77.4404L170.6 79.9304Z" fill="white"/>
<path d="M143.27 83.6399L142.61 78.3799L160.7 89.4499L161.35 94.7099L143.27 83.6399Z" fill="#4D6FE8"/>
<path d="M66.8603 66.8698L66.2803 66.1598L68.7203 64.7598C68.7203 64.7598 97.6603 80.1997 124.25 72.8997L126.25 74.9597L125.83 75.9098C125.83 75.9098 109.32 82.3397 92.1103 77.2397C74.9003 72.1397 66.8603 66.8698 66.8603 66.8698Z" fill="#CE3719"/>
<path d="M97.2804 117.83L97.5104 118.44L103.2 114.89L94.6904 113.91L97.2804 117.83Z" fill="#CC3D1B"/>
<path d="M89.7204 109.37L87.9004 117.02L97.5104 118.44L99.8604 110.88L89.7204 109.37Z" fill="#FF8E85"/>
<path d="M66.2803 66.1602C66.2803 66.1602 95.9203 83.8401 126.28 74.9601L128.28 108.85C128.28 108.85 93.9203 120.1 70.0203 100.18L66.2803 66.1602Z" fill="#FF5A5A"/>
<mask id="mask11_1070_6549" style="mask-type:luminance" maskUnits="userSpaceOnUse" x="66" y="66" width="63" height="47">
<path d="M66.2803 66.1602C66.2803 66.1602 95.9203 83.8401 126.28 74.9601L128.28 108.85C128.28 108.85 93.9203 120.1 70.0203 100.18L66.2803 66.1602Z" fill="white"/>
</mask>
<g mask="url(#mask11_1070_6549)">
<path opacity="0.33" d="M78.0303 108.41C78.0303 108.41 95.4803 112.41 111.21 98.3301C126.94 84.2501 126.59 72.3301 126.59 72.3301L129.59 111.48L97.2203 115.01L78.0303 108.41Z" fill="#F73131"/>
</g>
<path opacity="0.53" d="M95.0935 98.5823C98.5658 98.359 101.186 95.1532 100.946 91.4219C100.706 87.6907 97.6967 84.8469 94.2245 85.0703C90.7523 85.2936 88.132 88.4994 88.372 92.2306C88.612 95.9619 91.6213 98.8056 95.0935 98.5823Z" fill="white"/>
<path d="M39.4099 21.4297H22.7999C21.2093 21.4297 19.9199 22.7191 19.9199 24.3097V34.5397C19.9199 36.1303 21.2093 37.4197 22.7999 37.4197H39.4099C41.0005 37.4197 42.2899 36.1303 42.2899 34.5397V24.3097C42.2899 22.7191 41.0005 21.4297 39.4099 21.4297Z" fill="#616AF5"/>
<path d="M21.96 28.5399L27.67 25.8799V27.1399L23.35 29.0399L27.67 30.9299V32.1999L21.96 29.5399V28.5399Z" fill="white"/>
<path d="M29.0703 33.4103L31.6203 24.7803H32.8203L30.2803 33.4103H29.0703Z" fill="white"/>
<path d="M39.6096 29.6004L33.8896 32.2204V30.9504L38.3096 29.0604L33.8896 27.1604V25.9004L39.6096 28.5204V29.6004Z" fill="white"/>
<path d="M174.53 55.8398H160.18C158.805 55.8398 157.69 56.9547 157.69 58.3298V67.1598C157.69 68.535 158.805 69.6498 160.18 69.6498H174.53C175.906 69.6498 177.02 68.535 177.02 67.1598V58.3298C177.02 56.9547 175.906 55.8398 174.53 55.8398Z" fill="#FF8478"/>
<path d="M161.22 61.8705C162.01 61.8705 162.09 61.4205 162.09 61.0805C162.082 60.7828 162.058 60.4857 162.02 60.1905C162.02 59.8905 161.97 59.5805 161.96 59.2805C161.96 58.2005 162.64 57.7305 163.71 57.7305H164.11V58.7305H163.9C163.39 58.7305 163.2 59.0405 163.2 59.5405C163.2 59.7505 163.2 59.9505 163.26 60.2005C163.32 60.4505 163.26 60.7204 163.32 60.9904C163.32 61.8504 162.98 62.1805 162.32 62.3205C162.95 62.4505 163.32 62.7805 163.32 63.6505C163.32 63.9205 163.32 64.1905 163.26 64.4505C163.2 64.7105 163.2 64.9005 163.2 65.0905C163.2 65.6005 163.37 65.9205 163.9 65.9205H164.11V66.9205H163.7C162.7 66.9205 161.96 66.5105 161.96 65.3605C161.96 65.0605 161.98 64.7604 162.02 64.4604C162.063 64.1657 162.086 63.8684 162.09 63.5705C162.09 63.2505 162.01 62.8205 161.22 62.7805V61.8705Z" fill="white"/>
<path d="M165.44 66.1504C165.809 65.0885 166.09 63.9982 166.28 62.8904L168.03 62.7704C167.673 63.9104 167.19 65.0071 166.59 66.0404L165.44 66.1504ZM166.06 60.1504C166.06 59.9526 166.119 59.7593 166.229 59.5948C166.339 59.4304 166.495 59.3022 166.678 59.2265C166.861 59.1508 167.062 59.131 167.256 59.1696C167.45 59.2082 167.628 59.3034 167.768 59.4433C167.907 59.5831 168.003 59.7613 168.041 59.9553C168.08 60.1493 168.06 60.3503 167.984 60.5331C167.909 60.7158 167.78 60.872 167.616 60.9819C167.452 61.0917 167.258 61.1504 167.06 61.1504C166.795 61.1504 166.541 61.045 166.353 60.8575C166.166 60.67 166.06 60.4156 166.06 60.1504Z" fill="white"/>
<path d="M172.6 62.7502C171.82 62.7502 171.72 63.2202 171.72 63.5402C171.728 63.8345 171.752 64.1282 171.79 64.4202C171.834 64.7216 171.857 65.0256 171.86 65.3302C171.86 66.4702 171.15 66.8902 170.12 66.8902H169.71V65.8902H169.91C170.44 65.8902 170.61 65.5702 170.61 65.0702C170.61 64.8554 170.59 64.6411 170.55 64.4302C170.55 64.1568 170.53 63.8868 170.49 63.6202C170.49 62.7502 170.84 62.4202 171.49 62.2902C171.335 62.2734 171.185 62.2249 171.049 62.1478C170.914 62.0707 170.795 61.9666 170.702 61.8419C170.608 61.7173 170.541 61.5747 170.504 61.423C170.468 61.2713 170.463 61.1138 170.49 60.9602C170.49 60.7002 170.49 60.4302 170.55 60.1702C170.589 59.9557 170.609 59.7382 170.61 59.5202C170.61 59.0102 170.43 58.7102 169.91 58.7002H169.71V57.7002H170.11C171.19 57.7002 171.86 58.1702 171.86 59.2402C171.857 59.5447 171.834 59.8487 171.79 60.1502C171.79 60.4502 171.73 60.7502 171.72 61.0402C171.71 61.3302 171.82 61.8002 172.6 61.8402V62.7502Z" fill="white"/>
<defs>
<linearGradient id="paint0_linear_1070_6549" x1="162.61" y1="35.95" x2="181.12" y2="35.95" gradientUnits="userSpaceOnUse">
<stop stop-color="#604BC7"/>
<stop offset="1" stop-color="#342FA9"/>
</linearGradient>
<linearGradient id="paint1_linear_1070_6549" x1="108.44" y1="27.34" x2="130.09" y2="27.34" gradientUnits="userSpaceOnUse">
<stop stop-color="#6037C7"/>
<stop offset="1" stop-color="#343197"/>
</linearGradient>
</defs>
</svg>
