<?xml version="1.0" encoding="utf-8"?>
<!-- Generator: Adobe Illustrator 26.0.2, SVG Export Plug-In . SVG Version: 6.00 Build 0)  -->
<svg version="1.1" id="图层_1" xmlns="http://www.w3.org/2000/svg" xmlns:xlink="http://www.w3.org/1999/xlink" x="0px" y="0px"
	 viewBox="0 0 187 32" style="enable-background:new 0 0 187 32;" xml:space="preserve">
<style type="text/css">
	.st0{fill:#FFFFFF;}
	.st1{fill:#FCB95A;}
</style>
<g>
	<circle class="st0" cx="16.2" cy="6.1" r="2"/>
	<path class="st0" d="M9.7,10.5l3.7-1.8c0.2-0.1,0.3-0.1,0.5-0.1l3.7,0.6c0.2,0,0.4,0.1,0.5,0.3l2.5,2.5l0.1,0.1h2
		c0.1,0,0.2,0.1,0.2,0.2v1.2c0,0.1-0.1,0.2-0.2,0.2h-3.3h-0.1l-1.5-1.4c-0.1-0.1-0.3,0-0.3,0.1l-0.7,3c0,0.1,0,0.2,0.1,0.2l3.6,1.1
		c0.1,0,0.1,0.1,0.1,0.2v4c0,0.1-0.1,0.2-0.2,0.2h-1.5c-0.1,0-0.2-0.1-0.2-0.2v-2.1c0-0.1,0-0.1-0.1-0.2l-6.2-2.2
		c-0.1,0-0.1-0.1-0.1-0.2l0.7-4.6c0-0.1-0.1-0.2-0.2-0.2l-2,1l-0.1,0.1l-1,2.5c0,0.1-0.1,0.1-0.2,0.1l-1.3-0.4
		c-0.1,0-0.1-0.1-0.1-0.2L9.4,11C9.4,10.8,9.5,10.6,9.7,10.5z"/>
	<polygon class="st0" points="13.2,17.8 12.4,21.5 10.7,23.8 12.3,25 14.9,21.7 15.5,18.6 	"/>
	<path class="st0" d="M25.2,23.3h-6.5c-0.1,0-0.3-0.1-0.3-0.3v-0.6c0-0.1,0.1-0.3,0.3-0.3h6.5c0.1,0,0.3,0.1,0.3,0.3V23
		C25.5,23.2,25.4,23.3,25.2,23.3z"/>
	<path class="st0" d="M21.5,25.4H15c-0.1,0-0.3-0.1-0.3-0.3v-0.6c0-0.1,0.1-0.3,0.3-0.3h6.5c0.1,0,0.3,0.1,0.3,0.3v0.6
		C21.8,25.3,21.7,25.4,21.5,25.4z"/>
	<path class="st0" d="M17.8,27.6h-6.5c-0.1,0-0.3-0.1-0.3-0.3v-0.6c0-0.1,0.1-0.3,0.3-0.3h6.5c0.1,0,0.3,0.1,0.3,0.3v0.6
		C18.1,27.5,18,27.6,17.8,27.6z"/>
	<path class="st0" d="M9.6,16.6l-2.4-0.9c-0.1,0-0.1-0.1-0.1-0.2l0.2-0.4C7.3,15,7.4,15,7.5,15l2.4,0.9c0.1,0,0.1,0.1,0.1,0.2
		l-0.2,0.4C9.7,16.6,9.7,16.6,9.6,16.6z"/>
	<path class="st0" d="M10.1,22l-6.6-2.4c-0.1,0-0.2-0.2-0.2-0.3l1.3-3.6c0-0.1,0.2-0.2,0.3-0.2l6.6,2.4c0.1,0,0.2,0.2,0.2,0.3
		l-1.3,3.6C10.3,22,10.2,22.1,10.1,22z"/>
</g>
<g>
	<path class="st1" d="M39.4,22.7L38.9,21c0-0.1-0.1-0.1-0.1-0.1h-4.4c0,0-0.1,0-0.1,0.1l-0.5,1.7c0,0.1-0.1,0.2-0.3,0.2h-3
		c-0.1,0-0.1,0-0.2-0.1c0,0,0-0.1,0-0.2l4.2-13.1c0-0.1,0.1-0.2,0.3-0.2h3.7c0.1,0,0.2,0.1,0.3,0.2L43,22.6v0.1
		c0,0.1-0.1,0.2-0.2,0.2h-3C39.5,22.9,39.4,22.8,39.4,22.7z M35.1,18.4H38c0.1,0,0.1,0,0.1-0.1l-1.5-5c0-0.1,0-0.1-0.1-0.1
		c0,0,0,0-0.1,0.1l-1.5,5C35,18.4,35,18.4,35.1,18.4z"/>
	<path class="st1" d="M46,22.7c-0.7-0.3-1.2-0.6-1.6-1.1c-0.4-0.5-0.6-1-0.6-1.6v-0.2c0-0.1,0-0.1,0.1-0.2c0,0,0.1-0.1,0.2-0.1h2.6
		c0.1,0,0.1,0,0.2,0.1s0.1,0.1,0.1,0.2c0,0.2,0.1,0.4,0.4,0.6c0.3,0.2,0.6,0.2,1,0.2s0.6-0.1,0.9-0.2c0.2-0.1,0.3-0.3,0.3-0.5
		s-0.1-0.4-0.3-0.5s-0.6-0.2-1.1-0.3c-0.8-0.2-1.5-0.3-2-0.6c-0.7-0.3-1.2-0.6-1.6-1c-0.4-0.4-0.6-1-0.6-1.7c0-1,0.4-1.8,1.2-2.4
		s1.8-0.9,3.1-0.9c0.9,0,1.6,0.1,2.3,0.4c0.7,0.3,1.2,0.7,1.5,1.2c0.4,0.5,0.5,1.1,0.5,1.7c0,0.1,0,0.1-0.1,0.2c0,0-0.1,0.1-0.2,0.1
		h-2.5c-0.1,0-0.1,0-0.2-0.1c0,0-0.1-0.1-0.1-0.2c0-0.2-0.1-0.4-0.3-0.6C49,15,48.7,15,48.2,15c-0.4,0-0.7,0.1-0.9,0.2
		c-0.2,0.1-0.3,0.3-0.3,0.5s0.1,0.4,0.4,0.5c0.2,0.1,0.7,0.2,1.2,0.3c0.8,0.2,1.3,0.3,1.6,0.4c0.8,0.3,1.4,0.6,1.9,1
		c0.4,0.4,0.7,1,0.7,1.8c0,1-0.4,1.8-1.2,2.3s-1.9,0.8-3.2,0.8C47.5,23,46.7,22.9,46,22.7z"/>
	<path class="st1" d="M55.8,22.7c-0.7-0.3-1.2-0.6-1.6-1.1c-0.4-0.5-0.6-1-0.6-1.6v-0.2c0-0.1,0-0.1,0.1-0.2c0,0,0.1-0.1,0.2-0.1
		h2.6c0.1,0,0.1,0,0.2,0.1s0.1,0.1,0.1,0.2c0,0.2,0.1,0.4,0.4,0.6c0.3,0.2,0.6,0.2,1,0.2s0.6-0.1,0.9-0.2c0.2-0.1,0.3-0.3,0.3-0.5
		s-0.1-0.4-0.3-0.5s-0.6-0.2-1.1-0.3c-0.8-0.2-1.5-0.3-2-0.6c-0.7-0.3-1.2-0.6-1.6-1c-0.4-0.4-0.6-1-0.6-1.7c0-1,0.4-1.8,1.2-2.4
		s1.8-0.9,3.1-0.9c0.9,0,1.6,0.1,2.3,0.4c0.7,0.3,1.2,0.7,1.5,1.2c0.4,0.5,0.5,1.1,0.5,1.7c0,0.1,0,0.1-0.1,0.2c0,0-0.1,0.1-0.2,0.1
		h-2.5c-0.1,0-0.1,0-0.2-0.1c0,0-0.1-0.1-0.1-0.2c0-0.2-0.1-0.4-0.3-0.6C58.8,15,58.5,15,58,15c-0.4,0-0.7,0.1-0.9,0.2
		c-0.2,0.1-0.3,0.3-0.3,0.5s0.1,0.4,0.4,0.5c0.2,0.1,0.7,0.2,1.2,0.3c0.8,0.2,1.3,0.3,1.6,0.4c0.8,0.3,1.4,0.6,1.9,1
		c0.4,0.4,0.7,1,0.7,1.8c0,1-0.4,1.8-1.2,2.3s-1.9,0.8-3.2,0.8C57.3,23,56.5,22.9,55.8,22.7z"/>
	<path class="st1" d="M73.2,18.5c0,0.2-0.1,0.2-0.3,0.2H67h-0.1c0,0,0,0,0,0.1s0.1,0.3,0.2,0.6c0.2,0.3,0.4,0.5,0.7,0.7
		c0.3,0.2,0.7,0.3,1.1,0.3c0.8,0,1.5-0.3,1.9-0.8c0.1-0.1,0.1-0.1,0.2-0.1s0.1,0,0.2,0.1l1.5,1.7c0.1,0,0.1,0.1,0.1,0.2
		s0,0.1-0.1,0.2c-0.5,0.5-1,0.9-1.7,1.1c-0.7,0.3-1.4,0.4-2.2,0.4c-1.2,0-2.2-0.3-3-0.8s-1.4-1.2-1.8-2.1c-0.3-0.6-0.4-1.5-0.4-2.4
		c0-0.7,0.1-1.3,0.3-1.9c0.3-1,0.9-1.7,1.7-2.3c0.8-0.5,1.7-0.8,2.7-0.8c0.9,0,1.6,0.2,2.3,0.6c0.7,0.4,1.2,0.9,1.6,1.5
		c0.4,0.7,0.7,1.4,0.8,2.2C73.2,17.4,73.2,17.9,73.2,18.5z M67.1,16.4C67,16.6,67,16.7,67,16.8c0,0.1,0,0.1,0.1,0.1h2.8
		c0.1,0,0.1,0,0.1-0.1s0-0.2-0.1-0.4c-0.1-0.3-0.3-0.6-0.5-0.7c-0.2-0.2-0.5-0.3-0.9-0.3C67.7,15.5,67.3,15.8,67.1,16.4z"/>
	<path class="st1" d="M76.3,22.7c-0.7-0.3-1.2-0.6-1.6-1.1s-0.6-1-0.6-1.6v-0.2c0-0.1,0-0.1,0.1-0.2c0,0,0.1-0.1,0.2-0.1H77
		c0.1,0,0.1,0,0.2,0.1c0,0,0.1,0.1,0.1,0.2c0,0.2,0.1,0.4,0.4,0.6s0.6,0.2,1,0.2s0.6-0.1,0.9-0.2c0.2-0.1,0.3-0.3,0.3-0.5
		s-0.1-0.4-0.3-0.5s-0.6-0.2-1.1-0.3c-0.8-0.2-1.5-0.3-2-0.6c-0.7-0.3-1.2-0.6-1.6-1s-0.6-1-0.6-1.7c0-1,0.4-1.8,1.2-2.4
		c0.8-0.6,1.8-0.9,3.1-0.9c0.9,0,1.6,0.1,2.3,0.4c0.7,0.3,1.2,0.7,1.5,1.2c0.4,0.5,0.5,1.1,0.5,1.7c0,0.1,0,0.1-0.1,0.2
		c0,0-0.1,0.1-0.2,0.1h-2.5c-0.1,0-0.1,0-0.2-0.1c0,0-0.1-0.1-0.1-0.2c0-0.2-0.1-0.4-0.3-0.6C79.3,15,79,15,78.5,15
		c-0.4,0-0.7,0.1-0.9,0.2c-0.2,0.1-0.3,0.3-0.3,0.5s0.1,0.4,0.4,0.5c0.2,0.1,0.7,0.2,1.2,0.3c0.8,0.2,1.3,0.3,1.6,0.4
		c0.8,0.3,1.4,0.6,1.9,1c0.4,0.4,0.7,1,0.7,1.8c0,1-0.4,1.8-1.2,2.3c-0.8,0.8-1.9,1-3.2,1C77.8,23,77,22.9,76.3,22.7z"/>
	<path class="st1" d="M86.1,22.7c-0.7-0.3-1.2-0.6-1.6-1.1s-0.6-1-0.6-1.6v-0.2c0-0.1,0-0.1,0.1-0.2c0,0,0.1-0.1,0.2-0.1h2.6
		c0.1,0,0.1,0,0.2,0.1c0,0,0.1,0.1,0.1,0.2c0,0.2,0.1,0.4,0.4,0.6s0.6,0.2,1,0.2s0.6-0.1,0.9-0.2c0.2-0.1,0.3-0.3,0.3-0.5
		s-0.1-0.4-0.3-0.5s-0.6-0.2-1.1-0.3c-0.8-0.2-1.5-0.3-2-0.6c-0.7-0.3-1.2-0.6-1.6-1s-0.6-1-0.6-1.7c0-1,0.4-1.8,1.2-2.4
		c0.8-0.6,1.8-0.9,3.1-0.9c0.9,0,1.6,0.1,2.3,0.4c0.7,0.3,1.2,0.7,1.5,1.2c0.4,0.5,0.5,1.1,0.5,1.7c0,0.1,0,0.1-0.1,0.2
		c0,0-0.1,0.1-0.2,0.1h-2.5c-0.1,0-0.1,0-0.2-0.1c0,0-0.1-0.1-0.1-0.2c0-0.2-0.1-0.4-0.3-0.6c-0.2-0.2-0.5-0.2-1-0.2
		c-0.4,0-0.7,0.1-0.9,0.2c-0.2,0.1-0.3,0.3-0.3,0.5s0.1,0.4,0.4,0.5c0.2,0.1,0.7,0.2,1.2,0.3c0.8,0.2,1.3,0.3,1.6,0.4
		c0.8,0.3,1.4,0.6,1.9,1c0.4,0.4,0.7,1,0.7,1.8c0,1-0.4,1.8-1.2,2.3c-0.8,0.5-1.9,0.8-3.2,0.8C87.6,23,86.8,22.9,86.1,22.7z"/>
	<path class="st1" d="M108,13.6c0.6,0.6,0.9,1.5,0.9,2.6v6.4c0,0.1,0,0.1-0.1,0.2s-0.1,0.1-0.2,0.1h-2.7c-0.1,0-0.1,0-0.2-0.1
		c0,0-0.1-0.1-0.1-0.2V17c0-0.4-0.1-0.8-0.3-1.1c-0.2-0.3-0.5-0.4-0.9-0.4s-0.7,0.1-0.9,0.4c-0.2,0.3-0.4,0.6-0.4,1.1v5.7
		c0,0.1,0,0.1-0.1,0.2c0,0-0.1,0.1-0.2,0.1H100c-0.1,0-0.1,0-0.2-0.1c0,0-0.1-0.1-0.1-0.2V17c0-0.4-0.1-0.8-0.4-1.1
		c-0.2-0.3-0.5-0.4-0.9-0.4c-0.3,0-0.6,0.1-0.9,0.3c-0.2,0.2-0.4,0.5-0.4,0.9v6c0,0.1,0,0.1-0.1,0.2c0,0-0.1,0.1-0.2,0.1H94
		c-0.1,0-0.1,0-0.2-0.1c0,0-0.1-0.1-0.1-0.2v-9.6c0-0.1,0-0.1,0.1-0.2c0,0,0.1-0.1,0.2-0.1h2.8c0.1,0,0.1,0,0.2,0.1
		c0,0,0.1,0.1,0.1,0.2V14c0,0.1,0,0.1,0,0.1s0.1,0,0.1-0.1c0.5-0.9,1.3-1.3,2.5-1.3c0.6,0,1.2,0.1,1.7,0.4c0.5,0.3,0.9,0.7,1.1,1.2
		c0,0.1,0.1,0.1,0.1,0c0.3-0.6,0.6-1,1.1-1.2c0.5-0.3,1-0.4,1.6-0.4C106.7,12.7,107.5,13,108,13.6z"/>
	<path class="st1" d="M119.8,18.5c0,0.2-0.1,0.2-0.3,0.2h-5.9h-0.1c0,0,0,0,0,0.1s0.1,0.3,0.2,0.6c0.2,0.3,0.4,0.5,0.7,0.7
		c0.3,0.2,0.7,0.3,1.1,0.3c0.8,0,1.5-0.3,1.9-0.8c0.1-0.1,0.1-0.1,0.2-0.1s0.1,0,0.2,0.1l1.5,1.7c0.1,0,0.1,0.1,0.1,0.2
		s0,0.1-0.1,0.2c-0.5,0.5-1,0.9-1.7,1.1c-0.7,0.3-1.4,0.4-2.2,0.4c-1.2,0-2.2-0.3-3-0.8s-1.4-1.2-1.8-2.1c-0.3-0.6-0.4-1.5-0.4-2.4
		c0-0.7,0.1-1.3,0.3-1.9c0.3-1,0.9-1.7,1.7-2.3c0.8-0.5,1.7-0.8,2.7-0.8c0.9,0,1.6,0.2,2.3,0.6c0.7,0.4,1.2,0.9,1.6,1.5
		c0.4,0.7,0.7,1.4,0.8,2.2C119.8,17.4,119.8,17.9,119.8,18.5z M113.6,16.4c-0.1,0.1-0.1,0.3-0.1,0.4s0,0.1,0.1,0.1h2.8
		c0.1,0,0.1,0,0.1-0.1s0-0.2-0.1-0.4c-0.1-0.3-0.3-0.6-0.5-0.7c-0.2-0.2-0.5-0.3-0.9-0.3C114.3,15.5,113.8,15.8,113.6,16.4z"/>
	<path class="st1" d="M129.2,13.7c0.6,0.6,1,1.5,1,2.6v6.4c0,0.1,0,0.1-0.1,0.2S130,23,129.9,23h-2.8c-0.1,0-0.1,0-0.2-0.1
		c0,0-0.1-0.1-0.1-0.2V17c0-0.4-0.1-0.8-0.4-1.1c-0.2-0.3-0.6-0.4-0.9-0.4c-0.4,0-0.7,0.1-1,0.4c-0.2,0.3-0.4,0.6-0.4,1.1v5.7
		c0,0.1,0,0.1-0.1,0.2c0,0-0.1,0.1-0.2,0.1H121c-0.1,0-0.1,0-0.2-0.1c0,0-0.1-0.1-0.1-0.2v-9.6c0-0.1,0-0.1,0.1-0.2
		c0,0,0.1-0.1,0.2-0.1h2.8c0.1,0,0.1,0,0.2,0.1c0,0,0.1,0.1,0.1,0.2v0.7c0,0.1,0,0.1,0,0.1s0,0,0.1,0c0.5-0.8,1.3-1.1,2.3-1.1
		C127.8,12.7,128.6,13,129.2,13.7z"/>
	<path class="st1" d="M137.9,15.4c0,0-0.1,0.1-0.2,0.1H136c-0.1,0-0.1,0-0.1,0.1v3.5c0,0.7,0.3,1.1,0.9,1.1h0.7c0.1,0,0.1,0,0.2,0.1
		c0,0,0.1,0.1,0.1,0.2v2.3c0,0.1-0.1,0.2-0.2,0.3c-0.6,0-1.1,0-1.4,0c-1.1,0-2-0.2-2.5-0.5c-0.5-0.4-0.8-1-0.8-2v-4.8
		c0-0.1,0-0.1-0.1-0.1h-1.1c-0.1,0-0.1,0-0.2-0.1c0,0-0.1-0.1-0.1-0.2v-2.1c0-0.1,0-0.1,0.1-0.2c0,0,0.1-0.1,0.2-0.1h1.1
		c0.1,0,0.1,0,0.1-0.1v-2.3c0-0.1,0-0.1,0.1-0.2c0,0,0.1-0.1,0.2-0.1h2.6c0.1,0,0.1,0,0.2,0.1c0,0,0.1,0.1,0.1,0.2v2.3
		c0,0.1,0,0.1,0.1,0.1h1.8c0.1,0,0.1,0,0.2,0.1s0.1,0.1,0.1,0.2v2.1C138,15.3,137.9,15.3,137.9,15.4z"/>
</g>
<g>
	<path class="st0" d="M148.4,9.9c0.7,0.4,1.2,0.9,1.6,1.5s0.6,1.4,0.6,2.3c0,0.8-0.2,1.6-0.6,2.2c-0.4,0.6-0.9,1.1-1.6,1.5
		c-0.7,0.3-1.5,0.5-2.4,0.5h-2.4c-0.1,0-0.1,0-0.1,0.1v4.7c0,0.1,0,0.1-0.1,0.2c0,0-0.1,0.1-0.2,0.1h-2.8c-0.1,0-0.1,0-0.2-0.1
		c0,0-0.1-0.1-0.1-0.2V9.5c0-0.1,0-0.1,0.1-0.2c0,0,0.1-0.1,0.2-0.1h5.6C147,9.3,147.7,9.5,148.4,9.9z M146.9,14.9
		c0.3-0.3,0.5-0.7,0.5-1.2s-0.2-0.9-0.5-1.2s-0.8-0.5-1.3-0.5h-2c-0.1,0-0.1,0-0.1,0.1v3.1c0,0.1,0,0.1,0.1,0.1h2
		C146.1,15.3,146.5,15.2,146.9,14.9z"/>
	<path class="st0" d="M158.1,13.1c0.7,0.3,1.2,0.7,1.6,1.2c0.4,0.5,0.6,1.1,0.6,1.7v6.6c0,0.1,0,0.1-0.1,0.2c0,0-0.1,0.1-0.2,0.1
		h-2.8c-0.1,0-0.1,0-0.2-0.1s-0.1-0.1-0.1-0.2V22c0-0.1,0-0.1,0-0.1s-0.1,0-0.1,0.1c-0.5,0.7-1.3,1.1-2.5,1.1c-1,0-1.9-0.2-2.5-0.7
		s-0.9-1.2-0.9-2.1c0-1,0.3-1.8,1-2.3s1.7-0.8,3-0.8h1.9c0.1,0,0.1,0,0.1-0.1v-0.4c0-0.3-0.1-0.6-0.3-0.8s-0.6-0.3-1-0.3
		c-0.3,0-0.6,0.1-0.8,0.2c-0.2,0.1-0.4,0.3-0.4,0.4c-0.1,0.1-0.2,0.2-0.3,0.2l-2.8-0.4c-0.2,0-0.2-0.1-0.2-0.2
		c0.1-0.6,0.3-1.1,0.7-1.5c0.4-0.5,0.9-0.8,1.6-1.1c0.7-0.3,1.4-0.4,2.2-0.4C156.7,12.7,157.4,12.8,158.1,13.1z M156.7,20.4
		c0.3-0.3,0.5-0.6,0.5-1v-0.5c0-0.1,0-0.1-0.1-0.1h-1.2c-0.5,0-0.9,0.1-1.1,0.3s-0.4,0.4-0.4,0.8c0,0.3,0.1,0.5,0.3,0.7
		s0.5,0.3,0.8,0.3C156,20.7,156.4,20.6,156.7,20.4z"/>
	<path class="st0" d="M163.8,22.7c-0.7-0.3-1.2-0.6-1.6-1.1c-0.4-0.5-0.6-1-0.6-1.6v-0.2c0-0.1,0-0.1,0.1-0.2s0.1-0.1,0.2-0.1h2.6
		c0.1,0,0.1,0,0.2,0.1c0,0,0.1,0.1,0.1,0.2c0,0.2,0.1,0.4,0.4,0.6c0.3,0.2,0.6,0.2,1,0.2s0.7-0.1,0.9-0.2s0.3-0.3,0.3-0.5
		s-0.1-0.4-0.3-0.5s-0.6-0.2-1.1-0.3c-0.8-0.2-1.5-0.3-2-0.6c-0.7-0.3-1.2-0.6-1.6-1c-0.4-0.4-0.6-1-0.6-1.7c0-1,0.4-1.8,1.2-2.4
		s1.8-0.9,3.1-0.9c0.9,0,1.6,0.1,2.3,0.4c0.7,0.3,1.2,0.7,1.5,1.2c0.4,0.5,0.5,1.1,0.5,1.7c0,0.1,0,0.1-0.1,0.2c0,0-0.1,0.1-0.2,0.1
		h-2.5c-0.1,0-0.1,0-0.2-0.1c0,0-0.1-0.1-0.1-0.2c0-0.2-0.1-0.4-0.3-0.6c-0.2-0.2-0.5-0.2-0.9-0.2s-0.7,0.1-0.9,0.2
		c-0.2,0.1-0.3,0.3-0.3,0.5s0.1,0.4,0.4,0.5c0.2,0.1,0.7,0.2,1.2,0.3c0.7,0.2,1.3,0.3,1.6,0.4c0.8,0.3,1.4,0.6,1.9,1
		c0.4,0.4,0.7,1,0.7,1.8c0,1-0.4,1.8-1.2,2.3s-1.9,0.8-3.2,0.8C165.3,23,164.5,22.9,163.8,22.7z"/>
	<path class="st0" d="M173.7,22.7c-0.7-0.3-1.2-0.6-1.6-1.1c-0.4-0.5-0.6-1-0.6-1.6v-0.2c0-0.1,0-0.1,0.1-0.2s0.1-0.1,0.2-0.1h2.6
		c0.1,0,0.1,0,0.2,0.1c0,0,0.1,0.1,0.1,0.2c0,0.2,0.1,0.4,0.4,0.6c0.3,0.2,0.6,0.2,1,0.2s0.7-0.1,0.9-0.2s0.3-0.3,0.3-0.5
		s-0.1-0.4-0.3-0.5s-0.6-0.2-1.1-0.3c-0.8-0.2-1.5-0.3-2-0.6c-0.7-0.3-1.2-0.6-1.6-1c-0.4-0.4-0.6-1-0.6-1.7c0-1,0.4-1.8,1.2-2.4
		s1.8-0.9,3.1-0.9c0.9,0,1.6,0.1,2.3,0.4c0.7,0.3,1.2,0.7,1.5,1.2c0.4,0.5,0.5,1.1,0.5,1.7c0,0.1,0,0.1-0.1,0.2c0,0-0.1,0.1-0.2,0.1
		h-2.5c-0.1,0-0.1,0-0.2-0.1c0,0-0.1-0.1-0.1-0.2c0-0.2-0.1-0.4-0.3-0.6c-0.2-0.2-0.5-0.2-0.9-0.2s-0.7,0.1-0.9,0.2
		c-0.2,0.1-0.3,0.3-0.3,0.5s0.1,0.4,0.4,0.5c0.2,0.1,0.7,0.2,1.2,0.3c0.7,0.2,1.3,0.3,1.6,0.4c0.8,0.3,1.4,0.6,1.9,1
		c0.4,0.4,0.7,1,0.7,1.8c0,1-0.4,1.8-1.2,2.3s-1.9,0.8-3.2,0.8C175.2,23,174.4,22.9,173.7,22.7z"/>
</g>
</svg>
