<?xml version="1.0" encoding="utf-8"?>
<!-- Generator: Adobe Illustrator 26.0.2, SVG Export Plug-In . SVG Version: 6.00 Build 0)  -->
<svg version="1.1" id="Layer_1" xmlns="http://www.w3.org/2000/svg" xmlns:xlink="http://www.w3.org/1999/xlink" x="0px" y="0px"
	 viewBox="0 0 158 43" style="enable-background:new 0 0 158 43;" xml:space="preserve">
<style type="text/css">
	.st0{clip-path:url(#SVGID_00000106866823992761022660000009100220316778866598_);}
	.st1{fill:#FFFFFF;}
	.st2{fill:#405189;}
</style>
<g>
	<g>
		<defs>
			<rect id="SVGID_1_" width="158" height="43"/>
		</defs>
		<clipPath id="SVGID_00000098206633540463082410000016605764604234869669_">
			<use xlink:href="#SVGID_1_"  style="overflow:visible;"/>
		</clipPath>
		<g style="clip-path:url(#SVGID_00000098206633540463082410000016605764604234869669_);">
			<path class="st1" d="M1.8,0v3.1h9.1v4c0,0.3,0.1,0.5,0.2,0.8c0.1,0.2,0.2,0.5,0.4,0.7c0.2,0.2,0.4,0.3,0.7,0.4
				c0.2,0.1,0.5,0.2,0.8,0.2h11.7c0.3,0,0.5-0.1,0.8-0.2c0.2-0.1,0.5-0.2,0.7-0.4s0.3-0.4,0.4-0.7c0.1-0.2,0.2-0.5,0.2-0.8v-4h9.4V0
				H1.8z"/>
			<path class="st1" d="M4.9,17.6v3.7H2.3v1.6h2.5v3.8H3.6c-0.9,0-1.8-0.4-2.5-1c-0.7-0.7-1-1.6-1-2.5v-2c0-0.9,0.4-1.8,1-2.5
				c0.7-0.7,1.6-1,2.5-1L4.9,17.6z"/>
			<path class="st1" d="M33.2,17.6v3.7h2.5v1.6h-2.5v3.8h1.2c1,0,1.9-0.4,2.6-1.1c0.6-0.7,1-1.6,1-2.6v-1.7c0-1-0.4-1.9-1.1-2.6
				s-1.6-1.1-2.6-1.1L33.2,17.6z"/>
			<path class="st1" d="M23.4,43c3.7-0.8,4.2-3.9,4.2-4.3c0,0,0,0,0-0.1v-3.2c0-0.1,0-0.2,0.1-0.3s0.2-0.1,0.3-0.2
				c2.9-0.6,3.5-3.6,3.6-4v-0.1V17.6c0,0,0,0,0-0.1c-0.1-0.5-0.9-6.2-6.6-7H12.7c-5.7,0.8-6.5,6.5-6.6,7c0,0,0,0,0,0.1V31v0.1
				c0.1,0.4,0.7,3.4,3.6,4c0.1,0,0.2,0.1,0.3,0.2c0.1,0.1,0.1,0.2,0.1,0.3v3.2c0,0,0,0,0,0.1c0,0.4,0.5,3.5,4.2,4.3h0.1h8.8L23.4,43
				z"/>
			<path class="st2" d="M19,31.9h6.7c0.1,0,0.3-0.1,0.3-0.1c0.1-0.1,0.1-0.2,0.1-0.3v-1.2c0-0.4-0.1-0.7-0.3-1.1l-0.5-0.9
				c-0.1-0.2-0.2-0.4-0.1-0.6v-0.1c0-0.2,0.1-0.3,0.2-0.5c0.1-0.1,0.3-0.2,0.5-0.2c1.4-0.1,1.8-1.4,1.9-1.7v-0.1v-4.3
				c0-3.8-3.4-3.6-3.4-3.6c-2.7,0.2-3.2,2.2-3.2,3.2c0,0.1-0.1,0.2-0.2,0.3c-0.1,0.1-0.2,0.1-0.3,0.1h-3.3c-0.1,0-0.2,0-0.3-0.1
				c-0.1-0.1-0.1-0.2-0.2-0.3c-0.1-0.9-0.5-3-3.2-3.2c0,0-3.4-0.2-3.4,3.6V25v0.1c0.1,0.3,0.5,1.6,1.9,1.7c0.2,0,0.4,0.1,0.5,0.2
				s0.2,0.3,0.2,0.5v0.1c0,0.2,0,0.4-0.2,0.6l-0.5,0.9c-0.2,0.3-0.3,0.7-0.3,1.1v1.2c0,0.1,0.1,0.3,0.1,0.3c0.1,0.1,0.2,0.1,0.3,0.1
				L19,31.9z"/>
			<path class="st2" d="M12,33.4c-0.1,0-0.3,0.1-0.3,0.1c-0.1,0.1-0.1,0.2-0.1,0.3V38c0,0.9,0.3,1.8,0.9,2.4c0.6,0.6,1.5,1,2.4,1.1
				h8.4c0.9,0,1.7-0.4,2.4-1.1c0.6-0.6,0.9-1.5,0.9-2.4v-4.2c0-0.1-0.1-0.3-0.1-0.3c-0.1-0.1-0.2-0.1-0.3-0.1H12z"/>
			<path class="st1" d="M35.1,3.5v2.2h-0.6V17h2.2V5.8h-0.6V3.5H35.1z"/>
			<path class="st1" d="M13.3,22.7c0.7,0,1.3-0.6,1.3-1.3s-0.6-1.3-1.3-1.3S12,20.7,12,21.4S12.6,22.7,13.3,22.7z"/>
			<path class="st1" d="M24.5,22.7c0.7,0,1.3-0.6,1.3-1.3s-0.6-1.3-1.3-1.3c-0.7,0-1.3,0.6-1.3,1.3S23.8,22.7,24.5,22.7z"/>
			<path class="st1" d="M18.7,25.4l-0.5-0.5l-0.1-0.1H18h-2.3c-0.1,0-0.2,0-0.2,0.1c-0.1,0.1-0.1,0.1-0.1,0.2v0.6
				c0,0.1,0,0.2,0.1,0.2c0.1,0.1,0.1,0.1,0.2,0.1h1.6c0.1,0,0.1,0,0.2,0.1c0.1,0,0.1,0.1,0.1,0.1l0.7,1.6c0,0.1,0.1,0.1,0.1,0.1
				c0.1,0,0.1,0.1,0.2,0.1h0.8c0.1,0,0.1,0,0.2-0.1c0.1,0,0.1-0.1,0.1-0.1l0.7-1.6c0-0.1,0.1-0.1,0.1-0.1c0.1,0,0.1-0.1,0.2-0.1h1.6
				h0.1c0,0,0.1,0,0.1-0.1l0.1-0.1v-0.1v-0.6V25c0,0,0-0.1-0.1-0.1s-0.1-0.1-0.1-0.1h-0.1H20h-0.1c0,0-0.1,0-0.1,0.1l-0.5,0.5
				l-0.1,0.1h-0.1H19C18.7,25.5,18.7,25.4,18.7,25.4z"/>
			<path class="st1" d="M42.5,16.9l3.2-13.5h2.8l3,13.5h-2.7l-0.5-2.4h-2.7l-0.4,2.4H42.5z M46.1,12.4h1.8c-0.2-0.9-0.4-1.9-0.5-3
				c-0.1-1-0.3-2.1-0.4-3.3c-0.1,1-0.3,2-0.4,3.1C46.4,10.3,46.3,11.3,46.1,12.4z"/>
			<path class="st1" d="M52.1,16.4v-2.8c0.3,0.3,0.6,0.5,1,0.7c0.3,0.1,0.6,0.2,1,0.2s0.8-0.1,1.1-0.4c0.1-0.1,0.2-0.3,0.3-0.4
				c0.1-0.2,0.1-0.4,0.1-0.5c0-0.5-0.4-1.1-1.1-1.7c-0.2-0.2-0.3-0.3-0.4-0.4c-0.7-0.6-1.3-1.2-1.7-2c-0.3-0.6-0.5-1.3-0.5-2
				c0-1,0.3-2,1-2.8c0.3-0.4,0.7-0.6,1.2-0.8c0.4-0.2,0.9-0.3,1.4-0.3c0.4,0,0.8,0.1,1.1,0.2c0.4,0.1,0.8,0.3,1.2,0.5v2.4
				c-0.4-0.2-0.7-0.3-1.1-0.4c-0.2-0.1-0.5-0.1-0.7-0.1s-0.4,0-0.5,0.1S55.1,5.9,55,6s-0.2,0.3-0.3,0.4c-0.1,0.2-0.1,0.3-0.1,0.5
				c0,0.3,0.1,0.7,0.3,1c0.4,0.5,0.8,0.9,1.3,1.3c0.7,0.5,1.3,1.2,1.8,1.9c0.3,0.6,0.4,1.2,0.4,1.9c0,0.5,0,1.1-0.2,1.6
				s-0.5,1-0.8,1.4c-0.4,0.4-0.8,0.6-1.3,0.8s-1,0.3-1.5,0.2c-0.4,0-0.8,0-1.3-0.2C52.8,16.8,52.4,16.6,52.1,16.4z"/>
			<path class="st1" d="M59.4,16.4v-2.8c0.3,0.3,0.6,0.5,1,0.7c0.3,0.1,0.6,0.2,1,0.2s0.8-0.1,1.1-0.4c0.1-0.1,0.2-0.3,0.3-0.4
				c0.1-0.2,0.1-0.4,0.1-0.5c0-0.5-0.4-1.1-1.1-1.7c-0.2-0.2-0.3-0.3-0.4-0.4c-0.7-0.6-1.3-1.2-1.7-2c-0.3-0.6-0.5-1.3-0.5-2
				c0-1,0.3-2,1-2.8c0.3-0.4,0.7-0.6,1.2-0.8c0.4-0.2,0.9-0.3,1.4-0.3c0.4,0,0.8,0.1,1.1,0.2c0.4,0.1,0.8,0.3,1.2,0.5v2.4
				C64.7,6.1,64.4,6,64,5.8c-0.2-0.1-0.5-0.1-0.7-0.1s-0.3,0-0.5,0.1S62.5,6,62.4,6.1c-0.1,0.1-0.2,0.3-0.3,0.4S62,6.8,62,7
				c0,0.3,0.1,0.7,0.3,1c0.4,0.5,0.8,0.9,1.3,1.3c0.7,0.5,1.3,1.2,1.8,1.9c0.3,0.6,0.4,1.2,0.4,1.9c0,0.5,0,1.1-0.2,1.6
				s-0.5,1-0.8,1.4c-0.4,0.4-0.8,0.6-1.3,0.8c-0.5,0.2-1,0.3-1.5,0.2c-0.4,0-0.9,0-1.3-0.2C60,16.8,59.7,16.6,59.4,16.4z"/>
			<path class="st1" d="M67,16.9V3.4h5.7v2.5h-3.1v2.7h2.8v2.5h-2.8v3.2h3.1v2.6H67z"/>
			<path class="st1" d="M74.1,16.4v-2.8c0.3,0.3,0.6,0.5,1,0.7c0.3,0.1,0.6,0.2,1,0.2s0.8-0.1,1.1-0.4c0.1-0.1,0.2-0.3,0.3-0.4
				s0.1-0.4,0.1-0.5c0-0.5-0.4-1.1-1.1-1.7c-0.2-0.2-0.3-0.3-0.4-0.4c-0.7-0.6-1.3-1.2-1.7-2c-0.3-0.6-0.5-1.3-0.5-2
				c0-1,0.3-2,1-2.8c0.3-0.4,0.7-0.6,1.2-0.8c0.4-0.2,0.9-0.3,1.4-0.3c0.4,0,0.8,0.1,1.1,0.2c0.4,0.1,0.8,0.3,1.2,0.5v2.4
				C79.4,6,79,5.9,78.7,5.8c-0.2-0.1-0.5-0.1-0.7-0.1s-0.3,0-0.5,0.1c-0.2,0-0.4,0.1-0.5,0.2s-0.2,0.3-0.3,0.4
				c-0.1,0.2-0.1,0.3-0.1,0.5c0,0.3,0.1,0.7,0.3,1c0.4,0.5,0.8,0.9,1.3,1.3c0.7,0.5,1.3,1.2,1.8,1.9c0.3,0.6,0.4,1.2,0.4,1.9
				c0,0.5,0,1.1-0.2,1.6s-0.5,1-0.8,1.4c-0.4,0.4-0.8,0.6-1.3,0.8s-1,0.3-1.5,0.2c-0.4,0-0.9,0-1.3-0.2
				C74.8,16.8,74.5,16.6,74.1,16.4z"/>
			<path class="st1" d="M81.4,16.4v-2.8c0.3,0.3,0.6,0.5,1,0.7c0.3,0.1,0.6,0.2,1,0.2s0.8-0.1,1.1-0.4c0.1-0.1,0.2-0.3,0.3-0.4
				c0.1-0.2,0.1-0.4,0.1-0.5c0-0.5-0.4-1.1-1.1-1.7c-0.2-0.2-0.3-0.3-0.4-0.4c-0.7-0.6-1.3-1.2-1.7-2c-0.3-0.6-0.5-1.3-0.5-2
				c0-1,0.3-2,1-2.8c0.3-0.4,0.7-0.6,1.2-0.8c0.4-0.2,0.9-0.3,1.4-0.3c0.4,0,0.8,0.1,1.1,0.2c0.4,0.1,0.8,0.3,1.2,0.5v2.4
				C86.7,6.1,86.4,6,86,5.8c-0.2-0.1-0.5-0.1-0.7-0.1s-0.3,0-0.5,0.1S84.5,6,84.4,6.1c-0.1,0.1-0.2,0.3-0.3,0.4C84,6.7,84,6.8,84,7
				c0,0.3,0.1,0.7,0.3,1c0.4,0.5,0.8,0.9,1.3,1.3c0.7,0.5,1.3,1.2,1.8,1.9c0.3,0.6,0.4,1.2,0.4,1.9c0,0.5,0,1.1-0.2,1.6
				s-0.5,1-0.8,1.4c-0.4,0.4-0.8,0.6-1.3,0.8c-0.5,0.2-1,0.3-1.5,0.2c-0.4,0-0.9,0-1.3-0.2C82.1,16.8,81.8,16.6,81.4,16.4z"/>
			<path class="st1" d="M88.5,16.9l1.3-13.5h3.5L94,8.5c0.1,0.8,0.2,1.5,0.3,2.3c0.1,0.7,0.1,1.4,0.2,2.1c0.1-1.2,0.2-2.1,0.3-2.8
				c0.1-0.7,0.1-1.2,0.2-1.5l0.9-5.2h3.4l1.1,13.5h-2.7l-0.3-6.3V9.9c-0.1-1.6-0.1-3-0.1-4l-1.8,11h-2L91.8,5.8c0,0.9-0.1,2.2-0.2,4
				c0,0.4,0,0.7-0.1,0.9l-0.4,6.2H88.5z"/>
			<path class="st1" d="M101.8,16.9V3.4h5.7v2.5h-3.1v2.7h2.8v2.5h-2.8v3.2h3.1v2.6H101.8z"/>
			<path class="st1" d="M109.3,16.9V3.4h2.7l2.7,7.3c0.1,0.2,0.2,0.6,0.3,1.1c0.1,0.5,0.3,1.1,0.5,1.7c-0.1-1-0.2-1.8-0.3-2.6
				c-0.1-0.8-0.1-1.5-0.1-2.2V3.4h2.5v13.5h-2.5l-3-7.6c0-0.1-0.2-0.6-0.4-1.4L111.5,7c0.1,0.5,0.1,1.1,0.1,1.8s0,1.4,0,2.4v5.7
				L109.3,16.9z"/>
			<path class="st1" d="M121.1,16.9v-11H119V3.4h6.8v2.5h-2.1v11H121.1z"/>
			<path class="st1" d="M127.2,16.9V3.4h2.8c1.5,0,2.6,0.3,3.3,1c0.7,0.6,1.1,1.6,1.1,3c0,0.5,0,1.1-0.2,1.6s-0.5,1-0.8,1.4
				c-0.4,0.4-0.9,0.6-1.4,0.8s-1,0.3-1.6,0.2H130c-0.1,0-0.2,0-0.2,0V17L127.2,16.9z M129.8,9.2h0.1h0.1c0.2,0,0.5,0,0.7-0.1
				s0.4-0.2,0.6-0.4c0.3-0.4,0.5-0.9,0.4-1.4c0-0.5-0.1-1-0.4-1.4c-0.2-0.2-0.4-0.3-0.6-0.4c-0.2-0.1-0.5-0.1-0.7-0.1h-0.1h-0.1V9.2
				z"/>
			<path class="st1" d="M134,16.9l3.2-13.5h2.8l3,13.5h-2.7l-0.5-2.4h-2.7l-0.4,2.4H134z M137.6,12.4h1.8c-0.2-0.9-0.4-1.9-0.5-3
				c-0.1-1-0.3-2.1-0.4-3.3c-0.1,1-0.3,2-0.4,3.1C137.9,10.3,137.8,11.3,137.6,12.4z"/>
			<path class="st1" d="M143.6,16.4v-2.8c0.3,0.3,0.6,0.5,1,0.7c0.3,0.1,0.6,0.2,1,0.2s0.8-0.1,1.1-0.4c0.1-0.1,0.2-0.3,0.3-0.4
				c0.1-0.2,0.1-0.4,0.1-0.5c0-0.5-0.4-1.1-1.1-1.7c-0.2-0.2-0.3-0.3-0.4-0.4c-0.7-0.6-1.3-1.2-1.7-2c-0.3-0.6-0.5-1.3-0.5-2
				c0-1,0.3-2,1-2.8c0.3-0.4,0.7-0.6,1.2-0.8c0.4-0.2,0.9-0.3,1.4-0.3c0.4,0,0.8,0.1,1.1,0.2c0.4,0.1,0.8,0.3,1.2,0.5v2.4
				c-0.4-0.2-0.7-0.3-1.1-0.5c-0.2-0.1-0.5-0.1-0.7-0.1s-0.3,0-0.5,0.1s-0.3,0.2-0.4,0.3c-0.1,0.1-0.2,0.3-0.3,0.4
				c-0.1,0.2-0.1,0.3-0.1,0.5c0,0.3,0.1,0.7,0.3,1c0.4,0.5,0.8,0.9,1.3,1.3c0.7,0.5,1.3,1.2,1.8,1.9c0.3,0.6,0.4,1.2,0.4,1.9
				c0,0.5,0,1.1-0.2,1.6s-0.5,1-0.8,1.4c-0.4,0.4-0.8,0.6-1.3,0.8c-0.5,0.2-1,0.3-1.5,0.2c-0.4,0-0.9,0-1.3-0.2
				C144.3,16.8,143.9,16.6,143.6,16.4z"/>
			<path class="st1" d="M150.8,16.4v-2.8c0.3,0.3,0.6,0.5,1,0.7c0.3,0.1,0.6,0.2,1,0.2s0.8-0.1,1.1-0.4c0.1-0.1,0.2-0.3,0.3-0.4
				c0.1-0.2,0.1-0.4,0.1-0.5c0-0.5-0.4-1.1-1.1-1.7c-0.2-0.2-0.3-0.3-0.4-0.4c-0.7-0.6-1.3-1.2-1.7-2c-0.3-0.6-0.5-1.3-0.5-2
				c0-1,0.3-2,1-2.8c0.3-0.4,0.7-0.6,1.2-0.8s0.9-0.3,1.4-0.3c0.4,0,0.8,0.1,1.1,0.2c0.4,0.1,0.8,0.3,1.2,0.5v2.4
				c-0.4-0.2-0.7-0.3-1.1-0.5c-0.2-0.1-0.5-0.1-0.7-0.1s-0.4,0-0.5,0.1c-0.2,0.1-0.3,0.2-0.4,0.3c-0.1,0.1-0.2,0.3-0.3,0.4
				c-0.1,0.2-0.1,0.3-0.1,0.5c0,0.3,0.1,0.7,0.3,1c0.4,0.5,0.8,0.9,1.3,1.3c0.7,0.5,1.3,1.2,1.8,1.9c0.3,0.6,0.4,1.2,0.4,1.9
				c0,0.5,0,1.1-0.2,1.6s-0.5,1-0.8,1.4c-0.4,0.4-0.8,0.6-1.3,0.8c-0.5,0.2-1,0.3-1.5,0.2c-0.4,0-0.9,0-1.3-0.2
				C151.5,16.8,151.2,16.6,150.8,16.4z"/>
			<path class="st1" d="M42.5,38.6V25.1h5.7v2.5h-3.1v2.7h2.8v2.5h-2.8V36h3.1v2.7h-5.7V38.6z"/>
			<path class="st1" d="M50,38.6V25.1h2.3c2.1,0,3.6,0.6,4.7,1.7c1,1.1,1.5,2.8,1.5,5.1c0,1.2-0.2,2.3-0.6,3.4
				c-0.4,0.9-1,1.7-1.8,2.3c-0.5,0.4-1,0.6-1.6,0.8c-0.8,0.2-1.7,0.3-2.6,0.2L50,38.6z M52.7,36.1h0.2c0.4,0,0.9-0.1,1.2-0.3
				c0.4-0.2,0.7-0.5,1-0.8c0.5-0.7,0.8-1.8,0.8-3.1c0-1.5-0.2-2.6-0.7-3.3c-0.3-0.4-0.6-0.6-1-0.8s-0.8-0.3-1.3-0.2h-0.2V36.1z"/>
			<path class="st1" d="M68.6,25.1v8.5c0,0.7,0,1.5-0.1,2.2c0,0.4-0.1,0.7-0.3,1.1c-0.3,0.6-0.8,1.1-1.4,1.4
				c-0.8,0.3-1.6,0.5-2.4,0.5c-0.8,0-1.6-0.1-2.4-0.5c-0.6-0.3-1.1-0.8-1.4-1.4c-0.2-0.3-0.3-0.7-0.3-1.1c-0.1-0.7-0.1-1.5-0.1-2.2
				v-8.5h2.7v8.7c0,1.1,0.1,1.8,0.3,2.1c0.3,0.3,0.8,0.5,1.2,0.5s0.9-0.2,1.2-0.5c0.2-0.3,0.3-1,0.3-2.1v-8.7L68.6,25.1z"/>
			<path class="st1" d="M77.6,38.4c-0.3,0.1-0.5,0.2-0.8,0.2c-0.3,0.1-0.5,0.1-0.8,0.1c-0.8,0-1.6-0.1-2.3-0.5
				c-0.7-0.3-1.4-0.8-1.9-1.4c-1.1-1.3-1.6-2.9-1.6-4.9c0-2.1,0.5-3.8,1.6-5.1c0.5-0.6,1.1-1.1,1.8-1.5c0.7-0.3,1.5-0.5,2.3-0.5
				c0.3,0,0.6,0,0.9,0.1s0.5,0.1,0.8,0.2v2.5c-0.2-0.1-0.5-0.2-0.8-0.2c-0.2,0-0.5-0.1-0.7-0.1c-0.4,0-0.9,0.1-1.2,0.3
				c-0.4,0.2-0.7,0.5-0.9,0.9c-0.6,0.9-0.9,2-0.8,3.2c0,1.1,0.3,2.2,0.9,3.1c0.2,0.4,0.6,0.7,1,0.9s0.8,0.3,1.3,0.3
				c0.2,0,0.5,0,0.7-0.1s0.5-0.1,0.7-0.2L77.6,38.4z"/>
			<path class="st1" d="M78.2,38.6l3.2-13.5h2.8l3,13.5h-2.7L84,36.2h-2.7l-0.4,2.4C80.9,38.6,78.2,38.6,78.2,38.6z M81.8,34.1h1.8
				c-0.2-0.9-0.4-1.9-0.5-3c-0.1-1-0.3-2.1-0.4-3.3c-0.1,1-0.3,2-0.4,3.1C82.1,32,81.9,33,81.8,34.1L81.8,34.1z"/>
			<path class="st1" d="M88.9,38.6v-11h-2.1v-2.5h6.8v2.5h-2.1v11H88.9z"/>
			<path class="st1" d="M95.1,38.6V25.1h2.8v13.5H95.1z"/>
			<path class="st1" d="M109.2,32c0,2.1-0.4,3.7-1.3,4.9c-0.4,0.6-0.9,1-1.5,1.4c-0.6,0.3-1.3,0.5-2,0.5s-1.4-0.1-2-0.5
				c-0.6-0.3-1.1-0.8-1.5-1.4c-0.8-1.2-1.3-2.9-1.2-5.1c0-2.2,0.4-3.9,1.3-5.1c0.4-0.6,0.9-1,1.5-1.4s1.3-0.5,2-0.5s1.4,0.2,2,0.5
				s1.1,0.8,1.5,1.4C108.8,28,109.2,29.8,109.2,32z M104.4,36.2c0.3,0,0.7-0.1,0.9-0.3c0.3-0.2,0.5-0.5,0.6-0.8
				c0.3-0.7,0.5-1.8,0.5-3.3s-0.2-2.5-0.5-3.3c-0.1-0.3-0.3-0.6-0.6-0.8s-0.6-0.3-0.9-0.3s-0.7,0.1-0.9,0.3s-0.5,0.5-0.6,0.8
				c-0.3,0.7-0.5,1.8-0.5,3.3s0.2,2.6,0.5,3.3c0.1,0.3,0.3,0.6,0.6,0.8C103.7,36.1,104.1,36.2,104.4,36.2L104.4,36.2z"/>
			<path class="st1" d="M110.8,38.6V25.1h2.7l2.7,7.3c0.1,0.2,0.2,0.6,0.3,1.1c0.1,0.5,0.3,1.1,0.5,1.7c-0.1-1-0.2-1.8-0.3-2.6
				c-0.1-0.8-0.1-1.5-0.1-2.2v-5.2h2.5v13.5h-2.5l-3-7.6c0-0.1-0.2-0.6-0.4-1.4c-0.1-0.4-0.2-0.7-0.2-0.9c0.1,0.5,0.1,1.1,0.1,1.8
				c0,0.7,0,1.4,0,2.4v5.7h-2.3V38.6z"/>
		</g>
	</g>
</g>
</svg>
