<?xml version="1.0" encoding="utf-8"?>
<!-- Generator: Adobe Illustrator 26.2.1, SVG Export Plug-In . SVG Version: 6.00 Build 0)  -->
<svg version="1.1" id="图层_1" xmlns="http://www.w3.org/2000/svg" xmlns:xlink="http://www.w3.org/1999/xlink" x="0px" y="0px"
	 viewBox="0 0 80 80" style="enable-background:new 0 0 80 80;" xml:space="preserve">
<style type="text/css">
	.st0{fill:#5C76D7;}
</style>
<g>
	<circle class="st0" cx="46.1" cy="6.8" r="6.8"/>
	<path class="st0" d="M24.1,22l12.6-6c0.5-0.3,1.2-0.3,1.7-0.3l12.5,1.9c0.6,0.1,1.2,0.4,1.7,0.9l8.3,8.5c0.1,0.1,0.3,0.2,0.4,0.2
		H68c0.3,0,0.6,0.3,0.6,0.6v4.1c0,0.3-0.3,0.6-0.6,0.6H56.8c-0.2,0-0.3-0.1-0.4-0.2l-5-4.8c-0.3-0.3-0.9-0.2-1,0.3l-2.5,10.1
		c-0.1,0.3,0.1,0.6,0.4,0.7l12.1,3.9c0.2,0.1,0.4,0.3,0.4,0.6v13.5c0,0.3-0.3,0.6-0.6,0.6H55c-0.3,0-0.6-0.3-0.6-0.6v-7
		c0-0.2-0.2-0.5-0.4-0.6l-21-7.6c-0.3-0.1-0.4-0.4-0.4-0.6L35,25.2c0.1-0.5-0.4-0.8-0.8-0.6L27.3,28c-0.1,0.1-0.2,0.2-0.3,0.3
		l-3,8.7c-0.1,0.3-0.4,0.5-0.8,0.4L19,36c-0.3-0.1-0.5-0.4-0.4-0.8l4.3-11.9C23.1,22.7,23.5,22.2,24.1,22z"/>
	<polygon class="st0" points="36.1,46.6 33.4,59.2 27.6,66.8 33.1,70.9 41.7,59.9 43.8,49.4 	"/>
	<path class="st0" d="M76.8,65.3H54.7c-0.5,0-0.9-0.4-0.9-0.9v-2c0-0.5,0.4-0.9,0.9-0.9h22.2c0.5,0,0.9,0.4,0.9,0.9v2
		C77.7,64.9,77.3,65.3,76.8,65.3z"/>
	<path class="st0" d="M64.3,72.3H42.2c-0.5,0-0.9-0.4-0.9-0.9v-2c0-0.5,0.4-0.9,0.9-0.9h22.2c0.5,0,0.9,0.4,0.9,0.9v2
		C65.2,72,64.8,72.3,64.3,72.3z"/>
	<path class="st0" d="M51.7,80H29.5c-0.5,0-0.9-0.4-0.9-0.9v-2c0-0.5,0.4-0.9,0.9-0.9h22.2c0.5,0,0.9,0.4,0.9,0.9v2
		C52.6,79.6,52.2,80,51.7,80z"/>
	<path class="st0" d="M23.8,42.5l-8.2-3c-0.2-0.1-0.3-0.3-0.3-0.6l0.5-1.4c0.1-0.2,0.3-0.3,0.6-0.3l8.2,3c0.2,0.1,0.3,0.3,0.3,0.6
		l-0.5,1.4C24.3,42.5,24,42.6,23.8,42.5z"/>
	<path class="st0" d="M25.4,61L2.9,52.7c-0.5-0.2-0.7-0.7-0.5-1.1l4.5-12.1C7,39,7.5,38.7,7.9,38.9l22.5,8.3
		c0.5,0.2,0.7,0.7,0.5,1.1l-4.5,12.1C26.3,60.9,25.8,61.1,25.4,61z"/>
</g>
</svg>
