<svg width="76" height="80" viewBox="0 0 76 80" fill="none" xmlns="http://www.w3.org/2000/svg">
<path d="M44.1008 13.6C47.8563 13.6 50.9008 10.5555 50.9008 6.8C50.9008 3.04446 47.8563 0 44.1008 0C40.3452 0 37.3008 3.04446 37.3008 6.8C37.3008 10.5555 40.3452 13.6 44.1008 13.6Z" fill="white"/>
<path d="M22.1002 21.9992L34.7002 15.9992C35.2002 15.6992 35.9002 15.6992 36.4002 15.6992L48.9002 17.5992C49.5002 17.6992 50.1002 17.9992 50.6002 18.4992L58.9002 26.9992C59.0002 27.0992 59.2002 27.1992 59.3002 27.1992H66.0002C66.3002 27.1992 66.6002 27.4992 66.6002 27.7992V31.8992C66.6002 32.1992 66.3002 32.4992 66.0002 32.4992H54.8002C54.6002 32.4992 54.5002 32.3992 54.4002 32.2992L49.4002 27.4992C49.1002 27.1992 48.5002 27.2992 48.4002 27.7992L45.9002 37.8992C45.8002 38.1992 46.0002 38.4992 46.3002 38.5992L58.4002 42.4992C58.6002 42.5992 58.8002 42.7992 58.8002 43.0992V56.5992C58.8002 56.8992 58.5002 57.1992 58.2002 57.1992H53.0002C52.7002 57.1992 52.4002 56.8992 52.4002 56.5992V49.5992C52.4002 49.3992 52.2002 49.0992 52.0002 48.9992L31.0002 41.3992C30.7002 41.2992 30.6002 40.9992 30.6002 40.7992L33.0002 25.1992C33.1002 24.6992 32.6002 24.3992 32.2002 24.5992L25.3002 27.9992C25.2002 28.0992 25.1002 28.1992 25.0002 28.2992L22.0002 36.9992C21.9002 37.2992 21.6002 37.4992 21.2002 37.3992L17.0002 35.9992C16.7002 35.8992 16.5002 35.5992 16.6002 35.1992L20.9002 23.2992C21.1002 22.6992 21.5002 22.1992 22.1002 21.9992Z" fill="white"/>
<path d="M34.1016 46.5996L31.4016 59.1996L25.6016 66.7996L31.1016 70.8996L39.7016 59.8996L41.8016 49.3996L34.1016 46.5996Z" fill="white"/>
<path d="M74.8008 65.3H52.7008C52.2008 65.3 51.8008 64.9 51.8008 64.4V62.4C51.8008 61.9 52.2008 61.5 52.7008 61.5H74.9008C75.4008 61.5 75.8008 61.9 75.8008 62.4V64.4C75.7008 64.9 75.3008 65.3 74.8008 65.3Z" fill="white"/>
<path d="M62.3008 72.3H40.2008C39.7008 72.3 39.3008 71.9 39.3008 71.4V69.4C39.3008 68.9 39.7008 68.5 40.2008 68.5H62.4008C62.9008 68.5 63.3008 68.9 63.3008 69.4V71.4C63.2008 72 62.8008 72.3 62.3008 72.3Z" fill="white"/>
<path d="M49.7016 79.9992H27.5016C27.0016 79.9992 26.6016 79.5992 26.6016 79.0992V77.0992C26.6016 76.5992 27.0016 76.1992 27.5016 76.1992H49.7016C50.2016 76.1992 50.6016 76.5992 50.6016 77.0992V79.0992C50.6016 79.5992 50.2016 79.9992 49.7016 79.9992Z" fill="white"/>
<path d="M21.8008 42.4992L13.6008 39.4992C13.4008 39.3992 13.3008 39.1992 13.3008 38.8992L13.8008 37.4992C13.9008 37.2992 14.1008 37.1992 14.4008 37.1992L22.6008 40.1992C22.8008 40.2992 22.9008 40.4992 22.9008 40.7992L22.4008 42.1992C22.3008 42.4992 22.0008 42.5992 21.8008 42.4992Z" fill="white"/>
<path d="M23.4009 61.0005L0.900859 52.7005C0.400859 52.5005 0.200859 52.0005 0.400859 51.6005L4.90086 39.5005C5.00086 39.0005 5.50086 38.7005 5.90086 38.9005L28.4009 47.2005C28.9009 47.4005 29.1009 47.9005 28.9009 48.3005L24.4009 60.4005C24.3009 60.9005 23.8009 61.1005 23.4009 61.0005Z" fill="white"/>
</svg>
