<svg id="Layer_1" data-name="Layer 1" xmlns="http://www.w3.org/2000/svg" xmlns:xlink="http://www.w3.org/1999/xlink" viewBox="0 0 23.87 18.59"><defs><style>.cls-1{fill:none;}.cls-2{clip-path:url(#clip-path);}.cls-3{fill:#ccc;}</style><clipPath id="clip-path" transform="translate(-0.09 -0.01)"><rect class="cls-1" x="0.09" width="23.88" height="18.63"/></clipPath></defs><g class="cls-2"><path class="cls-3" d="M23.78,17.17l-3.8-5a7,7,0,1,0-1.42,1.06l3.82,5a.88.88,0,0,0,.7.34.84.84,0,0,0,.54-.18.89.89,0,0,0,.16-1.24ZM9.68,7.08a5.43,5.43,0,1,1,5.43,5.43A5.44,5.44,0,0,1,9.68,7.08ZM6.26,3.53H1A.89.89,0,0,1,1,1.76H6.26a.89.89,0,0,1,0,1.77Zm-.21,8.73H1a.89.89,0,0,1,0-1.77H6.05a.89.89,0,0,1,0,1.77ZM5,7.88H1A.89.89,0,0,1,1,6.11H5A.88.88,0,0,1,5.89,7,.9.9,0,0,1,5,7.88Zm5.68,8.91H1A.89.89,0,0,1,1,15h9.72a.89.89,0,0,1,0,1.78Zm0,0" transform="translate(-0.09 -0.01)"/></g></svg>