<svg width="158" height="43" viewBox="0 0 158 43" fill="none" xmlns="http://www.w3.org/2000/svg">
<path d="M1.8457 0V3.12617H10.9357V7.07836C10.9357 7.3415 10.9876 7.60208 11.0883 7.84519C11.189 8.08829 11.3366 8.30919 11.5226 8.49526C11.7087 8.68132 11.9296 8.8289 12.1727 8.9296C12.4158 9.0303 12.6764 9.08213 12.9395 9.08213H24.6696C24.9327 9.08213 25.1933 9.0303 25.4364 8.9296C25.6795 8.8289 25.9004 8.68132 26.0865 8.49526C26.2726 8.30919 26.4201 8.08829 26.5208 7.84519C26.6215 7.60208 26.6734 7.3415 26.6734 7.07836V3.12617H36.0598V0H1.8457Z" fill="#0D204A"/>
<path d="M4.877 17.5952V21.3103H2.33575V22.8911H4.877V26.705H3.55697C2.6136 26.705 1.70887 26.3303 1.0418 25.6632C0.374743 24.9961 0 24.0914 0 23.148V21.1957C0 20.2523 0.374743 19.3476 1.0418 18.6805C1.70887 18.0134 2.6136 17.6387 3.55697 17.6387L4.877 17.5952Z" fill="#0D204A"/>
<path d="M33.1621 17.5952V21.3103H35.7034V22.8911H33.1621V26.705H34.3478C35.3247 26.705 36.2616 26.3169 36.9523 25.6261C37.6431 24.9354 38.0312 23.9985 38.0312 23.0216V21.2984C38.0312 20.3215 37.6431 19.3846 36.9523 18.6938C36.2616 18.003 35.3247 17.615 34.3478 17.615L33.1621 17.5952Z" fill="#0D204A"/>
<path d="M23.4134 43C27.1522 42.2412 27.6225 39.0913 27.662 38.7395C27.662 38.7395 27.662 38.704 27.662 38.6842V35.5225C27.6628 35.4099 27.7026 35.301 27.7747 35.2145C27.8467 35.128 27.9466 35.0692 28.0572 35.0482C30.9226 34.4712 31.5826 31.4556 31.6616 31.0486C31.6637 31.0196 31.6637 30.9906 31.6616 30.9616V17.6348C31.6616 17.6151 31.6616 17.5953 31.6616 17.5755C31.5984 17.0934 30.7328 11.3429 25.0535 10.5723H12.7425C7.06317 11.3429 6.19764 17.0934 6.13441 17.5755C6.13441 17.5755 6.13441 17.6151 6.13441 17.6348V30.9537C6.13228 30.9827 6.13228 31.0117 6.13441 31.0407C6.21345 31.4359 6.87742 34.4633 9.73881 35.0403C9.84941 35.0613 9.94928 35.1201 10.0214 35.2066C10.0934 35.2931 10.1333 35.4019 10.134 35.5145V38.6763C10.134 38.6763 10.134 38.7119 10.134 38.7316C10.1735 39.0834 10.6439 42.2333 14.3826 42.9921H14.4814H23.3027L23.4134 43Z" fill="#0D204A"/>
<path d="M18.9507 31.8627H25.6062C25.7341 31.8627 25.8567 31.8119 25.9471 31.7214C26.0375 31.631 26.0883 31.5084 26.0883 31.3805V30.1948C26.0881 29.8177 25.9929 29.4466 25.8117 29.1159L25.3216 28.2108C25.2144 28.0137 25.1638 27.7907 25.1754 27.5666V27.5152C25.1858 27.3377 25.2613 27.1702 25.3875 27.0448C25.5136 26.9194 25.6815 26.8449 25.8591 26.8355C27.2582 26.7446 27.6613 25.4048 27.7364 25.0965C27.7405 25.0584 27.7405 25.02 27.7364 24.9819V20.7214C27.7364 16.9115 24.3178 17.1052 24.3178 17.1052C21.5908 17.2553 21.156 19.3421 21.0928 20.2669C21.0838 20.3885 21.029 20.5022 20.9396 20.5851C20.8501 20.668 20.7326 20.7138 20.6106 20.7135H17.2671C17.1455 20.7138 17.0284 20.6678 16.9396 20.5848C16.8508 20.5019 16.7969 20.3882 16.7888 20.2669C16.7256 19.3342 16.2869 17.2474 13.5639 17.1052C13.5639 17.1052 10.1413 16.9115 10.1413 20.7214V24.97C10.1352 25.008 10.1352 25.0467 10.1413 25.0846C10.2164 25.3929 10.6155 26.7327 12.0146 26.8236C12.202 26.8214 12.3829 26.8925 12.5187 27.0217C12.6546 27.1508 12.7346 27.3279 12.7418 27.5152V27.5745C12.75 27.7988 12.6981 28.0212 12.5916 28.2187L12.0897 29.0961C11.9114 29.4279 11.8177 29.7985 11.817 30.1751V31.3607C11.817 31.4886 11.8678 31.6112 11.9582 31.7017C12.0486 31.7921 12.1713 31.8429 12.2992 31.8429L18.9507 31.8627Z" fill="#70B4E3"/>
<path d="M11.9522 33.4435C11.8243 33.4435 11.7017 33.4943 11.6112 33.5847C11.5208 33.6752 11.47 33.7978 11.47 33.9257V38.1467C11.4456 39.0395 11.7764 39.9056 12.39 40.5547C13.0035 41.2038 13.8496 41.5829 14.7424 41.6088H23.1013C23.9941 41.5829 24.8402 41.2038 25.4538 40.5547C26.0673 39.9056 26.3982 39.0395 26.3737 38.1467V33.9099C26.3737 33.782 26.3229 33.6594 26.2325 33.5689C26.1421 33.4785 26.0194 33.4277 25.8916 33.4277L11.9522 33.4435Z" fill="#70B4E3"/>
<path d="M35.056 3.54492V5.78978H34.4434V16.9824H36.6922V5.76605H36.0559V3.54492H35.056Z" fill="#0D204A"/>
<path d="M13.3432 22.6893C14.0591 22.6893 14.6395 22.1089 14.6395 21.393C14.6395 20.6771 14.0591 20.0967 13.3432 20.0967C12.6273 20.0967 12.0469 20.6771 12.0469 21.393C12.0469 22.1089 12.6273 22.6893 13.3432 22.6893Z" fill="#0D204A"/>
<path d="M24.4838 22.6893C25.1998 22.6893 25.7801 22.1089 25.7801 21.393C25.7801 20.6771 25.1998 20.0967 24.4838 20.0967C23.7679 20.0967 23.1875 20.6771 23.1875 21.393C23.1875 22.1089 23.7679 22.6893 24.4838 22.6893Z" fill="#0D204A"/>
<path d="M18.6695 25.4005L18.1636 24.863C18.1334 24.8317 18.0971 24.8068 18.0571 24.7899C18.017 24.7729 17.9739 24.7641 17.9304 24.7642H15.6658C15.5809 24.7642 15.4995 24.7979 15.4395 24.8579C15.3794 24.918 15.3457 24.9994 15.3457 25.0843V25.7167C15.3457 25.8016 15.3794 25.883 15.4395 25.943C15.4995 26.0031 15.5809 26.0368 15.6658 26.0368H17.2862C17.3488 26.0361 17.4101 26.0541 17.4622 26.0886C17.5144 26.1232 17.5549 26.1726 17.5787 26.2304L18.2466 27.8113C18.2712 27.8685 18.312 27.9174 18.364 27.9518C18.4159 27.9862 18.4768 28.0046 18.5391 28.005H19.29C19.3525 28.0057 19.4138 27.9876 19.466 27.9531C19.5181 27.9186 19.5587 27.8692 19.5825 27.8113L20.2504 26.2304C20.275 26.1732 20.3158 26.1244 20.3677 26.09C20.4197 26.0556 20.4805 26.0371 20.5428 26.0368H22.1672C22.209 26.0368 22.2505 26.0285 22.2891 26.0123C22.3277 25.9962 22.3628 25.9726 22.3922 25.9428C22.4216 25.913 22.4448 25.8777 22.4604 25.8389C22.4761 25.8 22.4839 25.7585 22.4834 25.7167V25.0843C22.4839 25.0424 22.4761 25.0009 22.4604 24.9621C22.4448 24.9233 22.4216 24.8879 22.3922 24.8582C22.3628 24.8284 22.3277 24.8048 22.2891 24.7886C22.2505 24.7725 22.209 24.7642 22.1672 24.7642H19.8828C19.8399 24.764 19.7973 24.7727 19.7579 24.7897C19.7185 24.8067 19.6829 24.8316 19.6536 24.863L19.1477 25.4005C19.1173 25.4337 19.0804 25.4602 19.0392 25.4783C18.9981 25.4964 18.9536 25.5058 18.9086 25.5058C18.8636 25.5058 18.8191 25.4964 18.778 25.4783C18.7368 25.4602 18.6999 25.4337 18.6695 25.4005Z" fill="#0D204A"/>
<path d="M42.5293 16.8877L45.6911 3.36328H48.5129L51.5166 16.8877H48.8212L48.3667 14.5164H45.6515L45.2366 16.8877H42.5293ZM46.1297 12.4138H47.9161C47.7317 11.4679 47.5657 10.4785 47.4182 9.44571C47.2706 8.41287 47.1389 7.32205 47.0229 6.17328C46.8886 7.18504 46.7423 8.21261 46.5921 9.25203C46.442 10.2915 46.2997 11.3467 46.1297 12.4138Z" fill="#0D204A"/>
<path d="M52.0693 16.4174V13.6114C52.3631 13.8797 52.6946 14.1034 53.0534 14.2753C53.3639 14.4213 53.7024 14.4981 54.0454 14.5006C54.4383 14.5215 54.8243 14.3915 55.1244 14.137C55.2566 14.0115 55.3604 13.859 55.4285 13.6899C55.4967 13.5208 55.5278 13.339 55.5196 13.1568C55.5196 12.6431 55.1678 12.0858 54.4565 11.489C54.2588 11.323 54.1087 11.1926 54.0099 11.0938C53.3308 10.5321 52.7544 9.85683 52.3065 9.09796C51.9909 8.47787 51.8321 7.78987 51.8441 7.09419C51.7966 6.05888 52.1506 5.0452 52.8321 4.26441C53.1574 3.90813 53.5565 3.62704 54.0015 3.44071C54.4465 3.25437 54.9268 3.16727 55.4089 3.18547C55.7877 3.18416 56.1646 3.23875 56.5274 3.3475C56.9328 3.47107 57.3227 3.64082 57.6894 3.85339V6.2247C57.3385 6.05543 56.9783 5.90632 56.6104 5.77811C56.3855 5.69836 56.1494 5.65434 55.9109 5.64768C55.7352 5.64136 55.5601 5.67028 55.3959 5.73273C55.2316 5.79518 55.0815 5.8899 54.9544 6.0113C54.8311 6.13798 54.7349 6.28847 54.6717 6.4536C54.6085 6.61873 54.5796 6.79501 54.5869 6.97167C54.585 7.3142 54.681 7.65012 54.8635 7.93994C55.2356 8.4375 55.6714 8.88399 56.1598 9.2679C56.8553 9.80427 57.4484 10.4616 57.9107 11.2084C58.1876 11.7918 58.323 12.4323 58.3059 13.0778C58.3351 13.608 58.2582 14.1388 58.0797 14.6389C57.9012 15.1391 57.6248 15.5986 57.2665 15.9906C56.8921 16.3549 56.4463 16.6377 55.9573 16.8213C55.4682 17.005 54.9465 17.0854 54.4248 17.0577C53.9997 17.0614 53.5758 17.0096 53.1641 16.9035C52.7758 16.8004 52.4063 16.6363 52.0693 16.4174Z" fill="#0D204A"/>
<path d="M59.3504 16.4173V13.6112C59.649 13.8809 59.986 14.1046 60.3503 14.2752C60.6608 14.4212 60.9993 14.498 61.3423 14.5005C61.7354 14.5226 62.1218 14.3924 62.4213 14.1369C62.5535 14.0113 62.6573 13.8589 62.7255 13.6898C62.7936 13.5207 62.8247 13.3389 62.8165 13.1567C62.8165 12.6429 62.4608 12.087 61.7494 11.4889C61.5518 11.3229 61.4056 11.1925 61.3068 11.0937C60.6256 10.5331 60.0477 9.85763 59.5994 9.09783C59.2838 8.47774 59.1251 7.78974 59.137 7.09406C59.0896 6.05875 59.4436 5.04507 60.1251 4.26428C60.4507 3.90842 60.8498 3.62763 61.2948 3.44132C61.7397 3.25502 62.2199 3.16767 62.7019 3.18534C63.0807 3.18403 63.4575 3.23862 63.8204 3.34737C64.2258 3.47094 64.6156 3.64069 64.9823 3.85326V6.22457C64.6233 6.04555 64.2538 5.88849 63.8757 5.75426C63.651 5.67381 63.4148 5.62977 63.1762 5.62383C63.0011 5.61737 62.8266 5.64625 62.6629 5.70872C62.4993 5.77119 62.3499 5.86599 62.2237 5.98745C62.0989 6.11324 62.0014 6.26349 61.9375 6.42877C61.8735 6.59405 61.8445 6.77078 61.8522 6.94783C61.8503 7.29036 61.9463 7.62627 62.1288 7.9161C62.5009 8.41366 62.9367 8.86015 63.4251 9.24405C64.1217 9.77927 64.715 10.4368 65.176 11.1846C65.4529 11.768 65.5883 12.4084 65.5712 13.0539C65.5997 13.5844 65.522 14.1153 65.3429 14.6154C65.1637 15.1156 64.8866 15.575 64.5278 15.9667C64.1539 16.3305 63.7088 16.6131 63.2204 16.7967C62.7321 16.9803 62.2111 17.061 61.6901 17.0338C61.2637 17.0379 60.8385 16.9861 60.4254 16.8797C60.0454 16.782 59.6828 16.626 59.3504 16.4173Z" fill="#0D204A"/>
<path d="M67.0488 16.8877V3.36328H72.736V5.865H69.6533V8.59993H72.4396V11.0819H69.6533V14.2437H72.7281V16.8837L67.0488 16.8877Z" fill="#0D204A"/>
<path d="M74.1434 16.4173V13.6112C74.442 13.8809 74.779 14.1046 75.1433 14.2752C75.4538 14.4212 75.7922 14.498 76.1353 14.5005C76.5282 14.5218 76.9144 14.3917 77.2143 14.1369C77.3465 14.0113 77.4502 13.8589 77.5184 13.6898C77.5866 13.5207 77.6177 13.3389 77.6095 13.1567C77.6095 12.6429 77.2538 12.087 76.5424 11.4889C76.3448 11.3229 76.1946 11.1925 76.0958 11.0937C75.4167 10.532 74.8404 9.8567 74.3924 9.09783C74.0768 8.47774 73.918 7.78974 73.93 7.09406C73.8826 6.05875 74.2365 5.04507 74.918 4.26428C75.2437 3.90842 75.6428 3.62763 76.0878 3.44132C76.5327 3.25502 77.0128 3.16767 77.4949 3.18534C77.8736 3.18403 78.2505 3.23862 78.6133 3.34737C79.0188 3.47094 79.4086 3.64069 79.7753 3.85326V6.22457C79.4163 6.04555 79.0467 5.88849 78.6687 5.75426C78.4437 5.67451 78.2077 5.6305 77.9691 5.62383C77.7941 5.61715 77.6194 5.64592 77.4558 5.70841C77.2921 5.77089 77.1427 5.8658 77.0167 5.98745C76.8918 6.11324 76.7944 6.26349 76.7304 6.42877C76.6665 6.59405 76.6375 6.77078 76.6452 6.94783C76.6433 7.29036 76.7393 7.62627 76.9218 7.9161C77.2938 8.41366 77.7297 8.86015 78.2181 9.24405C78.9147 9.77927 79.508 10.4368 79.9689 11.1846C80.2458 11.768 80.3812 12.4084 80.3642 13.0539C80.3926 13.5844 80.315 14.1153 80.1358 14.6154C79.9567 15.1156 79.6796 15.575 79.3208 15.9667C78.9468 16.3305 78.5017 16.6131 78.0134 16.7967C77.5251 16.9803 77.0041 17.061 76.4831 17.0338C76.0566 17.0379 75.6314 16.9861 75.2184 16.8797C74.8384 16.782 74.4757 16.626 74.1434 16.4173Z" fill="#0D204A"/>
<path d="M81.4227 16.4173V13.6113C81.7213 13.881 82.0583 14.1047 82.4226 14.2753C82.7331 14.4212 83.0716 14.4981 83.4146 14.5005C83.8077 14.5227 84.1941 14.3925 84.4936 14.1369C84.6264 14.0119 84.7306 13.8595 84.7988 13.6903C84.8671 13.5211 84.8978 13.339 84.8888 13.1568C84.8888 12.643 84.5331 12.0871 83.8217 11.489C83.6241 11.323 83.4779 11.1926 83.3791 11.0938C82.699 10.532 82.1213 9.85676 81.6717 9.0979C81.3561 8.47781 81.1973 7.78981 81.2093 7.09414C81.1619 6.05883 81.5158 5.04515 82.1973 4.26436C82.5236 3.90819 82.9234 3.62722 83.369 3.44092C83.8146 3.25461 84.2955 3.16744 84.7781 3.18541C85.1556 3.18438 85.5311 3.23897 85.8926 3.34744C86.2981 3.47101 86.6879 3.64076 87.0546 3.85334V6.22465C86.6956 6.04563 86.326 5.88857 85.948 5.75434C85.7232 5.67388 85.4871 5.62985 85.2484 5.62391C85.0734 5.61745 84.8988 5.64633 84.7352 5.7088C84.5716 5.77127 84.4222 5.86607 84.296 5.98753C84.1711 6.11332 84.0737 6.26357 84.0098 6.42885C83.9458 6.59413 83.9168 6.77086 83.9244 6.94791C83.9226 7.29043 84.0186 7.62635 84.2011 7.91618C84.5743 8.41274 85.01 8.85909 85.4974 9.24413C86.194 9.77935 86.7873 10.4369 87.2482 11.1846C87.5251 11.768 87.6605 12.4085 87.6435 13.054C87.6719 13.5845 87.5943 14.1154 87.4152 14.6155C87.236 15.1156 86.9589 15.575 86.6001 15.9668C86.2261 16.3306 85.781 16.6131 85.2927 16.7968C84.8044 16.9804 84.2834 17.0611 83.7624 17.0339C83.3359 17.0377 82.9108 16.9859 82.4977 16.8798C82.1177 16.782 81.755 16.626 81.4227 16.4173Z" fill="#0D204A"/>
<path d="M88.4531 16.8877L89.7771 3.36328H93.2511L93.9546 8.5446C94.06 9.33504 94.1482 10.0873 94.2194 10.8013C94.2905 11.5206 94.3458 12.2201 94.3893 12.896C94.5039 11.7103 94.5948 10.7657 94.6739 10.0781C94.7529 9.39037 94.8122 8.89239 94.8636 8.5446L95.7331 3.38304H99.1715L100.31 16.9074H97.5787L97.2902 10.6274L97.2626 9.95949C97.1835 8.31933 97.14 6.97162 97.14 5.92429L95.3813 16.9074H93.4289L91.769 5.84129C91.769 6.76215 91.7137 8.07428 91.603 9.79348C91.5793 10.1887 91.5595 10.4733 91.5477 10.6669L91.1288 16.9074L88.4531 16.8877Z" fill="#0D204A"/>
<path d="M101.773 16.8877V3.36328H107.461V5.865H104.386V8.59993H107.176V11.0819H104.386V14.2437H107.461V16.8837L101.773 16.8877Z" fill="#0D204A"/>
<path d="M109.285 16.8877V3.36328H112.02L114.751 10.6472C114.83 10.8803 114.945 11.24 115.091 11.7261C115.237 12.2122 115.399 12.7774 115.585 13.4335C115.443 12.477 115.337 11.5983 115.269 10.7974C115.202 10.0069 115.166 9.25203 115.166 8.5604V3.36328H117.668V16.8877H115.166L112.202 9.33504C112.154 9.22438 112.024 8.76593 111.807 7.95573L111.573 7.08624C111.637 7.61188 111.684 8.20075 111.716 8.86077C111.747 9.52078 111.759 10.3033 111.759 11.2321V16.9193L109.285 16.8877Z" fill="#0D204A"/>
<path d="M121.067 16.8877V5.865H119.004V3.36328H125.849V5.865H123.798V16.8877H121.067Z" fill="#0D204A"/>
<path d="M127.182 16.8877V3.36328H129.988C131.476 3.36328 132.582 3.68605 133.304 4.33157C134.027 4.97973 134.39 5.96382 134.39 7.29176C134.422 7.82891 134.346 8.367 134.166 8.87413C133.986 9.38126 133.706 9.8471 133.343 10.244C132.951 10.6093 132.488 10.8909 131.983 11.0716C131.478 11.2523 130.942 11.3285 130.407 11.2953H130.039C129.956 11.2953 129.877 11.2953 129.806 11.2953V16.9074L127.182 16.8877ZM129.794 9.22832H129.94H130.083C130.324 9.24484 130.567 9.20891 130.793 9.12295C131.02 9.037 131.225 8.90305 131.395 8.73034C131.716 8.32872 131.876 7.82101 131.841 7.30756C131.883 6.79766 131.731 6.29071 131.414 5.88874C131.237 5.72303 131.027 5.59654 130.797 5.51754C130.568 5.43855 130.324 5.40881 130.083 5.43027C130.035 5.42712 129.988 5.42712 129.94 5.43027C129.892 5.43335 129.843 5.43335 129.794 5.43027V9.22832Z" fill="#0D204A"/>
<path d="M134 16.8877L137.162 3.36328H139.988L142.987 16.8877H140.28L139.826 14.5164H137.114L136.695 16.8877H134ZM137.604 12.4138H139.403C139.216 11.4679 139.048 10.4785 138.901 9.44571C138.753 8.41287 138.621 7.32205 138.506 6.17328C138.366 7.18504 138.222 8.21129 138.075 9.25203C137.927 10.2928 137.77 11.3467 137.604 12.4138Z" fill="#0D204A"/>
<path d="M143.559 16.4173V13.6113C143.858 13.8801 144.195 14.1038 144.559 14.2753C144.87 14.4212 145.208 14.4981 145.551 14.5005C145.944 14.5227 146.331 14.3925 146.63 14.1369C146.763 14.0119 146.867 13.8595 146.935 13.6903C147.004 13.5211 147.034 13.339 147.025 13.1568C147.025 12.643 146.67 12.0871 145.958 11.489C145.761 11.323 145.614 11.1926 145.515 11.0938C144.835 10.5332 144.259 9.85767 143.812 9.0979C143.493 8.47884 143.333 7.79035 143.346 7.09414C143.3 6.05907 143.654 5.04598 144.334 4.26435C144.66 3.90819 145.06 3.62722 145.505 3.44092C145.951 3.25461 146.432 3.16744 146.915 3.18541C147.292 3.18438 147.668 3.23897 148.029 3.34744C148.434 3.47101 148.824 3.64076 149.191 3.85334V6.22465C148.832 6.04493 148.463 5.88785 148.084 5.75434C147.86 5.67388 147.624 5.62985 147.385 5.62391C147.21 5.61745 147.035 5.64633 146.872 5.7088C146.708 5.77127 146.559 5.86607 146.432 5.98753C146.308 6.11332 146.21 6.26357 146.146 6.42885C146.082 6.59412 146.053 6.77086 146.061 6.94791C146.061 7.29016 146.157 7.62555 146.338 7.91618C146.711 8.41354 147.148 8.85998 147.638 9.24413C148.332 9.7817 148.925 10.4388 149.389 11.1846C149.664 11.7687 149.799 12.4087 149.784 13.054C149.812 13.5845 149.735 14.1154 149.556 14.6155C149.376 15.1156 149.099 15.575 148.74 15.9668C148.367 16.331 147.922 16.6138 147.433 16.7974C146.945 16.9811 146.424 17.0616 145.903 17.0339C145.476 17.0377 145.051 16.9859 144.638 16.8798C144.257 16.7824 143.893 16.6264 143.559 16.4173Z" fill="#0D204A"/>
<path d="M150.823 16.4173V13.6112C151.121 13.8817 151.458 14.1056 151.823 14.2752C152.132 14.4217 152.469 14.4986 152.811 14.5005C153.204 14.5226 153.59 14.3924 153.89 14.1369C154.023 14.0118 154.127 13.8594 154.195 13.6902C154.263 13.521 154.294 13.339 154.285 13.1567C154.285 12.6429 153.931 12.087 153.222 11.4889C153.024 11.3229 152.874 11.1925 152.775 11.0937C152.096 10.532 151.52 9.85671 151.072 9.09784C150.756 8.47775 150.598 7.78975 150.61 7.09407C150.563 6.05954 150.915 5.04651 151.594 4.26429C151.92 3.90834 152.32 3.62753 152.766 3.44124C153.211 3.25495 153.692 3.16764 154.174 3.18535C154.552 3.18432 154.927 3.23891 155.289 3.34738C155.702 3.47033 156.1 3.64007 156.475 3.85327V6.22459C156.114 6.0454 155.743 5.88834 155.364 5.75427C155.139 5.67382 154.903 5.62978 154.665 5.62384C154.485 5.61164 154.305 5.63789 154.137 5.70084C153.969 5.7638 153.816 5.86201 153.689 5.98889C153.561 6.11576 153.463 6.26836 153.399 6.43648C153.336 6.60459 153.309 6.78433 153.321 6.96364C153.32 7.30653 153.418 7.64244 153.601 7.93194C153.973 8.42949 154.409 8.87596 154.898 9.25987C155.592 9.79743 156.185 10.4546 156.649 11.2004C156.923 11.7844 157.059 12.4244 157.044 13.0698C157.072 13.5999 156.994 14.1304 156.816 14.6304C156.638 15.1303 156.362 15.59 156.004 15.9825C155.63 16.3464 155.184 16.629 154.695 16.8126C154.206 16.9963 153.684 17.0769 153.163 17.0496C152.736 17.0532 152.311 17.0014 151.898 16.8955C151.517 16.7932 151.154 16.6318 150.823 16.4173Z" fill="#0D204A"/>
<path d="M42.5293 38.581V25.0605H48.2165V27.5623H45.1496V30.2814H47.9161V32.7634H45.1496V35.9251H48.2244V38.581H42.5293Z" fill="#0D204A"/>
<path d="M50.043 38.581V25.0605H52.355C54.4444 25.0605 56.0029 25.6191 57.0304 26.7363C58.058 27.8534 58.5718 29.5516 58.5718 31.8307C58.6051 33.005 58.4132 34.1748 58.0066 35.277C57.6403 36.1915 57.0273 36.9864 56.236 37.5732C55.7581 37.944 55.2094 38.213 54.6236 38.3636C53.7847 38.5419 52.9277 38.6201 52.0704 38.5968L50.043 38.581ZM52.7107 36.0793H52.9202C53.348 36.1012 53.7743 36.0137 54.1588 35.8249C54.5434 35.6361 54.8734 35.3523 55.1176 35.0003C55.6235 34.281 55.8764 33.2337 55.8764 31.8662C55.8764 30.396 55.6314 29.3012 55.1413 28.5899C54.8881 28.2332 54.5477 27.9475 54.1526 27.76C53.7575 27.5725 53.3209 27.4895 52.8846 27.5188H52.7107V36.0793Z" fill="#0D204A"/>
<path d="M68.6133 25.0605V33.5538C68.6282 34.2915 68.5965 35.0294 68.5185 35.7631C68.4762 36.1369 68.3734 36.5013 68.2141 36.842C67.911 37.4659 67.411 37.9728 66.7914 38.2846C66.0392 38.6213 65.2198 38.7809 64.3963 38.7509C63.5703 38.78 62.7486 38.6205 61.9934 38.2846C61.3721 37.975 60.8716 37.4675 60.5706 36.842C60.4074 36.498 60.3019 36.1295 60.2584 35.7512C60.1808 35.0215 60.1491 34.2876 60.1635 33.5538V25.0605H62.8589V33.7554C62.8589 34.862 62.9722 35.5734 63.1988 35.8896C63.523 36.199 63.954 36.3717 64.4023 36.3717C64.8505 36.3717 65.2815 36.199 65.6057 35.8896C65.827 35.5655 65.9337 34.858 65.9337 33.7633V25.0685L68.6133 25.0605Z" fill="#0D204A"/>
<path d="M77.6172 38.4347C77.3621 38.5394 77.0974 38.6188 76.8268 38.6718C76.5664 38.7234 76.3017 38.7499 76.0363 38.7508C75.2401 38.7747 74.4487 38.6179 73.7218 38.2921C72.9948 37.9662 72.3511 37.4799 71.8391 36.8696C70.7588 35.6181 70.22 33.9753 70.2227 31.9412C70.2227 29.8334 70.7496 28.13 71.8035 26.831C72.2908 26.206 72.918 25.704 73.6346 25.3656C74.3513 25.0272 75.1374 24.8618 75.9296 24.8826C76.2278 24.8817 76.5255 24.9081 76.8189 24.9616C77.0904 25.0145 77.3555 25.0966 77.6093 25.2067V27.7361C77.3653 27.6367 77.1126 27.5599 76.8544 27.5068C76.6179 27.4569 76.3769 27.4317 76.1351 27.4318C75.6991 27.4276 75.2691 27.5343 74.8855 27.7416C74.5018 27.949 74.1771 28.2503 73.9417 28.6174C73.3396 29.5585 73.0441 30.6632 73.0959 31.7792C73.0468 32.871 73.3518 33.9495 73.9654 34.854C74.209 35.2205 74.5399 35.5207 74.9283 35.7277C75.3167 35.9346 75.7504 36.0418 76.1905 36.0396C76.4263 36.0395 76.6613 36.0103 76.89 35.9527C77.1362 35.8946 77.3769 35.8153 77.6093 35.7156L77.6172 38.4347Z" fill="#0D204A"/>
<path d="M78.1543 38.5815L81.3161 25.0571H84.1419L87.1297 38.5815H84.4343L83.9798 36.2102H81.2647L80.8497 38.5815H78.1543ZM81.7587 34.1076H83.553C83.3672 33.1631 83.2012 32.1711 83.055 31.1395C82.9088 30.108 82.7744 29.0133 82.6598 27.8632C82.5254 28.8749 82.3818 29.9012 82.229 30.9419C82.0828 31.9893 81.9247 33.0484 81.7587 34.1116V34.1076Z" fill="#0D204A"/>
<path d="M88.8736 38.581V27.5623H86.8066V25.0605H93.6518V27.5623H91.5848V38.581H88.8736Z" fill="#0D204A"/>
<path d="M95.0977 38.581V25.0605H97.8642V38.581H95.0977Z" fill="#0D204A"/>
<path d="M109.175 32.0168C109.175 34.0798 108.743 35.7174 107.879 36.9294C107.502 37.5007 106.987 37.9674 106.382 38.286C105.777 38.6046 105.1 38.7647 104.416 38.7513C103.726 38.7746 103.04 38.6182 102.428 38.2975C101.816 37.9768 101.297 37.5026 100.923 36.9215C100.087 35.7016 99.6712 34.0047 99.6738 31.831C99.6765 29.6573 100.098 27.9579 100.939 26.7327C101.323 26.1601 101.844 25.6916 102.453 25.3689C103.063 25.0463 103.743 24.8795 104.433 24.8834C105.123 24.8873 105.801 25.0618 106.407 25.3914C107.013 25.7209 107.528 26.1953 107.906 26.7722C108.752 28.0343 109.175 29.7825 109.175 32.0168ZM104.432 36.1745C104.771 36.1753 105.101 36.0718 105.378 35.878C105.655 35.6842 105.866 35.4095 105.982 35.0916C106.324 34.3697 106.495 33.2828 106.495 31.831C106.495 30.3793 106.324 29.2858 105.982 28.5507C105.864 28.2342 105.653 27.9612 105.376 27.7684C105.099 27.5756 104.77 27.4723 104.432 27.4723C104.095 27.4723 103.765 27.5756 103.488 27.7684C103.211 27.9612 103 28.2342 102.883 28.5507C102.543 29.27 102.373 30.3648 102.373 31.835C102.373 33.3052 102.543 34.3947 102.883 35.1035C102.998 35.4136 103.204 35.6817 103.474 35.8727C103.745 36.0638 104.066 36.169 104.397 36.1745H104.432Z" fill="#0D204A"/>
<path d="M110.824 38.581V25.0605H113.559L116.29 32.3405C116.369 32.5737 116.484 32.9333 116.63 33.4194C116.776 33.9056 116.938 34.4747 117.124 35.1307C116.982 34.1717 116.876 33.293 116.808 32.4946C116.741 31.7042 116.705 30.9493 116.705 30.2577V25.0605H119.207V38.581H116.705L113.741 31.0125C113.694 30.9019 113.563 30.4395 113.346 29.6332C113.247 29.2617 113.172 28.9693 113.113 28.7598C113.176 29.2855 113.223 29.8783 113.255 30.5343C113.286 31.1904 113.298 31.9769 113.298 32.9057V38.581H110.824Z" fill="#0D204A"/>
</svg>
