<svg width="39" height="43" viewBox="0 0 39 43" fill="none" xmlns="http://www.w3.org/2000/svg">
<path d="M1.8457 0V3.12617H10.9357V7.07836C10.9357 7.3415 10.9876 7.60208 11.0883 7.84519C11.189 8.08829 11.3366 8.30919 11.5226 8.49526C11.7087 8.68132 11.9296 8.8289 12.1727 8.9296C12.4158 9.0303 12.6764 9.08213 12.9395 9.08213H24.6696C24.9327 9.08213 25.1933 9.0303 25.4364 8.9296C25.6795 8.8289 25.9004 8.68132 26.0865 8.49526C26.2726 8.30919 26.4201 8.08829 26.5208 7.84519C26.6215 7.60208 26.6734 7.3415 26.6734 7.07836V3.12617H36.0598V0H1.8457Z" fill="white"/>
<path d="M4.877 17.5952V21.3103H2.33575V22.8911H4.877V26.705H3.55697C2.6136 26.705 1.70887 26.3303 1.0418 25.6632C0.374743 24.9961 0 24.0914 0 23.148V21.1957C0 20.2523 0.374743 19.3476 1.0418 18.6805C1.70887 18.0134 2.6136 17.6387 3.55697 17.6387L4.877 17.5952Z" fill="white"/>
<path d="M33.1631 17.5952V21.3103H35.7043V22.8911H33.1631V26.705H34.3487C35.3257 26.705 36.2625 26.3169 36.9533 25.6261C37.6441 24.9354 38.0322 23.9985 38.0322 23.0216V21.2984C38.0322 20.3215 37.6441 19.3846 36.9533 18.6938C36.2625 18.003 35.3257 17.615 34.3487 17.615L33.1631 17.5952Z" fill="white"/>
<path d="M23.4129 43C27.1517 42.2412 27.622 39.0913 27.6615 38.7395C27.6615 38.7395 27.6615 38.704 27.6615 38.6842V35.5225C27.6623 35.4099 27.7021 35.301 27.7742 35.2145C27.8463 35.128 27.9461 35.0692 28.0567 35.0482C30.9221 34.4712 31.5821 31.4556 31.6611 31.0486C31.6633 31.0196 31.6633 30.9906 31.6611 30.9616V17.6348C31.6611 17.6151 31.6611 17.5953 31.6611 17.5755C31.5979 17.0934 30.7324 11.3429 25.0531 10.5723H12.742C7.06269 11.3429 6.19716 17.0934 6.13392 17.5755C6.13392 17.5755 6.13392 17.6151 6.13392 17.6348V30.9537C6.13179 30.9827 6.13179 31.0117 6.13392 31.0407C6.21296 31.4359 6.87693 34.4633 9.73832 35.0403C9.84892 35.0613 9.94879 35.1201 10.0209 35.2066C10.093 35.2931 10.1328 35.4019 10.1335 35.5145V38.6763C10.1335 38.6763 10.1335 38.7119 10.1335 38.7316C10.1731 39.0834 10.6434 42.2333 14.3821 42.9921H14.4809H23.3022L23.4129 43Z" fill="white"/>
<path d="M18.9507 31.8627H25.6062C25.7341 31.8627 25.8567 31.8119 25.9471 31.7214C26.0375 31.631 26.0883 31.5084 26.0883 31.3805V30.1948C26.0881 29.8177 25.9929 29.4466 25.8117 29.1159L25.3216 28.2108C25.2144 28.0137 25.1638 27.7907 25.1754 27.5666V27.5152C25.1858 27.3377 25.2613 27.1702 25.3875 27.0448C25.5136 26.9194 25.6815 26.8449 25.8591 26.8355C27.2582 26.7446 27.6613 25.4048 27.7364 25.0965C27.7405 25.0584 27.7405 25.02 27.7364 24.9819V20.7214C27.7364 16.9115 24.3178 17.1052 24.3178 17.1052C21.5908 17.2553 21.156 19.3421 21.0928 20.2669C21.0838 20.3885 21.029 20.5022 20.9396 20.5851C20.8501 20.668 20.7326 20.7138 20.6106 20.7135H17.2671C17.1455 20.7138 17.0284 20.6678 16.9396 20.5848C16.8508 20.5019 16.7969 20.3882 16.7888 20.2669C16.7256 19.3342 16.2869 17.2474 13.5639 17.1052C13.5639 17.1052 10.1413 16.9115 10.1413 20.7214V24.97C10.1352 25.008 10.1352 25.0467 10.1413 25.0846C10.2164 25.3929 10.6155 26.7327 12.0146 26.8236C12.202 26.8214 12.3829 26.8925 12.5187 27.0217C12.6546 27.1508 12.7346 27.3279 12.7418 27.5152V27.5745C12.75 27.7988 12.6981 28.0212 12.5916 28.2187L12.0897 29.0961C11.9114 29.4279 11.8177 29.7985 11.817 30.1751V31.3607C11.817 31.4886 11.8678 31.6112 11.9582 31.7017C12.0486 31.7921 12.1713 31.8429 12.2992 31.8429L18.9507 31.8627Z" fill="#0083FF"/>
<path d="M11.9512 33.4435C11.8233 33.4435 11.7007 33.4943 11.6103 33.5847C11.5198 33.6752 11.469 33.7978 11.469 33.9257V38.1467C11.4446 39.0395 11.7755 39.9056 12.389 40.5547C13.0026 41.2038 13.8486 41.5829 14.7415 41.6088H23.1003C23.9932 41.5829 24.8392 41.2038 25.4528 40.5547C26.0663 39.9056 26.3972 39.0395 26.3727 38.1467V33.9099C26.3727 33.782 26.3219 33.6594 26.2315 33.5689C26.1411 33.4785 26.0185 33.4277 25.8906 33.4277L11.9512 33.4435Z" fill="#0083FF"/>
<path d="M35.056 3.54517V5.79002H34.4434V16.9826H36.6922V5.7663H36.0559V3.54517H35.056Z" fill="white"/>
<path d="M13.3422 22.6893C14.0582 22.6893 14.6385 22.1089 14.6385 21.393C14.6385 20.6771 14.0582 20.0967 13.3422 20.0967C12.6263 20.0967 12.0459 20.6771 12.0459 21.393C12.0459 22.1089 12.6263 22.6893 13.3422 22.6893Z" fill="white"/>
<path d="M24.4838 22.6893C25.1998 22.6893 25.7801 22.1089 25.7801 21.393C25.7801 20.6771 25.1998 20.0967 24.4838 20.0967C23.7679 20.0967 23.1875 20.6771 23.1875 21.393C23.1875 22.1089 23.7679 22.6893 24.4838 22.6893Z" fill="white"/>
<path d="M18.6705 25.4007L18.1646 24.8632C18.1343 24.8319 18.0981 24.8071 18.0581 24.7901C18.018 24.7731 17.9749 24.7644 17.9314 24.7644H15.6668C15.5819 24.7644 15.5005 24.7981 15.4404 24.8582C15.3804 24.9182 15.3467 24.9996 15.3467 25.0845V25.7169C15.3467 25.8018 15.3804 25.8832 15.4404 25.9433C15.5005 26.0033 15.5819 26.037 15.6668 26.037H17.2872C17.3497 26.0363 17.4111 26.0544 17.4632 26.0889C17.5153 26.1234 17.5559 26.1728 17.5797 26.2307L18.2476 27.8116C18.2722 27.8688 18.313 27.9176 18.3649 27.952C18.4169 27.9864 18.4778 28.0049 18.5401 28.0052H19.291C19.3535 28.0059 19.4148 27.9879 19.467 27.9533C19.5191 27.9188 19.5597 27.8694 19.5834 27.8116L20.2514 26.2307C20.276 26.1734 20.3167 26.1246 20.3687 26.0902C20.4206 26.0558 20.4815 26.0373 20.5438 26.037H22.1682C22.21 26.037 22.2515 26.0287 22.2901 26.0126C22.3287 25.9965 22.3637 25.9728 22.3931 25.943C22.4226 25.9132 22.4458 25.8779 22.4614 25.8391C22.4771 25.8003 22.4849 25.7588 22.4843 25.7169V25.0845C22.4849 25.0427 22.4771 25.0011 22.4614 24.9623C22.4458 24.9235 22.4226 24.8882 22.3931 24.8584C22.3637 24.8286 22.3287 24.805 22.2901 24.7889C22.2515 24.7727 22.21 24.7644 22.1682 24.7644H19.8838C19.8409 24.7642 19.7983 24.7729 19.7589 24.7899C19.7194 24.8069 19.6839 24.8319 19.6546 24.8632L19.1487 25.4007C19.1183 25.4339 19.0814 25.4604 19.0402 25.4785C18.9991 25.4967 18.9546 25.506 18.9096 25.506C18.8646 25.506 18.8201 25.4967 18.7789 25.4785C18.7378 25.4604 18.7008 25.4339 18.6705 25.4007Z" fill="white"/>
</svg>
